<svg id="Layer_1" data-name="Layer 1" xmlns="http://www.w3.org/2000/svg" viewBox="0 0 64 64"><title>SVG_Artboards</title><polygon points="42.04 11.6 32 21.64 21.96 11.6 11.6 21.96 21.64 32 11.6 42.04 21.96 52.4 32 42.36 42.04 52.4 52.4 42.04 42.36 32 52.4 21.96 42.04 11.6" style="fill:#ec1c24"/><path d="M42,53.53a1.13,1.13,0,0,1-.8-.33L32,44,22.76,53.2a1.13,1.13,0,0,1-1.6,0L10.8,42.84a1.13,1.13,0,0,1,0-1.6L20,32,10.8,22.76a1.13,1.13,0,0,1,0-1.6L21.16,10.8a1.13,1.13,0,0,1,1.6,0L32,20l9.24-9.24a1.13,1.13,0,0,1,1.6,0L53.2,21.16a1.13,1.13,0,0,1,0,1.6L44,32l9.24,9.24a1.13,1.13,0,0,1,0,1.6L42.84,53.2A1.13,1.13,0,0,1,42,53.53ZM32,41.24a1.13,1.13,0,0,1,.8.33L42,50.81,50.81,42,41.57,32.8a1.13,1.13,0,0,1,0-1.6L50.81,22,42,13.19,32.8,22.43a1.13,1.13,0,0,1-1.6,0L22,13.19,13.19,22l9.24,9.24a1.13,1.13,0,0,1,0,1.6L13.19,42,22,50.81l9.24-9.24A1.13,1.13,0,0,1,32,41.24Z" style="fill:#6f6f59"/></svg>
