<svg id="Layer_1" data-name="Layer 1" xmlns="http://www.w3.org/2000/svg" viewBox="0 0 64 64"><title>SVG_Artboards</title><polygon points="56.54 24.28 39.72 24.28 39.72 7.46 24.28 7.46 24.28 24.28 7.46 24.28 7.46 39.72 24.28 39.72 24.28 56.54 39.72 56.54 39.72 39.72 56.54 39.72 56.54 24.28" style="fill:#2896d3"/><path d="M39.72,57.67H24.28a1.12,1.12,0,0,1-1.13-1.13V40.85H7.46a1.12,1.12,0,0,1-1.13-1.13V24.28a1.12,1.12,0,0,1,1.13-1.13H23.15V7.46a1.12,1.12,0,0,1,1.13-1.13H39.72a1.12,1.12,0,0,1,1.13,1.13V23.15H56.54a1.12,1.12,0,0,1,1.13,1.13V39.72a1.12,1.12,0,0,1-1.13,1.13H40.85V56.54A1.12,1.12,0,0,1,39.72,57.67ZM25.4,55.42H38.6V39.72a1.12,1.12,0,0,1,1.12-1.12h15.7V25.4H39.72a1.12,1.12,0,0,1-1.12-1.12V8.58H25.4v15.7a1.12,1.12,0,0,1-1.12,1.12H8.58V38.6h15.7a1.12,1.12,0,0,1,1.12,1.12Z" style="fill:#6f6f59"/></svg>
