<svg id="Layer_1" data-name="Layer 1" xmlns="http://www.w3.org/2000/svg" viewBox="0 0 64 64"><title>SVG_Artboards</title><polygon points="43.36 25.43 32.01 42.56 20.64 25.43 43.36 25.43" style="fill:#2896d3"/><path d="M32,43.69a1.14,1.14,0,0,1-.94-.5L19.7,26.06a1.12,1.12,0,0,1,.94-1.75H43.36a1.12,1.12,0,0,1,.94,1.75L33,43.19a1.15,1.15,0,0,1-.94.5ZM22.74,26.56l9.27,14,9.25-14Z" style="fill:#6f6f59"/><path d="M32,3A29,29,0,1,0,61,32,29,29,0,0,0,32,3Zm0,52.66A23.63,23.63,0,1,1,55.63,32,23.63,23.63,0,0,1,32,55.63Z" style="fill:#2896d3"/><path d="M32,62.16A30.16,30.16,0,1,1,62.16,32,30.19,30.19,0,0,1,32,62.16ZM32,4.09A27.91,27.91,0,1,0,59.91,32,27.94,27.94,0,0,0,32,4.09Zm0,52.66A24.75,24.75,0,1,1,56.75,32,24.77,24.77,0,0,1,32,56.75ZM32,9.5A22.5,22.5,0,1,0,54.5,32,22.52,22.52,0,0,0,32,9.5Z" style="fill:#6f6f59"/></svg>
