<?xml version="1.0" standalone="yes"?>

<svg version="1.1" viewBox="0.0 0.0 375.0 374.0" fill="none" stroke="none" stroke-linecap="square" stroke-miterlimit="10" xmlns="http://www.w3.org/2000/svg" xmlns:xlink="http://www.w3.org/1999/xlink"><clipPath id="p.0"><path d="m0 0l375.0 0l0 374.0l-375.0 0l0 -374.0z" clip-rule="nonzero"></path></clipPath><g clip-path="url(#p.0)"><path fill="#000000" fill-opacity="0.0" d="m0 0l375.74014 0l0 374.24933l-375.74014 0z" fill-rule="nonzero"></path><path fill="#000000" fill-opacity="0.0" d="m0 185.07086l0 0c0 -102.211815 82.85905 -185.07086 185.07086 -185.07086l0 0c49.083847 0 96.15735 19.498482 130.86487 54.206c34.70752 34.70752 54.205994 81.78101 54.205994 130.86487l0 0c0 102.21182 -82.85904 185.07086 -185.07086 185.07086l0 0c-102.211815 0 -185.07086 -82.85904 -185.07086 -185.07086z" fill-rule="nonzero"></path><path stroke="#000000" stroke-width="2.0" stroke-linejoin="round" stroke-linecap="butt" d="m0 185.07086l0 0c0 -102.211815 82.85905 -185.07086 185.07086 -185.07086l0 0c49.083847 0 96.15735 19.498482 130.86487 54.206c34.70752 34.70752 54.205994 81.78101 54.205994 130.86487l0 0c0 102.21182 -82.85904 185.07086 -185.07086 185.07086l0 0c-102.211815 0 -185.07086 -82.85904 -185.07086 -185.07086z" fill-rule="nonzero"></path><path fill="#a61c00" d="m41.418423 108.60888l20.02042 152.93295l80.08168 0l-20.020424 -152.93295z" fill-rule="nonzero"></path><path stroke="#000000" stroke-width="2.0" stroke-linejoin="round" stroke-linecap="butt" d="m41.418423 108.60888l20.02042 152.93295l80.08168 0l-20.020424 -152.93295z" fill-rule="nonzero"></path><path fill="#38761d" d="m141.52052 108.60888l20.020416 152.93295l80.081665 0l-20.020416 -152.93295z" fill-rule="nonzero"></path><path stroke="#000000" stroke-width="2.0" stroke-linejoin="round" stroke-linecap="butt" d="m141.52052 108.60888l20.020416 152.93295l80.081665 0l-20.020416 -152.93295z" fill-rule="nonzero"></path><path fill="#6aa84f" d="m122.05652 261.54184l20.020416 -152.93295l80.08168 0l-20.020416 152.93295z" fill-rule="nonzero"></path><path stroke="#000000" stroke-width="2.0" stroke-linejoin="round" stroke-linecap="butt" d="m122.05652 261.54184l20.020416 -152.93295l80.08168 0l-20.020416 152.93295z" fill-rule="nonzero"></path><path fill="#1155cc" d="m228.6466 261.54184l20.020416 -152.93295l80.081696 0l-20.020447 152.93295z" fill-rule="nonzero"></path><path stroke="#000000" stroke-width="2.0" stroke-linejoin="round" stroke-linecap="butt" d="m228.6466 261.54184l20.020416 -152.93295l80.081696 0l-20.020447 152.93295z" fill-rule="nonzero"></path><path fill="#000000" fill-opacity="0.0" d="m24.827597 273.6208l320.47244 0l0 48.126007l-320.47244 0z" fill-rule="nonzero"></path><path fill="#000000" d="m77.78257 288.54318q0 1.25 -0.46875 2.484375q-0.46875 1.21875 -1.453125 2.1875q-0.984375 0.96875 -2.515625 1.578125q-1.53125 0.59375 -3.65625 0.59375l-2.53125 0l0 7.328125l-2.78125 0l0 -20.421875l5.75 0q1.515625 0 2.90625 0.34375q1.390625 0.328125 2.4375 1.078125q1.0625 0.75 1.6875 1.9375q0.625 1.1875 0.625 2.890625zm-2.890625 0.125q0 -1.96875 -1.296875 -3.015625q-1.28125 -1.046875 -3.59375 -1.046875l-2.84375 0l0 8.40625l2.59375 0q2.46875 0 3.796875 -1.078125q1.34375 -1.078125 1.34375 -3.265625zm19.71875 14.046875l-2.4375 0l-0.09375 -2.53125q-0.703125 0.8125 -1.34375 1.359375q-0.625 0.53125 -1.25 0.859375q-0.625 0.328125 -1.265625 0.453125q-0.625 0.140625 -1.328125 0.140625q-2.421875 0 -3.65625 -1.421875q-1.234375 -1.421875 -1.234375 -4.296875l0 -10.25l2.71875 0l0 10.03125q0 3.609375 2.71875 3.609375q0.5 0 0.96875 -0.140625q0.484375 -0.15625 1.0 -0.515625q0.53125 -0.375 1.125 -1.0q0.609375 -0.625 1.359375 -1.578125l0 -10.40625l2.71875 0l0 15.6875zm17.40625 -4.28125q0 0.828125 -0.28125 1.484375q-0.28125 0.65625 -0.765625 1.171875q-0.484375 0.5 -1.125 0.859375q-0.640625 0.359375 -1.375 0.59375q-0.71875 0.234375 -1.484375 0.34375q-0.765625 0.109375 -1.5 0.109375q-1.59375 0 -2.9375 -0.140625q-1.328125 -0.140625 -2.609375 -0.453125l0 -2.5q1.375 0.390625 2.734375 0.59375q1.359375 0.203125 2.703125 0.203125q1.953125 0 2.890625 -0.53125q0.9375 -0.53125 0.9375 -1.515625q0 -0.421875 -0.15625 -0.75q-0.140625 -0.34375 -0.53125 -0.640625q-0.390625 -0.3125 -1.21875 -0.640625q-0.8125 -0.328125 -2.234375 -0.75q-1.0625 -0.3125 -1.96875 -0.703125q-0.890625 -0.40625 -1.546875 -0.953125q-0.65625 -0.546875 -1.03125 -1.28125q-0.375 -0.734375 -0.375 -1.734375q0 -0.65625 0.296875 -1.4375q0.3125 -0.78125 1.046875 -1.453125q0.734375 -0.671875 1.984375 -1.109375q1.25 -0.453125 3.125 -0.453125q0.921875 0 2.046875 0.109375q1.125 0.09375 2.34375 0.34375l0 2.421875q-1.28125 -0.3125 -2.4375 -0.453125q-1.140625 -0.15625 -1.984375 -0.15625q-1.015625 0 -1.71875 0.15625q-0.6875 0.15625 -1.125 0.4375q-0.421875 0.265625 -0.609375 0.640625q-0.1875 0.359375 -0.1875 0.78125q0 0.421875 0.15625 0.765625q0.171875 0.34375 0.609375 0.671875q0.453125 0.3125 1.25 0.640625q0.796875 0.3125 2.078125 0.6875q1.390625 0.40625 2.34375 0.859375q0.953125 0.4375 1.546875 0.984375q0.59375 0.546875 0.84375 1.234375q0.265625 0.6875 0.265625 1.5625zm17.781242 4.28125l-2.7187424 0l0 -10.015625q0 -1.8125 -0.6875 -2.703125q-0.671875 -0.90625 -1.9375 -0.90625q-0.546875 0 -1.03125 0.15625q-0.46875 0.140625 -0.984375 0.515625q-0.515625 0.359375 -1.125 0.984375q-0.609375 0.625 -1.40625 1.5625l0 10.40625l-2.71875 0l0 -22.078125l2.71875 0l0 6.390625l-0.09375 2.46875q0.640625 -0.765625 1.25 -1.28125q0.625 -0.53125 1.234375 -0.859375q0.625 -0.328125 1.265625 -0.46875q0.640625 -0.140625 1.328125 -0.140625q2.34375 0 3.6249924 1.4375q1.28125 1.421875 1.28125 4.296875l0 10.234375zm35.21875 -0.21875q-0.921875 0.234375 -1.90625 0.328125q-0.984375 0.109375 -2.0 0.109375q-2.953125 0 -4.40625 -1.328125q-1.453125 -1.34375 -1.453125 -4.109375l0 -8.1875l-4.390625 0l0 -2.28125l4.390625 0l0 -4.3125l2.71875 -0.703125l0 5.015625l7.046875 0l0 2.28125l-7.046875 0l0 7.96875q0 1.6875 0.890625 2.53125q0.90625 0.828125 2.65625 0.828125q0.75 0 1.640625 -0.109375q0.890625 -0.125 1.859375 -0.375l0 2.34375zm18.609375 -7.75q0 1.828125 -0.515625 3.359375q-0.515625 1.515625 -1.484375 2.609375q-0.96875 1.078125 -2.359375 1.6875q-1.390625 0.59375 -3.15625 0.59375q-1.6875 0 -3.03125 -0.515625q-1.328125 -0.53125 -2.265625 -1.546875q-0.921875 -1.015625 -1.421875 -2.515625q-0.484375 -1.5 -0.484375 -3.453125q0 -1.828125 0.515625 -3.328125q0.515625 -1.515625 1.484375 -2.59375q0.96875 -1.09375 2.359375 -1.6875q1.390625 -0.609375 3.15625 -0.609375q1.6875 0 3.015625 0.53125q1.34375 0.515625 2.265625 1.53125q0.9375 1.0 1.421875 2.5q0.5 1.5 0.5 3.4375zm-2.78125 0.125q0 -1.453125 -0.328125 -2.53125q-0.3125 -1.09375 -0.90625 -1.8125q-0.59375 -0.734375 -1.453125 -1.09375q-0.84375 -0.375 -1.890625 -0.375q-1.21875 0 -2.09375 0.484375q-0.859375 0.46875 -1.421875 1.265625q-0.546875 0.796875 -0.8125 1.859375q-0.25 1.046875 -0.25 2.203125q0 1.453125 0.3125 2.546875q0.328125 1.09375 0.921875 1.828125q0.59375 0.71875 1.4375 1.09375q0.84375 0.359375 1.90625 0.359375q1.21875 0 2.078125 -0.46875q0.875 -0.484375 1.421875 -1.28125q0.5625 -0.796875 0.8125 -1.84375q0.265625 -1.0625 0.265625 -2.234375zm37.390625 2.3125q0 1.453125 -0.59375 2.546875q-0.59375 1.09375 -1.65625 1.828125q-1.0625 0.71875 -2.5625 1.078125q-1.484375 0.359375 -3.28125 0.359375q-0.8125 0 -1.625 -0.0625q-0.796875 -0.0625 -1.546875 -0.15625q-0.734375 -0.09375 -1.390625 -0.21875q-0.65625 -0.125 -1.1875 -0.265625l0 -2.6875q1.171875 0.4375 2.625 0.6875q1.46875 0.25 3.328125 0.25q1.34375 0 2.28125 -0.203125q0.953125 -0.21875 1.546875 -0.625q0.609375 -0.421875 0.875 -1.015625q0.28125 -0.59375 0.28125 -1.359375q0 -0.828125 -0.46875 -1.40625q-0.453125 -0.59375 -1.203125 -1.046875q-0.75 -0.46875 -1.71875 -0.84375q-0.953125 -0.390625 -1.953125 -0.796875q-1.0 -0.40625 -1.96875 -0.875q-0.953125 -0.484375 -1.703125 -1.125q-0.75 -0.65625 -1.21875 -1.53125q-0.453125 -0.875 -0.453125 -2.078125q0 -1.046875 0.4375 -2.0625q0.4375 -1.015625 1.359375 -1.796875q0.921875 -0.796875 2.359375 -1.28125q1.453125 -0.484375 3.453125 -0.484375q0.515625 0 1.109375 0.046875q0.609375 0.046875 1.21875 0.140625q0.625 0.078125 1.21875 0.1875q0.609375 0.109375 1.125 0.234375l0 2.5q-1.203125 -0.34375 -2.40625 -0.515625q-1.203125 -0.1875 -2.328125 -0.1875q-2.390625 0 -3.515625 0.796875q-1.125 0.796875 -1.125 2.140625q0 0.828125 0.453125 1.421875q0.46875 0.59375 1.21875 1.0625q0.75 0.46875 1.703125 0.859375q0.96875 0.375 1.96875 0.78125q1.0 0.40625 1.953125 0.890625q0.96875 0.484375 1.71875 1.15625q0.75 0.65625 1.203125 1.546875q0.46875 0.890625 0.46875 2.109375zm17.15625 5.3125q-0.921875 0.234375 -1.90625 0.328125q-0.984375 0.109375 -2.0 0.109375q-2.953125 0 -4.40625 -1.328125q-1.453125 -1.34375 -1.453125 -4.109375l0 -8.1875l-4.390625 0l0 -2.28125l4.390625 0l0 -4.3125l2.71875 -0.703125l0 5.015625l7.046875 0l0 2.28125l-7.046875 0l0 7.96875q0 1.6875 0.890625 2.53125q0.90625 0.828125 2.65625 0.828125q0.75 0 1.640625 -0.109375q0.890625 -0.125 1.859375 -0.375l0 2.34375zm15.03125 0.21875l-0.0625 -2.109375q-1.28125 1.265625 -2.609375 1.828125q-1.3125 0.5625 -2.765625 0.5625q-1.34375 0 -2.296875 -0.34375q-0.953125 -0.34375 -1.578125 -0.9375q-0.609375 -0.609375 -0.90625 -1.421875q-0.28125 -0.8125 -0.28125 -1.765625q0 -2.359375 1.75 -3.6875q1.765625 -1.34375 5.203125 -1.34375l3.25 0l0 -1.375q0 -1.390625 -0.890625 -2.21875q-0.890625 -0.84375 -2.71875 -0.84375q-1.328125 0 -2.625 0.296875q-1.28125 0.296875 -2.65625 0.84375l0 -2.453125q0.515625 -0.1875 1.140625 -0.359375q0.640625 -0.1875 1.34375 -0.328125q0.703125 -0.140625 1.46875 -0.21875q0.765625 -0.09375 1.546875 -0.09375q1.421875 0 2.5625 0.3125q1.140625 0.3125 1.921875 0.953125q0.796875 0.640625 1.21875 1.609375q0.421875 0.96875 0.421875 2.28125l0 10.8125l-2.4375 0zm-0.296875 -7.140625l-3.453125 0q-1.015625 0 -1.75 0.203125q-0.734375 0.203125 -1.203125 0.578125q-0.46875 0.375 -0.703125 0.90625q-0.21875 0.515625 -0.21875 1.171875q0 0.453125 0.140625 0.875q0.140625 0.40625 0.453125 0.734375q0.3125 0.3125 0.8125 0.5q0.5 0.1875 1.21875 0.1875q0.9375 0 2.140625 -0.5625q1.21875 -0.578125 2.5625 -1.8125l0 -2.78125zm8.453125 -8.546875l2.484375 0l0.078125 2.890625q1.390625 -1.671875 2.734375 -2.421875q1.359375 -0.75 2.734375 -0.75q2.4375 0 3.6875 1.578125q1.265625 1.578125 1.171875 4.6875l-2.75 0q0.046875 -2.0625 -0.609375 -2.984375q-0.640625 -0.9375 -1.890625 -0.9375q-0.546875 0 -1.109375 0.203125q-0.546875 0.1875 -1.140625 0.625q-0.578125 0.421875 -1.234375 1.09375q-0.65625 0.671875 -1.40625 1.625l0 10.078125l-2.75 0l0 -15.6875zm29.59375 15.46875q-0.921875 0.234375 -1.90625 0.328125q-0.984375 0.109375 -2.0 0.109375q-2.953125 0 -4.40625 -1.328125q-1.453125 -1.34375 -1.453125 -4.109375l0 -8.1875l-4.390625 0l0 -2.28125l4.390625 0l0 -4.3125l2.71875 -0.703125l0 5.015625l7.046875 0l0 2.28125l-7.046875 0l0 7.96875q0 1.6875 0.890625 2.53125q0.90625 0.828125 2.65625 0.828125q0.75 0 1.640625 -0.109375q0.890625 -0.125 1.859375 -0.375l0 2.34375zm12.859375 -21.859375l-0.421875 16.09375l-2.40625 0l-0.46875 -16.09375l3.296875 0zm-1.640625 18.234375q0.421875 0 0.796875 0.171875q0.375 0.15625 0.640625 0.4375q0.28125 0.28125 0.4375 0.671875q0.171875 0.375 0.171875 0.796875q0 0.421875 -0.171875 0.796875q-0.15625 0.375 -0.4375 0.65625q-0.265625 0.265625 -0.640625 0.421875q-0.375 0.171875 -0.796875 0.171875q-0.4375 0 -0.8125 -0.171875q-0.375 -0.15625 -0.65625 -0.421875q-0.28125 -0.28125 -0.453125 -0.65625q-0.15625 -0.375 -0.15625 -0.796875q0 -0.421875 0.15625 -0.796875q0.171875 -0.390625 0.453125 -0.671875q0.28125 -0.28125 0.65625 -0.4375q0.375 -0.171875 0.8125 -0.171875z" fill-rule="nonzero"></path><path fill="#000000" fill-opacity="0.0" d="m126.67949 79.563675l116.7874 0l0 38.92914l-116.7874 0z" fill-rule="nonzero"></path><path fill="#000000" d="m141.99858 103.42668l0 -9.3125l3.515625 0q0.921875 0 1.40625 0.09375q0.6875 0.109375 1.15625 0.4375q0.46875 0.3125 0.75 0.890625q0.28125 0.578125 0.28125 1.28125q0 1.1875 -0.765625 2.015625q-0.75 0.8125 -2.71875 0.8125l-2.390625 0l0 3.78125l-1.234375 0zm1.234375 -4.875l2.40625 0q1.1875 0 1.6875 -0.4375q0.515625 -0.453125 0.515625 -1.265625q0 -0.578125 -0.296875 -0.984375q-0.296875 -0.421875 -0.78125 -0.5625q-0.3125 -0.078125 -1.15625 -0.078125l-2.375 0l0 3.328125zm11.90538 4.046875q-0.625 0.53125 -1.21875 0.765625q-0.578125 0.21875 -1.25 0.21875q-1.125 0 -1.71875 -0.546875q-0.59375 -0.546875 -0.59375 -1.390625q0 -0.484375 0.21875 -0.890625q0.234375 -0.421875 0.59375 -0.671875q0.375 -0.25 0.828125 -0.375q0.328125 -0.078125 1.015625 -0.171875q1.375 -0.15625 2.03125 -0.390625q0.015625 -0.234375 0.015625 -0.296875q0 -0.703125 -0.328125 -0.984375q-0.4375 -0.390625 -1.296875 -0.390625q-0.8125 0 -1.203125 0.28125q-0.375 0.28125 -0.5625 1.0l-1.109375 -0.140625q0.140625 -0.71875 0.484375 -1.15625q0.359375 -0.453125 1.015625 -0.6875q0.671875 -0.234375 1.53125 -0.234375q0.875 0 1.40625 0.203125q0.546875 0.203125 0.796875 0.515625q0.25 0.296875 0.359375 0.765625q0.046875 0.296875 0.046875 1.0625l0 1.515625q0 1.59375 0.078125 2.015625q0.078125 0.421875 0.28125 0.8125l-1.1875 0q-0.171875 -0.359375 -0.234375 -0.828125zm-0.09375 -2.5625q-0.625 0.265625 -1.859375 0.4375q-0.703125 0.109375 -1.0 0.234375q-0.296875 0.125 -0.453125 0.375q-0.15625 0.234375 -0.15625 0.53125q0 0.453125 0.34375 0.765625q0.34375 0.296875 1.015625 0.296875q0.65625 0 1.171875 -0.28125q0.515625 -0.296875 0.765625 -0.796875q0.171875 -0.375 0.171875 -1.140625l0 -0.421875zm3.0999756 3.390625l0 -6.734375l1.03125 0l0 1.015625q0.390625 -0.71875 0.71875 -0.9375q0.34375 -0.234375 0.734375 -0.234375q0.578125 0 1.171875 0.359375l-0.390625 1.0625q-0.421875 -0.25 -0.828125 -0.25q-0.375 0 -0.6875 0.234375q-0.296875 0.21875 -0.421875 0.625q-0.1875 0.609375 -0.1875 1.328125l0 3.53125l-1.140625 0zm8.84462 -0.828125q-0.625 0.53125 -1.21875 0.765625q-0.578125 0.21875 -1.25 0.21875q-1.125 0 -1.71875 -0.546875q-0.59375 -0.546875 -0.59375 -1.390625q0 -0.484375 0.21875 -0.890625q0.234375 -0.421875 0.59375 -0.671875q0.375 -0.25 0.828125 -0.375q0.328125 -0.078125 1.015625 -0.171875q1.375 -0.15625 2.03125 -0.390625q0.015625 -0.234375 0.015625 -0.296875q0 -0.703125 -0.328125 -0.984375q-0.4375 -0.390625 -1.296875 -0.390625q-0.8125 0 -1.203125 0.28125q-0.375 0.28125 -0.5625 1.0l-1.109375 -0.140625q0.140625 -0.71875 0.484375 -1.15625q0.359375 -0.453125 1.015625 -0.6875q0.671875 -0.234375 1.53125 -0.234375q0.875 0 1.40625 0.203125q0.546875 0.203125 0.796875 0.515625q0.25 0.296875 0.359375 0.765625q0.046875 0.296875 0.046875 1.0625l0 1.515625q0 1.59375 0.078125 2.015625q0.078125 0.421875 0.28125 0.8125l-1.1875 0q-0.171875 -0.359375 -0.234375 -0.828125zm-0.09375 -2.5625q-0.625 0.265625 -1.859375 0.4375q-0.703125 0.109375 -1.0 0.234375q-0.296875 0.125 -0.453125 0.375q-0.15625 0.234375 -0.15625 0.53125q0 0.453125 0.34375 0.765625q0.34375 0.296875 1.015625 0.296875q0.65625 0 1.171875 -0.28125q0.515625 -0.296875 0.765625 -0.796875q0.171875 -0.375 0.171875 -1.140625l0 -0.421875zm5.9124756 3.390625l-3.59375 -9.3125l1.328125 0l2.421875 6.765625q0.28125 0.8125 0.484375 1.53125q0.21875 -0.765625 0.5 -1.53125l2.515625 -6.765625l1.25 0l-3.640625 9.3125l-1.265625 0zm6.0928802 -7.984375l0 -1.328125l1.140625 0l0 1.328125l-1.140625 0zm0 7.984375l0 -6.734375l1.140625 0l0 6.734375l-1.140625 0zm7.570465 -2.171875l1.1875 0.140625q-0.28125 1.046875 -1.046875 1.625q-0.75 0.5625 -1.921875 0.5625q-1.484375 0 -2.359375 -0.90625q-0.859375 -0.921875 -0.859375 -2.5625q0 -1.703125 0.875 -2.640625q0.890625 -0.9375 2.28125 -0.9375q1.359375 0 2.203125 0.921875q0.859375 0.921875 0.859375 2.578125q0 0.109375 0 0.3125l-5.03125 0q0.0625 1.109375 0.625 1.703125q0.5625 0.59375 1.40625 0.59375q0.640625 0 1.078125 -0.328125q0.453125 -0.34375 0.703125 -1.0625zm-3.75 -1.84375l3.765625 0q-0.078125 -0.859375 -0.4375 -1.28125q-0.546875 -0.65625 -1.40625 -0.65625q-0.796875 0 -1.328125 0.53125q-0.53125 0.515625 -0.59375 1.40625zm7.7874756 4.015625l-2.0625 -6.734375l1.1875 0l1.078125 3.890625l0.390625 1.4375q0.03125 -0.109375 0.359375 -1.390625l1.0625 -3.9375l1.171875 0l1.015625 3.90625l0.34375 1.28125l0.375 -1.296875l1.15625 -3.890625l1.109375 0l-2.109375 6.734375l-1.171875 0l-1.078125 -4.03125l-0.265625 -1.15625l-1.359375 5.1875l-1.203125 0zm7.5314026 0.15625l2.703125 -9.625l0.90625 0l-2.6875 9.625l-0.921875 0zm6.3279877 -0.15625l-2.46875 -9.3125l1.265625 0l1.421875 6.109375q0.21875 0.953125 0.390625 1.90625q0.359375 -1.5 0.421875 -1.71875l1.765625 -6.296875l1.484375 0l1.328125 4.71875q0.5 1.75 0.734375 3.296875q0.171875 -0.890625 0.453125 -2.03125l1.46875 -5.984375l1.234375 0l-2.546875 9.3125l-1.1875 0l-1.96875 -7.09375q-0.25 -0.890625 -0.296875 -1.09375q-0.140625 0.640625 -0.265625 1.09375l-1.96875 7.09375l-1.265625 0zm15.423477 -2.171875l1.1875 0.140625q-0.28125 1.046875 -1.046875 1.625q-0.75 0.5625 -1.921875 0.5625q-1.484375 0 -2.359375 -0.90625q-0.859375 -0.921875 -0.859375 -2.5625q0 -1.703125 0.875 -2.640625q0.890625 -0.9375 2.28125 -0.9375q1.359375 0 2.203125 0.921875q0.859375 0.921875 0.859375 2.578125q0 0.109375 0 0.3125l-5.03125 0q0.0625 1.109375 0.625 1.703125q0.5625 0.59375 1.40625 0.59375q0.640625 0 1.078125 -0.328125q0.453125 -0.34375 0.703125 -1.0625zm-3.75 -1.84375l3.765625 0q-0.078125 -0.859375 -0.4375 -1.28125q-0.546875 -0.65625 -1.40625 -0.65625q-0.796875 0 -1.328125 0.53125q-0.53125 0.515625 -0.59375 1.40625zm7.5999756 4.015625l-1.0625 0l0 -9.3125l1.15625 0l0 3.328125q0.71875 -0.90625 1.84375 -0.90625q0.625 0 1.171875 0.25q0.5625 0.25 0.921875 0.703125q0.359375 0.453125 0.5625 1.09375q0.203125 0.640625 0.203125 1.375q0 1.734375 -0.859375 2.6875q-0.859375 0.9375 -2.0625 0.9375q-1.1875 0 -1.875 -1.0l0 0.84375zm-0.015625 -3.421875q0 1.21875 0.34375 1.75q0.53125 0.890625 1.453125 0.890625q0.75 0 1.296875 -0.65625q0.546875 -0.65625 0.546875 -1.9375q0 -1.328125 -0.53125 -1.953125q-0.515625 -0.625 -1.265625 -0.625q-0.75 0 -1.296875 0.65625q-0.546875 0.640625 -0.546875 1.875z" fill-rule="nonzero"></path></g></svg>

