<svg id="Layer_1" data-name="Layer 1" xmlns="http://www.w3.org/2000/svg" viewBox="0 0 64 64"><title>SVG_Artboards</title><path d="M57,38.43l-5.15-3.91A20.06,20.06,0,0,0,52,32.06a19.8,19.8,0,0,0-.2-2.69l5.11-4A1.88,1.88,0,0,0,57.42,23l-4.88-8.42a1.88,1.88,0,0,0-2.35-.8l-6,2.46a20.12,20.12,0,0,0-4.56-2.65l-.87-6.39a1.89,1.89,0,0,0-1.87-1.63H27.18A1.9,1.9,0,0,0,25.3,7.17l-.87,6.39a20.27,20.27,0,0,0-4.74,2.78l-6-2.39a1.89,1.89,0,0,0-2.35.83L6.56,23.25a1.88,1.88,0,0,0,.5,2.43l5.15,3.91A20.08,20.08,0,0,0,12,32.06a19.77,19.77,0,0,0,.2,2.68l-5.11,4a1.89,1.89,0,0,0-.47,2.44l4.88,8.42a1.9,1.9,0,0,0,2.35.8l6-2.46a19.72,19.72,0,0,0,4.56,2.64l.87,6.39a1.9,1.9,0,0,0,1.88,1.64h9.73a1.89,1.89,0,0,0,1.87-1.64l.87-6.39a19.93,19.93,0,0,0,4.74-2.78l6,2.39a1.9,1.9,0,0,0,2.35-.82l4.78-8.47A1.89,1.89,0,0,0,57,38.43ZM41,32.06A8.94,8.94,0,1,1,32,23.12,8.94,8.94,0,0,1,41,32.06Z" style="fill:#cdcece"/><path d="M36.91,59.7H27.18a3,3,0,0,1-3-2.6l-.79-5.76a21.11,21.11,0,0,1-3.69-2.15l-5.39,2.22a3,3,0,0,1-3.76-1.28L5.68,41.71a3,3,0,0,1,.76-3.89L11,34.24a19.07,19.07,0,0,1-.13-2.18c0-.61,0-1.26.1-2L6.38,26.58a3,3,0,0,1-.8-3.89l4.78-8.47A3,3,0,0,1,14.1,12.9l5.42,2.16a20.54,20.54,0,0,1,3.88-2.28L24.19,7a3,3,0,0,1,3-2.61h9.73a3,3,0,0,1,3,2.61l.79,5.76a21.06,21.06,0,0,1,3.69,2.14l5.39-2.21A3,3,0,0,1,53.52,14L58.4,22.4a3,3,0,0,1-.76,3.89L53,29.87a18.77,18.77,0,0,1,0,4.14l4.63,3.53a3,3,0,0,1,.8,3.88l-4.78,8.47A3,3,0,0,1,50,51.21l-5.42-2.15a21.67,21.67,0,0,1-3.88,2.28l-.79,5.76A3,3,0,0,1,36.91,59.7Zm-17-12.92a1.14,1.14,0,0,1,.69.23,18.67,18.67,0,0,0,4.3,2.5,1.12,1.12,0,0,1,.69.89l.87,6.39a.77.77,0,0,0,.76.66h9.73a.76.76,0,0,0,.75-.66l.87-6.39a1.12,1.12,0,0,1,.69-.89,18.7,18.7,0,0,0,4.47-2.62,1.12,1.12,0,0,1,1.11-.16l6,2.39a.76.76,0,0,0,.94-.34l4.79-8.47a.76.76,0,0,0-.2-1h0l-5.15-3.91a1.12,1.12,0,0,1-.43-1,18.49,18.49,0,0,0,.16-2.33,20.73,20.73,0,0,0-.19-2.54,1.11,1.11,0,0,1,.42-1l5.11-4a.76.76,0,0,0,.19-1l-4.88-8.42a.77.77,0,0,0-1-.32l-6,2.46a1.13,1.13,0,0,1-1.12-.15,18.67,18.67,0,0,0-4.3-2.5,1.12,1.12,0,0,1-.69-.89l-.87-6.39a.76.76,0,0,0-.75-.65H27.18a.77.77,0,0,0-.76.65l-.87,6.39a1.12,1.12,0,0,1-.69.89,19.08,19.08,0,0,0-4.47,2.63,1.12,1.12,0,0,1-1.11.16l-6-2.39a.76.76,0,0,0-.94.33L7.54,23.8a.76.76,0,0,0,.2,1l5.15,3.91a1.13,1.13,0,0,1,.43,1,20.4,20.4,0,0,0-.15,2.33,18.66,18.66,0,0,0,.19,2.53,1.13,1.13,0,0,1-.43,1l-5.11,4a.77.77,0,0,0-.19,1L12.51,49a.76.76,0,0,0,1,.32l6-2.46A1.31,1.31,0,0,1,19.87,46.78ZM32,42.12A10.07,10.07,0,1,1,42.11,32.06,10.08,10.08,0,0,1,32,42.12Zm0-17.88a7.82,7.82,0,1,0,7.81,7.82A7.82,7.82,0,0,0,32,24.24Z" style="fill:#787878"/></svg>
