<svg id="Layer_1" data-name="Layer 1" xmlns="http://www.w3.org/2000/svg" viewBox="0 0 64 64"><title>SVG_Artboards</title><polygon points="30.54 12.78 53.87 8.05 49.15 31.39 44.21 26.45 34.33 36.33 25.61 27.6 35.48 17.72 30.54 12.78" style="fill:#a7d28c"/><path d="M34.33,37.45a1.13,1.13,0,0,1-.8-.33L24.81,28.4a1.14,1.14,0,0,1-.33-.8,1.15,1.15,0,0,1,.33-.8l9.08-9.08-4.14-4.14a1.13,1.13,0,0,1-.29-1.13,1.16,1.16,0,0,1,.86-.78L53.65,6.94a1.16,1.16,0,0,1,1,.31,1.14,1.14,0,0,1,.31,1L50.26,31.61a1.13,1.13,0,0,1-1.9.58L44.21,28l-9.08,9.08A1.13,1.13,0,0,1,34.33,37.45ZM27.2,27.6l7.13,7.13,9.08-9.08a1.13,1.13,0,0,1,1.6,0l3.45,3.46,4-19.62-19.61,4,3.46,3.45a1.15,1.15,0,0,1,.33.8,1.14,1.14,0,0,1-.33.8Z" style="fill:#6f6f59"/><polygon points="24.05 56.23 10.19 47.15 10.19 24.93 20.95 21.69 34.05 27.26 34.05 51.15 24.05 56.23" style="fill:#cdcece"/><path d="M24.05,57.36a1.11,1.11,0,0,1-.61-.18L9.57,48.09a1.11,1.11,0,0,1-.51-.94V24.94a1.13,1.13,0,0,1,.8-1.08l10.76-3.25a1.14,1.14,0,0,1,.77,0L34.5,26.23a1.12,1.12,0,0,1,.68,1V51.15a1.12,1.12,0,0,1-.62,1l-10,5.09A1.13,1.13,0,0,1,24.05,57.36ZM11.31,46.54l12.82,8.4,8.8-4.48V28l-12-5.12-9.57,2.88Z" style="fill:#787878"/><polygon points="34.05 51.15 24.03 56.23 24.03 31.71 34.05 27.26 34.05 51.15" style="fill:#f3ebee"/><polygon points="10.19 47.15 24.03 56.23 24.03 31.71 10.19 24.93 10.19 47.15" style="fill:#b1b2a5"/><path d="M24,57.36a1.13,1.13,0,0,1-1.13-1.12V32.41L9.69,26a1.13,1.13,0,1,1,1-2L24.52,30.7a1.12,1.12,0,0,1,.63,1V56.24A1.12,1.12,0,0,1,24,57.36Z" style="fill:#787878"/><path d="M24,32.84a1.13,1.13,0,0,1-.46-2.16l10-4.45a1.13,1.13,0,0,1,.91,2.06l-10,4.45A1,1,0,0,1,24,32.84Z" style="fill:#787878"/><path d="M24.05,57.36a1.11,1.11,0,0,1-.61-.18L9.57,48.09a1.11,1.11,0,0,1-.51-.94V24.94a1.13,1.13,0,0,1,.8-1.08l10.76-3.25a1.14,1.14,0,0,1,.77,0L34.5,26.23a1.12,1.12,0,0,1,.68,1V51.15a1.12,1.12,0,0,1-.62,1l-10,5.09A1.13,1.13,0,0,1,24.05,57.36ZM11.31,46.54l12.82,8.4,8.8-4.48V28l-12-5.12-9.57,2.88Z" style="fill:#787878"/><path d="M27.2,37.25a1.11,1.11,0,0,1-1-.63,1.13,1.13,0,0,1,.52-1.51l3.68-1.78a1.13,1.13,0,1,1,1,2l-3.68,1.78A1.06,1.06,0,0,1,27.2,37.25Z" style="fill:#787878"/><path d="M27.2,41.33a1.13,1.13,0,0,1-.49-2.14l3.68-1.79a1.14,1.14,0,0,1,1.51.53,1.12,1.12,0,0,1-.53,1.5l-3.68,1.78A1.07,1.07,0,0,1,27.2,41.33Z" style="fill:#787878"/></svg>
