<svg id="Layer_1" data-name="Layer 1" xmlns="http://www.w3.org/2000/svg" viewBox="0 0 64 64"><title>SVG_Artboards</title><path d="M54.67,7.25a1.14,1.14,0,0,0-1-.31L30.32,11.67a1.16,1.16,0,0,0-.86.78,1.13,1.13,0,0,0,.29,1.13l4.14,4.14L28.1,23.51l-6.71-2.86a1.14,1.14,0,0,0-.77,0L9.86,23.86h0l-.09,0a1.1,1.1,0,0,0-.26.15l-.1.09a2,2,0,0,0-.17.23l-.05.06a.13.13,0,0,1,0,.06,1.23,1.23,0,0,0-.08.29s0,.07,0,.11,0,0,0,0V47.15a1.14,1.14,0,0,0,.51,1l13.87,9.08h0a.88.88,0,0,0,.22.1,1.18,1.18,0,0,0,.27.06h.09a1.2,1.2,0,0,0,.52-.12l10-5.09a1.13,1.13,0,0,0,.61-1V37.07l9-9,4.15,4.15a1.13,1.13,0,0,0,1.9-.58L55,8.27A1.14,1.14,0,0,0,54.67,7.25Z" style="fill:#6f6f59"/><path d="M24.05,59.21h0a2.45,2.45,0,0,1-.38,0,2.82,2.82,0,0,1-.57-.13,3.21,3.21,0,0,1-.48-.22l-.15-.08L8.56,49.64a3,3,0,0,1-1.35-2.49V24.94a2.45,2.45,0,0,1,0-.27,2.07,2.07,0,0,1,0-.22,2.27,2.27,0,0,1,.14-.54,2.65,2.65,0,0,1,.11-.3,2.2,2.2,0,0,1,.18-.28,2.38,2.38,0,0,1,.38-.47,1.88,1.88,0,0,1,.25-.24A2.85,2.85,0,0,1,9,22.24l.07,0a2,2,0,0,1,.31-.13l10.75-3.24a3,3,0,0,1,2,.11l5.57,2.37,3.6-3.6-2.84-2.84a3,3,0,0,1,1.51-5L53.28,5.13a3,3,0,0,1,3.51,3.51L52.07,32a3,3,0,0,1-5,1.52l-2.84-2.85L37,37.84V51.15A3,3,0,0,1,35.4,53.8l-10,5.08A2.87,2.87,0,0,1,24.05,59.21ZM10.91,46.76,24.1,55.4l9.23-4.69V37.07a1.82,1.82,0,0,1,.55-1.3l9-9a1.83,1.83,0,0,1,2.61,0l3.19,3.19L53,9,32,13.22l3.2,3.2a1.85,1.85,0,0,1,0,2.61l-5.79,5.78a1.85,1.85,0,0,1-2,.4L20.9,22.45l-10,3Zm22.82,3.75Zm-23.15-4ZM10.91,25h0v0Zm0,0Zm.08-.26Zm10.17-2.39h0Zm-.5,0h0ZM9.27,22.11a1.12,1.12,0,0,0-.24.1Z" style="fill:#a7d28c"/><polygon points="30.54 12.78 53.87 8.05 49.15 31.39 44.21 26.45 34.33 36.33 25.61 27.6 35.48 17.72 30.54 12.78" style="fill:#a7d28c"/><path d="M34.33,37.45a1.13,1.13,0,0,1-.8-.33L24.81,28.4a1.14,1.14,0,0,1-.33-.8,1.15,1.15,0,0,1,.33-.8l9.08-9.08-4.14-4.14a1.13,1.13,0,0,1-.29-1.13,1.16,1.16,0,0,1,.86-.78L53.65,6.94a1.16,1.16,0,0,1,1,.31,1.14,1.14,0,0,1,.31,1L50.26,31.61a1.13,1.13,0,0,1-1.9.58L44.21,28l-9.08,9.08A1.13,1.13,0,0,1,34.33,37.45ZM27.2,27.6l7.13,7.13,9.08-9.08a1.13,1.13,0,0,1,1.6,0l3.45,3.46,4-19.62-19.61,4,3.46,3.45a1.15,1.15,0,0,1,.33.8,1.14,1.14,0,0,1-.33.8Z" style="fill:#6f6f59"/><polygon points="24.05 56.23 10.19 47.15 10.19 24.93 20.95 21.69 34.05 27.26 34.05 51.15 24.05 56.23" style="fill:#cdcece"/><path d="M24.05,57.36a1.11,1.11,0,0,1-.61-.18L9.57,48.09a1.11,1.11,0,0,1-.51-.94V24.94a1.13,1.13,0,0,1,.8-1.08l10.76-3.25a1.14,1.14,0,0,1,.77,0L34.5,26.23a1.12,1.12,0,0,1,.68,1V51.15a1.12,1.12,0,0,1-.62,1l-10,5.09A1.13,1.13,0,0,1,24.05,57.36ZM11.31,46.54l12.82,8.4,8.8-4.48V28l-12-5.12-9.57,2.88Z" style="fill:#787878"/><polygon points="34.05 51.15 24.03 56.23 24.03 31.71 34.05 27.26 34.05 51.15" style="fill:#f3ebee"/><polygon points="10.19 47.15 24.03 56.23 24.03 31.71 10.19 24.93 10.19 47.15" style="fill:#b1b2a5"/><path d="M24,57.36a1.13,1.13,0,0,1-1.13-1.12V32.41L9.69,26a1.13,1.13,0,1,1,1-2L24.52,30.7a1.12,1.12,0,0,1,.63,1V56.24A1.12,1.12,0,0,1,24,57.36Z" style="fill:#787878"/><path d="M24,32.84a1.13,1.13,0,0,1-.46-2.16l10-4.45a1.13,1.13,0,0,1,1.48.58,1.11,1.11,0,0,1-.57,1.48l-10,4.45A1,1,0,0,1,24,32.84Z" style="fill:#787878"/><path d="M24.05,57.36a1.11,1.11,0,0,1-.61-.18L9.57,48.09a1.11,1.11,0,0,1-.51-.94V24.94a1.13,1.13,0,0,1,.8-1.08l10.76-3.25a1.14,1.14,0,0,1,.77,0L34.5,26.23a1.12,1.12,0,0,1,.68,1V51.15a1.12,1.12,0,0,1-.62,1l-10,5.09A1.13,1.13,0,0,1,24.05,57.36ZM11.31,46.54l12.82,8.4,8.8-4.48V28l-12-5.12-9.57,2.88Z" style="fill:#787878"/><path d="M27.2,37.25a1.11,1.11,0,0,1-1-.63,1.13,1.13,0,0,1,.52-1.51l3.68-1.78a1.13,1.13,0,1,1,1,2l-3.68,1.78A1.06,1.06,0,0,1,27.2,37.25Z" style="fill:#787878"/><path d="M27.2,41.33a1.13,1.13,0,0,1-.49-2.14l3.68-1.79a1.14,1.14,0,0,1,1.51.53,1.12,1.12,0,0,1-.53,1.5l-3.68,1.78A1.07,1.07,0,0,1,27.2,41.33Z" style="fill:#787878"/></svg>
