<?xml version="1.0" encoding="UTF-8" standalone="no"?>
<!DOCTYPE svg PUBLIC "-//W3C//DTD SVG 1.1//EN" "http://www.w3.org/Graphics/SVG/1.1/DTD/svg11.dtd">
<svg version="1.1" xmlns="http://www.w3.org/2000/svg" xmlns:xlink="http://www.w3.org/1999/xlink" preserveAspectRatio="xMidYMid meet" viewBox="0 0 640 640" width="64" height="64"><defs><path d="M75.92 76.2L575.92 76.2L575.92 576.2L75.92 576.2L75.92 76.2Z" id="a1P8wBnyTp"></path><path d="M555 326.2C555 450.38 454.18 551.2 330 551.2C205.82 551.2 105 450.38 105 326.2C105 202.01 205.82 101.2 330 101.2C454.18 101.2 555 202.01 555 326.2Z" id="a2TaYErDC"></path><radialGradient id="gradientb4v5ZTE4Uc" gradientUnits="userSpaceOnUse" cx="323.57" cy="332.62" dx="320" dy="586.2" r="253.6"><stop style="stop-color: #fe0000;stop-opacity: 1" offset="0%"></stop><stop style="stop-color: #fe9a9a;stop-opacity: 0.82" offset="65.58242710009092%"></stop><stop style="stop-color: #ffffff;stop-opacity: 0.1" offset="100%"></stop></radialGradient><path d="M630 76.2C630 109.31 603.11 136.2 570 136.2C536.89 136.2 510 109.31 510 76.2C510 43.08 536.89 16.2 570 16.2C603.11 16.2 630 43.08 630 76.2Z" id="d2CXr7IySN"></path><path d="M630 566.2C630 599.31 603.11 626.2 570 626.2C536.89 626.2 510 599.31 510 566.2C510 533.08 536.89 506.2 570 506.2C603.11 506.2 630 533.08 630 566.2Z" id="a29CDWUDTs"></path><path d="M130 76.2C130 109.31 103.11 136.2 70 136.2C36.89 136.2 10 109.31 10 76.2C10 43.08 36.89 16.2 70 16.2C103.11 16.2 130 43.08 130 76.2Z" id="b14OYqqP1A"></path><path d="M130 566.2C130 599.31 103.11 626.2 70 626.2C36.89 626.2 10 599.31 10 566.2C10 533.08 36.89 506.2 70 506.2C103.11 506.2 130 533.08 130 566.2Z" id="cEmkqHMkI"></path></defs><g><g><g><g><g><use xlink:href="#a1P8wBnyTp" opacity="1" fill-opacity="0" stroke="#414141" stroke-width="40" stroke-opacity="1"></use></g></g><g><use xlink:href="#a2TaYErDC" opacity="1" fill="url(#gradientb4v5ZTE4Uc)"></use></g><g><use xlink:href="#d2CXr7IySN" opacity="1" fill="#5aab29" fill-opacity="1"></use></g><g><use xlink:href="#a29CDWUDTs" opacity="1" fill="#5aab29" fill-opacity="1"></use></g><g><use xlink:href="#b14OYqqP1A" opacity="1" fill="#5aab29" fill-opacity="1"></use></g><g><use xlink:href="#cEmkqHMkI" opacity="1" fill="#5aab29" fill-opacity="1"></use></g></g></g></g></svg>
