<svg width="64" height="65" viewBox="0 0 64 65" fill="none" xmlns="http://www.w3.org/2000/svg">
<path d="M32.0001 28.8967C34.699 28.8967 36.8869 26.7088 36.8869 24.0099C36.8869 21.3109 34.699 19.123 32.0001 19.123C29.3012 19.123 27.1133 21.3109 27.1133 24.0099C27.1133 26.7088 29.3012 28.8967 32.0001 28.8967Z" fill="#FFC418"/>
<path fill-rule="evenodd" clip-rule="evenodd" d="M32 20.0514C29.8138 20.0514 28.0415 21.8237 28.0415 24.0099C28.0415 26.1961 29.8138 27.9683 32 27.9683C34.1862 27.9683 35.9584 26.1961 35.9584 24.0099C35.9584 21.8237 34.1862 20.0514 32 20.0514ZM26.1848 24.0099C26.1848 20.7982 28.7884 18.1947 32 18.1947C35.2116 18.1947 37.8152 20.7982 37.8152 24.0099C37.8152 27.2215 35.2116 29.825 32 29.825C28.7884 29.825 26.1848 27.2215 26.1848 24.0099Z" fill="#6F6F59"/>
<path d="M40.4265 38.3789C40.5539 38.3789 40.6433 38.2532 40.5997 38.1335C39.1217 34.0818 35.8303 31.172 32.0041 31.172C28.1779 31.172 24.8812 34.0818 23.4004 38.1334C23.3567 38.2531 23.4461 38.3789 23.5735 38.3789H40.4265Z" fill="#F3C017"/>
<path fill-rule="evenodd" clip-rule="evenodd" d="M22.5285 37.8147C24.098 33.5204 27.6713 30.2437 32.0041 30.2437C36.3375 30.2437 39.9054 33.5212 41.4718 37.8154C41.7403 38.5513 41.1872 39.3072 40.4265 39.3072H23.5735C22.8126 39.3072 22.2594 38.5508 22.5285 37.8147ZM24.6891 37.4505H39.3118C37.7904 34.2036 35.023 32.1004 32.0041 32.1004C28.9848 32.1004 26.2132 34.204 24.6891 37.4505Z" fill="#6F6F59"/>
<path d="M43.1827 34.0847C45.8816 34.0847 48.0695 31.8968 48.0695 29.1979C48.0695 26.4989 45.8816 24.311 43.1827 24.311C40.4838 24.311 38.2959 26.4989 38.2959 29.1979C38.2959 31.8968 40.4838 34.0847 43.1827 34.0847Z" fill="#FFC418"/>
<path fill-rule="evenodd" clip-rule="evenodd" d="M43.1826 25.2394C40.9964 25.2394 39.2241 27.0117 39.2241 29.1979C39.2241 31.3841 40.9964 33.1563 43.1826 33.1563C45.3688 33.1563 47.1411 31.3841 47.1411 29.1979C47.1411 27.0117 45.3688 25.2394 43.1826 25.2394ZM37.3674 29.1979C37.3674 25.9862 39.971 23.3827 43.1826 23.3827C46.3942 23.3827 48.9978 25.9862 48.9978 29.1979C48.9978 32.4095 46.3942 35.013 43.1826 35.013C39.971 35.013 37.3674 32.4095 37.3674 29.1979Z" fill="#6F6F59"/>
<path d="M51.6091 43.5644C51.7365 43.5644 51.8259 43.4387 51.7823 43.319C50.3043 39.2674 47.0129 36.3575 43.1867 36.3575C39.3605 36.3575 36.0638 39.2673 34.583 43.3189C34.5393 43.4386 34.6287 43.5644 34.7561 43.5644H51.6091Z" fill="#F3C017"/>
<path fill-rule="evenodd" clip-rule="evenodd" d="M33.7111 43.0003C35.2806 38.7059 38.8539 35.4292 43.1867 35.4292C47.5201 35.4292 51.088 38.7067 52.6544 43.0009C52.9229 43.7369 52.3698 44.4928 51.6091 44.4928H34.7561C33.9952 44.4928 33.4421 43.7364 33.7111 43.0003ZM35.8717 42.6361H50.4944C48.973 39.3892 46.2056 37.2859 43.1867 37.2859C40.1674 37.2859 37.3959 39.3895 35.8717 42.6361Z" fill="#6F6F59"/>
<path d="M20.8224 34.0847C23.5213 34.0847 25.7092 31.8968 25.7092 29.1979C25.7092 26.4989 23.5213 24.311 20.8224 24.311C18.1234 24.311 15.9355 26.4989 15.9355 29.1979C15.9355 31.8968 18.1234 34.0847 20.8224 34.0847Z" fill="#FFC418"/>
<path fill-rule="evenodd" clip-rule="evenodd" d="M20.8225 25.2394C18.6363 25.2394 16.864 27.0117 16.864 29.1979C16.864 31.3841 18.6363 33.1563 20.8225 33.1563C23.0087 33.1563 24.781 31.3841 24.781 29.1979C24.781 27.0117 23.0087 25.2394 20.8225 25.2394ZM15.0073 29.1979C15.0073 25.9862 17.6109 23.3827 20.8225 23.3827C24.0341 23.3827 26.6377 25.9862 26.6377 29.1979C26.6377 32.4095 24.0341 35.013 20.8225 35.013C17.6109 35.013 15.0073 32.4095 15.0073 29.1979Z" fill="#6F6F59"/>
<path d="M29.249 43.5644C29.3764 43.5644 29.4658 43.4387 29.4222 43.319C27.9442 39.2674 24.6528 36.3575 20.8266 36.3575C17.0004 36.3575 13.7037 39.2673 12.2229 43.3189C12.1792 43.4386 12.2686 43.5644 12.396 43.5644H29.249Z" fill="#F3C017"/>
<path fill-rule="evenodd" clip-rule="evenodd" d="M11.351 43.0003C12.9205 38.7059 16.4938 35.4292 20.8266 35.4292C25.16 35.4292 28.7279 38.7067 30.2943 43.0009C30.5628 43.7369 30.0097 44.4928 29.249 44.4928H12.396C11.6351 44.4928 11.0819 43.7364 11.351 43.0003ZM13.5116 42.6361H28.1343C26.6129 39.3892 23.8455 37.2859 20.8266 37.2859C17.8073 37.2859 15.0357 39.3895 13.5116 42.6361Z" fill="#6F6F59"/>
<path d="M12.0179 55.2582L9.65039 52.8906L3.87524 58.6658L6.24279 61.0333L12.0179 55.2582Z" fill="#6F6F59"/>
<path d="M4.74561 50.3782L14.3025 59.9351L18.0572 46.6826L4.74561 50.3782Z" fill="#A7D28C"/>
<path d="M14.3026 60.7703C14.0882 60.7703 13.8739 60.6816 13.7113 60.5264L4.15441 50.9695C3.94746 50.7626 3.85877 50.4521 3.94007 50.1713C4.01398 49.883 4.23572 49.6613 4.52397 49.58L17.8356 45.8844C18.1238 45.8031 18.4342 45.8844 18.6486 46.0987C18.8629 46.3131 18.9442 46.6235 18.8629 46.9117L15.1082 60.1716C15.0269 60.4525 14.8052 60.6742 14.5169 60.7481C14.4504 60.7629 14.3765 60.7777 14.3099 60.7777L14.3026 60.7703ZM6.34221 50.7995L13.8886 58.346L16.8525 47.88L6.34221 50.7995Z" fill="#6F6F59"/>
<path d="M54.6656 52.8099L52.2981 55.1775L58.0732 60.9526L60.4408 58.5851L54.6656 52.8099Z" fill="#6F6F59"/>
<path d="M49.7857 60.0824L59.3425 50.5255L46.0901 46.7708L49.7857 60.0824Z" fill="#A7D28C"/>
<path d="M60.1779 50.5254C60.1779 50.7398 60.0892 50.9541 59.934 51.1167L50.3771 60.6736C50.1702 60.8805 49.8597 60.9692 49.5789 60.8879C49.2906 60.814 49.0689 60.5923 48.9876 60.304L45.292 46.9924C45.2106 46.7042 45.292 46.3938 45.5063 46.1794C45.7206 45.9651 46.0311 45.8838 46.3193 45.9651L59.5792 49.7198C59.86 49.8011 60.0818 50.0228 60.1557 50.3111C60.1705 50.3776 60.1853 50.4515 60.1853 50.5181L60.1779 50.5254ZM50.2071 58.4858L57.7535 50.9394L47.2876 47.9755L50.2071 58.4858Z" fill="#6F6F59"/>
<path d="M52.2177 10.7484L54.5852 13.116L60.3604 7.34082L57.9928 4.97327L52.2177 10.7484Z" fill="#6F6F59"/>
<path d="M59.49 15.6284L49.9331 6.07152L46.1784 19.324L59.49 15.6284Z" fill="#A7D28C"/>
<path d="M49.933 5.23631C50.1474 5.23631 50.3617 5.32501 50.5243 5.48023L60.0812 15.0371C60.2881 15.244 60.3768 15.5545 60.2955 15.8353C60.2216 16.1236 59.9999 16.3453 59.7116 16.4266L46.4 20.1222C46.1118 20.2035 45.8013 20.1222 45.587 19.9079C45.3727 19.6935 45.2914 19.3831 45.3727 19.0949L49.1274 5.835C49.2087 5.55414 49.4304 5.3324 49.7187 5.25849C49.7852 5.24371 49.8591 5.22892 49.9256 5.22892L49.933 5.23631ZM57.8934 15.2071L50.3469 7.66064L47.3831 18.1266L57.8934 15.2071Z" fill="#6F6F59"/>
<path d="M9.56971 13.1968L11.9373 10.8292L6.16211 5.05407L3.79455 7.42162L9.56971 13.1968Z" fill="#6F6F59"/>
<path d="M14.4497 5.92432L4.89281 15.4812L18.1453 19.2359L14.4497 5.92432Z" fill="#A7D28C"/>
<path d="M4.05748 15.4813C4.05748 15.2669 4.14618 15.0526 4.30139 14.89L13.8582 5.33312C14.0652 5.12617 14.3756 5.03748 14.6565 5.11878C14.9447 5.19269 15.1665 5.41443 15.2478 5.70269L18.9434 19.0143C19.0247 19.3025 18.9434 19.613 18.7291 19.8273C18.5147 20.0417 18.2043 20.123 17.916 20.0416L4.65617 16.2869C4.3753 16.2056 4.15357 15.9839 4.07966 15.6956C4.06487 15.6291 4.05009 15.5552 4.05009 15.4887L4.05748 15.4813ZM14.0282 7.52093L6.4818 15.0674L16.9478 18.0312L14.0282 7.52093Z" fill="#6F6F59"/>
</svg>
