<svg id="Layer_1" data-name="Layer 1" xmlns="http://www.w3.org/2000/svg" viewBox="0 0 64 64"><title>SVG_Artboards</title><path d="M19.4,8A27.09,27.09,0,1,0,56,19.4,27.09,27.09,0,0,0,19.4,8Zm-.51,10.87a18.55,18.55,0,0,1,23-2.55L16.34,41.89A18.55,18.55,0,0,1,18.89,18.89Zm3.22,28.77L47.66,22.11A18.52,18.52,0,0,1,22.11,47.66Z" style="fill:#ec1c24"/><path d="M32,60.23a28.34,28.34,0,0,1-8.41-1.29A28.21,28.21,0,0,1,18.88,7h0A28.22,28.22,0,0,1,45.12,57,28,28,0,0,1,32,60.23ZM32,6a25.81,25.81,0,0,0-12,3h0A25.85,25.85,0,1,0,32,6ZM32,51.69a19.67,19.67,0,0,1-10.52-3.07,1.15,1.15,0,0,1-.52-.83,1.12,1.12,0,0,1,.32-.92L46.87,21.31a1.12,1.12,0,0,1,.92-.32,1.15,1.15,0,0,1,.83.52A19.69,19.69,0,0,1,32,51.69Zm-8.09-4.27A17.4,17.4,0,0,0,47.42,23.94ZM16.34,43h-.13a1.15,1.15,0,0,1-.83-.52A19.53,19.53,0,0,1,18.1,18.1h0a19.53,19.53,0,0,1,24.39-2.72,1.15,1.15,0,0,1,.52.83,1.12,1.12,0,0,1-.32.92L17.13,42.69A1.13,1.13,0,0,1,16.34,43ZM32,14.57a17.31,17.31,0,0,0-12.28,5.12h0a17.29,17.29,0,0,0-3.11,20.37L40.06,16.58A17.33,17.33,0,0,0,32,14.57Z" style="fill:#6f6f59"/></svg>
