<svg id="Layer_1" data-name="Layer 1" xmlns="http://www.w3.org/2000/svg" viewBox="0 0 64 64"><title>CustomViewpoint</title><rect x="9.43" y="13.19" width="6.18" height="4.54" rx="2.03" style="fill:#787878"/><polygon points="42.07 11.53 26.08 11.53 22.97 16.69 45.18 16.69 42.07 11.53" style="fill:#cdcece"/><path d="M45.18,17.82H23a1.14,1.14,0,0,1-1-1.71L25.12,11a1.12,1.12,0,0,1,1-.55h16A1.12,1.12,0,0,1,43,11l3.11,5.16a1.12,1.12,0,0,1,0,1.13A1.13,1.13,0,0,1,45.18,17.82ZM25,15.56H43.18l-1.75-2.9H26.72Z" style="fill:#787878"/><rect x="6.34" y="16.12" width="51.31" height="36.74" rx="6.96" style="fill:#cdcece"/><path d="M50.69,54H13.31A8.1,8.1,0,0,1,5.22,45.9V23.09A8.1,8.1,0,0,1,13.31,15H50.69a8.1,8.1,0,0,1,8.09,8.09V45.9A8.1,8.1,0,0,1,50.69,54ZM13.31,17.25a5.85,5.85,0,0,0-5.84,5.84V45.9a5.84,5.84,0,0,0,5.84,5.83H50.69a5.84,5.84,0,0,0,5.84-5.83V23.09a5.85,5.85,0,0,0-5.84-5.84Z" style="fill:#787878"/><circle cx="34.65" cy="34.49" r="13.8" style="fill:#cdcece"/><path d="M34.65,49.42A14.93,14.93,0,1,1,49.57,34.49,15,15,0,0,1,34.65,49.42Zm0-27.6A12.67,12.67,0,1,0,47.32,34.49,12.69,12.69,0,0,0,34.65,21.82Z" style="fill:#787878"/><circle cx="34.65" cy="34.49" r="9.96" style="fill:#d0e5f6"/><path d="M34.65,45.58A11.09,11.09,0,1,1,45.73,34.49,11.11,11.11,0,0,1,34.65,45.58Zm0-19.92a8.83,8.83,0,1,0,8.83,8.83A8.84,8.84,0,0,0,34.65,25.66Z" style="fill:#787878"/><path d="M29.1,35.51a6.64,6.64,0,0,1,11.94-4,6.65,6.65,0,1,0-11.43,6.58A6.61,6.61,0,0,1,29.1,35.51Z" style="fill:#47b1d8"/></svg>
