<?xml version="1.0" encoding="UTF-8" standalone="no"?>
<!-- Generator: Adobe Illustrator 18.0.0, SVG Export Plug-In . SVG Version: 6.00 Build 0)  -->

<svg
   xmlns:dc="http://purl.org/dc/elements/1.1/"
   xmlns:cc="http://creativecommons.org/ns#"
   xmlns:rdf="http://www.w3.org/1999/02/22-rdf-syntax-ns#"
   xmlns:svg="http://www.w3.org/2000/svg"
   xmlns="http://www.w3.org/2000/svg"
   xmlns:sodipodi="http://sodipodi.sourceforge.net/DTD/sodipodi-0.dtd"
   xmlns:inkscape="http://www.inkscape.org/namespaces/inkscape"
   version="1.1"
   x="0px"
   y="0px"
   viewBox="0 0 64 64"
   enable-background="new 0 0 1600 534"
   xml:space="preserve"
   id="svg4770"
   sodipodi:docname="pqCatalyst.svg"
   inkscape:version="0.92.3 (2405546, 2018-03-11)"
   width="64"
   height="64"><metadata
   id="metadata4776"><rdf:RDF><cc:Work
       rdf:about=""><dc:format>image/svg+xml</dc:format><dc:type
         rdf:resource="http://purl.org/dc/dcmitype/StillImage" /><dc:title></dc:title></cc:Work></rdf:RDF></metadata><defs
   id="defs4774">





</defs><sodipodi:namedview
   pagecolor="#ffffff"
   bordercolor="#666666"
   borderopacity="1"
   objecttolerance="10"
   gridtolerance="10"
   guidetolerance="10"
   inkscape:pageopacity="0"
   inkscape:pageshadow="2"
   inkscape:window-width="1920"
   inkscape:window-height="1103"
   id="namedview4772"
   showgrid="false"
   inkscape:zoom="14.21875"
   inkscape:cx="32"
   inkscape:cy="32"
   inkscape:window-x="1920"
   inkscape:window-y="27"
   inkscape:window-maximized="1"
   inkscape:current-layer="svg4770"
   fit-margin-top="0"
   fit-margin-left="0"
   fit-margin-right="0"
   fit-margin-bottom="0" />
<g
   id="g4715"
   transform="matrix(0.1235892,0,0,0.12156455,-5.4091478,-0.29807368)">
		<g
   id="g4683">
			<path
   style="fill:#ffffff"
   inkscape:connector-curvature="0"
   id="path4679"
   d="m 383.7,461.7 c 9.1,-34.8 18.5,-69.5 27.9,-104.3 13,-48.4 26,-96.7 39,-145.1 2.6,-9.7 5.2,-19.5 7.9,-29.2 3.9,-14.6 6.8,-30.5 13.7,-44.1 5.3,-10.6 12.6,-18.6 25.4,-23.5 9.6,-3.7 16.7,-4.2 28.4,6.6 7.3,6.8 15.5,10.6 23.5,2 8.7,-9.4 7.6,-16.3 -4.2,-27.3 -15.5,-14.4 -42.5,-39.5 -42.5,-39.5 0,0 -27,-25.1 -42.5,-39.5 -11.8,-11 -18.8,-11.6 -27.5,-2.2 -8,8.6 -3.6,16.6 3.7,23.3 11.5,11 11.5,18.1 8.5,27.9 -4,13.1 -11.4,21 -21.6,27.1 -13,7.8 -28.7,11.9 -43,16.9 -9.5,3.3 -19,6.7 -28.5,10 -47.3,16.5 -94.5,33.1 -141.8,49.6 -34,11.9 -67.9,23.8 -101.9,35.5 -22.2,7.6 -45.9,15.5 -54.2,39.8 -7.5,22 -1.1,46.4 15.9,62.2 0.2,0.2 107.5,99.8 107.5,99.8 0,0 107.3,99.6 107.5,99.8 17,15.8 41.7,20.4 63.2,11.3 23.5,-10.2 29.6,-34.4 35.6,-57.1 z" />
			<path
   style="fill:#172c36"
   inkscape:connector-curvature="0"
   id="path4681"
   d="m 325.3,526.7 v 0 c -15.9,0 -31,-6 -42.7,-16.8 -0.3,-0.3 -107.5,-99.8 -107.5,-99.8 0,0 -107.2,-99.5 -107.5,-99.8 -18.1,-16.8 -24.7,-42.6 -16.8,-65.8 8.7,-25.6 33.7,-34.1 55.7,-41.7 l 0.6,-0.2 c 25.6,-8.8 51.6,-17.9 76.8,-26.7 8.4,-2.9 16.8,-5.9 25.1,-8.8 47.3,-16.5 94.5,-33 141.8,-49.6 l 28.5,-10 c 3.3,-1.2 6.8,-2.3 10.1,-3.4 11.1,-3.6 22.5,-7.4 32.2,-13.2 10.7,-6.4 16.7,-13.9 20.1,-25.1 2.5,-8.3 3.2,-14.1 -7.7,-24.3 -13.3,-12.4 -9.5,-22.2 -3.9,-28.2 4.9,-5.2 9.4,-7.7 14.2,-7.7 5.3,0 10.9,3 18.1,9.7 l 85,79 c 6.7,6.3 10.1,11.3 10.9,16.2 1.1,6.9 -3.2,12.4 -6.5,15.9 -3.8,4 -7.9,6.1 -12.4,6.1 -5,0 -10.3,-2.6 -16,-7.9 -7.7,-7.2 -12.4,-8.1 -15.6,-8.1 -2.5,0 -5.3,0.6 -9.2,2.2 -10.9,4.2 -18,10.8 -23.6,21.9 -5.1,10.1 -8,21.8 -10.8,33.1 -0.8,3.4 -1.7,6.9 -2.6,10.3 l -7.9,29.2 c -13,48.3 -26,96.7 -39,145 -2.3,8.5 -4.6,17.1 -6.9,25.6 -6.9,25.8 -14.1,52.4 -21,78.6 l -0.2,0.6 c -5.9,22.5 -12.6,48.1 -37.5,58.7 -7.4,3.4 -15.5,5 -23.8,5 z m 119,-514.1 c -2.8,0 -5.7,1.7 -9.2,5.5 -3.9,4.2 -6.2,9.4 3.5,18.5 12.6,11.7 13.1,20 9.7,31.3 -3.9,12.8 -11,21.7 -23.1,29 -10.4,6.2 -22.2,10.1 -33.6,13.8 -3.3,1.1 -6.7,2.2 -10,3.3 l -28.5,10 c -47.3,16.5 -94.5,33.1 -141.8,49.6 -8.4,2.9 -16.8,5.9 -25.1,8.8 -25.2,8.8 -51.2,17.9 -76.8,26.7 l -0.6,0.2 c -21.5,7.4 -43.8,15 -51.4,37.4 -7,20.6 -1.1,43.5 15,58.5 0.2,0.2 107.5,99.8 107.5,99.8 0,0 107.3,99.6 107.5,99.8 10.4,9.7 23.9,15 38,15 7.4,0 14.6,-1.5 21.4,-4.4 21.8,-9.3 27.7,-32 33.5,-54.1 l 0.2,-0.6 c 6.9,-26.3 14.1,-52.9 21,-78.7 2.3,-8.5 4.6,-17.1 6.9,-25.6 13,-48.4 26,-96.7 39,-145.1 l 7.9,-29.2 c 0.9,-3.3 1.8,-6.8 2.6,-10.2 2.9,-11.7 5.9,-23.8 11.3,-34.6 6.4,-12.6 14.8,-20.4 27.2,-25.2 3.4,-1.3 7.4,-2.6 11.7,-2.6 6.6,0 12.9,3.1 20.3,9.9 4.4,4.1 8.1,6 11.3,6 2.5,0 5,-1.3 7.4,-3.9 4.8,-5.2 5,-8.2 4.7,-10.2 -0.5,-3.3 -3.3,-7.2 -8.8,-12.2 l -85,-79 C 452,15 447.7,12.6 444.3,12.6 Z" />
		</g>
		<g
   id="g4693">
			<g
   id="g4687">
				<path
   style="fill:#be2128"
   inkscape:connector-curvature="0"
   id="path4685"
   d="m 113.2,305.5 c 0.1,0.1 30.5,28.3 30.5,28.3 6.1,5.6 12.8,3.7 14.9,-4.3 L 187,223.2 c 2.1,-8 -2.5,-12.3 -10.3,-9.6 0,0 -17.5,6.1 -33.4,11.6 -17.5,6 -36.2,12.2 -42.7,31.3 -5.9,17.4 -0.8,36.5 12.6,49 z" />
			</g>
			<g
   id="g4691">
				<path
   inkscape:connector-curvature="0"
   id="path4689"
   d="m 150.7,340.5 v 0 c -3.2,0 -6.5,-1.4 -9.4,-4.1 -9.2,-8.5 -30.5,-28.3 -30.5,-28.3 -14.4,-13.4 -19.7,-34 -13.4,-52.5 7,-20.5 26.8,-27.3 44.3,-33.3 l 0.5,-0.2 c 15.7,-5.4 33.3,-11.5 33.4,-11.6 5.6,-2 10.6,-0.9 13.4,2.6 2.1,2.7 2.6,6.7 1.4,11.1 l -28.5,106.3 c -1.7,6.1 -5.9,10 -11.2,10 z m 30.4,-124.2 c -0.9,0 -2,0.2 -3.2,0.6 -0.2,0.1 -17.7,6.2 -33.5,11.6 l -0.5,0.2 c -16.8,5.8 -34.1,11.7 -40,29 -5.4,15.9 -0.9,33.7 11.6,45.3 0.3,0.3 30.5,28.3 30.5,28.3 1.6,1.5 3.3,2.3 4.7,2.3 2.9,0 4.2,-3.5 4.6,-5 l 28.5,-106.3 c 0.6,-2.3 0.5,-4.2 -0.2,-5.1 -0.6,-0.6 -1.4,-0.9 -2.5,-0.9 z" />
			</g>
		</g>
		<g
   id="g4703">
			<g
   id="g4697">
				<path
   style="fill:#249847"
   inkscape:connector-curvature="0"
   id="path4695"
   d="m 234.4,418.1 c 6.1,5.6 12.8,3.7 14.9,-4.3 l 62.8,-234.3 c 2.1,-8 -2.5,-12.3 -10.3,-9.6 0,0 -47.4,16.6 -78.2,27.4 -0.5,0.2 -0.5,0.2 -0.5,0.2 -0.6,0.2 -2.8,6.9 -4.9,14.9 l -37,138 c -2.1,8 0.7,18.8 6.4,24.1 5.7,5.3 15.2,14.1 21.3,19.8 z" />
			</g>
			<g
   id="g4701">
				<path
   inkscape:connector-curvature="0"
   id="path4699"
   d="m 241.4,424.7 c 0,0 0,0 0,0 -3.2,0 -6.5,-1.4 -9.4,-4.1 L 185.1,377 c -6.6,-6.1 -9.9,-18.2 -7.4,-27.5 l 37,-138 c 4.4,-16.3 5.5,-16.7 7.1,-17.2 l 0.5,-0.2 c 30.8,-10.8 78.2,-27.4 78.2,-27.4 5.6,-2 10.6,-0.9 13.4,2.6 2.1,2.7 2.6,6.7 1.4,11.1 l -62.8,234.3 c -1.5,6.2 -5.8,10 -11.1,10 z m -16,-224.4 c -0.8,1.9 -2.3,6.7 -4,13 l -37,138 c -1.8,6.8 0.7,16.2 5.4,20.7 l 46.9,43.6 c 1.6,1.5 3.3,2.3 4.7,2.3 2.9,0 4.2,-3.5 4.6,-5 l 62.8,-234.3 c 0.6,-2.3 0.5,-4.2 -0.2,-5.1 -0.8,-1.1 -3,-1.2 -5.6,-0.3 -0.1,0 -46.8,16.3 -77.6,27.1 z" />
			</g>
		</g>
		<g
   id="g4713">
			<g
   id="g4707">
				<path
   style="fill:#064f8c"
   inkscape:connector-curvature="0"
   id="path4705"
   d="m 359.9,162 c -8.3,0 -16.8,6.5 -18.9,14.5 l -69.1,258.1 c -2.1,8 1.1,19.1 7.1,24.8 0,0 3.4,3.1 3.4,3.1 13.4,12.4 32.9,16 49.7,8.9 11,-4.7 14.1,-10.2 14.1,-10.2 4,-7.2 9.1,-19.7 11.2,-27.7 l 68.8,-257 c 2.1,-8 -2.9,-14.5 -11.1,-14.5 z" />
			</g>
			<g
   id="g4711">
				<path
   inkscape:connector-curvature="0"
   id="path4709"
   d="m 314.1,478.5 v 0 c -12.7,0 -24.8,-4.8 -34.1,-13.4 l -3.4,-3.1 c -7,-6.5 -10.6,-18.9 -8.1,-28.2 l 69.1,-258.1 c 2.5,-9.4 12.5,-17.1 22.3,-17.1 H 415 c 5,0 9.5,2 12.2,5.6 2.7,3.6 3.6,8.4 2.3,13.2 l -68.8,257 c -2.2,8.2 -7.4,21 -11.5,28.4 -0.4,0.7 -4,6.7 -15.7,11.7 -6.2,2.7 -12.7,4 -19.4,4 z m 45.8,-313 c -6.7,0 -13.9,5.5 -15.6,12 l -69.1,258.1 c -1.8,6.8 1,16.6 6.1,21.3 l 3.4,3.1 c 8.1,7.5 18.5,11.6 29.4,11.6 5.7,0 11.3,-1.1 16.6,-3.4 9.6,-4.1 12.4,-8.7 12.4,-8.7 3.8,-6.9 8.8,-19.2 10.8,-26.8 l 68.8,-257 c 0.8,-2.8 0.4,-5.4 -1.1,-7.3 -1.4,-1.9 -3.8,-2.9 -6.7,-2.9 z" />
			</g>
		</g>
	</g>
<g
   id="PVCINEMA"
   display="none"
   style="display:none"
   transform="translate(-508.48414,-459.04144)">

		<rect
   x="-287.70001"
   y="315.20001"
   transform="matrix(0.2065,0.9784,-0.9784,0.2065,208.7126,378.8065)"
   display="inline"
   width="316.89999"
   height="5.9000001"
   id="rect4718"
   style="display:inline;fill:#010101" />

		<rect
   x="190.10001"
   y="212"
   transform="matrix(0.2065,0.9784,-0.9784,0.2065,486.9203,-170.4825)"
   display="inline"
   width="316.89999"
   height="5.9000001"
   id="rect4720"
   style="display:inline;fill:#010101" />
	<path
   display="inline"
   d="m 316,59.7 c -5.5,1.2 -10.5,-1 -11.3,-4.7 l -4.5,-21.1 c -0.8,-3.8 3,-7.8 8.5,-8.9 l 2.7,-0.6 -2.8,-13.1 -484,102.1 2.8,13.1 2.7,-0.6 c 5.5,-1.2 10.5,1 11.3,4.7 l 4.5,21.1 c 0.8,3.8 -3,7.8 -8.5,8.9 l -2.7,0.6 2.8,13.1 484,-102.1 -2.8,-13.1 z m -424.8,89.6 -5.4,1.1 c -5.5,1.2 -10.5,-1 -11.3,-4.7 l -4.5,-21.1 c -0.8,-3.8 3,-7.8 8.5,-8.9 l 5.4,-1.1 c 5.5,-1.2 10.5,1 11.3,4.7 l 4.5,21.1 c 0.8,3.8 -3,7.8 -8.5,8.9 z M -55,138 l -5.4,1.1 c -5.5,1.2 -10.5,-1 -11.3,-4.7 l -4.5,-21.1 c -0.8,-3.8 3,-7.8 8.5,-8.9 l 5.4,-1.1 c 5.5,-1.2 10.5,1 11.3,4.7 l 4.5,21.1 c 0.7,3.7 -3,7.7 -8.5,8.9 z m 53.8,-11.4 -5.4,1.1 c -5.5,1.2 -10.5,-1 -11.3,-4.7 l -4.5,-21.1 c -0.8,-3.8 3,-7.8 8.5,-8.9 l 5.4,-1.1 C -3,90.7 2,92.9 2.8,96.6 l 4.5,21.1 c 0.7,3.8 -3.1,7.8 -8.5,8.9 z m 53.7,-11.3 -5.4,1.1 c -5.5,1.2 -10.5,-1 -11.3,-4.7 L 31.3,90.6 c -0.8,-3.8 3,-7.8 8.5,-8.9 l 5.4,-1.1 c 5.5,-1.2 10.5,1 11.3,4.7 l 4.5,21.1 c 0.8,3.7 -3,7.7 -8.5,8.9 z m 53.8,-11.4 -5.4,1.1 c -5.5,1.2 -10.5,-1 -11.3,-4.7 L 85.1,79.2 c -0.8,-3.8 3,-7.8 8.5,-8.9 L 99,69.2 c 5.5,-1.2 10.5,1 11.3,4.7 l 4.5,21.1 c 0.8,3.8 -3,7.8 -8.5,8.9 z m 53.8,-11.3 -5.4,1.1 c -5.5,1.2 -10.5,-1 -11.3,-4.7 l -4.5,-21.1 c -0.8,-3.8 3,-7.8 8.5,-8.9 l 5.4,-1.1 c 5.5,-1.2 10.5,1 11.3,4.7 l 4.5,21.1 c 0.7,3.7 -3.1,7.7 -8.5,8.9 z m 53.8,-11.4 -5.4,1.1 c -5.5,1.2 -10.5,-1 -11.3,-4.7 l -4.5,-21.1 c -0.8,-3.8 3,-7.8 8.5,-8.9 l 5.4,-1.1 c 5.5,-1.2 10.5,1 11.3,4.7 l 4.5,21.1 c 0.7,3.8 -3.1,7.8 -8.5,8.9 z m 53.7,-11.3 -5.4,1.1 c -5.5,1.2 -10.5,-1 -11.3,-4.7 l -4.5,-21.1 c -0.8,-3.8 3,-7.8 8.5,-8.9 l 5.4,-1.1 c 5.5,-1.2 10.5,1 11.3,4.7 l 4.5,21.1 c 0.8,3.7 -3,7.7 -8.5,8.9 z"
   id="path4722"
   inkscape:connector-curvature="0"
   style="display:inline;fill:#010101" />
	<path
   display="inline"
   d="m 389.9,409.8 c -5.5,1.2 -10.5,-1 -11.3,-4.7 L 374.1,384 c -0.8,-3.8 3,-7.8 8.5,-8.9 l 2.7,-0.6 -2.8,-13.1 -484,102.1 2.8,13.1 2.7,-0.6 c 5.5,-1.2 10.5,1 11.3,4.7 l 4.5,21.1 c 0.8,3.8 -3,7.8 -8.5,8.9 l -2.7,0.6 2.8,13.1 484,-102.1 -2.8,-13.1 z m -424.8,89.6 -5.4,1.1 c -5.5,1.2 -10.5,-1 -11.3,-4.7 l -4.5,-21.1 c -0.8,-3.8 3,-7.8 8.5,-8.9 l 5.4,-1.1 c 5.5,-1.2 10.5,1 11.3,4.7 l 4.5,21.1 c 0.8,3.8 -3,7.8 -8.5,8.9 z m 53.8,-11.3 -5.4,1.1 C 8,490.4 3,488.2 2.2,484.5 l -4.5,-21.1 c -0.8,-3.8 3,-7.8 8.5,-8.9 l 5.4,-1.1 c 5.5,-1.2 10.5,1 11.3,4.7 l 4.5,21.1 c 0.7,3.7 -3.1,7.7 -8.5,8.9 z m 53.7,-11.4 -5.4,1.1 c -5.5,1.2 -10.5,-1 -11.3,-4.7 L 51.5,452 c -0.8,-3.8 3,-7.8 8.5,-8.9 l 5.4,-1.1 c 5.5,-1.2 10.5,1 11.3,4.7 l 4.5,21.1 c 0.7,3.8 -3.1,7.8 -8.6,8.9 z m 53.8,-11.3 -5.4,1.1 c -5.5,1.2 -10.5,-1 -11.3,-4.7 l -4.5,-21.1 c -0.8,-3.8 3,-7.8 8.5,-8.9 l 5.4,-1.1 c 5.5,-1.2 10.5,1 11.3,4.7 l 4.5,21.1 c 0.8,3.7 -3,7.7 -8.5,8.9 z m 53.8,-11.4 -5.4,1.1 c -5.5,1.2 -10.5,-1 -11.3,-4.7 L 159,429.3 c -0.8,-3.8 3,-7.8 8.5,-8.9 l 5.4,-1.1 c 5.5,-1.2 10.5,1 11.3,4.7 l 4.5,21.1 c 0.8,3.8 -3,7.8 -8.5,8.9 z m 53.8,-11.3 -5.4,1.1 c -5.5,1.2 -10.5,-1 -11.3,-4.7 L 212.8,418 c -0.8,-3.8 3,-7.8 8.5,-8.9 l 5.4,-1.1 c 5.5,-1.2 10.5,1 11.3,4.7 l 4.5,21.1 c 0.7,3.7 -3.1,7.7 -8.5,8.9 z m 53.7,-11.4 -5.4,1.1 c -5.5,1.2 -10.5,-1 -11.3,-4.7 l -4.5,-21.1 c -0.8,-3.8 3,-7.8 8.5,-8.9 l 5.4,-1.1 c 5.5,-1.2 10.5,1 11.3,4.7 l 4.5,21.1 c 0.8,3.8 -3,7.8 -8.5,8.9 z m 53.8,-11.3 -5.4,1.1 c -5.5,1.2 -10.5,-1 -11.3,-4.7 l -4.5,-21.1 c -0.8,-3.8 3,-7.8 8.5,-8.9 l 5.4,-1.1 c 5.5,-1.2 10.5,1 11.3,4.7 l 4.5,21.1 c 0.8,3.7 -3,7.7 -8.5,8.9 z"
   id="path4724"
   inkscape:connector-curvature="0"
   style="display:inline;fill:#010101" />
	<g
   display="inline"
   id="g4730"
   style="display:inline">
		<polygon
   points="-29.5,167.4 50.4,150.6 37.2,412.8 -42.7,429.6 "
   id="polygon4726"
   style="fill:#be2128" />
		<path
   d="m 38.7,414 -83,17.5 13.3,-265.3 83,-17.5 z m -79.7,13.7 76.7,-16.2 13,-259 -76.7,16.2 z"
   id="path4728"
   inkscape:connector-curvature="0" />
	</g>
	<g
   display="inline"
   id="g4736"
   style="display:inline">
		<polygon
   points="76.7,145 156.6,128.2 143.4,390.4 63.5,407.2 "
   id="polygon4732"
   style="fill:#249847" />
		<path
   d="m 144.9,391.6 -83,17.5 13.4,-265.4 83,-17.5 z m -79.7,13.7 76.7,-16.2 13,-259 -76.7,16.2 z"
   id="path4734"
   inkscape:connector-curvature="0" />
	</g>
	<g
   display="inline"
   id="g4742"
   style="display:inline">
		<polygon
   points="182.9,122.6 262.8,105.7 249.6,367.9 169.7,384.8 "
   id="polygon4738"
   style="fill:#064f8c" />
		<path
   d="m 251.1,369.2 -83,17.5 13.4,-265.4 83,-17.5 z m -79.7,13.7 76.7,-16.2 13,-259 -76.7,16.2 z"
   id="path4740"
   inkscape:connector-curvature="0" />
	</g>
</g>
<g
   id="PV"
   display="none"
   style="display:none"
   transform="translate(-508.48414,-459.04144)">
	<polygon
   display="inline"
   stroke-miterlimit="10"
   points="-74,94.2 32.9,94.2 -55,426.7 -161.9,426.7 "
   id="polygon4745"
   style="display:inline;fill:#be2128;stroke:#000000;stroke-width:7;stroke-miterlimit:10" />
	<polygon
   display="inline"
   stroke-miterlimit="10"
   points="68.1,94.2 175,94.2 87.2,426.7 -19.7,426.7 "
   id="polygon4747"
   style="display:inline;fill:#249847;stroke:#000000;stroke-width:7;stroke-miterlimit:10" />
	<polygon
   display="inline"
   stroke-miterlimit="10"
   points="210.3,94.2 317.2,94.2 229.3,426.7 122.4,426.7 "
   id="polygon4749"
   style="display:inline;fill:#064f8c;stroke:#000000;stroke-width:7;stroke-miterlimit:10" />
</g>
<g
   id="PVWEB"
   display="none"
   style="display:none"
   transform="translate(-508.48414,-459.04144)">
	<g
   display="inline"
   id="g4758"
   style="display:inline">
		<polygon
   points="-88.9,98 26.6,98 -66.4,444.6 -115.9,444.6 "
   id="polygon4752"
   style="fill:#be2128" />
		<polygon
   points="103.9,98 120.5,98 80,444.6 -35.5,444.6 "
   id="polygon4754"
   style="fill:#269847" />
		<polygon
   points="203.1,98 318.6,98 159.6,444.6 110.1,444.6 "
   id="polygon4756"
   style="fill:#054f8c" />
	</g>
	<g
   display="inline"
   id="g4766"
   style="display:inline">
		<polygon
   stroke-miterlimit="10"
   points="-88.9,98 26.6,98 -66.4,444.6 -115.9,444.6 "
   id="polygon4760"
   style="fill:none;stroke:#010101;stroke-width:7;stroke-miterlimit:10" />
		<polygon
   stroke-miterlimit="10"
   points="103.9,98 120.5,98 80,444.6 -35.5,444.6 "
   id="polygon4762"
   style="fill:none;stroke:#010101;stroke-width:7;stroke-miterlimit:10" />
		<polygon
   stroke-miterlimit="10"
   points="203.1,98 318.6,98 159.6,444.6 110.1,444.6 "
   id="polygon4764"
   style="fill:none;stroke:#010101;stroke-width:7;stroke-miterlimit:10" />
	</g>
</g>
<g
   id="PVCATA"
   transform="translate(-508.48414,-459.04144)">
</g>
</svg>
