<svg id="Layer_1" data-name="Layer 1" xmlns="http://www.w3.org/2000/svg" viewBox="0 0 64 64"><title>SVG_Artboards</title><rect x="9.45" y="13.18" width="6.18" height="4.54" rx="2.03" style="fill:#787878"/><polygon points="42.09 11.52 26.1 11.52 22.99 16.68 45.2 16.68 42.09 11.52" style="fill:#cdcece"/><path d="M45.2,17.81H23a1.14,1.14,0,0,1-1-1.71l3.12-5.16a1.12,1.12,0,0,1,1-.55h16a1.12,1.12,0,0,1,1,.55l3.11,5.16a1.12,1.12,0,0,1,0,1.13A1.13,1.13,0,0,1,45.2,17.81ZM25,15.55H43.2l-1.75-2.9H26.74Z" style="fill:#787878"/><rect x="6.36" y="16.12" width="51.31" height="36.74" rx="6.96" style="fill:#cdcece"/><path d="M50.71,54H13.33a8.1,8.1,0,0,1-8.09-8.09V23.08A8.1,8.1,0,0,1,13.33,15H50.71a8.1,8.1,0,0,1,8.09,8.09V45.89A8.1,8.1,0,0,1,50.71,54ZM13.33,17.24a5.85,5.85,0,0,0-5.84,5.84V45.89a5.84,5.84,0,0,0,5.84,5.83H50.71a5.84,5.84,0,0,0,5.84-5.83V23.08a5.85,5.85,0,0,0-5.84-5.84Z" style="fill:#787878"/><circle cx="12.55" cy="21.78" r="2.33" style="fill:#de4130"/><circle cx="34.67" cy="34.48" r="13.8" style="fill:#cdcece"/><path d="M34.67,49.41A14.93,14.93,0,1,1,49.59,34.48,15,15,0,0,1,34.67,49.41Zm0-27.6A12.67,12.67,0,1,0,47.34,34.48,12.69,12.69,0,0,0,34.67,21.81Z" style="fill:#787878"/><circle cx="34.67" cy="34.48" r="9.96" style="fill:#d0e5f6"/><path d="M34.67,45.57A11.09,11.09,0,1,1,45.75,34.48,11.11,11.11,0,0,1,34.67,45.57Zm0-19.92a8.83,8.83,0,1,0,8.83,8.83A8.84,8.84,0,0,0,34.67,25.65Z" style="fill:#787878"/><path d="M29.12,35.5a6.65,6.65,0,0,1,11.94-4,6.65,6.65,0,1,0-11.43,6.58A6.61,6.61,0,0,1,29.12,35.5Z" style="fill:#47b1d8"/><path d="M2.81,12.44a1.13,1.13,0,0,1-1.13-1.13V2.69A1.13,1.13,0,0,1,2.81,1.57h8.62a1.13,1.13,0,1,1,0,2.25H3.94v7.49A1.13,1.13,0,0,1,2.81,12.44Z" style="fill:#787878"/><path d="M61.31,12.44a1.12,1.12,0,0,1-1.12-1.13V3.82h-7.5a1.13,1.13,0,0,1,0-2.25h8.62a1.12,1.12,0,0,1,1.13,1.12v8.62A1.12,1.12,0,0,1,61.31,12.44Z" style="fill:#787878"/><path d="M61.31,62.71H52.69a1.13,1.13,0,0,1,0-2.26h7.5V53a1.13,1.13,0,1,1,2.25,0v8.62A1.13,1.13,0,0,1,61.31,62.71Z" style="fill:#787878"/><path d="M11.43,62.71H2.81a1.14,1.14,0,0,1-1.13-1.13V53a1.13,1.13,0,1,1,2.26,0v7.49h7.49a1.13,1.13,0,1,1,0,2.26Z" style="fill:#787878"/></svg>
