<?xml version="1.0" encoding="UTF-8"?>
<svg id="Layer_1" data-name="Layer 1" xmlns="http://www.w3.org/2000/svg" viewBox="0 0 64 64">
  <defs>
    <style>
      .cls-1 {
        fill: #ffc418;
      }

      .cls-2 {
        fill: #787878;
      }

      .cls-3 {
        fill: #6f6f59;
      }
    </style>
  </defs>
  <g>
    <polygon class="cls-1" points="53.68 7.96 30.37 7.96 10.81 27.52 39.01 27.52 53.68 7.96"/>
    <polygon class="cls-1" points="39.01 55.72 53.68 31.28 53.68 7.96 39.01 27.52 39.01 55.72"/>
    <rect class="cls-1" x="11.91" y="28.62" width="26.01" height="26.01"/>
    <polyline class="cls-1" points="10.81 27.52 39.01 27.52 39.01 55.72"/>
    <g>
      <polyline class="cls-1" points="53.68 7.96 30.37 7.96 10.81 27.52"/>
      <path class="cls-3" d="M10.81,28.65c-.29,0-.58-.11-.8-.33-.44-.44-.44-1.15,0-1.59L29.57,7.16c.21-.21.5-.33.8-.33h23.32c.62,0,1.13.5,1.13,1.13s-.5,1.13-1.13,1.13h-22.85L11.61,28.32c-.22.22-.51.33-.8.33Z"/>
    </g>
    <path class="cls-3" d="M39.01,56.85c-.2,0-.4-.05-.58-.16-.53-.32-.71-1.01-.39-1.55l14.51-24.18V7.96c0-.62.5-1.13,1.13-1.13s1.13.5,1.13,1.13v23.31c0,.2-.06.4-.16.58l-14.67,24.45c-.21.35-.58.55-.97.55Z"/>
    <path class="cls-3" d="M39.01,56.85H10.81c-.62,0-1.13-.5-1.13-1.13v-28.2c0-.62.5-1.13,1.13-1.13s1.13.5,1.13,1.13v27.08h27.08c.62,0,1.13.5,1.13,1.13s-.5,1.13-1.13,1.13Z"/>
  </g>
  <circle class="cls-2" cx="32.2" cy="32.82" r="1.9"/>
  <path class="cls-2" d="M18.31,50.07c-.26,0-.52-.09-.73-.27-.47-.41-.52-1.12-.12-1.59l11.42-13.26c.41-.47,1.12-.53,1.59-.12.47.41.52,1.12.12,1.59l-11.42,13.26c-.22.26-.54.39-.85.39Z"/>
  <path class="cls-2" d="M35.05,30.72c-.26,0-.52-.09-.73-.27-.47-.41-.52-1.12-.12-1.59l11.29-13.11c.41-.47,1.12-.53,1.59-.12.47.41.52,1.12.12,1.59l-11.29,13.11c-.22.26-.54.39-.85.39Z"/>
  <path class="cls-2" d="M28.09,33.31c-.06,0-.11,0-.17-.01l-9.98-1.53c-.62-.09-1.04-.67-.94-1.29.09-.62.67-1.04,1.28-.94l9.98,1.53c.62.09,1.04.67.94,1.29-.08.56-.57.96-1.11.96Z"/>
  <path class="cls-2" d="M32.07,29.76c-.61,0-1.11-.48-1.12-1.09l-.39-12.99c-.02-.62.47-1.14,1.09-1.16.01,0,.02,0,.04,0,.61,0,1.11.48,1.12,1.09l.39,12.99c.02.62-.47,1.14-1.09,1.16-.01,0-.02,0-.04,0Z"/>
  <path class="cls-2" d="M35.9,49.43c-.53,0-1-.37-1.1-.91l-2.31-11.84c-.12-.61.28-1.2.89-1.32.62-.13,1.2.28,1.32.89l2.31,11.84c.12.61-.28,1.2-.89,1.32-.07.01-.15.02-.22.02Z"/>
  <path class="cls-2" d="M36.18,34.48c-.57,0-1.05-.42-1.12-1-.07-.62.37-1.18.99-1.25l10.16-1.17c.62-.08,1.18.37,1.25.99.07.62-.37,1.18-.99,1.25l-10.16,1.17s-.09,0-.13,0Z"/>
  <path class="cls-2" d="M21.16,50.62h-3.47c-.62,0-1.13-.5-1.13-1.13v-3.48c0-.62.5-1.13,1.13-1.13s1.13.5,1.13,1.13v2.35h2.35c.62,0,1.13.5,1.13,1.13s-.5,1.13-1.13,1.13Z"/>
  <path class="cls-2" d="M47.15,19.97c-.62,0-1.13-.5-1.13-1.13v-1.88h-1.88c-.62,0-1.13-.5-1.13-1.13s.5-1.13,1.13-1.13h3.01c.62,0,1.13.5,1.13,1.13v3.01c0,.62-.5,1.13-1.13,1.13Z"/>
  <path class="cls-2" d="M29.46,18.83c-.25,0-.49-.08-.7-.25-.49-.39-.57-1.1-.18-1.58l1.94-2.45c.39-.49,1.1-.57,1.58-.18l2.48,1.97c.49.39.57,1.1.18,1.58s-1.1.57-1.58.18l-1.6-1.27-1.24,1.56c-.22.28-.55.43-.88.43Z"/>
  <path class="cls-2" d="M18.51,33.96c-.37,0-.72-.18-.94-.5l-1.73-2.6c-.17-.25-.22-.55-.17-.85s.23-.55.48-.72l2.65-1.75c.52-.34,1.22-.2,1.56.32s.2,1.22-.32,1.56l-1.71,1.13,1.1,1.67c.34.52.2,1.22-.32,1.56-.19.13-.41.19-.62.19Z"/>
  <path class="cls-2" d="M45.42,35.49c-.21,0-.43-.06-.62-.19-.52-.34-.66-1.04-.32-1.56l1.1-1.66-1.71-1.13c-.52-.34-.66-1.04-.32-1.56.34-.52,1.04-.66,1.56-.32l2.64,1.75c.52.34.66,1.04.32,1.56l-1.72,2.6c-.22.33-.58.5-.94.5Z"/>
  <path class="cls-2" d="M36.45,51.24c-.2,0-.4-.05-.58-.16l-2.72-1.64c-.53-.32-.7-1.01-.38-1.55.32-.53,1.01-.71,1.55-.38l1.75,1.06,1.03-1.71c.32-.53,1.01-.71,1.55-.38.53.32.7,1.01.38,1.55l-1.61,2.67c-.21.35-.58.54-.97.54Z"/>
  <g>
    <circle class="cls-3" cx="53.68" cy="8.59" r="4.38"/>
    <circle class="cls-3" cx="53.68" cy="33.44" r="4.38"/>
    <circle class="cls-3" cx="30.64" cy="8.59" r="4.38"/>
    <circle class="cls-3" cx="10.81" cy="28.15" r="4.38"/>
    <circle class="cls-3" cx="10.81" cy="56.36" r="4.38"/>
    <circle class="cls-3" cx="39.2" cy="56.36" r="4.38"/>
  </g>
</svg>
