<svg width="24" height="24" viewBox="0 0 24 24" fill="none" xmlns="http://www.w3.org/2000/svg">
<path d="M15.809 9.5L18.5 4.11803L21.191 9.5H15.809Z" fill="#4DBB4D" stroke="#767865"/>
<path d="M17.8519 23C17.8519 19.3333 20.2963 18.5185 20.2963 15.2593V13.6296C20.2963 12.9546 19.7491 12.4074 19.0741 12.4074C18.3991 12.4074 17.8519 12.9546 17.8519 13.6296V12.8148C17.8519 12.1398 17.3046 11.5926 16.6296 11.5926C15.9546 11.5926 15.4074 12.1398 15.4074 12.8148C15.4074 12.1398 14.8602 11.5926 14.1852 11.5926C13.5102 11.5926 12.963 12.1398 12.963 12.8148V8.74075C12.963 8.06573 12.4158 7.51852 11.7407 7.51852C11.0657 7.51852 10.5185 8.06573 10.5185 8.74075V15.2593C10.5185 14.5842 9.97131 14.037 9.2963 14.037C8.62128 14.037 8.07407 14.5842 8.07407 15.2593V16.8889C8.07407 21.3704 10.5185 19.3333 10.5185 23H17.8519Z" fill="white"/>
<path d="M17.8519 23V23.5C18.128 23.5 18.3519 23.2761 18.3519 23H17.8519ZM10.5185 23H10.0185C10.0185 23.2761 10.2424 23.5 10.5185 23.5V23ZM12.463 15.2593C12.463 15.5354 12.6868 15.7593 12.963 15.7593C13.2391 15.7593 13.463 15.5354 13.463 15.2593H12.463ZM10.0185 16.8889C10.0185 17.165 10.2424 17.3889 10.5185 17.3889C10.7947 17.3889 11.0185 17.165 11.0185 16.8889H10.0185ZM14.9074 15.2593C14.9074 15.5354 15.1313 15.7593 15.4074 15.7593C15.6835 15.7593 15.9074 15.5354 15.9074 15.2593H14.9074ZM17.3519 15.2593C17.3519 15.5354 17.5757 15.7593 17.8519 15.7593C18.128 15.7593 18.3519 15.5354 18.3519 15.2593H17.3519ZM19.7963 15.2593C19.7963 16.742 19.2531 17.6557 18.64 18.7288C18.0184 19.8165 17.3519 21.0315 17.3519 23H18.3519C18.3519 21.3018 18.9075 20.2761 19.5082 19.2249C20.1172 18.1591 20.7963 17.0358 20.7963 15.2593H19.7963ZM17.8519 22.5H10.5185V23.5H17.8519V22.5ZM11.0185 23C11.0185 22.0301 10.8572 21.3737 10.569 20.8774C10.2859 20.3899 9.89921 20.1016 9.61639 19.8659C9.32959 19.6269 9.09235 19.4043 8.91 19.0092C8.72207 18.602 8.57407 17.9685 8.57407 16.8889H7.57407C7.57407 18.05 7.73163 18.8424 8.00204 19.4283C8.27802 20.0262 8.65189 20.3639 8.9762 20.6341C9.30449 20.9077 9.5289 21.0777 9.70418 21.3795C9.87432 21.6726 10.0185 22.1366 10.0185 23H11.0185ZM12.463 8.74075V12.8148H13.463V8.74075H12.463ZM12.463 12.8148V15.2593H13.463V12.8148H12.463ZM11.0185 16.8889V15.2593H10.0185V16.8889H11.0185ZM11.0185 15.2593V8.74075H10.0185V15.2593H11.0185ZM11.7407 8.01852C12.1396 8.01852 12.463 8.34187 12.463 8.74075H13.463C13.463 7.78959 12.6919 7.01852 11.7407 7.01852V8.01852ZM11.7407 7.01852C10.7896 7.01852 10.0185 7.78959 10.0185 8.74075H11.0185C11.0185 8.34187 11.3419 8.01852 11.7407 8.01852V7.01852ZM14.9074 12.8148V15.2593H15.9074V12.8148H14.9074ZM14.1852 12.0926C14.5841 12.0926 14.9074 12.4159 14.9074 12.8148H15.9074C15.9074 11.8637 15.1363 11.0926 14.1852 11.0926V12.0926ZM14.1852 11.0926C13.234 11.0926 12.463 11.8637 12.463 12.8148H13.463C13.463 12.4159 13.7863 12.0926 14.1852 12.0926V11.0926ZM17.3519 12.8148V13.6296H18.3519V12.8148H17.3519ZM17.3519 13.6296V15.2593H18.3519V13.6296H17.3519ZM16.6296 12.0926C17.0285 12.0926 17.3519 12.4159 17.3519 12.8148H18.3519C18.3519 11.8637 17.5808 11.0926 16.6296 11.0926V12.0926ZM16.6296 11.0926C15.6785 11.0926 14.9074 11.8637 14.9074 12.8148H15.9074C15.9074 12.4159 16.2308 12.0926 16.6296 12.0926V11.0926ZM8.57407 16.8889V15.2593H7.57407V16.8889H8.57407ZM9.2963 14.537C9.69517 14.537 10.0185 14.8604 10.0185 15.2593H11.0185C11.0185 14.3081 10.2475 13.537 9.2963 13.537V14.537ZM9.2963 13.537C8.34514 13.537 7.57407 14.3081 7.57407 15.2593H8.57407C8.57407 14.8604 8.89742 14.537 9.2963 14.537V13.537ZM19.7963 13.6296V15.2593H20.7963V13.6296H19.7963ZM19.0741 12.9074C19.4729 12.9074 19.7963 13.2308 19.7963 13.6296H20.7963C20.7963 12.6785 20.0252 11.9074 19.0741 11.9074V12.9074ZM19.0741 11.9074C18.1229 11.9074 17.3519 12.6785 17.3519 13.6296H18.3519C18.3519 13.2308 18.6752 12.9074 19.0741 12.9074V11.9074Z" fill="#767865"/>
<circle cx="4.5" cy="8.5" r="3" fill="#EC1C24" stroke="#767865"/>
<rect x="9.5" y="0.5" width="5" height="5" fill="#2896D3" stroke="#767865"/>
</svg>
