<svg id="Layer_1" data-name="Layer 1" xmlns="http://www.w3.org/2000/svg" viewBox="0 0 64 64"><title>SVG_Artboards</title><path d="M14.94,61,4.34,45h6.22V17H31.29v8.76h-12V45h6.21Z" style="fill:#2896d3"/><path d="M14.94,62.1a1.15,1.15,0,0,1-.94-.5l-10.6-16a1.12,1.12,0,0,1,.94-1.75H9.43V17a1.13,1.13,0,0,1,1.13-1.13H31.29A1.12,1.12,0,0,1,32.42,17v8.76a1.13,1.13,0,0,1-1.13,1.13H20.45V43.86h5.09a1.12,1.12,0,0,1,.94,1.75l-10.6,16A1.14,1.14,0,0,1,14.94,62.1Zm-8.5-16,8.5,12.83,8.51-12.83H19.33A1.12,1.12,0,0,1,18.2,45V25.79a1.12,1.12,0,0,1,1.13-1.12H30.17V18.15H11.69V45a1.13,1.13,0,0,1-1.13,1.13Z" style="fill:#6f6f59"/><path d="M49.36,3.4,60,19.39H53.74v28H33V38.58H45V19.39H38.75Z" style="fill:#2896d3"/><path d="M53.74,48.47H33a1.12,1.12,0,0,1-1.12-1.12V38.58A1.12,1.12,0,0,1,33,37.46H43.85V20.52h-5.1a1.13,1.13,0,0,1-1-.6,1.11,1.11,0,0,1,.05-1.15l10.61-16a1.17,1.17,0,0,1,1.88,0l10.61,16A1.11,1.11,0,0,1,61,19.92a1.12,1.12,0,0,1-1,.6h-5.1V47.35A1.12,1.12,0,0,1,53.74,48.47Zm-19.6-2.25H52.62V19.39a1.13,1.13,0,0,1,1.12-1.13h4.13L49.36,5.44,40.85,18.26H45a1.14,1.14,0,0,1,1.13,1.13V38.58A1.14,1.14,0,0,1,45,39.71H34.14Z" style="fill:#6f6f59"/></svg>
