<svg id="Layer_1" data-name="Layer 1" xmlns="http://www.w3.org/2000/svg" viewBox="0 0 64 64"><title>SVG_Artboards</title><path d="M55.43,56.56H8.57a1.14,1.14,0,0,1-1.13-1.13V8.57A1.14,1.14,0,0,1,8.57,7.44H55.43a1.14,1.14,0,0,1,1.13,1.13V55.43A1.14,1.14,0,0,1,55.43,56.56ZM9.7,54.3H54.3V9.7H9.7Z" style="fill:#6f6f59"/><polygon points="26.84 48.31 12.25 33.72 17.34 28.63 26.84 38.13 46.66 18.3 51.75 23.39 26.84 48.31" style="fill:#a7d28c"/><path d="M26.84,49.43a1.13,1.13,0,0,1-.8-.33L11.45,34.52a1.14,1.14,0,0,1-.33-.8,1.11,1.11,0,0,1,.33-.79l5.09-5.09a1.13,1.13,0,0,1,1.6,0l8.7,8.69,19-19a1.13,1.13,0,0,1,1.6,0l5.09,5.09a1.12,1.12,0,0,1,0,1.59L27.63,49.1A1.12,1.12,0,0,1,26.84,49.43Zm-13-15.71,13,13L50.16,23.39l-3.5-3.49-19,19a1.12,1.12,0,0,1-1.59,0l-8.7-8.69Z" style="fill:#6f6f59"/></svg>
