<svg id="Layer_1" data-name="Layer 1" xmlns="http://www.w3.org/2000/svg" viewBox="0 0 64 64"><title>SVG_Artboards</title><path d="M23.56,22.29a13.31,13.31,0,0,1,18,0h11.2V19.81a7.52,7.52,0,0,0-7.5-7.5H19.77a7.52,7.52,0,0,0-7.5,7.5v2.48Z" style="fill:#231f20"/><path d="M41.83,41.64a13.29,13.29,0,0,1-18.59,0h-11v4.43a7.53,7.53,0,0,0,7.5,7.5H45.21a7.52,7.52,0,0,0,7.5-7.5V41.64Z" style="fill:#231f20"/><path d="M22.47,23.68H7.24a1,1,0,0,0-.73,1.79l3.42,2.91h9.76A11.61,11.61,0,0,1,22.47,23.68Z" style="fill:#231f20"/><path d="M57.3,23.68H42.6a11.61,11.61,0,0,1,2.78,4.7h9.23L58,25.47A1,1,0,0,0,57.3,23.68Z" style="fill:#231f20"/><path d="M19.23,32a10.3,10.3,0,0,1,.29-2.43H4.33a1,1,0,0,0-.77,1.82l3.59,3H19.5A10.14,10.14,0,0,1,19.23,32Z" style="fill:#231f20"/><path d="M60,29.54H45.55A10.3,10.3,0,0,1,45.84,32a10.14,10.14,0,0,1-.27,2.35H57.15l3.59-3A1,1,0,0,0,60,29.54Z" style="fill:#231f20"/><path d="M55.41,35.56h-10a11,11,0,0,1-2.72,4.53h10l3.42-2.8A1,1,0,0,0,55.41,35.56Z" style="fill:#231f20"/><path d="M19.66,35.56H9.41a1,1,0,0,0-.73,1.73l3.42,2.8H22.38A11.06,11.06,0,0,1,19.66,35.56Z" style="fill:#231f20"/><path d="M41,36.44l-.63-.4a1.48,1.48,0,0,0-2,.36,7.28,7.28,0,0,1-5.88,2.93A7.4,7.4,0,0,1,30.12,39a23.31,23.31,0,0,1-.6-6.53,23.19,23.19,0,0,1,.6-6.51,7.41,7.41,0,0,1,2.37-.39,7.31,7.31,0,0,1,5.69,2.68,1.56,1.56,0,0,0,2,.35l.6-.36a1.07,1.07,0,0,0,.33-1.55,10.65,10.65,0,0,0-8.66-4.35A10.35,10.35,0,0,0,22,32.43,10.34,10.34,0,0,0,32.49,42.56,10.63,10.63,0,0,0,41.33,38,1.08,1.08,0,0,0,41,36.44Z" style="fill:#231f20"/></svg>
