<svg id="Layer_1" data-name="Layer 1" xmlns="http://www.w3.org/2000/svg" viewBox="0 0 64 64"><title>SVG_Artboards</title><rect x="14.72" y="3.91" width="5.94" height="24.54" transform="translate(33.88 -1.51) rotate(90)" style="fill:#cdcece"/><path d="M30,20.28H5.42a1.14,1.14,0,0,1-1.13-1.13V13.21a1.13,1.13,0,0,1,1.13-1.12H30a1.13,1.13,0,0,1,1.13,1.12v5.94A1.14,1.14,0,0,1,30,20.28ZM6.55,18H28.84V14.34H6.55Z" style="fill:#787878"/><rect x="14.72" y="19.73" width="5.94" height="24.54" transform="translate(49.69 14.31) rotate(90)" style="fill:#cdcece"/><path d="M30,36.1H5.42A1.14,1.14,0,0,1,4.29,35V29A1.14,1.14,0,0,1,5.42,27.9H30A1.14,1.14,0,0,1,31.09,29V35A1.14,1.14,0,0,1,30,36.1ZM6.55,33.84H28.84V30.16H6.55Z" style="fill:#787878"/><rect x="14.72" y="35.55" width="5.94" height="24.54" transform="translate(65.51 30.12) rotate(90)" style="fill:#cdcece"/><path d="M30,51.91H5.42a1.13,1.13,0,0,1-1.13-1.12V44.85a1.14,1.14,0,0,1,1.13-1.13H30a1.14,1.14,0,0,1,1.13,1.13v5.94A1.13,1.13,0,0,1,30,51.91ZM6.55,49.66H28.84V46H6.55Z" style="fill:#787878"/><polygon points="54.48 20.73 48.4 26.8 42.33 20.73 36.06 27 42.13 33.07 36.06 39.14 42.33 45.41 48.4 39.34 54.48 45.41 60.74 39.14 54.67 33.07 60.74 27 54.48 20.73" style="fill:#ec1c24"/><path d="M54.47,46.54a1.12,1.12,0,0,1-.79-.33L48.4,40.93l-5.28,5.28a1.12,1.12,0,0,1-1.59,0l-6.27-6.27a1.12,1.12,0,0,1,0-1.59l5.28-5.28-5.28-5.28a1.12,1.12,0,0,1,0-1.59l6.27-6.27a1.14,1.14,0,0,1,.8-.33h0a1.11,1.11,0,0,1,.79.33l5.28,5.28,5.28-5.28a1.12,1.12,0,0,1,1.59,0l6.27,6.27a1.12,1.12,0,0,1,0,1.59l-5.28,5.28,5.28,5.28a1.12,1.12,0,0,1,0,1.59l-6.27,6.27A1.13,1.13,0,0,1,54.47,46.54ZM48.4,38.21a1.13,1.13,0,0,1,.8.33l5.27,5.28,4.68-4.68-5.28-5.27a1.13,1.13,0,0,1,0-1.6L59.15,27l-4.68-4.68L49.2,27.6a1.14,1.14,0,0,1-.8.33h0a1.14,1.14,0,0,1-.8-.33l-5.27-5.28L37.65,27l5.28,5.27a1.13,1.13,0,0,1,0,1.6l-5.28,5.27,4.68,4.68,5.27-5.28A1.13,1.13,0,0,1,48.4,38.21Z" style="fill:#787878"/></svg>
