<svg id="Layer_1" data-name="Layer 1" xmlns="http://www.w3.org/2000/svg" viewBox="0 0 64 64"><title>SVG_Artboards</title><path d="M49.51,54.07H13.74a1.14,1.14,0,0,1-1.13-1.13V38.88a1.13,1.13,0,1,1,2.26,0V51.81H48.39V40.16a1.13,1.13,0,1,1,2.25,0V52.94A1.13,1.13,0,0,1,49.51,54.07Z" style="fill:#787878"/><polygon points="45.66 45.54 29.39 34.88 29.39 8.81 42.01 5 57.39 11.54 57.39 38.57 45.66 45.54" style="fill:#cdcece"/><path d="M45.66,46.67a1.08,1.08,0,0,1-.62-.19L28.77,35.82a1.11,1.11,0,0,1-.51-.94V8.81a1.12,1.12,0,0,1,.8-1.08L41.69,3.92a1.17,1.17,0,0,1,.76,0L57.83,10.5a1.13,1.13,0,0,1,.69,1v27a1.12,1.12,0,0,1-.55,1l-11.74,7A1.14,1.14,0,0,1,45.66,46.67ZM30.51,34.27l15.18,9.94,10.58-6.28V12.29L42,6.2,30.51,9.65Z" style="fill:#787878"/><polygon points="57.39 38.57 45.63 45.54 45.63 16.76 57.39 11.54 57.39 38.57" style="fill:#f3ebee"/><polygon points="29.39 34.88 45.63 45.54 45.63 16.76 29.39 8.81 29.39 34.88" style="fill:#b1b2a5"/><path d="M45.63,46.67a1.13,1.13,0,0,1-1.13-1.13V17.46L28.89,9.82a1.12,1.12,0,1,1,1-2l16.24,8a1.12,1.12,0,0,1,.63,1V45.54A1.13,1.13,0,0,1,45.63,46.67Z" style="fill:#787878"/><path d="M45.63,17.89a1.13,1.13,0,0,1-.46-2.16l11.52-5.11a1.13,1.13,0,0,1,.91,2.06L46.08,17.79A1.18,1.18,0,0,1,45.63,17.89Z" style="fill:#787878"/><path d="M45.66,46.67a1.08,1.08,0,0,1-.62-.19L28.77,35.82a1.11,1.11,0,0,1-.51-.94V8.81a1.12,1.12,0,0,1,.8-1.08L41.69,3.92a1.08,1.08,0,0,1,.77.05L57.6,10.62a1.13,1.13,0,0,1,.67,1l.25,26.92a1.15,1.15,0,0,1-.55,1l-11.74,7A1.14,1.14,0,0,1,45.66,46.67ZM30.51,34.27l15.18,9.94,10.57-6.28L56,12.39,41.94,6.2,30.51,9.65Z" style="fill:#787878"/><path d="M49.35,23.07a1.13,1.13,0,0,1-.49-2.14l4.32-2.1a1.12,1.12,0,0,1,1.5.53,1.11,1.11,0,0,1-.52,1.5L49.84,23A1.07,1.07,0,0,1,49.35,23.07Z" style="fill:#787878"/><path d="M49.35,27.85a1.1,1.1,0,0,1-1-.64,1.12,1.12,0,0,1,.52-1.5l4.32-2.09a1.13,1.13,0,0,1,1,2l-4.32,2.09A1.21,1.21,0,0,1,49.35,27.85Z" style="fill:#787878"/><polygon points="22.88 45.54 6.61 34.88 6.61 8.81 19.23 5 34.61 11.54 34.61 38.57 22.88 45.54" style="fill:#cdcece"/><path d="M22.88,46.67a1.1,1.1,0,0,1-.62-.19L6,35.82a1.11,1.11,0,0,1-.51-.94V8.81a1.13,1.13,0,0,1,.8-1.08L18.91,3.92a1.17,1.17,0,0,1,.76,0L35.05,10.5a1.13,1.13,0,0,1,.69,1v27a1.12,1.12,0,0,1-.55,1l-11.73,7A1.21,1.21,0,0,1,22.88,46.67ZM7.73,34.27l15.18,9.94,10.58-6.28V12.29L19.17,6.2,7.73,9.65Z" style="fill:#787878"/><polygon points="34.61 38.57 22.85 45.54 22.85 16.76 34.61 11.54 34.61 38.57" style="fill:#f3ebee"/><polygon points="6.61 34.88 22.85 45.54 22.85 16.76 6.61 8.81 6.61 34.88" style="fill:#b1b2a5"/><path d="M22.85,46.67a1.14,1.14,0,0,1-1.13-1.13V17.46L6.11,9.82a1.12,1.12,0,1,1,1-2l16.24,8a1.12,1.12,0,0,1,.63,1V45.54A1.13,1.13,0,0,1,22.85,46.67Z" style="fill:#787878"/><path d="M22.85,17.89a1.13,1.13,0,0,1-.46-2.16l11.52-5.11a1.13,1.13,0,1,1,.91,2.06L23.3,17.79A1.18,1.18,0,0,1,22.85,17.89Z" style="fill:#787878"/><path d="M22.88,46.67a1.1,1.1,0,0,1-.62-.19L6,35.82a1.11,1.11,0,0,1-.51-.94V8.81a1.13,1.13,0,0,1,.8-1.08L18.91,3.92a1.08,1.08,0,0,1,.77.05l15.14,6.65a1.13,1.13,0,0,1,.67,1l.25,26.92a1.11,1.11,0,0,1-.55,1l-11.73,7A1.21,1.21,0,0,1,22.88,46.67ZM7.73,34.27l15.18,9.94,10.57-6.28-.23-25.54L19.16,6.2,7.73,9.65Z" style="fill:#787878"/><path d="M26.57,23.07a1.13,1.13,0,0,1-.49-2.14l4.32-2.1a1.12,1.12,0,0,1,1.5.53,1.11,1.11,0,0,1-.52,1.5L27.06,23A1.07,1.07,0,0,1,26.57,23.07Z" style="fill:#787878"/><path d="M26.57,27.85a1.1,1.1,0,0,1-1-.64,1.12,1.12,0,0,1,.52-1.5l4.32-2.09a1.13,1.13,0,0,1,1,2l-4.32,2.09A1.21,1.21,0,0,1,26.57,27.85Z" style="fill:#787878"/><circle cx="32.7" cy="52.85" r="6.71" style="fill:#a7d28c"/><path d="M32.71,60.31a7.46,7.46,0,1,1,7.46-7.46A7.47,7.47,0,0,1,32.71,60.31Zm0-13.42a6,6,0,1,0,6,6A6,6,0,0,0,32.71,46.89Z" style="fill:#787878"/></svg>
