<svg id="Layer_1" data-name="Layer 1" xmlns="http://www.w3.org/2000/svg" viewBox="0 0 64 64"><title>SVG_Artboards</title><path d="M57.13,46.36H25.74a2,2,0,0,1-2-2V7a2,2,0,0,1,2-2H49.3l9.85,10.54V44.35A2,2,0,0,1,57.13,46.36Z" style="fill:#d9dddd"/><path d="M57.13,47.49H25.74a3.15,3.15,0,0,1-3.14-3.14V7a3.15,3.15,0,0,1,3.14-3.14H49.3a1.11,1.11,0,0,1,.82.36L60,14.72a1.16,1.16,0,0,1,.3.77V44.35A3.15,3.15,0,0,1,57.13,47.49ZM25.74,6.08a.88.88,0,0,0-.89.88V44.35a.89.89,0,0,0,.89.89H57.13a.89.89,0,0,0,.89-.89V15.94L48.81,6.08Z" style="fill:#787878"/><rect x="29.5" y="38.23" width="23.87" height="2.22" style="fill:#787878"/><rect x="29.5" y="31.69" width="23.87" height="2.22" style="fill:#787878"/><rect x="29.5" y="25.15" width="23.87" height="2.22" style="fill:#787878"/><rect x="29.5" y="15.16" width="13.87" height="2.22" style="fill:#787878"/><path d="M37.9,59.59H6.51a2,2,0,0,1-2-2V20.19a2,2,0,0,1,2-2H30.06l9.85,10.54V57.58A2,2,0,0,1,37.9,59.59Z" style="fill:#d9dddd"/><path d="M37.9,60.72H6.51a3.14,3.14,0,0,1-3.14-3.14V20.19a3.14,3.14,0,0,1,3.14-3.14H30.06a1.13,1.13,0,0,1,.83.36L40.74,28a1.12,1.12,0,0,1,.3.76V57.58A3.15,3.15,0,0,1,37.9,60.72ZM6.51,19.31a.88.88,0,0,0-.89.88V57.58a.89.89,0,0,0,.89.89H37.9a.89.89,0,0,0,.89-.89V29.17l-9.21-9.86Z" style="fill:#787878"/><rect x="10.27" y="51.47" width="23.87" height="2.22" style="fill:#787878"/><rect x="10.27" y="44.92" width="23.87" height="2.22" style="fill:#787878"/><rect x="10.27" y="38.38" width="23.87" height="2.22" style="fill:#787878"/><rect x="10.27" y="28.39" width="13.87" height="2.22" style="fill:#787878"/></svg>
