<svg id="Layer_1" data-name="Layer 1" xmlns="http://www.w3.org/2000/svg" viewBox="0 0 64 64"><title>SVG_Artboards</title><path d="M49.51,55.05H13.74a1.14,1.14,0,0,1-1.13-1.13V39.86a1.13,1.13,0,1,1,2.26,0V52.79H48.39V41.14a1.13,1.13,0,1,1,2.25,0V53.92A1.13,1.13,0,0,1,49.51,55.05Z" style="fill:#787878"/><polygon points="45.66 46.52 29.39 35.86 29.39 9.79 42.01 5.98 57.39 12.52 57.39 39.55 45.66 46.52" style="fill:#cdcece"/><path d="M45.66,47.65a1.08,1.08,0,0,1-.62-.19L28.77,36.8a1.11,1.11,0,0,1-.51-.94V9.79a1.12,1.12,0,0,1,.8-1.08L41.69,4.9a1.17,1.17,0,0,1,.76,0l15.38,6.54a1.13,1.13,0,0,1,.69,1v27a1.12,1.12,0,0,1-.55,1l-11.74,7A1,1,0,0,1,45.66,47.65ZM30.51,35.25l15.18,9.94,10.58-6.28V13.27L42,7.18,30.51,10.63Z" style="fill:#787878"/><polygon points="57.39 39.55 45.63 46.52 45.63 17.74 57.39 12.52 57.39 39.55" style="fill:#f3ebee"/><polygon points="29.39 35.86 45.63 46.52 45.63 17.74 29.39 9.79 29.39 35.86" style="fill:#b1b2a5"/><path d="M45.63,47.65a1.13,1.13,0,0,1-1.13-1.13V18.44L28.89,10.8a1.12,1.12,0,1,1,1-2l16.24,8a1.12,1.12,0,0,1,.63,1V46.52A1.13,1.13,0,0,1,45.63,47.65Z" style="fill:#787878"/><path d="M45.63,18.87a1.13,1.13,0,0,1-.46-2.16L56.69,11.6a1.13,1.13,0,0,1,.91,2.06L46.08,18.77A1,1,0,0,1,45.63,18.87Z" style="fill:#787878"/><path d="M45.66,47.65a1.08,1.08,0,0,1-.62-.19L28.77,36.8a1.11,1.11,0,0,1-.51-.94V9.79a1.12,1.12,0,0,1,.8-1.08L41.69,4.9a1.08,1.08,0,0,1,.77,0L57.6,11.6a1.13,1.13,0,0,1,.67,1l.25,26.92a1.14,1.14,0,0,1-.55,1l-11.74,7A1,1,0,0,1,45.66,47.65ZM30.51,35.25l15.18,9.94,10.57-6.28L56,13.37,41.94,7.18,30.51,10.63Z" style="fill:#787878"/><path d="M49.35,24.05a1.13,1.13,0,0,1-.49-2.14l4.32-2.1a1.12,1.12,0,0,1,1.5.53,1.11,1.11,0,0,1-.52,1.5l-4.32,2.1A1.21,1.21,0,0,1,49.35,24.05Z" style="fill:#787878"/><path d="M49.35,28.83a1.11,1.11,0,0,1-1-.63,1.13,1.13,0,0,1,.52-1.51l4.32-2.09a1.13,1.13,0,0,1,1,2l-4.32,2.09A1.21,1.21,0,0,1,49.35,28.83Z" style="fill:#787878"/><polygon points="22.88 46.52 6.61 35.86 6.61 9.79 19.23 5.98 34.61 12.52 34.61 39.55 22.88 46.52" style="fill:#cdcece"/><path d="M22.88,47.65a1.1,1.1,0,0,1-.62-.19L6,36.8a1.11,1.11,0,0,1-.51-.94V9.79a1.13,1.13,0,0,1,.8-1.08L18.91,4.9a1.17,1.17,0,0,1,.76,0l15.38,6.54a1.13,1.13,0,0,1,.69,1v27a1.12,1.12,0,0,1-.55,1l-11.73,7A1.1,1.1,0,0,1,22.88,47.65ZM7.73,35.25l15.18,9.94,10.58-6.28V13.27L19.17,7.18,7.73,10.63Z" style="fill:#787878"/><polygon points="34.61 39.55 22.85 46.52 22.85 17.74 34.61 12.52 34.61 39.55" style="fill:#f3ebee"/><polygon points="6.61 35.86 22.85 46.52 22.85 17.74 6.61 9.79 6.61 35.86" style="fill:#b1b2a5"/><path d="M22.85,47.65a1.14,1.14,0,0,1-1.13-1.13V18.44L6.11,10.8a1.12,1.12,0,1,1,1-2l16.24,8a1.12,1.12,0,0,1,.63,1V46.52A1.13,1.13,0,0,1,22.85,47.65Z" style="fill:#787878"/><path d="M22.85,18.87a1.13,1.13,0,0,1-.46-2.16L33.91,11.6a1.13,1.13,0,1,1,.91,2.06L23.3,18.77A1,1,0,0,1,22.85,18.87Z" style="fill:#787878"/><path d="M22.88,47.65a1.1,1.1,0,0,1-.62-.19L6,36.8a1.11,1.11,0,0,1-.51-.94V9.79a1.13,1.13,0,0,1,.8-1.08L18.91,4.9a1.08,1.08,0,0,1,.77,0L34.82,11.6a1.13,1.13,0,0,1,.67,1l.25,26.92a1.1,1.1,0,0,1-.55,1l-11.73,7A1.1,1.1,0,0,1,22.88,47.65ZM7.73,35.25l15.18,9.94,10.57-6.28-.23-25.54L19.16,7.18,7.73,10.63Z" style="fill:#787878"/><path d="M26.57,24.05a1.13,1.13,0,0,1-.49-2.14l4.32-2.1a1.12,1.12,0,0,1,1.5.53,1.11,1.11,0,0,1-.52,1.5l-4.32,2.1A1.21,1.21,0,0,1,26.57,24.05Z" style="fill:#787878"/><path d="M26.57,28.83a1.11,1.11,0,0,1-1-.63,1.13,1.13,0,0,1,.52-1.51L30.4,24.6a1.13,1.13,0,0,1,1,2l-4.32,2.09A1.21,1.21,0,0,1,26.57,28.83Z" style="fill:#787878"/><polygon points="36.12 46.87 32.7 50.28 29.29 46.87 25.76 50.39 29.18 53.81 25.76 57.23 29.29 60.76 32.7 57.34 36.12 60.76 39.65 57.23 36.23 53.81 39.65 50.39 36.12 46.87" style="fill:#de4130"/><path d="M36.12,61.51a.79.79,0,0,1-.53-.22L32.71,58.4l-2.89,2.89a.75.75,0,0,1-1.06,0l-3.53-3.53a.75.75,0,0,1,0-1.06l2.89-2.89-2.89-2.89a.75.75,0,0,1,0-1.06l3.53-3.52a.74.74,0,0,1,1.06,0l2.89,2.88,2.88-2.88a.71.71,0,0,1,.53-.22h0a.71.71,0,0,1,.53.22l3.53,3.52a.75.75,0,0,1,0,1.06l-2.89,2.89,2.89,2.89a.75.75,0,0,1,0,1.06l-3.53,3.53A.75.75,0,0,1,36.12,61.51Zm-9.3-4.28,2.47,2.47,2.88-2.89a.77.77,0,0,1,1.07,0l2.88,2.89,2.47-2.47L35.7,54.34a.75.75,0,0,1,0-1.06l2.89-2.89-2.47-2.46-2.88,2.88a.75.75,0,0,1-1.07,0l-2.88-2.88-2.47,2.46,2.89,2.89a.75.75,0,0,1,0,1.06Z" style="fill:#787878"/></svg>
