<svg id="Layer_1" data-name="Layer 1" xmlns="http://www.w3.org/2000/svg" viewBox="0 0 64 64"><title>SVG_Artboards</title><rect x="17.52" y="15.45" width="28.97" height="49.1" transform="translate(72 8) rotate(90)" style="fill:#a7d28c;stroke:#6f6f59;stroke-linecap:round;stroke-linejoin:round;stroke-width:2.2536px"/><rect x="8.56" y="26.62" width="2.96" height="26.71" style="fill:#603c89"/><rect x="11.52" y="26.62" width="2.96" height="26.71" style="fill:#46449b"/><rect x="14.42" y="26.62" width="2.96" height="26.71" style="fill:#2a5aa8"/><rect x="17.38" y="26.62" width="2.96" height="26.71" style="fill:#0c71b8"/><rect x="20.36" y="26.62" width="2.96" height="26.71" style="fill:#0d7fc2"/><rect x="23.32" y="26.62" width="2.96" height="26.71" style="fill:#198ece"/><rect x="26.22" y="26.62" width="2.96" height="26.71" style="fill:#25a1db"/><rect x="29.18" y="26.62" width="2.96" height="26.71" style="fill:#12b2d2"/><rect x="32.19" y="26.62" width="2.96" height="26.71" style="fill:#4bb88e"/><rect x="23.21" y="38.49" width="26.71" height="2.96" transform="translate(76.54 3.41) rotate(90)" style="fill:#98c37e"/><rect x="26.17" y="38.49" width="26.71" height="2.96" transform="translate(79.5 0.45) rotate(90)" style="fill:#a4c661"/><rect x="29.07" y="38.49" width="26.71" height="2.96" transform="translate(82.4 -2.45) rotate(90)" style="fill:#c6c835"/><rect x="32.03" y="38.49" width="26.71" height="2.96" transform="translate(85.36 -5.41) rotate(90)" style="fill:#e8c61d"/><rect x="35.01" y="38.49" width="26.71" height="2.96" transform="translate(88.34 -8.39) rotate(90)" style="fill:#e2ae27"/><rect x="37.97" y="38.49" width="26.71" height="2.96" transform="translate(91.3 -11.35) rotate(90)" style="fill:#dc9a2a"/><rect x="40.87" y="38.49" width="26.71" height="2.96" transform="translate(94.2 -14.25) rotate(90)" style="fill:#c58338"/><line x1="23.49" y1="34.89" x2="23.49" y2="46.71" style="fill:none;stroke:#6f6f59;stroke-linecap:round;stroke-linejoin:round;stroke-width:2.2536px"/><line x1="39.95" y1="34.89" x2="39.95" y2="46.71" style="fill:none;stroke:#6f6f59;stroke-linecap:round;stroke-linejoin:round;stroke-width:2.2536px"/><line x1="56.07" y1="40.8" x2="8.94" y2="40.8" style="fill:none;stroke:#6f6f59;stroke-linecap:round;stroke-linejoin:round;stroke-width:2.2536px"/><circle cx="21.12" cy="20.63" r="15.5" style="fill:#a7d28c;stroke:#6f6f59;stroke-linecap:round;stroke-linejoin:round;stroke-width:2.2536px"/></svg>
