<svg id="Layer_1" data-name="Layer 1" xmlns="http://www.w3.org/2000/svg" viewBox="0 0 64 64"><title>SVG_Artboards</title><path d="M31.8,9V31.58H54.41V9ZM48.17,25.34H38V15.21H48.17Z" style="fill:#f3c017"/><path d="M54.41,32.71H31.8a1.12,1.12,0,0,1-1.13-1.13V9A1.12,1.12,0,0,1,31.8,7.85H54.41A1.13,1.13,0,0,1,55.54,9V31.58A1.13,1.13,0,0,1,54.41,32.71ZM32.92,30.46H53.28V10.1H32.92Zm15.25-4H38a1.13,1.13,0,0,1-1.13-1.13V15.21A1.14,1.14,0,0,1,38,14.08H48.17a1.14,1.14,0,0,1,1.13,1.13V25.34A1.13,1.13,0,0,1,48.17,26.47Zm-9-2.25H47V16.34H39.16Z" style="fill:#6f6f59"/><path d="M9.16,9V31.58H31.78V9ZM25.54,25.34H15.4V15.21H25.54Z" style="fill:#f3c017"/><path d="M31.78,32.71H9.16A1.12,1.12,0,0,1,8,31.58V9A1.12,1.12,0,0,1,9.16,7.85H31.78A1.12,1.12,0,0,1,32.9,9V31.58A1.12,1.12,0,0,1,31.78,32.71ZM10.29,30.46H30.65V10.1H10.29Zm15.25-4H15.4a1.12,1.12,0,0,1-1.12-1.13V15.21a1.13,1.13,0,0,1,1.12-1.13H25.54a1.13,1.13,0,0,1,1.12,1.13V25.34A1.12,1.12,0,0,1,25.54,26.47Zm-9-2.25h7.88V16.34H16.53Z" style="fill:#6f6f59"/><path d="M31.8,31.61V54.22H54.41V31.61ZM48.17,48H38V37.85H48.17Z" style="fill:#f3c017"/><path d="M54.41,55.34H31.8a1.12,1.12,0,0,1-1.13-1.12V31.61a1.12,1.12,0,0,1,1.13-1.13H54.41a1.13,1.13,0,0,1,1.13,1.13V54.22A1.13,1.13,0,0,1,54.41,55.34ZM32.92,53.09H53.28V32.73H32.92Zm15.25-4H38A1.13,1.13,0,0,1,36.91,48V37.85A1.13,1.13,0,0,1,38,36.72H48.17a1.13,1.13,0,0,1,1.13,1.13V48A1.13,1.13,0,0,1,48.17,49.1Zm-9-2.25H47V39H39.16Z" style="fill:#6f6f59"/><path d="M9.16,31.61V54.22H31.78V31.61ZM25.54,48H15.4V37.85H25.54Z" style="fill:#f3c017"/><path d="M31.78,55.34H9.16A1.12,1.12,0,0,1,8,54.22V31.61a1.12,1.12,0,0,1,1.12-1.13H31.78a1.12,1.12,0,0,1,1.12,1.13V54.22A1.12,1.12,0,0,1,31.78,55.34ZM10.29,53.09H30.65V32.73H10.29Zm15.25-4H15.4A1.12,1.12,0,0,1,14.28,48V37.85a1.12,1.12,0,0,1,1.12-1.13H25.54a1.12,1.12,0,0,1,1.12,1.13V48A1.12,1.12,0,0,1,25.54,49.1Zm-9-2.25h7.88V39H16.53Z" style="fill:#6f6f59"/><circle cx="9.08" cy="8.97" r="3.51" style="fill:#6f6f59"/><circle cx="9.08" cy="31.58" r="3.51" style="fill:#6f6f59"/><circle cx="31.84" cy="8.97" r="3.51" style="fill:#6f6f59"/><circle cx="31.84" cy="31.58" r="3.51" style="fill:#6f6f59"/><circle cx="31.8" cy="8.97" r="3.51" style="fill:#6f6f59"/><circle cx="31.8" cy="31.58" r="3.51" style="fill:#6f6f59"/><circle cx="54.56" cy="8.97" r="3.51" style="fill:#6f6f59"/><circle cx="54.56" cy="31.58" r="3.51" style="fill:#6f6f59"/><circle cx="54.56" cy="54.2" r="3.51" style="fill:#6f6f59"/><circle cx="54.56" cy="31.59" r="3.51" style="fill:#6f6f59"/><circle cx="31.8" cy="54.2" r="3.51" style="fill:#6f6f59"/><circle cx="31.8" cy="31.59" r="3.51" style="fill:#6f6f59"/><path d="M31.84,55.33H9.23A1.14,1.14,0,0,1,8.1,54.2V31.59a1.14,1.14,0,0,1,1.13-1.13H31.84A1.14,1.14,0,0,1,33,31.59V54.2A1.14,1.14,0,0,1,31.84,55.33ZM10.36,53.07H30.71V32.71H10.36Z" style="fill:#6f6f59"/><circle cx="31.84" cy="31.59" r="3.51" style="fill:#6f6f59"/><circle cx="9.08" cy="31.59" r="3.51" style="fill:#6f6f59"/><circle cx="9.08" cy="54.2" r="3.51" style="fill:#6f6f59"/><circle cx="31.84" cy="54.2" r="3.51" style="fill:#6f6f59"/></svg>
