<svg id="Layer_1" data-name="Layer 1" xmlns="http://www.w3.org/2000/svg" viewBox="0 0 64 64"><title>SVG_Artboards</title><polygon points="30.34 37.19 37.38 30.15 57.31 50.08 60.18 59.99 50.27 57.12 30.34 37.19" style="fill:#fff"/><path d="M60.18,61.12a1.12,1.12,0,0,1-.31,0L50,58.2a1.07,1.07,0,0,1-.49-.29L29.55,38a1.12,1.12,0,0,1,0-1.59l7-7a1.15,1.15,0,0,1,1.6,0L58.1,49.28a1.09,1.09,0,0,1,.29.48l2.87,9.92A1.11,1.11,0,0,1,61,60.79,1.15,1.15,0,0,1,60.18,61.12Zm-9.32-5,7.67,2.22-2.22-7.67L37.38,31.75l-5.44,5.44Z" style="fill:#6f6f59"/><rect x="7.42" y="5.92" width="6.18" height="4.54" rx="2.03" style="fill:#787878"/><polygon points="40.06 4.26 24.07 4.26 20.96 9.42 43.17 9.42 40.06 4.26" style="fill:#cdcece"/><path d="M43.17,10.55H21a1.13,1.13,0,0,1-1-1.71L23.1,3.68a1.13,1.13,0,0,1,1-.54h16a1.11,1.11,0,0,1,1,.54l3.11,5.16a1.12,1.12,0,0,1-1,1.71ZM23,8.3H41.17L39.42,5.39H24.71Z" style="fill:#787878"/><rect x="4.33" y="8.86" width="51.31" height="36.74" rx="6.96" style="fill:#cdcece"/><path d="M48.68,46.72H11.29a8.09,8.09,0,0,1-8.08-8.09V15.82a8.09,8.09,0,0,1,8.08-8.09H48.68a8.1,8.1,0,0,1,8.09,8.09V38.63A8.1,8.1,0,0,1,48.68,46.72ZM11.29,10a5.84,5.84,0,0,0-5.83,5.84V38.63a5.84,5.84,0,0,0,5.83,5.84H48.68a5.85,5.85,0,0,0,5.84-5.84V15.82A5.85,5.85,0,0,0,48.68,10Z" style="fill:#787878"/><circle cx="10.51" cy="14.52" r="2.33" style="fill:#de4130"/><circle cx="32.64" cy="27.23" r="13.8" style="fill:#cdcece"/><path d="M32.64,42.15A14.93,14.93,0,1,1,47.56,27.23,14.95,14.95,0,0,1,32.64,42.15Zm0-27.59A12.67,12.67,0,1,0,45.3,27.23,12.68,12.68,0,0,0,32.64,14.56Z" style="fill:#787878"/><circle cx="32.64" cy="27.23" r="9.96" style="fill:#d0e5f6"/><path d="M32.64,38.31A11.09,11.09,0,1,1,43.72,27.23,11.09,11.09,0,0,1,32.64,38.31Zm0-19.91a8.83,8.83,0,1,0,8.83,8.83A8.84,8.84,0,0,0,32.64,18.4Z" style="fill:#787878"/><path d="M27.09,28.24a6.65,6.65,0,0,1,11.94-4A6.65,6.65,0,1,0,27.6,30.81,6.66,6.66,0,0,1,27.09,28.24Z" style="fill:#47b1d8"/><rect x="38.31" y="29.77" width="9.95" height="26.65" transform="translate(-17.8 43.23) rotate(-45)" style="fill:#f3c017"/><path d="M49.19,57.17a1.13,1.13,0,0,1-.8-.33L29.55,38a1.12,1.12,0,0,1,0-1.59l7-7a1.12,1.12,0,0,1,1.59,0L57,48.2a1.13,1.13,0,0,1,0,1.6l-7,7A1.13,1.13,0,0,1,49.19,57.17Zm-17.25-20L49.19,54.45,54.64,49,37.38,31.75Z" style="fill:#6f6f59"/><path d="M58.79,59.78h-.07l-2.39-.14a1.12,1.12,0,0,1-1-.72,1.13,1.13,0,0,1,.25-1.2l2.26-2.26a1.13,1.13,0,0,1,1.2-.25,1.09,1.09,0,0,1,.72,1l.14,2.4a1.1,1.1,0,0,1-.33.86A1.13,1.13,0,0,1,58.79,59.78Z" style="fill:#6f6f59"/><rect x="41.84" y="31.53" width="1.08" height="25.95" transform="translate(-19.06 43) rotate(-45)" style="fill:#6f6f59"/><rect x="44.1" y="29.27" width="1.08" height="25.95" transform="translate(-16.8 43.93) rotate(-45)" style="fill:#6f6f59"/></svg>
