<svg id="Layer_1" data-name="Layer 1" xmlns="http://www.w3.org/2000/svg" viewBox="0 0 64 64"><title>SVG_Artboards</title><rect x="10.56" y="27.68" width="28.2" height="28.2" style="fill:#a7d28c"/><path d="M38.77,57H10.56a1.12,1.12,0,0,1-1.12-1.13V27.68a1.13,1.13,0,0,1,1.12-1.13H38.77a1.14,1.14,0,0,1,1.13,1.13v28.2A1.13,1.13,0,0,1,38.77,57ZM11.69,54.76h26V28.81H11.69Z" style="fill:#6f6f59"/><polygon points="53.44 8.12 30.12 8.12 10.56 27.68 38.77 27.68 53.44 8.12" style="fill:#72be44"/><path d="M39.33,28.81H7.84L29.65,7h26Zm-26-2.26H38.2l13-17.31H30.59Z" style="fill:#6f6f59"/><polygon points="38.77 55.88 53.44 31.44 53.44 8.12 38.77 27.68 38.77 55.88" style="fill:#72be44"/><path d="M37.64,60V27.3L54.56,4.74v27ZM39.9,28.06V51.82L52.31,31.13V11.5Z" style="fill:#6f6f59"/><circle cx="53.44" cy="8.12" r="4.38" style="fill:#6f6f59"/><circle cx="53.44" cy="32.97" r="4.38" style="fill:#6f6f59"/><rect x="11.66" y="28.78" width="26.01" height="26.01" style="fill:#72be44"/><circle cx="30.4" cy="8.12" r="4.38" style="fill:#6f6f59"/><circle cx="10.56" cy="27.68" r="4.38" style="fill:#6f6f59"/><circle cx="10.56" cy="55.88" r="4.38" style="fill:#6f6f59"/><circle cx="38.96" cy="27.68" r="4.38" style="fill:#6f6f59"/><circle cx="38.96" cy="55.88" r="4.38" style="fill:#6f6f59"/></svg>
