<svg id="Layer_1" data-name="Layer 1" xmlns="http://www.w3.org/2000/svg" viewBox="0 0 64 64"><title>SVG_Artboards</title><rect x="5.2" y="28.78" width="21" height="21" style="fill:#a7d28c"/><path d="M26.2,50.91H5.2a1.13,1.13,0,0,1-1.12-1.13v-21A1.12,1.12,0,0,1,5.2,27.66h21a1.13,1.13,0,0,1,1.13,1.12v21A1.14,1.14,0,0,1,26.2,50.91ZM6.33,48.65H25.07V29.91H6.33Z" style="fill:#6f6f59"/><polygon points="40.84 14.22 19.76 14.22 5.21 28.78 26.2 28.78 40.84 14.22" style="fill:#a69768"/><path d="M26.67,29.91H2.48L19.3,13.09H43.57ZM7.92,27.66H25.74L38.11,15.35H20.23Z" style="fill:#6f6f59"/><circle cx="37.12" cy="32.72" r="3.26" style="fill:#6f6f59"/><rect x="6.02" y="29.6" width="19.36" height="19.36" style="fill:#a69768"/><circle cx="19.97" cy="14.22" r="3.26" style="fill:#6f6f59"/><circle cx="5.2" cy="28.78" r="3.26" style="fill:#6f6f59"/><circle cx="5.2" cy="49.78" r="3.26" style="fill:#6f6f59"/><circle cx="26.34" cy="28.78" r="3.26" style="fill:#6f6f59"/><circle cx="26.34" cy="49.78" r="3.26" style="fill:#6f6f59"/><rect x="26.3" y="28.78" width="21" height="21" style="fill:#a7d28c"/><path d="M47.3,50.91h-21a1.14,1.14,0,0,1-1.13-1.13v-21a1.13,1.13,0,0,1,1.13-1.12h21a1.12,1.12,0,0,1,1.12,1.12v21A1.13,1.13,0,0,1,47.3,50.91ZM27.43,48.65H46.17V29.91H27.43Z" style="fill:#6f6f59"/><polygon points="58.22 14.22 39.37 14.22 26.3 28.78 47.3 28.78 58.22 14.22" style="fill:#ffc418"/><path d="M47.86,29.91H23.78L38.87,13.09h21.6Zm-19-2.25h17.9L56,15.35H39.87Z" style="fill:#6f6f59"/><polygon points="47.3 49.78 58.22 31.58 58.22 14.22 47.3 28.78 47.3 49.78" style="fill:#ffc418"/><path d="M47.3,50.91a1.54,1.54,0,0,1-.3,0,1.13,1.13,0,0,1-.83-1.09v-21a1.09,1.09,0,0,1,.23-.67L57.31,13.55a1.13,1.13,0,0,1,2,.68V31.58a1.06,1.06,0,0,1-.16.58L48.26,50.36A1.1,1.1,0,0,1,47.3,50.91Zm1.12-21.75V45.71l8.67-14.44V17.61Z" style="fill:#6f6f59"/><circle cx="58.22" cy="14.22" r="3.26" style="fill:#6f6f59"/><circle cx="58.22" cy="32.72" r="3.26" style="fill:#6f6f59"/><rect x="27.12" y="29.6" width="19.36" height="19.36" style="fill:#ffc418"/><circle cx="39.09" cy="14.22" r="3.26" style="fill:#6f6f59"/><circle cx="26.3" cy="28.78" r="3.26" style="fill:#6f6f59"/><circle cx="26.3" cy="49.78" r="3.26" style="fill:#6f6f59"/><circle cx="47.44" cy="28.78" r="3.26" style="fill:#6f6f59"/><circle cx="47.44" cy="49.78" r="3.26" style="fill:#6f6f59"/></svg>
