<svg id="Layer_1" data-name="Layer 1" xmlns="http://www.w3.org/2000/svg" viewBox="0 0 64 64"><title>SVG_Artboards</title><polygon points="28.2 28.41 45.78 28.41 45.78 7.02 6.81 7.02 6.81 45.99 28.2 45.99 28.2 28.41" style="fill:#d0e5f6"/><path d="M28.2,47.12H6.81A1.13,1.13,0,0,1,5.68,46V7A1.13,1.13,0,0,1,6.81,5.9h39A1.13,1.13,0,0,1,46.91,7V28.41a1.14,1.14,0,0,1-1.13,1.13H29.32V46A1.12,1.12,0,0,1,28.2,47.12ZM7.94,44.87H27.07V28.41a1.14,1.14,0,0,1,1.13-1.13H44.65V8.15H7.94Z" style="fill:#787878"/><rect x="36.25" y="36.7" width="17.99" height="17.99" style="fill:#a7d28c"/><path d="M55.1,56.23H51.5V54.87h2.93V51.94h1.35v3.61A.68.68,0,0,1,55.1,56.23Z" style="fill:#787878"/><path d="M55.1,56.51H51.21V54.59h2.93V51.66h1.92v3.89A1,1,0,0,1,55.1,56.51ZM51.78,56H55.1a.4.4,0,0,0,.4-.4V52.22h-.79v2.93H51.78Z" style="fill:#787878"/><rect x="43.16" y="54.87" width="4.17" height="1.35" style="fill:#787878"/><path d="M47.61,56.51H42.88V54.59h4.73ZM43.45,56h3.6v-.8h-3.6Z" style="fill:#787878"/><path d="M39,56.23H35.39a.69.69,0,0,1-.68-.68V51.94h1.36v2.93H39Z" style="fill:#787878"/><path d="M39.28,56.51H35.39a1,1,0,0,1-1-1V51.66h1.92v2.93h2.93ZM35,52.22v3.33a.4.4,0,0,0,.4.4h3.33v-.8H35.79V52.22Z" style="fill:#787878"/><rect x="34.71" y="43.61" width="1.35" height="4.17" style="fill:#787878"/><path d="M36.35,48.06H34.43V43.33h1.92ZM35,47.49h.8v-3.6H35Z" style="fill:#787878"/><path d="M36.07,39.44H34.71v-3.6a.68.68,0,0,1,.68-.68H39v1.35H36.07Z" style="fill:#787878"/><path d="M36.35,39.72H34.43V35.84a1,1,0,0,1,1-1h3.89v1.91H36.35ZM35,39.16h.8V36.23h2.93v-.79H35.39a.4.4,0,0,0-.4.4Z" style="fill:#787878"/><rect x="43.16" y="35.16" width="4.17" height="1.35" style="fill:#787878"/><path d="M47.61,36.79H42.88V34.88h4.73Zm-4.16-.56h3.6v-.79h-3.6Z" style="fill:#787878"/><path d="M55.78,39.44H54.43V36.51H51.5V35.16h3.6a.67.67,0,0,1,.68.68Z" style="fill:#787878"/><path d="M56.06,39.72H54.14V36.79H51.21V34.88H55.1a1,1,0,0,1,1,1Zm-1.35-.56h.79V35.84a.4.4,0,0,0-.4-.4H51.78v.79h2.93Z" style="fill:#787878"/><rect x="54.43" y="43.61" width="1.35" height="4.17" style="fill:#787878"/><path d="M56.06,48.06H54.14V43.33h1.92Zm-1.35-.57h.79v-3.6h-.79Z" style="fill:#787878"/></svg>
