<svg id="Layer_1" data-name="Layer 1" xmlns="http://www.w3.org/2000/svg" viewBox="0 0 64 64"><title>SVG_Artboards</title><polygon points="58.76 11.66 33.72 3.39 5.25 10.06 5.25 43.51 26.65 60.88 58.76 45.11 58.76 11.66 58.76 11.66" style="fill:#d0e5f6"/><path d="M26.65,62a1.12,1.12,0,0,1-.71-.25L4.53,44.38a1.12,1.12,0,0,1-.41-.87V10.06A1.12,1.12,0,0,1,5,9L33.46,2.29a1.06,1.06,0,0,1,.61,0l25,8.27a1.12,1.12,0,0,1,.77,1.07V45.11a1.12,1.12,0,0,1-.63,1L27.15,61.89A1.1,1.1,0,0,1,26.65,62ZM6.37,43,26.8,59.55,57.63,44.41V12.47l-24-7.91L6.37,11Z" style="fill:#6f6f59"/><polygon points="14.81 34.8 26.52 43.3 26.52 21.64 14.81 15.5 14.81 34.8" style="fill:#719943"/><path d="M26.52,44.43a1.07,1.07,0,0,1-.66-.22l-11.71-8.5a1.11,1.11,0,0,1-.47-.91V15.5a1.13,1.13,0,0,1,1.65-1L27,20.64a1.13,1.13,0,0,1,.61,1V43.3a1.14,1.14,0,0,1-.62,1A1.16,1.16,0,0,1,26.52,44.43ZM15.93,34.23l9.46,6.86V22.32l-9.46-5Z" style="fill:#6f6f59"/><polygon points="44.08 36.68 26.52 43.3 26.52 21.64 44.08 16.38 44.08 36.68" style="fill:#a7d28c"/><path d="M26.52,44.43a1.13,1.13,0,0,1-1.13-1.13V21.64a1.13,1.13,0,0,1,.81-1.08L43.76,15.3a1.09,1.09,0,0,1,1,.17,1.14,1.14,0,0,1,.46.91v20.3a1.11,1.11,0,0,1-.73,1L26.92,44.36A1.4,1.4,0,0,1,26.52,44.43Zm1.13-21.95V41.67L43,35.9v-18Zm16.43,14.2h0Z" style="fill:#6f6f59"/><polygon points="30.38 10.85 44.08 16.38 26.52 21.64 14.81 15.5 30.38 10.85" style="fill:#5b8036"/><path d="M26.52,22.76a1.06,1.06,0,0,1-.52-.13L14.29,16.5a1.11,1.11,0,0,1-.6-1.11,1.12,1.12,0,0,1,.8-1L30.06,9.77a1.11,1.11,0,0,1,.74,0l13.7,5.52a1.13,1.13,0,0,1,.71,1.1,1.15,1.15,0,0,1-.81,1L26.84,22.72A1.12,1.12,0,0,1,26.52,22.76Zm-8.74-7,8.85,4.64,14.05-4.21L30.33,12.05Z" style="fill:#6f6f59"/><path d="M26.65,22.4a1.06,1.06,0,0,1-.52-.13L4.72,11.05a1.1,1.1,0,0,1-.59-1.13A1.13,1.13,0,0,1,5,9L33.46,2.29a1.06,1.06,0,0,1,.61,0l25,8.27a1.13,1.13,0,0,1,0,2.15L27,22.35A1.26,1.26,0,0,1,26.65,22.4ZM8.45,10.46l18.32,9.6L55,11.61l-21.34-7Z" style="fill:#6f6f59"/><path d="M26.65,62a1.12,1.12,0,0,1-.71-.25L4.53,44.38a1.12,1.12,0,0,1-.41-.87V10.06a1.13,1.13,0,0,1,.54-1,1.15,1.15,0,0,1,1.11,0l21.4,11.21a1.12,1.12,0,0,1,.61,1V60.88a1.14,1.14,0,0,1-.64,1A1.19,1.19,0,0,1,26.65,62ZM6.37,43,25.53,58.51V22l-19.16-10Z" style="fill:#6f6f59"/></svg>
