<svg id="Layer_1" data-name="Layer 1" xmlns="http://www.w3.org/2000/svg" viewBox="0 0 64 64"><polygon points="33.67 17.29 49.35 14.11 46.18 29.8 33.67 17.29" style="fill:#f3c017"/><path d="M46.18,30.93a1.13,1.13,0,0,1-.79-.33L32.87,18.09a1.13,1.13,0,0,1,.58-1.91L49.13,13a1.14,1.14,0,0,1,1,.31,1.11,1.11,0,0,1,.31,1L47.29,30a1.12,1.12,0,0,1-.78.85A1.26,1.26,0,0,1,46.18,30.93ZM36,18l9.55,9.54,2.41-12Z" style="fill:#6f6f59"/><polygon points="21.77 29.19 37.45 26.01 34.28 41.71 21.77 29.19" style="fill:#a7d28c"/><path d="M34.28,42.83a1.11,1.11,0,0,1-.8-.33L21,30a1.13,1.13,0,0,1-.28-1.12,1.11,1.11,0,0,1,.85-.78l15.69-3.18a1.14,1.14,0,0,1,1,.31,1.12,1.12,0,0,1,.3,1L35.38,41.93a1.09,1.09,0,0,1-1.1.9ZM24.05,29.88l9.54,9.54,2.42-12Z" style="fill:#6f6f59"/><polygon points="9.46 41.5 25.15 38.32 21.98 54.01 9.46 41.5" style="fill:#a7d28c"/><path d="M22,55.14a1.14,1.14,0,0,1-.8-.33L8.67,42.29a1.12,1.12,0,0,1,.57-1.9l15.68-3.18a1.15,1.15,0,0,1,1,.31,1.13,1.13,0,0,1,.3,1L23.08,54.23a1.12,1.12,0,0,1-.78.86A1.25,1.25,0,0,1,22,55.14Zm-10.23-13,9.54,9.55,2.42-12Z" style="fill:#6f6f59"/><path d="M9.38,9.37h5.53V2.72H8.49A5.71,5.71,0,0,0,2.78,8.43v6.44h6.6Z" style="fill:#2896d3"/><path d="M9.38,16H2.78a1.14,1.14,0,0,1-1.13-1.13V8.43A6.85,6.85,0,0,1,8.49,1.59h6.42A1.13,1.13,0,0,1,16,2.72V9.37a1.13,1.13,0,0,1-1.13,1.12h-4.4v4.38A1.13,1.13,0,0,1,9.38,16ZM3.9,13.74H8.26V9.37A1.12,1.12,0,0,1,9.38,8.24h4.4V3.84H8.49A4.6,4.6,0,0,0,3.9,8.43Z" style="fill:#6f6f59"/><path d="M54.63,9.32v5.53h6.65V8.43a5.72,5.72,0,0,0-5.72-5.71H49.13v6.6Z" style="fill:#2896d3"/><path d="M61.28,16H54.63a1.14,1.14,0,0,1-1.13-1.13v-4.4H49.13A1.13,1.13,0,0,1,48,9.32V2.72a1.13,1.13,0,0,1,1.13-1.13h6.43a6.85,6.85,0,0,1,6.85,6.84v6.42A1.14,1.14,0,0,1,61.28,16Zm-5.52-2.26h4.39V8.43a4.59,4.59,0,0,0-4.59-4.59H50.25V8.2h4.38a1.13,1.13,0,0,1,1.13,1.12Z" style="fill:#6f6f59"/><path d="M54.67,55H49.15V61.6h6.41a5.72,5.72,0,0,0,5.72-5.71V49.45H54.67Z" style="fill:#2896d3"/><path d="M55.56,62.73H49.15A1.14,1.14,0,0,1,48,61.6V55a1.13,1.13,0,0,1,1.13-1.12h4.4V49.45a1.13,1.13,0,0,1,1.12-1.13h6.61a1.14,1.14,0,0,1,1.13,1.13v6.44A6.85,6.85,0,0,1,55.56,62.73Zm-5.28-2.25h5.28a4.59,4.59,0,0,0,4.59-4.59V50.58H55.8V55a1.12,1.12,0,0,1-1.13,1.13H50.28Z" style="fill:#6f6f59"/><path d="M9.43,55V49.47H2.78v6.42A5.71,5.71,0,0,0,8.49,61.6h6.44V55Z" style="fill:#2896d3"/><path d="M14.93,62.73H8.49a6.85,6.85,0,0,1-6.84-6.84V49.47a1.14,1.14,0,0,1,1.13-1.13H9.43a1.13,1.13,0,0,1,1.12,1.13v4.4h4.38A1.13,1.13,0,0,1,16.06,55v6.6A1.14,1.14,0,0,1,14.93,62.73ZM3.9,50.6v5.29a4.6,4.6,0,0,0,4.59,4.59H13.8V56.12H9.43A1.12,1.12,0,0,1,8.3,55V50.6Z" style="fill:#6f6f59"/></svg>
