<svg id="Layer_1" data-name="Layer 1" xmlns="http://www.w3.org/2000/svg" viewBox="0 0 64 64"><title>SVG_Artboards</title><polygon points="24.7 16.7 48.02 32.16 24.7 47.63 24.7 39.42 4.29 39.42 4.29 24.92 24.7 24.92 24.7 16.7" style="fill:#a7d28c"/><path d="M24.7,48.76a1.12,1.12,0,0,1-.53-.13,1.14,1.14,0,0,1-.59-1V40.55H4.29a1.13,1.13,0,0,1-1.12-1.13V24.92a1.12,1.12,0,0,1,1.12-1.13H23.58V16.7a1.13,1.13,0,0,1,1.75-.94L48.64,31.22a1.12,1.12,0,0,1,0,1.88L25.33,48.57A1.11,1.11,0,0,1,24.7,48.76ZM5.42,38.29H24.7a1.13,1.13,0,0,1,1.13,1.13v6.11L46,32.16,25.83,18.8v6.12A1.12,1.12,0,0,1,24.7,26H5.42Z" style="fill:#6f6f59"/><path d="M4.29,9.84v6.44H10.9v-5.5H53.07V53.22H10.9V48.31H4.29v5.85A5.72,5.72,0,0,0,10,59.87H54a5.71,5.71,0,0,0,5.71-5.71V9.84A5.71,5.71,0,0,0,54,4.13H10A5.72,5.72,0,0,0,4.29,9.84Z" style="fill:#2896d3"/><path d="M54,61H10a6.85,6.85,0,0,1-6.84-6.84V48.31a1.12,1.12,0,0,1,1.12-1.12H10.9A1.13,1.13,0,0,1,12,48.31V52.1H52V11.9H12v4.38a1.14,1.14,0,0,1-1.13,1.13H4.29a1.13,1.13,0,0,1-1.12-1.13V9.84A6.85,6.85,0,0,1,10,3H54a6.85,6.85,0,0,1,6.85,6.84V54.16A6.85,6.85,0,0,1,54,61ZM5.42,49.44v4.72A4.6,4.6,0,0,0,10,58.75H54a4.59,4.59,0,0,0,4.59-4.59V9.84A4.59,4.59,0,0,0,54,5.25H10A4.6,4.6,0,0,0,5.42,9.84v5.31H9.77V10.78A1.13,1.13,0,0,1,10.9,9.65H53.08a1.12,1.12,0,0,1,1.12,1.13V53.22a1.12,1.12,0,0,1-1.12,1.13H10.9a1.13,1.13,0,0,1-1.13-1.13V49.44Z" style="fill:#6f6f59"/></svg>
