<svg id="Layer_1" data-name="Layer 1" xmlns="http://www.w3.org/2000/svg" viewBox="0 0 64 64"><title>SVG_Artboards</title><polygon points="18.15 21.36 48.46 15.21 42.33 45.53 35.91 39.11 23.07 51.95 11.74 40.61 24.57 27.78 18.15 21.36" style="fill:#f3c017"/><path d="M23.07,53.08a1.12,1.12,0,0,1-.79-.33L10.94,41.41a1.13,1.13,0,0,1,0-1.6l12-12-5.63-5.63a1.13,1.13,0,0,1,.58-1.9l30.31-6.14a1.13,1.13,0,0,1,1,.3,1.16,1.16,0,0,1,.31,1L43.44,45.76a1.14,1.14,0,0,1-.78.85,1.13,1.13,0,0,1-1.13-.28l-5.62-5.62-12,12A1.13,1.13,0,0,1,23.07,53.08ZM13.33,40.61l9.74,9.74,12-12a1.15,1.15,0,0,1,1.6,0l4.93,4.93L47,16.65,20.43,22,25.37,27a1.12,1.12,0,0,1,0,1.59Z" style="fill:#6f6f59"/><path d="M9.31,9.32h5.53V2.67H8.42A5.72,5.72,0,0,0,2.71,8.39v6.44h6.6Z" style="fill:#2896d3"/><path d="M9.31,16H2.71a1.12,1.12,0,0,1-1.13-1.12V8.39A6.85,6.85,0,0,1,8.42,1.55h6.42A1.13,1.13,0,0,1,16,2.67V9.32a1.14,1.14,0,0,1-1.13,1.13h-4.4v4.38A1.13,1.13,0,0,1,9.31,16ZM3.83,13.7H8.19V9.32A1.12,1.12,0,0,1,9.31,8.2h4.4V3.8H8.42A4.6,4.6,0,0,0,3.83,8.39Z" style="fill:#6f6f59"/><path d="M54.56,9.28v5.53h6.65V8.39a5.72,5.72,0,0,0-5.72-5.72H49.06V9.28Z" style="fill:#2896d3"/><path d="M61.21,15.93H54.56a1.13,1.13,0,0,1-1.13-1.12v-4.4H49.06a1.13,1.13,0,0,1-1.13-1.13V2.67a1.12,1.12,0,0,1,1.13-1.12h6.43a6.85,6.85,0,0,1,6.85,6.84v6.42A1.13,1.13,0,0,1,61.21,15.93Zm-5.52-2.25h4.39V8.39A4.6,4.6,0,0,0,55.49,3.8H50.18V8.15h4.38a1.14,1.14,0,0,1,1.13,1.13Z" style="fill:#6f6f59"/><path d="M54.6,54.91H49.08v6.65h6.41a5.72,5.72,0,0,0,5.72-5.72V49.41H54.6Z" style="fill:#2896d3"/><path d="M55.49,62.69H49.08A1.14,1.14,0,0,1,48,61.56V54.91a1.14,1.14,0,0,1,1.13-1.13h4.4V49.41a1.12,1.12,0,0,1,1.12-1.13h6.61a1.13,1.13,0,0,1,1.13,1.13v6.43A6.85,6.85,0,0,1,55.49,62.69ZM50.2,60.43h5.29a4.6,4.6,0,0,0,4.59-4.59V50.53H55.73v4.38A1.13,1.13,0,0,1,54.6,56H50.2Z" style="fill:#6f6f59"/><path d="M9.36,55V49.43H2.71v6.41a5.72,5.72,0,0,0,5.71,5.72h6.44V55Z" style="fill:#2896d3"/><path d="M14.86,62.69H8.42a6.85,6.85,0,0,1-6.84-6.85V49.43A1.13,1.13,0,0,1,2.71,48.3H9.35a1.13,1.13,0,0,1,1.13,1.13v4.4h4.38A1.13,1.13,0,0,1,16,55v6.61A1.14,1.14,0,0,1,14.86,62.69Zm-11-12.14v5.29a4.6,4.6,0,0,0,4.59,4.59h5.31V56.08H9.35A1.12,1.12,0,0,1,8.23,55v-4.4Z" style="fill:#6f6f59"/></svg>
