<svg id="Layer_1" data-name="Layer 1" xmlns="http://www.w3.org/2000/svg" viewBox="0 0 64 64"><title>SVG_Artboards</title><path d="M59.94,31.86S47.49,14.37,31.31,14.37c-16.81,0-28.1,17.49-28.1,17.49S14.5,49.35,31.31,49.35C47.49,49.35,59.94,31.86,59.94,31.86Z" style="fill:#fff"/><path d="M31.31,50.48c-17.22,0-28.58-17.27-29-18a1.12,1.12,0,0,1,0-1.22c.47-.73,11.83-18,29.05-18,16.57,0,29,17.23,29.54,18a1.13,1.13,0,0,1,0,1.31C60.33,33.25,47.88,50.48,31.31,50.48ZM4.57,31.86c2.18,3,12.51,16.37,26.74,16.37C45,48.23,56.09,35,58.52,31.86,56.09,28.74,45,15.5,31.31,15.5,17.08,15.5,6.75,28.82,4.57,31.86Z" style="fill:#787878"/><circle cx="31.57" cy="31.86" r="16.19" style="fill:#2896d3"/><circle cx="31.57" cy="31.86" r="9.51" style="fill:#12141c"/><g style="opacity:0.9"><circle cx="24.2" cy="24.17" r="6.65" style="fill:#fff"/></g></svg>
