<svg id="Layer_1" data-name="Layer 1" xmlns="http://www.w3.org/2000/svg" viewBox="0 0 64 64"><title>SVG_Artboards</title><path d="M31.47,45.11c-12.45,0-21.59-9.19-22-9.58A1.13,1.13,0,0,1,11.1,34c.09.09,8.88,8.91,20.37,8.91s20.28-9.23,20.36-9.33a1.14,1.14,0,0,1,1.6-.05,1.13,1.13,0,0,1,0,1.59C53.09,35.48,43.93,45.11,31.47,45.11Z" style="fill:#787878"/><path d="M10.3,26.11a1.13,1.13,0,0,1-.77-.3,1.11,1.11,0,0,1,0-1.59c.38-.41,9.55-10,22-10s21.59,9.19,22,9.58a1.12,1.12,0,0,1,0,1.59,1.13,1.13,0,0,1-1.6,0c-.09-.09-8.88-8.91-20.36-8.91s-20.28,9.23-20.37,9.33A1.14,1.14,0,0,1,10.3,26.11Z" style="fill:#787878"/><path d="M31.47,52.6a1.13,1.13,0,0,1-1.13-1.13V44a1.13,1.13,0,1,1,2.25,0v7.48A1.13,1.13,0,0,1,31.47,52.6Z" style="fill:#787878"/><path d="M21.43,51.14a1.12,1.12,0,0,1-1.09-1.44l2.12-7.18a1.13,1.13,0,1,1,2.16.64l-2.11,7.18A1.13,1.13,0,0,1,21.43,51.14Z" style="fill:#787878"/><path d="M41.5,51.14a1.13,1.13,0,0,1-1.08-.8l-2.11-7.18a1.13,1.13,0,0,1,2.16-.64l2.12,7.18a1.12,1.12,0,0,1-1.09,1.44Z" style="fill:#787878"/><path d="M51.78,45.94a1.13,1.13,0,0,1-.88-.42l-4.69-5.83A1.12,1.12,0,0,1,48,38.28l4.7,5.83a1.13,1.13,0,0,1-.88,1.83Z" style="fill:#787878"/><path d="M11.15,45.94a1.13,1.13,0,0,1-.88-1.83l4.57-5.67a1.13,1.13,0,0,1,1.76,1.41L12,45.52A1.11,1.11,0,0,1,11.15,45.94Z" style="fill:#787878"/></svg>
