<svg id="Layer_1" data-name="Layer 1" xmlns="http://www.w3.org/2000/svg" viewBox="0 0 64 64"><title>SVG_Artboards</title><polygon points="27.26 14.8 25.26 9.4 11.04 9.4 9.04 14.8 3.71 14.8 3.71 49.39 50.8 49.39 50.8 14.8 27.26 14.8" style="fill:#fbf28f"/><path d="M50.8,50.51H3.71a1.12,1.12,0,0,1-1.12-1.12V14.8a1.12,1.12,0,0,1,1.12-1.12H8.26L10,9A1.14,1.14,0,0,1,11,8.28H25.26a1.11,1.11,0,0,1,1,.73L28,13.68H50.8a1.13,1.13,0,0,1,1.13,1.12V49.39A1.13,1.13,0,0,1,50.8,50.51Zm-46-2.25H49.67V15.93H27.26a1.13,1.13,0,0,1-1.06-.73l-1.73-4.67H11.83L10.1,15.2A1.14,1.14,0,0,1,9,15.93H4.84Z" style="fill:#787878"/><polygon points="12.17 22.64 4.86 48.26 13.17 48.26 12.17 22.64" style="fill:#fce07d"/><rect x="13.17" y="22.63" width="45.89" height="26.75" style="fill:#fbf28f"/><path d="M59.07,50.51H13.17a1.12,1.12,0,0,1-1.12-1.12V22.63a1.12,1.12,0,0,1,1.12-1.12h45.9a1.12,1.12,0,0,1,1.12,1.12V49.39A1.12,1.12,0,0,1,59.07,50.51ZM14.3,48.26H57.94V23.76H14.3Z" style="fill:#787878"/><path d="M55,38.89c0-5.56-3.5-10-9.06-10-3.78,0-8.08,3.09-9.79,6.19-1.72-3.11-6-6.21-9.81-6.21-5.56,0-9.06,4.5-9.06,10.06,0,10.83,19.12,23.47,19.12,23.47S55,49.72,55,38.89Z" style="fill:#de4130"/><path d="M36.38,63.48a1.12,1.12,0,0,1-.62-.18C35,62.77,16.13,50.2,16.13,38.89c0-6.48,4.29-11.19,10.19-11.19,3.7,0,7.61,2.56,9.81,5.33,2.19-2.76,6.1-5.31,9.79-5.31,5.9,0,10.19,4.7,10.19,11.17,0,11.3-18.32,23.87-19.1,24.4A1.11,1.11,0,0,1,36.38,63.48ZM26.32,30c-4.67,0-7.93,3.67-7.93,8.93,0,9,14.72,19.82,18,22.09,3.19-2.29,17.48-13.06,17.48-22.09,0-5.25-3.26-8.91-7.93-8.91-3.41,0-7.31,2.9-8.81,5.6a1.12,1.12,0,0,1-1,.58h0a1.12,1.12,0,0,1-1-.58C33.64,32.87,29.74,30,26.32,30Z" style="fill:#6f6f59"/><path d="M26.08,33.41a12.2,12.2,0,0,1,2.83-.85,6.21,6.21,0,0,0-8.47,6.21A10.5,10.5,0,0,1,26.08,33.41Z" style="fill:#ec8786"/></svg>
