<svg id="Layer_1" data-name="Layer 1" xmlns="http://www.w3.org/2000/svg" viewBox="0 0 64 64"><title>SVG_Artboards</title><rect x="9.26" y="9.39" width="22.61" height="22.61" style="fill:#a7d28c"/><path d="M31.87,33.13H9.26A1.14,1.14,0,0,1,8.13,32V9.39A1.13,1.13,0,0,1,9.26,8.26H31.87A1.13,1.13,0,0,1,33,9.39V32A1.14,1.14,0,0,1,31.87,33.13ZM10.39,30.87H30.74V10.51H10.39Z" style="fill:#6f6f59"/><rect x="10.14" y="10.27" width="20.85" height="20.85" style="fill:#a69768"/><circle cx="9.26" cy="9.39" r="3.51" style="fill:#6f6f59"/><circle cx="9.26" cy="32" r="3.51" style="fill:#6f6f59"/><circle cx="32.02" cy="9.39" r="3.51" style="fill:#6f6f59"/><circle cx="32.02" cy="32" r="3.51" style="fill:#6f6f59"/><rect x="31.98" y="9.39" width="22.61" height="22.61" style="fill:#a7d28c"/><path d="M54.59,33.13H32A1.14,1.14,0,0,1,30.85,32V9.39A1.13,1.13,0,0,1,32,8.26H54.59a1.13,1.13,0,0,1,1.13,1.13V32A1.14,1.14,0,0,1,54.59,33.13ZM33.11,30.87H53.46V10.51H33.11Z" style="fill:#6f6f59"/><rect x="32.86" y="10.27" width="20.85" height="20.85" style="fill:#ffc418"/><circle cx="31.98" cy="9.39" r="3.51" style="fill:#6f6f59"/><circle cx="31.98" cy="32" r="3.51" style="fill:#6f6f59"/><circle cx="54.74" cy="9.39" r="3.51" style="fill:#6f6f59"/><circle cx="54.74" cy="32" r="3.51" style="fill:#6f6f59"/><rect x="32.13" y="32" width="22.61" height="22.61" transform="translate(86.87 86.62) rotate(180)" style="fill:#a7d28c"/><path d="M54.74,55.74H32.13A1.13,1.13,0,0,1,31,54.61V32a1.13,1.13,0,0,1,1.13-1.12H54.74A1.13,1.13,0,0,1,55.87,32V54.61A1.13,1.13,0,0,1,54.74,55.74ZM33.26,53.49H53.61V33.13H33.26Z" style="fill:#6f6f59"/><rect x="33.01" y="32.88" width="20.85" height="20.85" transform="translate(86.87 86.62) rotate(180)" style="fill:#a69768"/><circle cx="54.74" cy="54.61" r="3.51" style="fill:#6f6f59"/><circle cx="54.74" cy="32" r="3.51" style="fill:#6f6f59"/><circle cx="31.98" cy="54.61" r="3.51" style="fill:#6f6f59"/><circle cx="31.98" cy="32" r="3.51" style="fill:#6f6f59"/><rect x="9.41" y="32" width="22.61" height="22.61" transform="translate(41.43 86.62) rotate(180)" style="fill:#a7d28c"/><path d="M32,55.74H9.41a1.13,1.13,0,0,1-1.13-1.13V32a1.13,1.13,0,0,1,1.13-1.12H32A1.13,1.13,0,0,1,33.15,32V54.61A1.13,1.13,0,0,1,32,55.74ZM10.54,53.49H30.89V33.13H10.54Z" style="fill:#6f6f59"/><rect x="10.29" y="32.88" width="20.85" height="20.85" transform="translate(41.43 86.62) rotate(180)" style="fill:#ffc418"/><circle cx="32.02" cy="54.61" r="3.51" style="fill:#6f6f59"/><circle cx="32.02" cy="32" r="3.51" style="fill:#6f6f59"/><circle cx="9.26" cy="54.61" r="3.51" style="fill:#6f6f59"/><circle cx="9.26" cy="32" r="3.51" style="fill:#6f6f59"/></svg>
