<svg id="Layer_1" data-name="Layer 1" xmlns="http://www.w3.org/2000/svg" viewBox="0 0 64 64"><title>SVG_Artboards</title><rect x="8.97" y="3.86" width="28.97" height="49.1" style="fill:#cdcece"/><path d="M37.93,54.08H9A1.13,1.13,0,0,1,7.84,53V3.86A1.14,1.14,0,0,1,9,2.73h29a1.13,1.13,0,0,1,1.13,1.13V53A1.12,1.12,0,0,1,37.93,54.08ZM10.1,51.83H36.81V5H10.1Z" style="fill:#787878"/><path d="M45.05,60.15h-8.7V57.89h8.7Zm-17.4,0H19V57.89h8.7Z" style="fill:#787878"/><path d="M10.25,60.15H4.85A1.14,1.14,0,0,1,3.72,59v-5.4H6v4.27h4.27Z" style="fill:#787878"/><path d="M6,46H3.72v-8.7H6Z" style="fill:#787878"/><path d="M6,30.12H3.72v-5.4a1.14,1.14,0,0,1,1.13-1.13h5.4v2.26H6Z" style="fill:#787878"/><path d="M45.05,25.85h-8.7V23.59h8.7Zm-17.4,0H19V23.59h8.7Z" style="fill:#787878"/><path d="M60.28,30.12H58V25.85H53.75V23.59h5.4a1.14,1.14,0,0,1,1.13,1.13Z" style="fill:#787878"/><path d="M60.28,46H58v-8.7h2.26Z" style="fill:#787878"/><polygon points="43.45 54.07 40.79 40.95 53.91 43.6 51.14 46.38 60.1 55.35 55.2 60.26 46.23 51.29 43.45 54.07" style="fill:#787878"/><rect x="10.07" y="48.95" width="26.71" height="2.9" style="fill:#603c89"/><rect x="10.07" y="46.06" width="26.71" height="2.9" style="fill:#46449b"/><rect x="10.07" y="43.22" width="26.71" height="2.9" style="fill:#2a5aa8"/><rect x="10.07" y="40.33" width="26.71" height="2.9" style="fill:#0c71b8"/><rect x="10.07" y="37.42" width="26.71" height="2.9" style="fill:#0d7fc2"/><rect x="10.07" y="34.53" width="26.71" height="2.9" style="fill:#198ece"/><rect x="10.07" y="31.69" width="26.71" height="2.9" style="fill:#25a1db"/><rect x="10.07" y="28.8" width="26.71" height="2.9" style="fill:#12b2d2"/><rect x="10.07" y="25.86" width="26.71" height="2.9" style="fill:#4bb88e"/></svg>
