<svg id="Layer_1" data-name="Layer 1" xmlns="http://www.w3.org/2000/svg" viewBox="0 0 64 64"><title>SVG_Artboards</title><path d="M60.26,19.26l.09-7.87v-.05s0,0,0-.06a2,2,0,0,0-.05-.24.69.69,0,0,0,0-.1,1.14,1.14,0,0,0-.1-.19l-.06-.08a.88.88,0,0,0-.22-.21h0a.91.91,0,0,0-.26-.13h0L50.88,7.72l-4.71-1.4h0l-1-.31L44,5.68h0L36.47,3.43a1.14,1.14,0,0,0-1,.19l-6.24,4.8h0l-7.84,6h0l-8,6.17h0l0,0a1,1,0,0,0-.18.18.56.56,0,0,1-.05.08.7.7,0,0,0-.09.17.42.42,0,0,0,0,.1,1.16,1.16,0,0,0,0,.18.37.37,0,0,0,0,.11s0,0,0,.06L13,35.19a1.11,1.11,0,0,0,.8,1.07l10.13,3.09a1.26,1.26,0,0,0,.33,0l.08,0,7.83-.59h0L48.93,37.5h0L59,36.73a1.13,1.13,0,0,0,1-1.11l.12-10.13h0l.07-6.23ZM36.38,5.76l7,2.08h0l5.82,1.73h0l6.48,1.93-4.22,1.57h0l-.36.14-1.75.65h0L31.19,20.63h0l-3.06,1.14-4,1.48-2-.57L16.5,21.06,21,17.62h0l7.84-6h0ZM15.18,23l6.13,1.75h0l1.77.51V36.74l-7.85-2.39ZM51,35.08h0L34.23,36.37h0L25.37,37l0-11.82L28.69,24l23.55-8.79h0L58.08,13,58,21.49h0l-.07,6.23h0l-.08,6.84Z" style="fill:#cdcece"/><path d="M31.39,53.61l-5.88-1.38V50.48l5.88,1.37ZM19.64,50.86l-5.87-1.37V47.73l5.87,1.37Z" style="fill:#787878"/><path d="M7.89,48.11l-3.64-.85a1.1,1.1,0,0,1-.76-1.06V42L5,42.34v3.34l2.88.67Z" style="fill:#787878"/><path d="M5,35.55,3.49,35.2V28.41L5,28.76ZM5,22l-1.52-.35V14.83L5,15.18Z" style="fill:#787878"/><path d="M5,8.4,3.49,8V3.83c0-.49.34-.8.76-.71L7.89,4V5.74L5,5.06Z" style="fill:#787878"/><path d="M31.39,11.23,25.51,9.86V8.1l5.88,1.37ZM19.64,8.48,13.77,7.11V5.35l5.87,1.38Z" style="fill:#787878"/><path d="M41.67,17l-1.52-.35V13.28l-2.89-.67V10.85l3.65.85a1.1,1.1,0,0,1,.76,1.06Z" style="fill:#787878"/><path d="M41.67,44.13l-1.52-.36V37l1.52.35Zm0-13.58-1.52-.35V23.41l1.52.35Z" style="fill:#787878"/><polygon points="35.31 55.98 33.13 45.18 43.93 47.36 41.64 49.65 49.02 57.03 44.98 61.07 37.6 53.69 35.31 55.98" style="fill:#787878"/><circle cx="14.02" cy="21.67" r="2.57" style="fill:#de4130"/><circle cx="36.27" cy="4.47" r="2.57" style="fill:#de4130"/><circle cx="14.02" cy="35.27" r="2.57" style="fill:#de4130"/><circle cx="24.2" cy="24.62" r="2.57" style="fill:#de4130"/><circle cx="59.08" cy="11.31" r="2.57" style="fill:#de4130"/><circle cx="59.08" cy="35.08" r="2.57" style="fill:#de4130"/><circle cx="24.2" cy="38.21" r="2.57" style="fill:#de4130"/></svg>
