<?xml version="1.0" encoding="utf-8"?>
<!-- Generator: Adobe Illustrator 28.1.0, SVG Export Plug-In . SVG Version: 6.00 Build 0)  -->
<svg version="1.1" id="Layer_1" xmlns="http://www.w3.org/2000/svg" xmlns:xlink="http://www.w3.org/1999/xlink" x="0px" y="0px"
	 viewBox="0 0 64 64" style="enable-background:new 0 0 64 64;" xml:space="preserve">
<style type="text/css">
	.st0{fill:#A7D28C;}
	.st1{fill:#5B8036;}
	.st2{fill:#F5841F;}
	.st3{fill:#F0BC5E;}
	.st4{fill:#2896D3;}
	.st5{fill:#6F6F59;}
	.st6{fill:#787878;}
	.st7{fill:#CDCECE;}
	.st8{fill:#DE4130;}
	.st9{fill:#D0E5F6;}
	.st10{fill:#47B1D8;}
	.st11{fill:#EC1C24;}
	.st12{fill:#FFFFFF;}
	.st13{fill:#F3C017;}
	.st14{fill:#F3D86A;}
	.st15{fill:#D9DDDD;}
	.st16{fill:#231F20;}
	.st17{fill:#F3EBEE;}
	.st18{fill:#B1B2A5;}
	.st19{fill:#FFC418;}
	.st20{fill:#F6D6AD;}
	.st21{fill:#719943;}
	.st22{fill:#A1884C;}
	.st23{fill:#603C89;}
	.st24{fill:#46449B;}
	.st25{fill:#2A5AA8;}
	.st26{fill:#0C71B8;}
	.st27{fill:#0D7FC2;}
	.st28{fill:#198ECE;}
	.st29{fill:#25A1DB;}
	.st30{fill:#12B2D2;}
	.st31{fill:#4BB88E;}
	.st32{fill:#C1A561;}
	.st33{fill:#BBBBBB;}
	.st34{fill:#12141C;}
	.st35{opacity:0.9;}
	.st36{fill:#CDCECE;stroke:#787878;stroke-width:2.2536;stroke-linecap:round;stroke-linejoin:round;stroke-miterlimit:10;}
	.st37{fill:#C5813E;}
	.st38{fill:#A69768;}
	.st39{fill:none;stroke:#6F6F59;stroke-width:2.2536;stroke-linecap:round;stroke-linejoin:round;stroke-miterlimit:10;}
	.st40{fill:#C36828;}
	.st41{fill:#D1D8ED;}
	.st42{fill:#9AC1E0;}
	.st43{fill:#72BE44;}
	.st44{fill:#D0E5F6;stroke:#787878;stroke-width:2.2536;stroke-linecap:round;stroke-linejoin:round;stroke-miterlimit:10;}
	.st45{fill:#D4ECE6;}
	.st46{fill:#B4CDA3;}
	.st47{fill:#A8C396;}
	.st48{fill:#FBF28F;}
	.st49{fill:#FCE07D;}
	.st50{fill:#EC8786;}
	.st51{fill:#A7D28C;stroke:#6F6F59;stroke-width:2.2536;stroke-linecap:round;stroke-linejoin:round;stroke-miterlimit:10;}
	.st52{fill:#98C37E;}
	.st53{fill:#A4C661;}
	.st54{fill:#C6C835;}
	.st55{fill:#E8C61D;}
	.st56{fill:#E2AE27;}
	.st57{fill:#DC9A2A;}
	.st58{fill:#C58338;}
	.st59{fill:none;stroke:#0C71B8;stroke-width:2.2536;stroke-linecap:round;stroke-miterlimit:10;}
	.st60{fill:#CB9797;}
	.st61{fill:#B26261;}
	.st62{fill:#4F391F;}
	.st63{fill:#796533;}
	.st64{fill:#5B4927;}
	.st65{fill:#1272B9;stroke:#6F6F59;stroke-width:2.2536;stroke-linecap:round;stroke-linejoin:round;stroke-miterlimit:10;}
	.st66{fill:#1E8FCE;stroke:#6F6F59;stroke-width:2.2536;stroke-linecap:round;stroke-linejoin:round;stroke-miterlimit:10;}
	.st67{fill:#2E5BA8;stroke:#6F6F59;stroke-width:2.2536;stroke-linecap:round;stroke-linejoin:round;stroke-miterlimit:10;}
	.st68{fill:#97509E;}
	.st69{fill:#5C9A42;}
	.st70{fill:#427035;}
	.st71{fill:none;stroke:#6F6F59;stroke-width:2.2536;stroke-linecap:round;stroke-linejoin:round;}
	.st72{fill:none;stroke:#787878;stroke-width:2.2536;stroke-linejoin:round;}
	.st73{fill:none;stroke:#787878;stroke-width:2.2536;stroke-linejoin:round;stroke-dasharray:10.8194,10.8194;}
	.st74{fill:#353535;}
	.st75{fill:#959595;}
	.st76{fill:#CDCECE;stroke:#BD87BB;stroke-width:4;stroke-linecap:round;stroke-linejoin:round;stroke-miterlimit:10;}
	.st77{fill:none;stroke:#787878;stroke-width:1.1232;stroke-linecap:round;stroke-linejoin:round;stroke-miterlimit:10;}
</style>
<g>
	<g>
		<polygon class="st0" points="14,21.8 36.1,4.7 59.1,11.6 24.1,24.7 		"/>
	</g>
	<g>
		<path class="st1" d="M24.1,25.8c-0.1,0-0.2,0-0.3,0l-10.2-2.9c-0.4-0.1-0.7-0.5-0.8-0.9c-0.1-0.4,0.1-0.8,0.4-1.1l22.1-17
			c0.3-0.2,0.7-0.3,1-0.2l23.1,6.9c0.5,0.1,0.8,0.6,0.8,1c0,0.5-0.3,0.9-0.7,1.1l-35,13.1C24.4,25.8,24.3,25.8,24.1,25.8z
			 M16.4,21.3l7.7,2.2l31.5-11.8L36.3,6L16.4,21.3z"/>
	</g>
</g>
<g>
	<g>
		<polygon class="st0" points="14,21.8 14,35.4 24.2,38.5 24.1,24.7 		"/>
	</g>
	<g>
		<path class="st1" d="M24.2,39.6c-0.1,0-0.2,0-0.3,0l-10.1-3.1c-0.5-0.1-0.8-0.6-0.8-1.1l-0.1-13.7c0-0.4,0.2-0.7,0.4-0.9
			c0.3-0.2,0.7-0.3,1-0.2l10.2,2.9c0.5,0.1,0.8,0.6,0.8,1.1l0,13.8c0,0.4-0.2,0.7-0.5,0.9C24.6,39.5,24.4,39.6,24.2,39.6z
			 M15.2,34.6L23,37l0-11.5l-7.9-2.3L15.2,34.6z"/>
	</g>
</g>
<g>
	<g>
		<g>
			<g>
				<path class="st6" d="M31.5,53.6l-5.9-1.4v-1.8l5.9,1.4V53.6z M19.7,50.8l-5.9-1.4v-1.8l5.9,1.4V50.8z"/>
			</g>
		</g>
	</g>
</g>
<g>
	<g>
		<g>
			<g>
				<path class="st6" d="M8,48.1l-3.6-0.9c-0.4-0.1-0.8-0.6-0.8-1.1v-4.2l1.5,0.4v3.3L8,46.3V48.1z"/>
			</g>
		</g>
	</g>
</g>
<g>
	<g>
		<g>
			<g>
				<path class="st6" d="M5.1,35.5l-1.5-0.4v-6.8l1.5,0.4V35.5z M5.1,21.9l-1.5-0.4v-6.8l1.5,0.4V21.9z"/>
			</g>
		</g>
	</g>
</g>
<g>
	<g>
		<g>
			<g>
				<path class="st6" d="M5.1,8.3L3.6,8V3.8c0-0.5,0.3-0.8,0.8-0.7L8,3.9v1.8L5.1,5V8.3z"/>
			</g>
		</g>
	</g>
</g>
<g>
	<g>
		<g>
			<g>
				<path class="st6" d="M31.5,11.2l-5.9-1.4V8.1l5.9,1.4V11.2z M19.7,8.4l-5.9-1.4V5.3l5.9,1.4V8.4z"/>
			</g>
		</g>
	</g>
</g>
<g>
	<g>
		<g>
			<g>
				<path class="st6" d="M41.7,16.9l-1.5-0.4v-3.3l-2.9-0.7v-1.8l3.6,0.9c0.4,0.1,0.8,0.6,0.8,1.1V16.9z"/>
			</g>
		</g>
	</g>
</g>
<g>
	<g>
		<g>
			<polygon class="st6" points="35.4,55.9 33.2,45.1 44,47.3 41.7,49.6 49.1,57 45.1,61 37.7,53.6 			"/>
		</g>
	</g>
</g>
<g>
	<g>
		<g>
			<ellipse class="st4" cx="13" cy="13.2" rx="3.2" ry="3.6"/>
		</g>
	</g>
	<g>
		<g>
			<path class="st5" d="M13,17.5c-2.1,0-3.8-1.9-3.8-4.2S10.9,9,13,9s3.8,1.9,3.8,4.2S15.1,17.5,13,17.5z M13,10.2
				c-1.5,0-2.7,1.4-2.7,3s1.2,3,2.7,3s2.7-1.4,2.7-3S14.5,10.2,13,10.2z"/>
		</g>
	</g>
</g>
<g>
	<g>
		<g>
			<ellipse class="st19" cx="30.3" cy="16.3" rx="3.2" ry="3.6"/>
		</g>
	</g>
	<g>
		<g>
			<path class="st5" d="M30.3,20.5c-2.1,0-3.8-1.9-3.8-4.2s1.7-4.2,3.8-4.2s3.8,1.9,3.8,4.2S32.4,20.5,30.3,20.5z M30.3,13.2
				c-1.5,0-2.7,1.4-2.7,3s1.2,3,2.7,3c1.5,0,2.7-1.4,2.7-3S31.8,13.2,30.3,13.2z"/>
		</g>
	</g>
</g>
<g>
	<g>
		<g>
			<ellipse class="st4" cx="10.5" cy="40.5" rx="3" ry="3.4"/>
		</g>
	</g>
	<g>
		<g>
			<path class="st5" d="M10.5,44.5c-2,0-3.5-1.8-3.5-4c0-2.2,1.6-4,3.5-4s3.5,1.8,3.5,4C14,42.7,12.4,44.5,10.5,44.5z M10.5,37.7
				c-1.4,0-2.5,1.3-2.5,2.8c0,1.6,1.1,2.8,2.5,2.8s2.5-1.3,2.5-2.8C13,38.9,11.9,37.7,10.5,37.7z"/>
		</g>
	</g>
</g>
<g>
	<g>
		<polygon class="st0" points="24.1,38.5 58.9,35.8 59.1,11.6 24.1,24.7 		"/>
	</g>
	<g>
		<path class="st1" d="M24.1,39.6c-0.3,0-0.6-0.1-0.8-0.3c-0.2-0.2-0.4-0.5-0.4-0.8l0-13.8c0-0.5,0.3-0.9,0.7-1.1l35-13.1
			c0.3-0.1,0.7-0.1,1,0.1c0.3,0.2,0.5,0.6,0.5,0.9L60,35.8c0,0.6-0.5,1.1-1,1.1L24.1,39.6C24.2,39.6,24.2,39.6,24.1,39.6z
			 M25.3,25.4l0,11.8l32.5-2.5L58,13.2L25.3,25.4z"/>
	</g>
</g>
<g>
	<g>
		<g>
			<ellipse class="st19" cx="36" cy="31.9" rx="3.2" ry="3.6"/>
		</g>
	</g>
	<g>
		<g>
			<path class="st5" d="M36,36.2c-2.1,0-3.8-1.9-3.8-4.2s1.7-4.2,3.8-4.2s3.8,1.9,3.8,4.2S38.1,36.2,36,36.2z M36,28.9
				c-1.5,0-2.7,1.4-2.7,3s1.2,3,2.7,3s2.7-1.4,2.7-3S37.5,28.9,36,28.9z"/>
		</g>
	</g>
</g>
<g>
	<g>
		<g>
			<ellipse class="st19" cx="19.1" cy="29.4" rx="3.2" ry="3.6"/>
		</g>
	</g>
	<g>
		<g>
			<path class="st5" d="M19.1,33.7c-2.1,0-3.8-1.9-3.8-4.2s1.7-4.2,3.8-4.2s3.8,1.9,3.8,4.2S21.1,33.7,19.1,33.7z M19.1,26.4
				c-1.5,0-2.7,1.4-2.7,3s1.2,3,2.7,3c1.5,0,2.7-1.4,2.7-3S20.6,26.4,19.1,26.4z"/>
		</g>
	</g>
</g>
<g>
	<g>
		<g>
			<g>
				<path class="st6" d="M41.7,44.1l-1.5-0.4v-6.8l1.5,0.4V44.1z M41.7,30.5l-1.5-0.4v-6.8l1.5,0.4V30.5z"/>
			</g>
		</g>
	</g>
</g>
</svg>
