<svg id="Layer_1" data-name="Layer 1" xmlns="http://www.w3.org/2000/svg" viewBox="0 0 64 64"><title>SVG_Artboards</title><path d="M9.31,9.32h5.53V2.67H8.42A5.72,5.72,0,0,0,2.71,8.39v6.44h6.6Z" style="fill:#2896d3"/><path d="M9.31,16H2.71a1.12,1.12,0,0,1-1.13-1.12V8.39A6.85,6.85,0,0,1,8.42,1.55h6.42A1.13,1.13,0,0,1,16,2.67V9.32a1.14,1.14,0,0,1-1.13,1.13h-4.4v4.38A1.13,1.13,0,0,1,9.31,16ZM3.83,13.7H8.19V9.32A1.12,1.12,0,0,1,9.31,8.2h4.4V3.8H8.42A4.6,4.6,0,0,0,3.83,8.39Z" style="fill:#6f6f59"/><path d="M54.56,9.28v5.53h6.65V8.39a5.72,5.72,0,0,0-5.72-5.72H49.06V9.28Z" style="fill:#2896d3"/><path d="M61.21,15.93H54.56a1.13,1.13,0,0,1-1.13-1.12v-4.4H49.06a1.13,1.13,0,0,1-1.13-1.13V2.67a1.12,1.12,0,0,1,1.13-1.12h6.43a6.85,6.85,0,0,1,6.85,6.84v6.42A1.13,1.13,0,0,1,61.21,15.93Zm-5.52-2.25h4.39V8.39A4.6,4.6,0,0,0,55.49,3.8H50.18V8.15h4.38a1.14,1.14,0,0,1,1.13,1.13Z" style="fill:#6f6f59"/><path d="M54.6,54.91H49.08v6.65h6.41a5.72,5.72,0,0,0,5.72-5.72V49.41H54.6Z" style="fill:#2896d3"/><path d="M55.49,62.69H49.08A1.14,1.14,0,0,1,48,61.56V54.91a1.14,1.14,0,0,1,1.13-1.13h4.4V49.41a1.12,1.12,0,0,1,1.12-1.13h6.61a1.13,1.13,0,0,1,1.13,1.13v6.43A6.85,6.85,0,0,1,55.49,62.69ZM50.2,60.43h5.29a4.6,4.6,0,0,0,4.59-4.59V50.53H55.73v4.38A1.13,1.13,0,0,1,54.6,56H50.2Z" style="fill:#6f6f59"/><path d="M9.36,55V49.43H2.71v6.41a5.72,5.72,0,0,0,5.71,5.72h6.44V55Z" style="fill:#2896d3"/><path d="M14.86,62.69H8.42a6.85,6.85,0,0,1-6.84-6.85V49.43A1.13,1.13,0,0,1,2.71,48.3H9.36a1.13,1.13,0,0,1,1.12,1.13v4.4h4.38A1.13,1.13,0,0,1,16,55v6.61A1.14,1.14,0,0,1,14.86,62.69Zm-11-12.14v5.29a4.6,4.6,0,0,0,4.59,4.59h5.31V56.08H9.36A1.12,1.12,0,0,1,8.23,55v-4.4Z" style="fill:#6f6f59"/><path d="M43.11,38.75l-6.93-6.93,6.93-6.93L47.17,29l3.14-15.5-15.5,3.14,4.06,4.06-6.93,6.92L25,20.65c4-4.06,4.06-4.06,4.06-4.06l-15.5-3.14L16.71,29l4.05-4.06,6.93,6.93-6.93,6.93-4.05-4.06L13.57,50.18l15.5-3.13L25,43l6.93-6.93L38.87,43l-4.06,4.06L50.3,50.19l-3.13-15.5Z" style="fill:#f3c017"/><path d="M50.3,51.32a.83.83,0,0,1-.22,0l-15.5-3.14a1.13,1.13,0,0,1-.57-1.9s.19-.18,3.26-3.26l-5.33-5.33L26.6,43l3.26,3.26a1.12,1.12,0,0,1-.57,1.9l-15.5,3.14A1.13,1.13,0,0,1,12.46,50l3.14-15.5a1.16,1.16,0,0,1,.78-.85,1.13,1.13,0,0,1,1.13.29l3.25,3.25,5.34-5.33-5.34-5.34L17.5,29.74a1.11,1.11,0,0,1-1.12.29,1.12,1.12,0,0,1-.78-.86l-3.13-15.5a1.11,1.11,0,0,1,.31-1,1.13,1.13,0,0,1,1-.31l15.49,3.14a1.14,1.14,0,0,1,.86.78,1.11,1.11,0,0,1-.29,1.12L26.6,20.65,31.94,26l5.33-5.33L34,17.38a1.13,1.13,0,0,1-.28-1.12,1.14,1.14,0,0,1,.85-.78l15.51-3.13a1.14,1.14,0,0,1,1,.31,1.12,1.12,0,0,1,.3,1L48.27,29.17a1.12,1.12,0,0,1-.78.86,1.11,1.11,0,0,1-1.12-.29l-3.26-3.26-5.33,5.34,5.33,5.33,3.26-3.26a1.14,1.14,0,0,1,1.12-.28,1.12,1.12,0,0,1,.78.86L51.41,50a1.14,1.14,0,0,1-.31,1A1.15,1.15,0,0,1,50.3,51.32Zm-13.21-5,11.77,2.39L46.48,37l-2.57,2.57a1.13,1.13,0,0,1-1.6,0l-6.92-6.92a1.13,1.13,0,0,1,0-1.6l6.92-6.93a1.13,1.13,0,0,1,1.6,0l2.57,2.58L48.87,14.9,37.09,17.28l2.57,2.57a1.12,1.12,0,0,1,0,1.59l-6.93,6.93a1.12,1.12,0,0,1-1.59,0l-6.93-6.93a1.12,1.12,0,0,1,0-1.59l2.58-2.58L15,14.89,17.4,26.67,20,24.09a1.16,1.16,0,0,1,1.59,0L28.49,31a1.13,1.13,0,0,1,0,1.6l-6.93,6.92a1.12,1.12,0,0,1-1.59,0L17.39,37,15,48.74l11.78-2.38-2.58-2.57a1.13,1.13,0,0,1,0-1.6l6.93-6.92a1.12,1.12,0,0,1,1.59,0l6.93,6.92a1.13,1.13,0,0,1,0,1.6Z" style="fill:#6f6f59"/></svg>
