<?xml version="1.0" encoding="UTF-8"?><svg id="Layer_1" xmlns="http://www.w3.org/2000/svg" viewBox="0 0 64 64"><path d="M7.35,7.21h4.53V2.56h-3.42c-3.16,0-5.72,2.56-5.72,5.72v3.44h4.61v-4.5Z" style="fill:#2896d3; stroke-width:0px;"/><path d="M7.35,12.84H2.75c-.62,0-1.13-.5-1.13-1.13v-4.44C1.62,3.5,3.69,1.43,7.46,1.43h4.42c.62,0,1.13.5,1.13,1.13v4.65c0,.62-.5,1.13-1.13,1.13h-3.4v3.38c0,.62-.5,1.13-1.13,1.13ZM3.88,10.58h2.35v-3.38c0-.62.5-1.13,1.13-1.13h3.4v-2.4h-3.29c-2.53,0-3.59,1.06-3.59,3.59v3.31Z" style="fill:#6f6f59; stroke-width:0px;"/><path d="M7.35,39.52h4.53v-4.65h-3.42c-3.16,0-5.72,2.56-5.72,5.72v3.44h4.61v-4.5Z" style="fill:#2896d3; stroke-width:0px;"/><path d="M7.35,45.15H2.75c-.62,0-1.13-.5-1.13-1.13v-4.44c0-3.77,2.07-5.84,5.84-5.84h4.42c.62,0,1.13.5,1.13,1.13v4.65c0,.62-.5,1.13-1.13,1.13h-3.4v3.38c0,.62-.5,1.13-1.13,1.13ZM3.88,42.9h2.35v-3.38c0-.62.5-1.13,1.13-1.13h3.4v-2.4h-3.29c-2.53,0-3.59,1.06-3.59,3.59v3.31Z" style="fill:#6f6f59; stroke-width:0px;"/><path d="M56.6,7.16v4.53h4.65v-3.42c0-3.16-2.56-5.72-5.72-5.72h-3.44v4.61h4.5Z" style="fill:#2896d3; stroke-width:0px;"/><path d="M61.25,12.82h-4.65c-.62,0-1.13-.5-1.13-1.13v-3.4h-3.38c-.62,0-1.13-.5-1.13-1.13V2.56c0-.62.5-1.13,1.13-1.13h4.44c3.77,0,5.84,2.07,5.84,5.84v4.42c0,.62-.5,1.13-1.13,1.13ZM57.73,10.56h2.4v-3.29c0-2.53-1.06-3.59-3.59-3.59h-3.31v2.35h3.38c.62,0,1.13.5,1.13,1.13v3.4Z" style="fill:#6f6f59; stroke-width:0px;"/><path d="M56.63,24.47h-4.53v4.65h3.42c3.16,0,5.72-2.56,5.72-5.72v-3.44h-4.61v4.5Z" style="fill:#2896d3; stroke-width:0px;"/><path d="M50.98,29.12v-4.65c0-.62.5-1.13,1.13-1.13h3.4v-3.38c0-.62.5-1.13,1.13-1.13h4.61c.62,0,1.13.5,1.13,1.13v4.44c0,3.77-2.07,5.84-5.84,5.84h-4.42c-.62,0-1.13-.5-1.13-1.13ZM53.24,25.6v2.4h3.29c2.53,0,3.59-1.06,3.59-3.59v-3.31h-2.35v3.38c0,.62-.5,1.13-1.13,1.13h-3.4Z" style="fill:#6f6f59; stroke-width:0px;"/><path d="M56.6,39.49v4.53h4.65v-3.42c0-3.16-2.56-5.72-5.72-5.72h-3.44v4.61h4.5Z" style="fill:#2896d3; stroke-width:0px;"/><path d="M61.25,45.14h-4.65c-.62,0-1.13-.5-1.13-1.13v-3.4h-3.38c-.62,0-1.13-.5-1.13-1.13v-4.61c0-.62.5-1.13,1.13-1.13h4.44c3.77,0,5.84,2.07,5.84,5.84v4.42c0,.62-.5,1.13-1.13,1.13ZM57.73,42.89h2.4v-3.29c0-2.53-1.06-3.59-3.59-3.59h-3.31v2.35h3.38c.62,0,1.13.5,1.13,1.13v3.4Z" style="fill:#6f6f59; stroke-width:0px;"/><path d="M56.65,56.79h-4.53v4.65h3.42c3.16,0,5.72-2.56,5.72-5.72v-3.44h-4.61v4.5Z" style="fill:#2896d3; stroke-width:0px;"/><path d="M56.54,62.57h-4.42c-.62,0-1.13-.5-1.13-1.13v-4.65c0-.62.5-1.13,1.13-1.13h3.4v-3.38c0-.62.5-1.13,1.13-1.13h4.61c.62,0,1.13.5,1.13,1.13v4.44c0,3.77-2.07,5.84-5.84,5.84ZM53.25,60.32h3.29c2.53,0,3.59-1.06,3.59-3.59v-3.31h-2.35v3.38c0,.62-.5,1.13-1.13,1.13h-3.4v2.4Z" style="fill:#6f6f59; stroke-width:0px;"/><path d="M24.66,7.16v4.53h4.65v-3.42c0-3.16-2.56-5.72-5.72-5.72h-3.44v4.61h4.5Z" style="fill:#2896d3; stroke-width:0px;"/><path d="M29.31,12.82h-4.65c-.62,0-1.13-.5-1.13-1.13v-3.4h-3.38c-.62,0-1.13-.5-1.13-1.13V2.56c0-.62.5-1.13,1.13-1.13h4.44c3.77,0,5.84,2.07,5.84,5.84v4.42c0,.62-.5,1.13-1.13,1.13ZM25.79,10.56h2.4v-3.29c0-2.53-1.06-3.59-3.59-3.59h-3.31v2.35h3.38c.62,0,1.13.5,1.13,1.13v3.4Z" style="fill:#6f6f59; stroke-width:0px;"/><path d="M24.7,56.79h-4.53v4.65h3.42c3.16,0,5.72-2.56,5.72-5.72v-3.44h-4.61v4.5Z" style="fill:#2896d3; stroke-width:0px;"/><path d="M24.59,62.57h-4.42c-.62,0-1.13-.5-1.13-1.13v-4.65c0-.62.5-1.13,1.13-1.13h3.4v-3.38c0-.62.5-1.13,1.13-1.13h4.61c.62,0,1.13.5,1.13,1.13v4.44c0,3.77-2.07,5.84-5.84,5.84ZM21.3,60.32h3.29c2.53,0,3.59-1.06,3.59-3.59v-3.31h-2.35v3.38c0,.62-.5,1.13-1.13,1.13h-3.4v2.4Z" style="fill:#6f6f59; stroke-width:0px;"/><path d="M7.4,56.84v-4.53H2.75v3.42c0,3.16,2.56,5.72,5.72,5.72h3.44v-4.61h-4.5Z" style="fill:#2896d3; stroke-width:0px;"/><path d="M11.9,62.57h-4.44c-3.77,0-5.84-2.07-5.84-5.84v-4.42c0-.62.5-1.13,1.13-1.13h4.65c.62,0,1.13.5,1.13,1.13v3.4h3.38c.62,0,1.13.5,1.13,1.13v4.61c0,.62-.5,1.13-1.13,1.13ZM3.88,53.44v3.29c0,2.53,1.06,3.59,3.59,3.59h3.31v-2.35h-3.38c-.62,0-1.13-.5-1.13-1.13v-3.4h-2.4Z" style="fill:#6f6f59; stroke-width:0px;"/><path d="M7.4,24.5v-4.53H2.75v3.42c0,3.16,2.56,5.72,5.72,5.72h3.44v-4.61h-4.5Z" style="fill:#2896d3; stroke-width:0px;"/><path d="M11.9,30.23h-4.44c-3.77,0-5.84-2.07-5.84-5.84v-4.42c0-.62.5-1.13,1.13-1.13h4.65c.62,0,1.13.5,1.13,1.13v3.4h3.38c.62,0,1.13.5,1.13,1.13v4.61c0,.62-.5,1.13-1.13,1.13ZM3.88,21.1v3.29c0,2.53,1.06,3.59,3.59,3.59h3.31v-2.35h-3.38c-.62,0-1.13-.5-1.13-1.13v-3.4h-2.4Z" style="fill:#6f6f59; stroke-width:0px;"/><path d="M39.3,7.21h4.53V2.56h-3.42c-3.16,0-5.72,2.56-5.72,5.72v3.44h4.61v-4.5Z" style="fill:#2896d3; stroke-width:0px;"/><path d="M39.3,12.84h-4.61c-.62,0-1.13-.5-1.13-1.13v-4.44c0-3.77,2.07-5.84,5.84-5.84h4.42c.62,0,1.13.5,1.13,1.13v4.65c0,.62-.5,1.13-1.13,1.13h-3.4v3.38c0,.62-.5,1.13-1.13,1.13ZM35.82,10.58h2.35v-3.38c0-.62.5-1.13,1.13-1.13h3.4v-2.4h-3.29c-2.53,0-3.59,1.06-3.59,3.59v3.31Z" style="fill:#6f6f59; stroke-width:0px;"/><path d="M39.34,56.84v-4.53h-4.65v3.42c0,3.16,2.56,5.72,5.72,5.72h3.44v-4.61h-4.5Z" style="fill:#2896d3; stroke-width:0px;"/><path d="M43.84,62.57h-4.44c-3.77,0-5.84-2.07-5.84-5.84v-4.42c0-.62.5-1.13,1.13-1.13h4.65c.62,0,1.13.5,1.13,1.13v3.4h3.38c.62,0,1.13.5,1.13,1.13v4.61c0,.62-.5,1.13-1.13,1.13ZM35.82,53.44v3.29c0,2.53,1.06,3.59,3.59,3.59h3.31v-2.35h-3.38c-.62,0-1.13-.5-1.13-1.13v-3.4h-2.4Z" style="fill:#6f6f59; stroke-width:0px;"/><path d="M25.72,42.28l6.22-6.22,6.22,6.22q-4.05,4.05-4.06,4.06l15.49,3.14-3.13-15.5c-1.54,1.54-2.88,2.88-4.06,4.06l-6.22-6.22,6.22-6.22q4.05,4.05,4.06,4.06l3.14-15.49-15.5,3.13c1.54,1.54,2.88,2.88,4.06,4.06l-6.22,6.22-6.22-6.22q4.05-4.05,4.06-4.06l-15.49-3.14,3.13,15.5c1.54-1.54,2.88-2.88,4.06-4.06l6.22,6.22-6.22,6.22-4.06-4.06-3.14,15.49,15.5-3.13c-1.54-1.54-2.88-2.88-4.06-4.06Z" style="fill:#f3c017; stroke-width:0px;"/><path d="M13.15,49.48c0-.07,0-.15.02-.22l3.14-15.49c.08-.41.38-.74.78-.86s.83,0,1.12.28c0,.01.18.18,3.26,3.26l4.63-4.63-4.63-4.63-3.26,3.26c-.29.29-.72.4-1.12.28-.4-.12-.7-.45-.78-.86l-3.13-15.5c-.08-.37.04-.75.31-1.02.27-.27.65-.38,1.02-.31l15.49,3.14c.41.08.74.38.85.78.12.4,0,.83-.29,1.12-.01.01-.22.22-3.26,3.26l4.63,4.63,4.63-4.63-3.26-3.26c-.29-.29-.4-.73-.28-1.12.12-.4.45-.7.86-.78l15.5-3.13c.37-.08.75.04,1.02.31.27.27.38.65.31,1.02l-3.14,15.49c-.08.41-.38.74-.78.86-.4.12-.83.01-1.12-.28l-3.26-3.26-4.63,4.63,4.63,4.63,3.26-3.26c.29-.29.72-.4,1.12-.28.4.12.7.45.78.86l3.13,15.5c.07.37-.04.75-.31,1.02-.27.27-.65.38-1.02.31l-15.49-3.14c-.41-.08-.74-.38-.85-.78-.12-.4-.01-.83.28-1.12,0,0,.18-.18,3.26-3.26l-4.63-4.63-4.63,4.63,3.26,3.26c.29.29.4.73.28,1.12-.12.4-.45.7-.86.78l-15.5,3.13c-.37.08-.75-.04-1.02-.31-.21-.21-.33-.5-.33-.8ZM18.1,36.26l-2.39,11.77,11.78-2.38-2.57-2.57c-.44-.44-.44-1.15,0-1.59l6.22-6.22c.44-.44,1.15-.44,1.59,0l6.22,6.22c.44.44.44,1.15,0,1.59-1.15,1.15-1.98,1.98-2.57,2.57l11.77,2.39-2.38-11.78-2.57,2.57c-.44.44-1.15.44-1.59,0l-6.22-6.22c-.44-.44-.44-1.15,0-1.59l6.22-6.22c.44-.44,1.15-.44,1.59,0l2.57,2.57,2.39-11.77-11.78,2.38,2.57,2.57c.42.42.42,1.17,0,1.59l-6.22,6.22c-.44.44-1.15.44-1.59,0l-6.22-6.22c-.44-.44-.44-1.15,0-1.59,1.15-1.15,1.98-1.98,2.57-2.57l-11.77-2.39,2.38,11.78,2.57-2.57c.44-.44,1.15-.44,1.59,0l6.22,6.22c.44.44.44,1.15,0,1.59l-6.22,6.22c-.44.44-1.15.44-1.59,0-1.15-1.15-1.98-1.98-2.57-2.57Z" style="fill:#6f6f59; stroke-width:0px;"/></svg>
