<svg id="Layer_1" data-name="Layer 1" xmlns="http://www.w3.org/2000/svg" viewBox="0 0 64 64"><line x1="34" y1="4.64" x2="34" y2="32.52" style="fill:none;stroke:#6f6f59;stroke-linecap:round;stroke-linejoin:round;stroke-width:2.2536px"/><polyline points="59.52 45.11 34.95 32.52 6.01 43.51" style="fill:none;stroke:#6f6f59;stroke-linecap:round;stroke-linejoin:round;stroke-width:2.2536px"/><polygon points="51.71 34.31 52.32 29.57 46.52 27.05 47.31 19.16 41.88 16.99 41.13 17.11 41.53 11.83 35.84 9.96 21.36 11.64 21.31 17.53 16.8 18.25 16.9 21.22 13.23 21.89 13.5 38.72 17.9 42.37 21.08 41.37 21.06 44.27 25.5 47.88 32.52 45.57 37.85 49.4 44.53 47.01 44.65 45.35 51.34 42.98 52.36 34.7 51.71 34.31" style="fill:#cb9797"/><polygon points="30.86 16.16 21.38 17.51 21.27 20.54 16.9 21.22 16.95 33.75 21.14 36.77 21.08 41.37 25.83 40.15 31.09 43.85 38.49 41.57 44.65 45.37 45.22 39.47 51.41 37.51 51.72 34.32 45.93 31.45 46.81 22.88 40.88 20.38 41.13 17.27 35.72 18.18 30.86 16.16" style="fill:#b26261"/><path d="M44,17.89l.07,0Z" style="fill:#cb9797"/><polygon points="25.83 40.15 21.16 36.5 21.27 20.54 26.3 23.07 25.83 40.15" style="fill:#4f391f"/><polygon points="40.86 20.4 35.6 18.14 21.31 20.54 26.33 23.08 40.86 20.4" style="fill:#796533"/><polygon points="39.48 36.65 25.8 40.14 26.26 23.05 40.93 20.4 39.48 36.65" style="fill:#5b4927"/><polygon points="40.27 28.61 33.62 30.17 39.07 33.28 45.94 31.5 40.27 28.61" style="fill:#796533"/><polygon points="38.49 41.63 33.33 38.2 33.61 30.16 39.07 33.28 38.49 41.63" style="fill:#4f391f"/><polygon points="38.49 41.63 45.22 39.48 45.93 31.51 39.07 33.28 38.49 41.63" style="fill:#5b4927"/><polygon points="6.01 43.51 27.42 60.88 27.42 21.27 6.01 10.06 6.01 43.51" style="fill:none;stroke:#6f6f59;stroke-linecap:round;stroke-linejoin:round;stroke-width:2.2536px"/><polygon points="59.52 45.11 27.42 60.88 27.42 21.27 59.52 11.66 59.52 45.11" style="fill:none;stroke:#6f6f59;stroke-linecap:round;stroke-linejoin:round;stroke-width:2.2536px"/><polygon points="34.48 3.39 59.52 11.66 27.42 21.27 6.01 10.06 34.48 3.39" style="fill:none;stroke:#6f6f59;stroke-linecap:round;stroke-linejoin:round;stroke-width:2.2536px"/></svg>
