<svg id="Layer_1" data-name="Layer 1" xmlns="http://www.w3.org/2000/svg" viewBox="0 0 64 64"><title>SVG_Artboards</title><circle cx="32" cy="32" r="24.37" style="fill:#d0e5f6"/><path d="M32,57.49A25.49,25.49,0,1,1,57.49,32,25.51,25.51,0,0,1,32,57.49ZM32,8.76A23.24,23.24,0,1,0,55.24,32,23.27,23.27,0,0,0,32,8.76Z" style="fill:#787878"/><path d="M32,40.65C19.64,40.65,6.51,37.27,6.51,31S19.64,21.35,32,21.35,57.49,24.73,57.49,31,44.36,40.65,32,40.65Zm0-17C18.3,23.6,8.76,27.5,8.76,31S18.3,38.4,32,38.4,55.24,34.5,55.24,31,45.7,23.6,32,23.6Z" style="fill:#787878"/><circle cx="7.45" cy="30.94" r="4.45" style="fill:#a7d28c"/><path d="M7.45,36.51A5.58,5.58,0,1,1,13,30.94,5.58,5.58,0,0,1,7.45,36.51Zm0-8.89a3.32,3.32,0,1,0,3.32,3.32A3.32,3.32,0,0,0,7.45,27.62Z" style="fill:#6f6f59"/><circle cx="55.73" cy="30.94" r="4.45" style="fill:#a7d28c"/><path d="M55.73,36.51a5.58,5.58,0,1,1,5.57-5.57A5.58,5.58,0,0,1,55.73,36.51Zm0-8.89a3.32,3.32,0,1,0,3.32,3.32A3.32,3.32,0,0,0,55.73,27.62Z" style="fill:#6f6f59"/><path d="M32,57.49c-7.48,0-13.33-11.2-13.33-25.49S24.52,6.51,32,6.51,45.33,17.71,45.33,32,39.48,57.49,32,57.49ZM32,8.76C26,8.76,20.92,19.4,20.92,32S26,55.24,32,55.24,43.08,44.6,43.08,32,38,8.76,32,8.76Z" style="fill:#787878"/><circle cx="31.59" cy="6.8" r="4.45" style="fill:#a7d28c"/><path d="M31.59,12.37A5.58,5.58,0,1,1,37.16,6.8,5.58,5.58,0,0,1,31.59,12.37Zm0-8.89A3.32,3.32,0,1,0,34.91,6.8,3.32,3.32,0,0,0,31.59,3.48Z" style="fill:#6f6f59"/><circle cx="31.59" cy="55.08" r="4.45" style="fill:#a7d28c"/><path d="M31.59,60.65a5.58,5.58,0,1,1,5.57-5.57A5.58,5.58,0,0,1,31.59,60.65Zm0-8.89a3.32,3.32,0,1,0,3.32,3.32A3.32,3.32,0,0,0,31.59,51.76Z" style="fill:#6f6f59"/><circle cx="20.24" cy="38.84" r="4.45" style="fill:#a7d28c"/><path d="M20.24,44.41a5.58,5.58,0,1,1,5.58-5.58A5.58,5.58,0,0,1,20.24,44.41Zm0-8.89a3.32,3.32,0,1,0,3.32,3.31A3.32,3.32,0,0,0,20.24,35.52Z" style="fill:#6f6f59"/><circle cx="43.6" cy="38.84" r="4.45" style="fill:#a7d28c"/><path d="M43.6,44.41a5.58,5.58,0,1,1,5.58-5.58A5.58,5.58,0,0,1,43.6,44.41Zm0-8.89a3.32,3.32,0,1,0,3.32,3.31A3.32,3.32,0,0,0,43.6,35.52Z" style="fill:#6f6f59"/><circle cx="21.24" cy="23.71" r="4.45" style="fill:#d4ece6"/><path d="M21.24,29.28a5.58,5.58,0,1,1,5.58-5.57A5.58,5.58,0,0,1,21.24,29.28Zm0-8.89a3.32,3.32,0,1,0,3.32,3.32A3.32,3.32,0,0,0,21.24,20.39Z" style="fill:#787878"/><circle cx="42.6" cy="23.71" r="4.45" style="fill:#d4ece6"/><path d="M42.6,29.28a5.58,5.58,0,1,1,5.58-5.57A5.58,5.58,0,0,1,42.6,29.28Zm0-8.89a3.32,3.32,0,1,0,3.32,3.32A3.32,3.32,0,0,0,42.6,20.39Z" style="fill:#787878"/></svg>
