<svg id="Layer_1" data-name="Layer 1" xmlns="http://www.w3.org/2000/svg" viewBox="0 0 64 64"><title>SVG_Artboards</title><circle cx="32" cy="32" r="24.37" style="fill:#ffc418"/><path d="M32,57.49A25.49,25.49,0,1,1,57.49,32,25.51,25.51,0,0,1,32,57.49ZM32,8.76A23.24,23.24,0,1,0,55.24,32,23.27,23.27,0,0,0,32,8.76Z" style="fill:#6f6f59"/><rect x="18.99" y="18.99" width="26.01" height="26.01" style="fill:#a69768"/><path d="M46.13,46.13H17.87V17.87H46.13Zm-26-2.25H43.88V20.12H20.12Z" style="fill:#6f6f59"/><rect x="17.87" y="15.58" width="2.24" height="2.29" style="fill:#6f6f59"/><rect x="15.63" y="17.87" width="2.24" height="2.29" style="fill:#6f6f59"/><rect x="46.16" y="17.84" width="2.24" height="2.29" transform="translate(66.27 -28.29) rotate(90)" style="fill:#6f6f59"/><rect x="43.87" y="15.6" width="2.24" height="2.29" transform="translate(61.74 -28.24) rotate(90)" style="fill:#6f6f59"/><rect x="43.89" y="46.11" width="2.24" height="2.29" transform="translate(90.01 94.52) rotate(180)" style="fill:#6f6f59"/><rect x="46.12" y="43.82" width="2.24" height="2.29" transform="translate(94.49 89.94) rotate(180)" style="fill:#6f6f59"/><rect x="15.59" y="43.85" width="2.24" height="2.29" transform="translate(-28.28 61.71) rotate(-90)" style="fill:#6f6f59"/><rect x="17.88" y="46.09" width="2.24" height="2.29" transform="translate(-28.23 66.24) rotate(-90)" style="fill:#6f6f59"/></svg>
