<svg id="Layer_1" data-name="Layer 1" xmlns="http://www.w3.org/2000/svg" viewBox="0 0 64 64"><title>SVG_Artboards</title><path d="M32,55.73A23.73,23.73,0,1,1,55.73,32,23.76,23.76,0,0,1,32,55.73Zm0-45.21A21.48,21.48,0,1,0,53.48,32,21.51,21.51,0,0,0,32,10.52Z" style="fill:#787878"/><circle cx="39.54" cy="35.42" r="9.79" style="fill:#a7d28c"/><path d="M39.54,46.34A10.92,10.92,0,1,1,50.46,35.42,10.93,10.93,0,0,1,39.54,46.34Zm0-19.58a8.67,8.67,0,1,0,8.67,8.66A8.68,8.68,0,0,0,39.54,26.76Z" style="fill:#6f6f59"/><circle cx="9.47" cy="8.48" r="6.2" style="fill:#d4ece6"/><path d="M9.47,15.81A7.33,7.33,0,1,1,16.8,8.48,7.34,7.34,0,0,1,9.47,15.81Zm0-12.41a5.08,5.08,0,1,0,5.08,5.08A5.09,5.09,0,0,0,9.47,3.4Z" style="fill:#787878"/><circle cx="21.6" cy="40.1" r="4.12" style="fill:#a7d28c"/><path d="M21.6,45.36a5.26,5.26,0,1,1,5.25-5.26A5.26,5.26,0,0,1,21.6,45.36Zm0-8.25a3,3,0,1,0,3,3A3,3,0,0,0,21.6,37.11Z" style="fill:#6f6f59"/></svg>
