<svg id="Layer_1" data-name="Layer 1" xmlns="http://www.w3.org/2000/svg" viewBox="0 0 64 64"><title>SVG_Artboards</title><path d="M44.74,8.79C41.58,5.9,37.31,4.44,32.07,4.44c-5,0-9,1.36-12.09,4.06s-4.92,6.61-5.53,11.62a1.15,1.15,0,0,0,.24.83,1.1,1.1,0,0,0,.75.42l6.42.77a1.12,1.12,0,0,0,1.25-.95c.51-3.27,1.58-5.68,3.16-7.16a8.24,8.24,0,0,1,5.9-2.2,8.51,8.51,0,0,1,6.2,2.44,7.52,7.52,0,0,1,2.51,5.6A6.14,6.14,0,0,1,40.05,23a20.35,20.35,0,0,1-4,4.28,46.56,46.56,0,0,0-4.62,4.48,15.58,15.58,0,0,0-2.65,4.38,18.52,18.52,0,0,0-1.12,6.76c0,.43,0,1.06,0,1.91a1.14,1.14,0,0,0,1.13,1.1h6A1.13,1.13,0,0,0,36,44.83a23.92,23.92,0,0,1,.49-5.15,7.77,7.77,0,0,1,1.21-2.58,30.07,30.07,0,0,1,3.83-3.81,29.72,29.72,0,0,0,6.35-7.14,13.65,13.65,0,0,0,1.7-6.7A14,14,0,0,0,44.74,8.79Z" style="fill:#a7d28c"/><path d="M34.85,47.06h-6a2.23,2.23,0,0,1-2.25-2.19c0-.86,0-1.51,0-1.94a19.66,19.66,0,0,1,1.2-7.17,16.66,16.66,0,0,1,2.83-4.69,47.85,47.85,0,0,1,4.74-4.6,18.78,18.78,0,0,0,3.75-4,5,5,0,0,0,.68-2.6,6.37,6.37,0,0,0-2.17-4.79A7.39,7.39,0,0,0,32.17,13,7.18,7.18,0,0,0,27,14.85c-1.4,1.31-2.34,3.5-2.82,6.52a2.23,2.23,0,0,1-2.49,1.88l-6.42-.76a2.24,2.24,0,0,1-1.51-.84A2.29,2.29,0,0,1,13.33,20C14,14.69,16,10.55,19.24,7.66s7.59-4.35,12.83-4.35c5.53,0,10,1.56,13.43,4.65a15.06,15.06,0,0,1,5.18,11.5,14.69,14.69,0,0,1-1.85,7.24,30.7,30.7,0,0,1-6.58,7.43,27.52,27.52,0,0,0-3.67,3.64,6.73,6.73,0,0,0-1,2.21,22.11,22.11,0,0,0-.44,4.87A2.26,2.26,0,0,1,34.85,47.06ZM32.17,10.7a9.59,9.59,0,0,1,7,2.76A8.59,8.59,0,0,1,42,19.87a7.35,7.35,0,0,1-1,3.72,21,21,0,0,1-4.22,4.57,46.44,46.44,0,0,0-4.5,4.36,14.23,14.23,0,0,0-2.46,4,17.44,17.44,0,0,0-1.05,6.36c0,.42,0,1,0,1.88h6a24.91,24.91,0,0,1,.52-5.42,8.82,8.82,0,0,1,1.39-3,30.39,30.39,0,0,1,4-4,29.2,29.2,0,0,0,6.12-6.85,12.54,12.54,0,0,0,1.56-6.14A12.88,12.88,0,0,0,44,9.63h0C41,6.93,37,5.56,32.07,5.56c-4.68,0-8.49,1.28-11.34,3.79s-4.58,6.18-5.16,10.9L22,21c.55-3.53,1.73-6.15,3.5-7.82A9.33,9.33,0,0,1,32.17,10.7Z" style="fill:#6f6f59"/><circle cx="32" cy="55.66" r="4.71" style="fill:#a7d28c"/><path d="M32,61.5a5.84,5.84,0,1,1,1.69-11.43h0A5.84,5.84,0,0,1,32,61.5Zm0-9.43a3.6,3.6,0,1,0,1,.16h0A3.41,3.41,0,0,0,32,52.07Z" style="fill:#6f6f59"/></svg>
