<svg width="65" height="64" viewBox="0 0 65 64" fill="none" xmlns="http://www.w3.org/2000/svg">
<path d="M49.0966 31.4684L50.7054 32.7161V32.7296L54.1184 35.4107C54.3134 35.564 54.5452 35.6384 54.7751 35.6384C55.0908 35.6384 55.403 35.4984 55.6132 35.2313L59.3193 30.5134C59.6824 30.0509 59.6012 29.3815 59.1391 29.018L51.2629 22.8313V13.1107C51.2629 12.5226 50.7864 12.0461 50.1987 12.0461H43.5637C42.9759 12.0461 42.4994 12.5226 42.4994 13.1107V15.9476L33.037 8.51459C32.6511 8.21144 32.1082 8.21144 31.7219 8.51459L5.62056 29.0184C5.15806 29.3819 5.07763 30.0508 5.44071 30.5133L9.14714 35.2313C9.51024 35.6934 10.1791 35.7738 10.6417 35.4107L14.0662 32.7208V32.7245L32.3796 18.5203L32.3925 18.5303L32.403 18.5222L49.0965 31.4626L49.0966 31.4684Z" fill="#CDCECE"/>
<path fill-rule="evenodd" clip-rule="evenodd" d="M33.7474 7.61028C33.7474 7.6103 33.7474 7.61026 33.7474 7.61028L41.3494 13.5818V13.1107C41.3494 11.8878 42.3405 10.8961 43.5636 10.8961H50.1987C51.4218 10.8961 52.4129 11.8878 52.4129 13.1107V22.2723L59.8495 28.1136C60.809 28.8685 60.9799 30.2604 60.2238 31.2235L56.5169 35.9425C56.0802 36.4974 55.4294 36.7884 54.7751 36.7884C54.2964 36.7884 53.8124 36.6329 53.4079 36.315C53.4079 36.315 53.408 36.3151 53.4079 36.315L49.5554 33.2885V33.2795L47.9553 32.0386L47.9552 32.0329L32.4027 19.977L32.3927 19.9848L32.3802 19.9751L14.4001 33.9208L11.352 36.3151C10.3902 37.0701 8.99836 36.9033 8.24287 35.9418L4.53639 31.2238C3.78112 30.2616 3.94848 28.8699 4.90995 28.1142L31.0115 7.61024C31.8144 6.98011 32.9443 6.97943 33.7474 7.61028ZM15.2162 30.3771L32.3789 17.0654L32.3923 17.0758L32.4032 17.0673L50.2378 30.8922L50.2379 30.8982L51.8554 32.1526V32.1705L54.7617 34.4537L58.3622 29.8701L50.1129 23.3904V13.1961H43.6494V18.3133L32.3794 9.46047L6.39788 29.8702L9.99856 34.4535L15.2162 30.3551V30.3771ZM32.3266 9.41893C32.3266 9.41895 32.3265 9.41892 32.3266 9.41893Z" fill="#787878"/>
<path d="M26.5203 55.7126V38.514C26.5203 37.9259 26.9968 37.4494 27.5849 37.4494H37.1752C37.7629 37.4494 38.2394 37.9259 38.2394 38.514V55.7126H26.5203Z" fill="#CDCECE"/>
<path fill-rule="evenodd" clip-rule="evenodd" d="M27.6703 38.5994V54.5626H37.0894V38.5994H27.6703ZM25.3703 38.514C25.3703 37.2908 26.3617 36.2994 27.5849 36.2994H37.1752C38.3983 36.2994 39.3894 37.2911 39.3894 38.514V56.8626H25.3703V38.514Z" fill="#787878"/>
<path d="M38.2623 55.7126H50.7053V32.7085L32.4029 18.5146L14.0543 32.7261V55.7126H26.5432V38.4921C26.5432 37.9041 27.0197 37.4275 27.6078 37.4275H37.1981C37.7858 37.4275 38.2623 37.9041 38.2623 38.4921V55.7126Z" fill="#D0E5F6"/>
<path fill-rule="evenodd" clip-rule="evenodd" d="M32.4034 17.0597L51.8553 32.1451V56.8626H37.1123V38.5775H27.6932V56.8626H12.9043V32.1622L32.4034 17.0597ZM15.2043 33.2899V54.5626H25.3932V38.4921C25.3932 37.2689 26.3846 36.2775 27.6078 36.2775H37.1981C38.4212 36.2775 39.4123 37.2692 39.4123 38.4921V54.5626H49.5553V33.272L32.4025 19.9696L15.2043 33.2899Z" fill="#787878"/>
</svg>
