<svg width="64" height="64" viewBox="0 0 64 64" fill="none" xmlns="http://www.w3.org/2000/svg">
<path d="M48.7168 28.4782L50.3256 29.7259V29.7393L53.7385 32.4205C53.9336 32.5738 54.1654 32.6482 54.3953 32.6482C54.711 32.6482 55.0232 32.5082 55.2334 32.2411L58.9394 27.5231C59.3025 27.0606 59.2214 26.3913 58.7593 26.0277L50.8831 19.8411V10.1205C50.8831 9.5324 50.4066 9.05586 49.8189 9.05586H43.1838C42.5961 9.05586 42.1196 9.53239 42.1196 10.1205V12.9573L32.6571 5.52436C32.2713 5.22121 31.7283 5.22121 31.3421 5.52436L5.24074 26.0282C4.77824 26.3917 4.69781 27.0606 5.06089 27.5231L8.76732 32.241C9.13042 32.7032 9.79931 32.7836 10.2618 32.4205L13.6864 29.7305V29.7342L31.9998 15.5301L32.0127 15.5401L32.0232 15.5319L48.7167 28.4723L48.7168 28.4782Z" fill="#CDCECE"/>
<path fill-rule="evenodd" clip-rule="evenodd" d="M33.3676 4.62005C33.3676 4.62006 33.3675 4.62003 33.3676 4.62005L40.9696 10.5916V10.1205C40.9696 8.89752 41.9607 7.90585 43.1838 7.90585H49.8189C51.042 7.90585 52.0331 8.89755 52.0331 10.1205V19.2821L59.4696 25.1233C60.4292 25.8782 60.6001 27.2702 59.844 28.2332L56.1371 32.9522C55.7004 33.5072 55.0496 33.7981 54.3953 33.7981C53.9166 33.7981 53.4326 33.6426 53.0281 33.3248C53.028 33.3248 53.0282 33.3249 53.0281 33.3248L49.1756 30.2983V30.2893L47.5755 29.0484L47.5754 29.0427L32.0229 16.9868L32.0129 16.9945L32.0004 16.9849L14.0203 30.9306L10.9722 33.3249C10.0104 34.0799 8.61853 33.913 7.86305 32.9515L4.15657 28.2335C3.4013 27.2714 3.56866 25.8796 4.53013 25.124L30.6317 4.62001C31.4345 3.98987 32.5645 3.98919 33.3676 4.62005ZM14.8364 27.3869L31.9991 14.0752L32.0125 14.0856L32.0234 14.0771L49.858 27.902L49.8581 27.908L51.4756 29.1624V29.1803L54.3818 31.4634L57.9824 26.8798L49.7331 20.4001V10.2058H43.2696V15.323L31.9996 6.47023L6.01806 26.88L9.61874 31.4633L14.8364 27.3648V27.3869ZM31.9467 6.4287C31.9468 6.42871 31.9467 6.42868 31.9467 6.4287Z" fill="#787878"/>
<path d="M26.1404 52.7223V35.5238C26.1404 34.9357 26.617 34.4592 27.2051 34.4592H36.7954C37.3831 34.4592 37.8596 34.9357 37.8596 35.5238V52.7223H26.1404Z" fill="#CDCECE"/>
<path fill-rule="evenodd" clip-rule="evenodd" d="M27.2905 35.6092V51.5724H36.7096V35.6092H27.2905ZM24.9905 35.5238C24.9905 34.3006 25.9819 33.3092 27.2051 33.3092H36.7954C38.0185 33.3092 39.0096 34.3009 39.0096 35.5238V53.8724H24.9905V35.5238Z" fill="#787878"/>
<path d="M37.8825 52.7224H50.3255V29.7183L32.0231 15.5244L13.6745 29.7358V52.7224H26.1633V35.5019C26.1633 34.9138 26.6399 34.4373 27.228 34.4373H36.8183C37.406 34.4373 37.8825 34.9138 37.8825 35.5019V52.7224Z" fill="#D0E5F6"/>
<path fill-rule="evenodd" clip-rule="evenodd" d="M32.0236 14.0694L51.4756 29.1548V53.8724H36.7325V35.5873H27.3134V53.8724H12.5245V29.1719L32.0236 14.0694ZM14.8245 30.2997V51.5723H25.0134V35.5019C25.0134 34.2787 26.0048 33.2873 27.228 33.2873H36.8183C38.0414 33.2873 39.0325 34.279 39.0325 35.5019V51.5723H49.1756V30.2817L32.0227 16.9793L14.8245 30.2997Z" fill="#787878"/>
<path d="M28.1916 31.1776L27.8463 30.7391H27.2881H8.00842C6.26872 30.7391 4.85842 32.1494 4.85842 33.8891V55.5626C4.85842 57.3023 6.26873 58.7126 8.00842 58.7126H28.8114C30.5511 58.7126 31.9614 57.3023 31.9614 55.5626V36.3634V35.965L31.7149 35.6519L28.1916 31.1776Z" fill="#6F6F59" stroke="#6F6F59" stroke-width="2.3"/>
<path fill-rule="evenodd" clip-rule="evenodd" d="M10.6245 31.8897H25.2196V35.5645H10.6245V31.8897ZM23.0614 50.6735H13.759C13.2972 50.6735 12.9222 50.2993 12.9222 49.8368C12.9222 49.375 13.2964 49 13.759 49L23.0614 49.0004C23.5232 49.0004 23.8982 49.3746 23.8982 49.8372C23.8982 50.2989 23.5239 50.6735 23.0614 50.6735ZM23.0614 54.7459H13.759C13.2972 54.7459 12.9222 54.3717 12.9222 53.9088C12.9222 53.447 13.2964 53.072 13.759 53.072H23.0614C23.5232 53.072 23.8982 53.4466 23.8982 53.9088C23.8982 54.3713 23.5239 54.7459 23.0614 54.7459ZM10.6245 46.1832V57.5626H25.2196V46.1832H10.6245ZM7.9757 31.8891H8.95145V36.4006C8.95145 36.8623 9.32606 37.2373 9.78819 37.2373H26.056C26.5177 37.2373 26.8927 36.8631 26.8927 36.4006V31.8891H27.2933L30.8114 36.3818V55.5954C30.8114 56.6769 29.9256 57.5623 28.8445 57.5623H26.8928L26.8924 45.3456C26.8924 44.8838 26.5181 44.5088 26.0556 44.5088H9.78785C9.3261 44.5088 8.95111 44.8831 8.95111 45.3456V57.5623H7.97537C6.89421 57.5623 6.00842 56.6777 6.00842 55.5954L6.0088 33.8554C6.00918 32.773 6.89454 31.8891 7.9757 31.8891Z" fill="#A7D28C"/>
</svg>
