<?xml version="1.0" encoding="UTF-8"?><svg id="Layer_1" xmlns="http://www.w3.org/2000/svg" viewBox="0 0 64 64"><polygon points="23.26 19.53 31.75 6.72 40.25 19.53 35.74 19.53 35.74 28.55 27.77 28.55 27.77 19.53 23.26 19.53" style="fill:#2896d3; stroke:#6f6f59; stroke-linejoin:round; stroke-width:2.25px;"/><path d="M9.35,9.21h5.53V2.56h-6.42c-3.16,0-5.72,2.56-5.72,5.72v6.44h6.61v-5.5Z" style="fill:#2896d3; stroke-width:0px;"/><path d="M9.35,15.84H2.75c-.62,0-1.13-.5-1.13-1.13v-6.44c0-3.77,3.07-6.84,6.84-6.84h6.42c.62,0,1.13.5,1.13,1.13v6.65c0,.62-.5,1.13-1.13,1.13h-4.4v4.38c0,.62-.5,1.13-1.13,1.13ZM3.88,13.58h4.35v-4.38c0-.62.5-1.13,1.13-1.13h4.4V3.68h-5.29c-2.53,0-4.59,2.06-4.59,4.59v5.31Z" style="fill:#6f6f59; stroke-width:0px;"/><path d="M54.6,9.16v5.53h6.65v-6.42c0-3.16-2.56-5.72-5.72-5.72h-6.44v6.61h5.5Z" style="fill:#2896d3; stroke-width:0px;"/><path d="M61.25,15.82h-6.65c-.62,0-1.13-.5-1.13-1.13v-4.4h-4.38c-.62,0-1.13-.5-1.13-1.13V2.56c0-.62.5-1.13,1.13-1.13h6.44c3.77,0,6.84,3.07,6.84,6.84v6.42c0,.62-.5,1.13-1.13,1.13ZM55.73,13.56h4.4v-5.29c0-2.53-2.06-4.59-4.59-4.59h-5.31v4.35h4.38c.62,0,1.13.5,1.13,1.13v4.4Z" style="fill:#6f6f59; stroke-width:0px;"/><path d="M54.65,54.79h-5.53v6.65h6.42c3.16,0,5.72-2.56,5.72-5.72v-6.44h-6.61v5.5Z" style="fill:#2896d3; stroke-width:0px;"/><path d="M55.54,62.57h-6.42c-.62,0-1.13-.5-1.13-1.13v-6.65c0-.62.5-1.13,1.13-1.13h4.4v-4.38c0-.62.5-1.13,1.13-1.13h6.61c.62,0,1.13.5,1.13,1.13v6.44c0,3.77-3.07,6.84-6.84,6.84ZM50.25,60.32h5.29c2.53,0,4.59-2.06,4.59-4.59v-5.31h-4.35v4.38c0,.62-.5,1.13-1.13,1.13h-4.4v4.4Z" style="fill:#6f6f59; stroke-width:0px;"/><path d="M9.4,54.84v-5.53H2.75v6.42c0,3.16,2.56,5.72,5.72,5.72h6.44v-6.61h-5.5Z" style="fill:#2896d3; stroke-width:0px;"/><path d="M14.9,62.57h-6.44c-3.77,0-6.84-3.07-6.84-6.84v-6.42c0-.62.5-1.13,1.13-1.13h6.65c.62,0,1.13.5,1.13,1.13v4.4h4.38c.62,0,1.13.5,1.13,1.13v6.61c0,.62-.5,1.13-1.13,1.13ZM3.88,50.44v5.29c0,2.53,2.06,4.59,4.59,4.59h5.31v-4.35h-4.38c-.62,0-1.13-.5-1.13-1.13v-4.4H3.88Z" style="fill:#6f6f59; stroke-width:0px;"/><polygon points="23.52 50.95 39.99 50.95 31.8 36.29 23.52 50.95" style="fill:#a7d28c; stroke-width:0px;"/><path d="M22.8,51.67c-.06-.06-.11-.13-.16-.21-.18-.31-.18-.7,0-1.01l8.28-14.66c.18-.32.52-.52.89-.52.37,0,.71.2.88.52l8.19,14.66c.18.31.17.7-.01,1.01s-.52.5-.88.5h-16.47c-.27,0-.53-.11-.72-.3ZM31.8,38.36l-6.54,11.57h13s-6.46-11.57-6.46-11.57Z" style="fill:#6f6f59; stroke-width:0px;"/><circle cx="45.33" cy="36.49" r="7" style="fill:#a7d28c; stroke-width:0px;"/><path d="M45.33,44.62c-4.48,0-8.12-3.64-8.12-8.12s3.64-8.12,8.12-8.12,8.12,3.64,8.12,8.12-3.64,8.12-8.12,8.12ZM45.33,30.62c-3.24,0-5.87,2.63-5.87,5.87s2.63,5.87,5.87,5.87,5.87-2.63,5.87-5.87-2.63-5.87-5.87-5.87Z" style="fill:#6f6f59; stroke-width:0px;"/><rect x="11.5" y="30.53" width="12.22" height="12.22" style="fill:#a7d28c; stroke-width:0px;"/><path d="M23.72,43.88h-12.22c-.62,0-1.13-.5-1.13-1.13v-12.22c0-.62.5-1.13,1.13-1.13h12.22c.62,0,1.13.5,1.13,1.13v12.22c0,.62-.5,1.13-1.13,1.13ZM12.63,41.62h9.97v-9.97h-9.97v9.97Z" style="fill:#6f6f59; stroke-width:0px;"/></svg>
