<svg width="64" height="64" viewBox="0 0 64 64" fill="none" xmlns="http://www.w3.org/2000/svg">
<path d="M10.8535 50.4874L22.1223 58.6727V37.8294L10.8535 31.9237V50.4874Z" fill="#F3C017"/>
<path d="M22.122 59.75C21.9007 59.75 21.6698 59.6827 21.4869 59.548L10.2085 51.3723C9.92946 51.1703 9.76587 50.8433 9.76587 50.497V31.9238C9.76587 31.5487 9.96796 31.1928 10.2855 31.0004C10.6127 30.808 11.0169 30.7888 11.3537 30.9715L22.6224 36.8773C22.9785 37.06 23.1998 37.4352 23.1998 37.8391V58.6824C23.1998 59.0863 22.9689 59.4615 22.6032 59.6442C22.4492 59.7212 22.276 59.7596 22.1124 59.7596L22.122 59.75ZM11.9311 49.9392L21.0346 56.5471V38.4836L11.9311 33.7224V49.9392Z" fill="#787878"/>
<path d="M39.0204 52.2956L22.1221 58.6727V37.8295L39.0204 32.7701V52.2956Z" fill="#F3C017"/>
<path d="M22.1223 59.75C21.901 59.75 21.6893 59.6827 21.5064 59.5577C21.2178 59.3557 21.0349 59.019 21.0349 58.6631V37.8295C21.0349 37.3486 21.3525 36.9254 21.8048 36.7907L38.7031 31.7314C39.0303 31.6352 39.3863 31.6929 39.6654 31.8949C39.9445 32.0969 40.0984 32.4239 40.0984 32.7606V52.2861C40.0984 52.7382 39.8194 53.1421 39.396 53.296L22.4976 59.6635C22.3725 59.7116 22.2474 59.7308 22.1127 59.7308L22.1223 59.75ZM23.2098 38.6375V57.1049L37.9429 51.5455V34.2226L23.2098 38.6279V38.6375Z" fill="#787878"/>
<path d="M25.8368 27.4607L39.0206 32.7701L22.1223 37.8294L10.8535 31.9237L25.8368 27.4607Z" fill="#F3C017"/>
<path d="M22.1221 38.9165C21.9488 38.9165 21.7756 38.878 21.6216 38.7914L10.3433 32.8857C9.95835 32.6837 9.72739 32.2605 9.76589 31.8277C9.80438 31.3852 10.1123 31.0197 10.5357 30.8947L25.5287 26.4221C25.7596 26.3547 26.0194 26.3644 26.2408 26.4605L39.4245 31.7699C39.848 31.9431 40.127 32.3663 40.0982 32.828C40.0789 33.2897 39.771 33.684 39.3283 33.8187L22.43 38.878C22.3241 38.9068 22.2279 38.9261 22.1221 38.9261V38.9165ZM13.7114 32.2028L22.2279 36.6657L35.7389 32.6164L25.7789 28.6055L13.7114 32.2028Z" fill="#787878"/>
<path d="M40.5011 6.00358L37.0139 4.2594L28.7288 20.8239L32.216 22.5681L40.5011 6.00358Z" fill="#6F6F59"/>
<path d="M36.5029 24.4232C36.5664 24.3804 36.5602 24.2851 36.4918 24.2508L24.4498 18.2278C24.3815 18.1936 24.3017 18.2455 24.3052 18.3218L24.932 32.0365C24.9355 32.1144 25.023 32.1584 25.0878 32.1148L36.5029 24.4232Z" fill="#A7D28C"/>
<path fill-rule="evenodd" clip-rule="evenodd" d="M23.2063 18.372C23.1644 17.4567 24.1224 16.8341 24.9418 17.244L36.9838 23.267C37.8054 23.678 37.8794 24.8221 37.1175 25.3354L25.7023 33.0271C24.9258 33.5504 23.8758 33.0222 23.833 32.0867L23.2063 18.372ZM25.4818 19.9739L25.9495 30.2078L34.4674 24.4683L25.4818 19.9739Z" fill="#6F6F59"/>
</svg>
