<?xml version="1.0" encoding="UTF-8"?>
<svg id="Layer_1" data-name="Layer 1" xmlns="http://www.w3.org/2000/svg" viewBox="0 0 64 64">
  <defs>
    <style>
      .cls-1 {
        fill: #2896d3;
      }

      .cls-2 {
        fill: #6f6f59;
      }
    </style>
  </defs>
  <path class="cls-1" d="M9.92,58.18c-.43,0-.82-.24-1.01-.62-.19-.38-.15-.84.11-1.18l18.31-24.38L9.02,7.62c-.26-.34-.3-.8-.11-1.18.19-.38.58-.62,1.01-.62h44.16c.62,0,1.13.5,1.13,1.13v11.04c0,.62-.5,1.13-1.13,1.13h-3.68c-.62,0-1.13-.5-1.13-1.13v-3.68c0-1.41-1.15-2.55-2.55-2.55h-26.18l15.28,19.56c.32.41.32.98,0,1.39l-15.28,19.56h26.18c1.41,0,2.55-1.15,2.55-2.55v-3.68c0-.62.5-1.13,1.13-1.13h3.68c.62,0,1.13.5,1.13,1.13v11.04c0,.62-.5,1.13-1.13,1.13H9.92Z"/>
  <path class="cls-2" d="M54.08,6.94v11.04h-3.68v-3.68c0-2.03-1.65-3.68-3.68-3.68h-28.49l16.71,21.38-16.71,21.38h28.49c2.03,0,3.68-1.65,3.68-3.68v-3.68h3.68v11.04H9.92l18.82-25.06L9.92,6.94h44.16M54.08,4.69H9.92c-.85,0-1.63.48-2.02,1.25-.38.76-.3,1.68.21,2.36l17.8,23.7-17.8,23.7c-.51.68-.6,1.6-.21,2.36.38.76,1.16,1.25,2.02,1.25h44.16c1.24,0,2.25-1.01,2.25-2.25v-11.04c0-1.24-1.01-2.25-2.25-2.25h-3.68c-1.24,0-2.25,1.01-2.25,2.25v3.68c0,.79-.64,1.43-1.43,1.43h-23.87l13.86-17.74c.64-.82.64-1.96,0-2.78l-13.86-17.74h23.87c.79,0,1.43.64,1.43,1.43v3.68c0,1.24,1.01,2.25,2.25,2.25h3.68c1.24,0,2.25-1.01,2.25-2.25V6.94c0-1.24-1.01-2.25-2.25-2.25h0Z"/>
</svg>
