<svg id="Layer_1" data-name="Layer 1" xmlns="http://www.w3.org/2000/svg" viewBox="0 0 64 64"><title>SVG_Artboards</title><path d="M19.47,30a3.87,3.87,0,0,0,3-1,4.12,4.12,0,0,0,1-2.91,3.57,3.57,0,0,0-1-2.61,3.79,3.79,0,0,0-2.84-1,3.71,3.71,0,0,0-2.57.93,3.09,3.09,0,0,0-1,2.4H10.51l0-.11A6.31,6.31,0,0,1,13,20.21a10.07,10.07,0,0,1,6.53-2.13,10.73,10.73,0,0,1,6.89,2A7.07,7.07,0,0,1,29,26a6,6,0,0,1-1.11,3.52,7.52,7.52,0,0,1-3,2.52,7,7,0,0,1,3.38,2.5,6.85,6.85,0,0,1,1.19,4,7.28,7.28,0,0,1-2.77,6,11.08,11.08,0,0,1-7.11,2.2,11.08,11.08,0,0,1-6.67-2.07,6.56,6.56,0,0,1-2.76-5.81l0-.12h5.44a3.51,3.51,0,0,0,1.11,2.64,3.9,3.9,0,0,0,2.84,1.06,4.3,4.3,0,0,0,3.11-1.13,3.77,3.77,0,0,0,1.19-2.85,4.34,4.34,0,0,0-1.11-3.27,4.56,4.56,0,0,0-3.26-1.07H16.38V30Z" style="fill:#6f6f59"/><path d="M33.44,46.4V18.48H43.2a11.51,11.51,0,0,1,8.42,3.27,11.28,11.28,0,0,1,3.31,8.39v4.62a11.25,11.25,0,0,1-3.31,8.39A11.58,11.58,0,0,1,43.2,46.4Zm5.62-23.6V42.1H43.2A5.45,5.45,0,0,0,47.64,40a8,8,0,0,0,1.69-5.28V30.1a8,8,0,0,0-1.69-5.24A5.45,5.45,0,0,0,43.2,22.8Z" style="fill:#6f6f59"/></svg>
