<svg id="Layer_1" data-name="Layer 1" xmlns="http://www.w3.org/2000/svg" viewBox="0 0 64 64"><title>SVG_Artboards</title><path d="M28.83,46.19H10.06V42.52l8.67-9.8a21.49,21.49,0,0,0,2.75-3.87,6.39,6.39,0,0,0,.82-2.91,4.23,4.23,0,0,0-.86-2.77,3.19,3.19,0,0,0-2.6-1A3.33,3.33,0,0,0,16,23.46a5.41,5.41,0,0,0-1,3.36H9.56l0-.11A8.28,8.28,0,0,1,12,20.4a9.2,9.2,0,0,1,6.86-2.59A9.53,9.53,0,0,1,25.53,20a7.66,7.66,0,0,1,2.38,5.91,8.3,8.3,0,0,1-1.34,4.59A51.91,51.91,0,0,1,22,36.26l-4.61,5.53,0,.09H28.83Z" style="fill:#6f6f59"/><path d="M32.94,46.19v-28h9.78a11.5,11.5,0,0,1,8.43,3.27,11.3,11.3,0,0,1,3.33,8.41v4.63a11.23,11.23,0,0,1-3.33,8.4,11.54,11.54,0,0,1-8.43,3.26Zm5.63-23.65V41.88h4.15a5.47,5.47,0,0,0,4.45-2.06,8.07,8.07,0,0,0,1.7-5.29V29.86a8,8,0,0,0-1.7-5.26,5.5,5.5,0,0,0-4.45-2.06Z" style="fill:#6f6f59"/></svg>
