<svg id="Layer_1" data-name="Layer 1" xmlns="http://www.w3.org/2000/svg" viewBox="0 0 64 64"><title>SVG_Artboards</title><ellipse cx="29.3" cy="35.12" rx="13.25" ry="31.37" transform="translate(-16.25 31.01) rotate(-45)" style="fill:#a7d28c"/><path d="M46.11,60.32c-7.1,0-17.49-5.56-27-15C6.25,32.39.62,17.83,6.32,12.14S26.58,12.07,39.47,25,58,52.4,52.28,58.1A8.42,8.42,0,0,1,46.11,60.32ZM12.5,12.13a6.31,6.31,0,0,0-4.59,1.6c-4.64,4.64,1.23,18.36,12.82,30s25.32,17.46,30,12.81c2.13-2.12,2.09-6.46-.12-11.89-2.37-5.83-6.88-12.24-12.7-18.06C29,17.66,18.85,12.13,12.5,12.13Z" style="fill:#6f6f59"/><ellipse cx="29.3" cy="35.12" rx="9.17" ry="21.71" transform="translate(-16.25 31.01) rotate(-45)" style="fill:#9ac1e0"/><path d="M40.93,52.91a15.76,15.76,0,0,1-5.78-1.31A42,42,0,0,1,22,42.4a42,42,0,0,1-9.2-13.13C11,24.7,11.08,21,13.16,19c4.08-4.08,14.37-.18,23.42,8.87h0c9.05,9.05,13,19.34,8.87,23.42A6.16,6.16,0,0,1,40.93,52.91ZM17.64,19.61a4,4,0,0,0-2.89.95c-1.37,1.37-1.31,4.24.16,7.86A39.43,39.43,0,0,0,23.62,40.8,39.43,39.43,0,0,0,36,49.51c3.62,1.47,6.48,1.53,7.86.16C46.54,47,43.56,38,35,29.43h0C28.45,22.89,21.68,19.61,17.64,19.61Z" style="fill:#6f6f59"/><ellipse cx="29.3" cy="35.12" rx="4.32" ry="10.23" transform="translate(-16.25 31.01) rotate(-45)" style="fill:#9ac1e0"/><path d="M34.79,44.1a8.06,8.06,0,0,1-3-.66A20.39,20.39,0,0,1,25.45,39c-3.89-3.89-6.68-9.38-4.18-11.89s8,.29,11.88,4.18h0c3.9,3.9,6.69,9.39,4.19,11.89A3.51,3.51,0,0,1,34.79,44.1Zm-11-15.72a1.33,1.33,0,0,0-1,.3c-.92.92.25,4.76,4.18,8.7a18,18,0,0,0,5.64,4c1.44.58,2.61.66,3.06.21.92-.92-.25-4.77-4.18-8.7C28.47,29.76,25.42,28.38,23.82,28.38Z" style="fill:#6f6f59"/><path d="M13.94,19.71h0c3.55-3.51,13.28.5,21.75,9,7.89,7.89,11.9,16.86,9.58,20.93C52.39,41.68,51.7,29,43.5,20.8,35,12.34,21.8,11.85,13.94,19.71Z" style="fill:#2896d3"/><path d="M45.27,50.73a1.12,1.12,0,0,1-1-1.68c1.82-3.18-1.2-11.37-9.4-19.57-8.56-8.56-17.49-11.6-20.16-9a1.13,1.13,0,0,1-1.59-1.6c8.29-8.28,22.26-7.8,31.16,1.1,8.58,8.58,9.38,21.92,1.81,30.35A1.11,1.11,0,0,1,45.27,50.73ZM18.86,17.43c4.92.61,11.55,4.38,17.62,10.46s9.76,12.48,10.45,17.39c3.9-7.39,2.38-17.07-4.23-23.68S26.24,13.47,18.86,17.43Z" style="fill:#6f6f59"/><path d="M7.14,12.91h0c5.2-5.13,19.3.61,31.53,12.84C50.06,37.14,55.81,50.14,52.4,56.07c10.43-11.59,9.55-30-2.3-41.85C37.88,2,18.64,1.41,7.14,12.91Z" style="fill:#72be44"/><path d="M52.4,57.2a1.09,1.09,0,0,1-.66-.22,1.12,1.12,0,0,1-.31-1.47c3.15-5.49-2.8-18.21-13.56-29C26.31,15,12.6,9.1,7.94,13.71a1.12,1.12,0,0,1-1.59,0,1.13,1.13,0,0,1,0-1.6C18.27.19,38.25.78,50.9,13.42,63.11,25.64,64.14,44.7,53.24,56.83A1.15,1.15,0,0,1,52.4,57.2ZM12.7,9.92c7.09.11,17.38,5.65,26.77,15,9.2,9.21,14.78,19.32,15,26.44C61.32,40.26,59.42,25.13,49.3,15S23.79,3,12.7,9.92Z" style="fill:#6f6f59"/></svg>
