<?xml version="1.0" encoding="UTF-8"?><svg id="a" xmlns="http://www.w3.org/2000/svg" viewBox="0 0 64 64"><g><path d="M41.66,17.69L32.35,3.65l-9.32,14.05h4.95v21.26h8.74V17.69h4.95Z" style="fill:#f3c017;"/><path d="M36.71,40.07h-8.74c-.62,0-1.13-.5-1.13-1.13V18.82h-3.82c-.42,0-.8-.23-.99-.59-.2-.37-.17-.81,.05-1.16L31.41,3.02c.21-.31,.56-.5,.94-.5h0c.38,0,.73,.19,.94,.5l9.31,14.05c.23,.35,.25,.79,.05,1.16-.2,.37-.58,.59-.99,.59h-3.82v20.13c0,.62-.5,1.13-1.13,1.13Zm-7.61-2.25h6.48V17.69c0-.62,.5-1.13,1.13-1.13h2.85l-7.21-10.88-7.22,10.88h2.85c.62,0,1.13,.5,1.13,1.13v20.13Z" style="fill:#6f6f59;"/></g><g><path d="M19.19,56.34l-16.8-1.29,7.73-14.98,2.41,4.32,18.57-10.35,4.25,7.63-18.57,10.35,2.41,4.32Z" style="fill:#a7d28c;"/><path d="M19.19,57.47s-.06,0-.09,0l-16.8-1.29c-.38-.03-.71-.24-.9-.57-.18-.33-.19-.73-.02-1.07l7.73-14.98c.19-.37,.57-.6,.98-.61,.46-.02,.8,.21,1,.58l1.86,3.34,17.58-9.8c.54-.3,1.23-.11,1.53,.44l4.25,7.63c.15,.26,.18,.57,.1,.86-.08,.29-.27,.53-.54,.68l-17.58,9.8c1.71,3.07,1.85,3.31,1.86,3.33,.2,.36,.19,.81-.03,1.16-.21,.33-.57,.52-.95,.52Zm-15.02-3.41l13.01,1c-.34-.61-.79-1.42-1.39-2.49-.3-.54-.11-1.23,.44-1.53l17.58-9.8-3.16-5.66-17.58,9.8c-.26,.14-.57,.18-.86,.1-.29-.08-.53-.27-.68-.54l-1.39-2.49-5.99,11.6Z" style="fill:#6f6f59;"/></g><g><path d="M45.02,56.34l16.8-1.29-7.73-14.98-2.41,4.32-18.57-10.35-4.25,7.63,18.57,10.35-2.41,4.32Z" style="fill:#de4130;"/><path d="M45.02,57.47c-.38,0-.74-.19-.95-.52-.22-.35-.24-.79-.03-1.16l1.86-3.34-17.58-9.8c-.54-.3-.74-.99-.44-1.53l4.25-7.63c.15-.26,.39-.45,.68-.54,.29-.08,.59-.05,.86,.1l17.58,9.8,1.86-3.34c.2-.36,.59-.59,1-.58,.42,0,.79,.24,.98,.61l7.73,14.98c.17,.34,.17,.74-.02,1.07-.18,.33-.52,.55-.9,.57l-16.8,1.29s-.06,0-.09,0Zm-14.62-16.23l17.58,9.8c.26,.15,.45,.39,.54,.68,.08,.29,.05,.6-.1,.86-.6,1.07-1.05,1.88-1.39,2.49l13.01-1-5.99-11.6-1.39,2.49c-.15,.26-.39,.45-.68,.54-.29,.08-.59,.04-.86-.1l-17.58-9.8-3.16,5.66Z" style="fill:#6f6f59;"/></g><g><polygon points="31.88 49.86 21.33 42.7 21.33 29.76 31.88 36.92 31.88 49.86" style="fill:#a7d28c;"/><path d="M31.88,50.99c-.22,0-.44-.07-.63-.19l-10.55-7.16c-.31-.21-.49-.56-.49-.93v-12.93c0-.42,.23-.8,.6-1,.37-.19,.82-.17,1.16,.06l10.55,7.16c.31,.21,.49,.56,.49,.93v12.93c0,.42-.23,.8-.6,1-.17,.09-.35,.13-.53,.13Zm-9.42-8.89l8.29,5.63v-10.21l-8.29-5.63v10.21Z" style="fill:#6f6f59;"/></g><g><polygon points="32.12 49.86 42.67 42.7 42.67 29.76 32.12 36.92 32.12 49.86" style="fill:#de4130;"/><path d="M32.12,50.99c-.18,0-.36-.04-.53-.13-.37-.2-.6-.58-.6-1v-12.93c0-.37,.19-.72,.49-.93l10.55-7.16c.35-.23,.79-.26,1.16-.06,.37,.2,.6,.58,.6,1v12.93c0,.37-.19,.72-.49,.93l-10.55,7.16c-.19,.13-.41,.19-.63,.19Zm1.13-13.46v10.21l8.29-5.63v-10.21l-8.29,5.63Z" style="fill:#6f6f59;"/></g><g><polygon points="42.27 29.52 31.99 36.61 21.56 29.52 32.02 24.02 42.27 29.52" style="fill:#f3c017;"/><path d="M31.99,37.74c-.22,0-.44-.07-.63-.2l-10.43-7.09c-.33-.22-.51-.6-.49-1,.02-.4,.25-.75,.6-.93l10.47-5.5c.33-.17,.73-.17,1.06,0l10.24,5.5c.35,.19,.57,.54,.59,.93,.02,.39-.16,.77-.49,.99l-10.28,7.09c-.19,.13-.42,.2-.64,.2Zm-8.24-8.09l8.24,5.6,8.13-5.6-8.09-4.35-8.27,4.35Z" style="fill:#6f6f59;"/></g></svg>
