<?xml version="1.0" encoding="UTF-8"?><svg id="a" xmlns="http://www.w3.org/2000/svg" viewBox="0 0 64 64"><g><path d="M46.35,31.26c0-8.15-6.79-14.71-15.03-14.33-7.31,.34-13.32,6.35-13.66,13.66-.2,4.46,1.63,8.5,4.65,11.26,1.72,1.57,2.77,3.74,2.77,6.07h0c0,1.89,1.53,3.42,3.42,3.42h6.98c1.89,0,3.42-1.53,3.42-3.42h0c0-2.29,.97-4.46,2.67-5.99,2.93-2.63,4.77-6.43,4.77-10.68Z" style="fill:#cdcece;"/><path d="M35.49,52.47h-6.98c-2.51,0-4.55-2.04-4.55-4.55,0-1.94-.88-3.85-2.4-5.24-3.4-3.11-5.23-7.53-5.02-12.14,.36-7.9,6.83-14.37,14.73-14.73,4.29-.19,8.33,1.32,11.42,4.27,3.09,2.95,4.79,6.92,4.79,11.19s-1.87,8.58-5.14,11.51c-1.46,1.31-2.3,3.18-2.3,5.14,0,2.51-2.04,4.55-4.55,4.55Zm-3.49-34.43c-.21,0-.42,0-.63,.01-6.75,.31-12.27,5.84-12.58,12.58-.18,3.94,1.38,7.72,4.29,10.38,1.99,1.82,3.13,4.34,3.13,6.91,0,1.27,1.03,2.3,2.3,2.3h6.98c1.27,0,2.3-1.03,2.3-2.3,0-2.6,1.11-5.09,3.04-6.82,2.79-2.5,4.39-6.09,4.39-9.84s-1.45-7.04-4.09-9.56c-2.48-2.37-5.7-3.66-9.12-3.66Z" style="fill:#6f6f59;"/></g><path d="M41.5,32.24c-.62,0-1.13-.5-1.13-1.13,0-4.14-3.37-7.5-7.5-7.5-.62,0-1.13-.5-1.13-1.13s.5-1.13,1.13-1.13c5.38,0,9.76,4.38,9.76,9.76,0,.62-.5,1.13-1.13,1.13Z" style="fill:#6f6f59;"/><path d="M35.23,60.84h-6.47c-.62,0-1.13-.5-1.13-1.13s.5-1.13,1.13-1.13h6.47c.62,0,1.13,.5,1.13,1.13s-.5,1.13-1.13,1.13Z" style="fill:#787878;"/><path d="M36.94,56.65h-9.87c-.62,0-1.13-.5-1.13-1.13s.5-1.13,1.13-1.13h9.87c.62,0,1.13,.5,1.13,1.13s-.5,1.13-1.13,1.13Z" style="fill:#787878;"/></svg>
