<svg id="Layer_1" data-name="Layer 1" xmlns="http://www.w3.org/2000/svg" viewBox="0 0 64 64"><title>SVG_Artboards</title><path d="M56.45,37.88H8a3.31,3.31,0,0,0-3.31,3.3V55.73A3.31,3.31,0,0,0,8,59H56.45a3.31,3.31,0,0,0,3.3-3.31V41.18A3.3,3.3,0,0,0,56.45,37.88Zm-43,13.2a2.62,2.62,0,1,1,2.62-2.62A2.63,2.63,0,0,1,13.44,51.08Z" style="fill:#cdcece"/><path d="M56.45,60.16H8a4.43,4.43,0,0,1-4.43-4.43V41.18A4.43,4.43,0,0,1,8,36.75H56.45a4.44,4.44,0,0,1,4.43,4.43V55.73A4.43,4.43,0,0,1,56.45,60.16ZM8,39a2.19,2.19,0,0,0-2.18,2.18V55.73A2.19,2.19,0,0,0,8,57.91H56.45a2.19,2.19,0,0,0,2.18-2.18V41.18A2.19,2.19,0,0,0,56.45,39Zm5.45,13.2a3.75,3.75,0,1,1,3.75-3.74A3.75,3.75,0,0,1,13.44,52.2Zm0-5.24a1.5,1.5,0,1,0,1.5,1.5A1.5,1.5,0,0,0,13.44,47Z" style="fill:#787878"/><polygon points="15.65 29.2 32.74 3.42 49.84 29.2 40.77 29.2 40.77 47.35 24.73 47.35 24.73 29.2 15.65 29.2" style="fill:#2896d3"/><path d="M40.76,48.48h-16a1.14,1.14,0,0,1-1.13-1.13v-17h-8a1.12,1.12,0,0,1-1-.6,1.11,1.11,0,0,1,.05-1.15L31.8,2.8a1.14,1.14,0,0,1,.94-.5h0a1.14,1.14,0,0,1,.94.5l17.1,25.78a1.11,1.11,0,0,1,.06,1.15,1.13,1.13,0,0,1-1,.6h-8v17A1.13,1.13,0,0,1,40.76,48.48Zm-14.9-2.26H39.64v-17a1.13,1.13,0,0,1,1.12-1.13h7l-15-22.61-15,22.61h7a1.14,1.14,0,0,1,1.13,1.13Z" style="fill:#6f6f59"/></svg>
