<svg id="Layer_1" data-name="Layer 1" xmlns="http://www.w3.org/2000/svg" viewBox="0 0 64 64"><title>SVG_Artboards</title><path d="M26.75,16.24H44.32c3.27,0,4.83,1.57,4.83,4.86V54.22c0,3.22-1.57,4.81-4.78,4.81H9.13c-3.2,0-4.77-1.58-4.77-4.81V21c0-3.16,1.59-4.76,4.72-4.76ZM45.07,31.73H24.44V54.94H45.07Zm-36.62,0V54.94H20.26V31.71Zm0-4.16H45.07V20.37H8.44Z" style="fill:#6f6f59"/><path d="M45.07,31.73V54.94H24.44V31.73Z" style="fill:#d0e5f6"/><path d="M8.45,31.71H20.26V54.94H8.45Z" style="fill:#d0e5f6"/><path d="M8.44,27.55V20.37H45.07v7.18Z" style="fill:#d0e5f6"/><polygon points="59.85 22.75 47.93 4.78 36 22.75 42.33 22.75 42.33 35.42 53.52 35.42 53.52 22.75 59.85 22.75" style="fill:#2896d3"/><path d="M53.52,36.54H42.33a1.12,1.12,0,0,1-1.12-1.12V23.88H36a1.13,1.13,0,0,1-.94-1.75L47,4.15a1.12,1.12,0,0,1,.93-.5h0a1.14,1.14,0,0,1,.94.5l11.92,18a1.13,1.13,0,0,1-.94,1.75H54.64V35.42A1.12,1.12,0,0,1,53.52,36.54ZM43.46,34.29h8.93V22.75a1.13,1.13,0,0,1,1.13-1.12h4.23L47.93,6.81,38.1,21.63h4.23a1.12,1.12,0,0,1,1.13,1.12Z" style="fill:#6f6f59"/></svg>
