<svg id="Layer_1" data-name="Layer 1" xmlns="http://www.w3.org/2000/svg" viewBox="0 0 64 64"><title>SVG_Artboards</title><circle cx="36.74" cy="32.15" r="4.16" style="fill:#a7d28c"/><path d="M36.74,37.43A5.29,5.29,0,1,1,42,32.15,5.29,5.29,0,0,1,36.74,37.43Zm0-8.31a3,3,0,1,0,3,3A3,3,0,0,0,36.74,29.12Z" style="fill:#5b8036"/><circle cx="50.68" cy="32.15" r="4.16" style="fill:#a7d28c"/><path d="M50.68,37.43A5.29,5.29,0,1,1,56,32.15,5.29,5.29,0,0,1,50.68,37.43Zm0-8.31a3,3,0,1,0,3,3A3,3,0,0,0,50.68,29.12Z" style="fill:#5b8036"/><path d="M30.06,15.22a3.36,3.36,0,0,0-4.75,0L8.38,32.15h0L25.31,49.08a3.36,3.36,0,0,0,4.75,0l.66-.67a3.34,3.34,0,0,0,0-4.75L19.21,32.15,30.72,20.64a3.36,3.36,0,0,0,0-4.76Z" style="fill:#a7d28c"/><path d="M27.68,51.19a4.45,4.45,0,0,1-3.17-1.32L7.59,33a1.13,1.13,0,0,1,0-1.6L24.51,14.42a4.5,4.5,0,0,1,6.35,0l.66.67a4.5,4.5,0,0,1,0,6.35L20.81,32.15,31.52,42.86a4.5,4.5,0,0,1,0,6.35l-.66.66A4.47,4.47,0,0,1,27.68,51.19ZM10,32.15,26.1,48.28a2.3,2.3,0,0,0,3.16,0l.67-.66a2.24,2.24,0,0,0,0-3.16L18.42,33a1.13,1.13,0,0,1,0-1.6L29.93,19.84a2.24,2.24,0,0,0,0-3.16L29.26,16a2.24,2.24,0,0,0-3.16,0Z" style="fill:#5b8036"/></svg>
