<svg id="Layer_1" data-name="Layer 1" xmlns="http://www.w3.org/2000/svg" viewBox="0 0 64 64"><title>SVG_Artboards</title><circle cx="27.22" cy="32.15" r="4.16" style="fill:#a7d28c"/><path d="M27.22,37.43a5.29,5.29,0,1,1,5.29-5.28A5.3,5.3,0,0,1,27.22,37.43Zm0-8.31a3,3,0,1,0,3,3A3,3,0,0,0,27.22,29.12Z" style="fill:#5b8036"/><circle cx="13.28" cy="32.15" r="4.16" style="fill:#a7d28c"/><path d="M13.28,37.43a5.29,5.29,0,1,1,5.28-5.28A5.29,5.29,0,0,1,13.28,37.43Zm0-8.31a3,3,0,1,0,3,3A3,3,0,0,0,13.28,29.12Z" style="fill:#5b8036"/><path d="M33.9,49.08a3.36,3.36,0,0,0,4.75,0L55.58,32.15h0L38.65,15.22a3.36,3.36,0,0,0-4.75,0l-.66.66a3.36,3.36,0,0,0,0,4.76L44.75,32.15,33.24,43.66a3.34,3.34,0,0,0,0,4.75Z" style="fill:#a7d28c"/><path d="M36.28,51.19a4.47,4.47,0,0,1-3.18-1.32l-.66-.66a4.5,4.5,0,0,1,0-6.35L43.15,32.15,32.44,21.43a4.48,4.48,0,0,1,0-6.34l.66-.67a4.5,4.5,0,0,1,3.18-1.31h0a4.48,4.48,0,0,1,3.17,1.31L56.37,31.35a1.14,1.14,0,0,1,0,1.6L39.45,49.87A4.45,4.45,0,0,1,36.28,51.19Zm0-35.83A2.22,2.22,0,0,0,34.7,16l-.67.66a2.24,2.24,0,0,0,0,3.16L45.54,31.35a1.14,1.14,0,0,1,.33.8,1.11,1.11,0,0,1-.33.79L34,44.46a2.23,2.23,0,0,0,0,3.15l.67.67h0a2.3,2.3,0,0,0,3.16,0L54,32.15,37.86,16a2.26,2.26,0,0,0-1.58-.66Z" style="fill:#5b8036"/></svg>
