<svg id="Layer_1" data-name="Layer 1" xmlns="http://www.w3.org/2000/svg" viewBox="0 0 64 64"><title>SVG_Artboards</title><path d="M27.87,15.09l-2-5.4H11.65l-2,5.4H5.72a1.4,1.4,0,0,0-1.4,1.39V53.67H51.41V15.09Z" style="fill:#f0bc5e"/><path d="M52.54,54.8H3.2V16.48A2.52,2.52,0,0,1,5.72,14H8.87l2-5.4H26.65l2,5.4H52.54ZM5.45,52.54H50.28V16.21H27.08l-2-5.4H12.44l-2,5.4H5.72a.27.27,0,0,0-.27.27Z" style="fill:#6f6f59"/><path d="M14.6,22.92H58.86a.82.82,0,0,1,.82.82V53.67a0,0,0,0,1,0,0H13.78a0,0,0,0,1,0,0V23.73A.82.82,0,0,1,14.6,22.92Z" style="fill:#f3d86a"/><path d="M60.8,54.8H12.66V23.73a1.94,1.94,0,0,1,1.94-1.94H58.86a1.94,1.94,0,0,1,1.94,1.94ZM14.91,52.54H58.55V24H14.91Z" style="fill:#6f6f59"/><polygon points="61.11 22.45 52.05 22.45 52.05 13.39 42.69 13.39 42.69 22.45 33.62 22.45 33.62 31.81 42.69 31.81 42.69 40.88 52.05 40.88 52.05 31.81 61.11 31.81 61.11 22.45" style="fill:#2896d3"/><path d="M52.05,42H42.69a1.13,1.13,0,0,1-1.13-1.12V32.94H33.62a1.13,1.13,0,0,1-1.12-1.13V22.45a1.12,1.12,0,0,1,1.12-1.12h7.94V13.39a1.14,1.14,0,0,1,1.13-1.13h9.36a1.13,1.13,0,0,1,1.12,1.13v7.94h7.94a1.13,1.13,0,0,1,1.13,1.12v9.36a1.14,1.14,0,0,1-1.13,1.13H53.17v7.94A1.12,1.12,0,0,1,52.05,42Zm-8.24-2.25h7.11V31.81a1.13,1.13,0,0,1,1.13-1.13H60v-7.1H52.05a1.12,1.12,0,0,1-1.13-1.13V14.52H43.81v7.93a1.12,1.12,0,0,1-1.12,1.13H34.75v7.1h7.94a1.13,1.13,0,0,1,1.12,1.13Z" style="fill:#6f6f59"/></svg>
