<svg id="Layer_1" data-name="Layer 1" xmlns="http://www.w3.org/2000/svg" viewBox="0 0 64 64"><title>SVG_Artboards</title><circle cx="14.3" cy="14.32" r="7.79" style="fill:#ffc418"/><path d="M14.3,23.23a8.91,8.91,0,1,1,8.91-8.91A8.92,8.92,0,0,1,14.3,23.23Zm0-15.57A6.66,6.66,0,1,0,21,14.32,6.67,6.67,0,0,0,14.3,7.66Z" style="fill:#6f6f59"/><circle cx="43.71" cy="19.62" r="7.79" style="fill:#ffc418"/><path d="M43.71,28.53a8.91,8.91,0,1,1,8.91-8.91A8.92,8.92,0,0,1,43.71,28.53Zm0-15.57a6.66,6.66,0,1,0,6.66,6.66A6.67,6.67,0,0,0,43.71,13Z" style="fill:#6f6f59"/><circle cx="49.6" cy="49.68" r="7.79" style="fill:#ffc418"/><path d="M49.6,58.59a8.92,8.92,0,1,1,8.91-8.91A8.92,8.92,0,0,1,49.6,58.59ZM49.6,43a6.66,6.66,0,1,0,6.66,6.66A6.66,6.66,0,0,0,49.6,43Z" style="fill:#6f6f59"/><circle cx="19.75" cy="43.98" r="7.79" style="fill:#ffc418"/><path d="M19.75,52.9A8.92,8.92,0,1,1,28.67,44,8.92,8.92,0,0,1,19.75,52.9Zm0-15.57A6.66,6.66,0,1,0,26.41,44,6.66,6.66,0,0,0,19.75,37.33Z" style="fill:#6f6f59"/></svg>
