<svg id="Layer_1" data-name="Layer 1" xmlns="http://www.w3.org/2000/svg" viewBox="0 0 64 64"><title>SVG_Artboards</title><path d="M54.59,33.87H32a2.25,2.25,0,0,1-2.25-2.25V9A2.25,2.25,0,0,1,32,6.76H54.59A2.25,2.25,0,0,1,56.84,9V31.62A2.25,2.25,0,0,1,54.59,33.87Zm-20.36-4.5H52.34V11.26H34.23Z" style="fill:#de4130"/><path d="M54.59,56.86H32a2.25,2.25,0,0,1-2.25-2.25V32A2.25,2.25,0,0,1,32,29.75H54.59A2.25,2.25,0,0,1,56.84,32V54.61A2.25,2.25,0,0,1,54.59,56.86Zm-20.36-4.5H52.34V34.25H34.23Z" style="fill:#de4130"/><path d="M31.87,56.86H9.26A2.25,2.25,0,0,1,7,54.61V32a2.25,2.25,0,0,1,2.25-2.25H31.87A2.25,2.25,0,0,1,34.12,32V54.61A2.25,2.25,0,0,1,31.87,56.86Zm-20.36-4.5H29.62V34.25H11.51Z" style="fill:#de4130"/><path d="M22.86,22.8H7V10.54A3.77,3.77,0,0,1,10.8,6.77H22.86ZM11.53,18.3h6.83v-7H11.53Z" style="fill:#f5841f"/><path d="M34.24,22.8H18.41v-16H34.24ZM22.91,18.3h6.83v-7H22.91Z" style="fill:#f5841f"/><path d="M34.24,34.33H18.41v-16H34.24Zm-11.33-4.5h6.83v-7H22.91Z" style="fill:#f5841f"/><path d="M22.86,34.33H7v-16H22.86Zm-11.33-4.5h6.83v-7H11.53Z" style="fill:#f5841f"/></svg>
