<svg id="Layer_1" data-name="Layer 1" xmlns="http://www.w3.org/2000/svg" viewBox="0 0 64 64"><title>SVG_Artboards</title><path d="M27.54,15.09l-2-5.4H11.33l-2,5.4H5.39A1.39,1.39,0,0,0,4,16.48V53.67H51.09V15.09Z" style="fill:#f0bc5e"/><path d="M52.22,54.8H2.87V16.48A2.52,2.52,0,0,1,5.39,14H8.54l2-5.4H26.33l2,5.4H52.22ZM5.13,52.54H50V16.21H26.76l-2-5.4H12.11l-2,5.4H5.39a.27.27,0,0,0-.26.27Z" style="fill:#6f6f59"/><path d="M14.28,22.92H58.54a.82.82,0,0,1,.82.82V53.67a0,0,0,0,1,0,0H13.46a0,0,0,0,1,0,0V23.73A.82.82,0,0,1,14.28,22.92Z" style="fill:#f3d86a"/><path d="M60.48,54.8H12.33V23.73a2,2,0,0,1,1.95-1.94H58.54a1.94,1.94,0,0,1,1.94,1.94ZM14.59,52.54H58.23V24H14.59Z" style="fill:#6f6f59"/></svg>
