<?xml version="1.0" encoding="UTF-8"?><svg id="Layer_2" xmlns="http://www.w3.org/2000/svg" viewBox="0 0 55.94 59.34"><g id="NEW"><polygon points="17.56 48.45 16.63 46.36 42.73 35.35 43.66 37.44 17.56 48.45" style="fill:#787878;"/><path d="M18.35,49.6c0-4.76-3.86-8.61-8.61-8.61S1.13,44.84,1.13,49.6s3.86,8.61,8.61,8.61,8.61-3.86,8.61-8.61Z" style="fill:#cecfcf; stroke:#787878; stroke-linecap:round; stroke-linejoin:round; stroke-width:2.25px;"/><polygon points="26.99 14.76 28.69 13.22 47.27 34.61 45.57 36.15 26.99 14.76" style="fill:#787878;"/><path d="M32.81,9.74c0-4.76-3.86-8.61-8.61-8.61s-8.61,3.86-8.61,8.61,3.86,8.61,8.61,8.61,8.61-3.86,8.61-8.61Z" style="fill:#cecfcf; stroke:#787878; stroke-linecap:round; stroke-linejoin:round; stroke-width:2.25px;"/><path d="M54.81,34.35c0-4.76-3.86-8.61-8.61-8.61s-8.61,3.86-8.61,8.61,3.86,8.61,8.61,8.61,8.61-3.86,8.61-8.61Z" style="fill:#cecfcf; stroke:#be88bc; stroke-linecap:round; stroke-linejoin:round; stroke-width:5px;"/></g></svg>
