<svg id="Layer_1" data-name="Layer 1" xmlns="http://www.w3.org/2000/svg" viewBox="0 0 64 64"><title>SVG_Artboards</title><path d="M27.84,15.64l-2-5.4H11.63l-2,5.4H5.69A1.39,1.39,0,0,0,4.3,17V54.22H51.39V15.64Z" style="fill:#f0bc5e"/><path d="M52.51,55.35H3.17V17a2.52,2.52,0,0,1,2.52-2.52H8.84l2-5.4H26.63l2,5.4H52.51ZM5.43,53.09H50.26V16.77H27.06l-2-5.41H12.41l-2,5.41H5.69a.25.25,0,0,0-.26.26Z" style="fill:#6f6f59"/><polygon points="57.86 17.25 47.83 2.11 37.78 17.25 43.11 17.25 43.11 27.91 52.53 27.91 52.53 17.25 57.86 17.25" style="fill:#2896d3"/><path d="M52.53,29H43.11A1.13,1.13,0,0,1,42,27.91V18.38H37.78a1.12,1.12,0,0,1-1-.6,1.11,1.11,0,0,1,.05-1.15l10-15.14a1.14,1.14,0,0,1,.94-.5h0a1.14,1.14,0,0,1,.94.5l10,15.14a1.13,1.13,0,0,1-.94,1.75h-4.2v9.53A1.14,1.14,0,0,1,52.53,29Zm-8.29-2.26H51.4V17.25a1.13,1.13,0,0,1,1.13-1.12h3.23l-7.93-12-7.95,12h3.23a1.12,1.12,0,0,1,1.13,1.12Z" style="fill:#6f6f59"/><path d="M59.65,54.22H13.76V24.29a.81.81,0,0,1,.82-.82H58.84a.81.81,0,0,1,.81.82Z" style="fill:#f3d86a"/><path d="M60.78,55.35H12.63V24.29a2,2,0,0,1,1.95-1.95H58.84a1.94,1.94,0,0,1,1.94,1.95ZM14.89,53.09H58.52V24.6H14.89Z" style="fill:#6f6f59"/></svg>
