<?xml version="1.0" encoding="UTF-8"?><svg id="Layer_1" xmlns="http://www.w3.org/2000/svg" viewBox="0 0 64 64"><polygon points="19.94 50.71 19.01 48.62 45.11 37.61 46.04 39.7 19.94 50.71" style="fill:#787878;"/><path d="M20.74,51.86c0-4.76-3.86-8.61-8.61-8.61s-8.61,3.86-8.61,8.61,3.86,8.61,8.61,8.61,8.61-3.86,8.61-8.61Z" style="fill:#cdcece; stroke:#787878; stroke-linecap:round; stroke-linejoin:round; stroke-width:2.25px;"/><polygon points="29.37 17.02 31.08 15.48 49.65 36.87 47.95 38.41 29.37 17.02" style="fill:#787878;"/><path d="M35.2,12c0-4.76-3.86-8.61-8.61-8.61s-8.61,3.86-8.61,8.61,3.86,8.61,8.61,8.61,8.61-3.86,8.61-8.61Z" style="fill:#cdcece; stroke:#787878; stroke-linecap:round; stroke-linejoin:round; stroke-width:2.25px;"/><path d="M57.19,36.61c0-4.76-3.86-8.61-8.61-8.61s-8.61,3.86-8.61,8.61,3.86,8.61,8.61,8.61,8.61-3.86,8.61-8.61Z" style="fill:#cdcece; stroke:#bd87bb; stroke-linecap:round; stroke-linejoin:round; stroke-width:4px;"/></svg>
