<?xml version="1.0" encoding="UTF-8" standalone="no"?>
<!-- Created with Inkscape (http://www.inkscape.org/) -->

<svg
   xmlns:dc="http://purl.org/dc/elements/1.1/"
   xmlns:cc="http://creativecommons.org/ns#"
   xmlns:rdf="http://www.w3.org/1999/02/22-rdf-syntax-ns#"
   xmlns:svg="http://www.w3.org/2000/svg"
   xmlns="http://www.w3.org/2000/svg"
   version="1.1"
   width="64"
   height="64"
   id="svg3015">
  <defs
     id="defs3017" />
  <metadata
     id="metadata3020">
    <rdf:RDF>
      <cc:Work
         rdf:about="">
        <dc:format>image/svg+xml</dc:format>
        <dc:type
           rdf:resource="http://purl.org/dc/dcmitype/StillImage" />
        <dc:title></dc:title>
      </cc:Work>
    </rdf:RDF>
  </metadata>
  <g
     id="layer1">
    <path
       d="M 12.362032,17.816769 C 7.7592104,23.848107 3.3314624,30.75178 8.2447092,48.232821 9.752723,50.964296 13.589896,58.584707 19.00545,52.623597 c 8.475017,-14.541786 13.155339,-6.88326 20.313473,-1.137833 4.012375,1.813768 9.520322,0.358413 12.074414,-3.909602 C 56.49407,37.389171 52.685298,24.693328 46.30463,16.775205 34.625302,6.0305071 20.304857,8.115455 12.362032,17.816769 z m 31.094576,19.438543 c 2.27645,10e-7 3.929842,1.631863 3.929842,4.405041 0,2.773178 -1.847461,5.022591 -4.123917,5.022591 -2.276452,-2e-6 -3.347628,-2.249413 -3.347628,-5.022591 0,-2.773178 1.26525,-4.405041 3.541703,-4.405041 z"
       id="path2384"
       style="fill:#ffffff;fill-opacity:1;fill-rule:evenodd;stroke:#000000;stroke-width:0.91025484;stroke-linecap:butt;stroke-linejoin:miter;stroke-miterlimit:4;stroke-opacity:1;stroke-dasharray:none" />
    <path
       d="m 17.746122,34.780734 c -9.8559129,0.973038 -6.794024,-10.256532 1.672452,-8.206548 4.741699,1.148102 2.976409,7.747583 -1.672452,8.206548 z"
       id="path3158"
       style="fill:#f7110b;fill-opacity:1;fill-rule:evenodd;stroke:#000000;stroke-width:2.10343838;stroke-linecap:butt;stroke-linejoin:miter;stroke-miterlimit:4;stroke-opacity:1;stroke-dasharray:none" />
    <path
       d="m 23.563082,21.599804 c -1.056098,-5.036693 8.055984,-7.086677 9.32154,-1.528889 0.748614,3.287579 -8.232139,6.724434 -9.32154,1.528889 z"
       id="path3160"
       style="fill:#1111f2;fill-opacity:1;fill-rule:evenodd;stroke:#000000;stroke-width:2.1092751;stroke-linecap:butt;stroke-linejoin:miter;stroke-miterlimit:4;stroke-opacity:1;stroke-dasharray:none" />
    <path
       d="m 15.225407,38.410229 c 7.883068,-3.185474 5.023846,11.873428 -1.198365,9.767978 -4.189701,-1.4177 -2.676737,-8.202088 1.198365,-9.767978 z"
       id="path3162"
       style="fill:#fbf400;fill-opacity:1;fill-rule:evenodd;stroke:#000000;stroke-width:1.45632565;stroke-linecap:butt;stroke-linejoin:miter;stroke-miterlimit:4;stroke-opacity:1;stroke-dasharray:none" />
    <path
       d="m 38.574065,60.314087 c 2.27944,-9.950835 5.156012,-19.516451 8.162953,-28.996964 l 8.773851,-28.5644994 1.22179,0.8649223 -8.773848,28.5645021 c -2.699342,9.7057 -5.979475,18.967296 -9.384746,28.132039 z"
       id="path3192"
       style="fill:#008000;fill-opacity:1;fill-rule:evenodd;stroke:#000000;stroke-width:0.97446579;stroke-linejoin:round;stroke-miterlimit:4;stroke-opacity:1;stroke-dasharray:none" />
    <path
       d="m 35.658223,43.291153 0,6.887337 c 1.187752,0.351648 2.403885,0.787728 3.660885,1.306028 3.709683,1.676934 8.697579,0.55969 11.447634,-2.991583 l 0,-5.201782 -3.604128,0 c -0.556532,1.972485 -2.093474,3.390646 -3.901017,3.390646 -1.80766,-2e-6 -2.854163,-1.417957 -3.209005,-3.390646 l -4.394369,0 z"
       id="path3218"
       style="fill:#ffffff;fill-opacity:1;fill-rule:evenodd;stroke:none" />
    <path
       d="m 47.38645,41.660353 c 0,2.773178 -1.847461,5.022591 -4.123917,5.022591 -2.276452,-2e-6 -3.347628,-2.249413 -3.347628,-5.022591"
       id="path3212"
       style="fill:none;stroke:#000000;stroke-width:0.91025484;stroke-linecap:butt;stroke-linejoin:miter;stroke-miterlimit:4;stroke-opacity:1;stroke-dasharray:none" />
    <path
       d="m 33.530791,46.805622 c 2.058081,0.37087 3.540085,3.753202 5.788132,4.680142 4.012375,1.813768 9.520322,0.358413 12.074414,-3.909602"
       id="path3228"
       style="fill:none;stroke:#000000;stroke-width:0.91025484;stroke-linecap:butt;stroke-linejoin:miter;stroke-miterlimit:4;stroke-opacity:1;stroke-dasharray:none" />
  </g>
</svg>
