<svg id="Layer_1" data-name="Layer 1" xmlns="http://www.w3.org/2000/svg" viewBox="0 0 64 64"><title>SVG_Artboards</title><rect x="20.52" y="9.17" width="39.25" height="44.52" rx="4.99" style="fill:#c1a561"/><path d="M54.79,54.81H25.5a6.12,6.12,0,0,1-6.11-6.11V14.15A6.12,6.12,0,0,1,25.5,8H54.79a6.12,6.12,0,0,1,6.11,6.11V48.7A6.12,6.12,0,0,1,54.79,54.81ZM25.5,10.3a3.87,3.87,0,0,0-3.86,3.85V48.7a3.87,3.87,0,0,0,3.86,3.86H54.79a3.86,3.86,0,0,0,3.85-3.86V14.15a3.86,3.86,0,0,0-3.85-3.85Z" style="fill:#6f6f59"/><path d="M50.92,9.15c-.72-1.1-4.16-1.79-5.73-1.79h-.1c0-2-2.07-3.65-4.62-3.65s-4.61,1.63-4.61,3.65h-.1c-1.57,0-5,.69-5.74,1.79l-1.9,4.46h24.7Z" style="fill:#bbb"/><path d="M52.82,14.74H28.12a1.14,1.14,0,0,1-.94-.5,1.16,1.16,0,0,1-.1-1.07L29,8.71a.77.77,0,0,1,.1-.18c1-1.45,4-2.08,5.8-2.25a5.62,5.62,0,0,1,5.59-3.7,5.64,5.64,0,0,1,5.6,3.7c1.76.17,4.84.8,5.79,2.25a.77.77,0,0,1,.1.18l1.9,4.46a1.13,1.13,0,0,1-1,1.57Zm-23-2.25H51.12L49.94,9.72c-.52-.55-3.14-1.24-4.75-1.24h-.1A1.12,1.12,0,0,1,44,7.36c0-1.37-1.6-2.52-3.49-2.52S37,6,37,7.36a1.12,1.12,0,0,1-1.12,1.12h-.1c-1.62,0-4.24.69-4.76,1.24Z" style="fill:#6f6f59"/><path d="M37.82,59.59H6.42a2,2,0,0,1-2-2V20.19a2,2,0,0,1,2-2H30l9.85,10.54V57.58A2,2,0,0,1,37.82,59.59Z" style="fill:#d9dddd"/><path d="M37.82,60.72H6.42a3.15,3.15,0,0,1-3.14-3.14V20.19a3.15,3.15,0,0,1,3.14-3.14H30a1.11,1.11,0,0,1,.82.36L40.65,28a1.08,1.08,0,0,1,.31.76V57.58A3.15,3.15,0,0,1,37.82,60.72ZM6.42,19.31a.87.87,0,0,0-.88.88V57.58a.88.88,0,0,0,.88.89h31.4a.88.88,0,0,0,.88-.89V29.17l-9.21-9.86Z" style="fill:#787878"/><rect x="10.19" y="51.47" width="23.87" height="2.22" style="fill:#787878"/><rect x="10.19" y="44.92" width="23.87" height="2.22" style="fill:#787878"/><rect x="10.19" y="38.38" width="23.87" height="2.22" style="fill:#787878"/><rect x="10.19" y="28.39" width="13.87" height="2.22" style="fill:#787878"/></svg>
