<svg id="Layer_1" data-name="Layer 1" xmlns="http://www.w3.org/2000/svg" viewBox="0 0 64 64"><title>SVG_Artboards</title><path d="M24.56,3.65c-14,3.48-23.41,19-19.93,33.06C10.4,60,38.69,62.94,44.9,52.88c2.94-7.43-12.77-8.56-9.58-15.63,2.33-5.17,26,1.25,22.3-13.67C53.3,6.13,38.62.17,24.56,3.65Z" style="fill:#f6d6ad"/><path d="M32.14,59.49a28,28,0,0,1-4.41-.35A29.26,29.26,0,0,1,3.53,37,28.53,28.53,0,0,1,7.05,15.63,28.52,28.52,0,0,1,24.29,2.55C38-.85,54,4.25,58.72,23.31c.77,3.14.47,5.7-.9,7.64-2.64,3.73-8.55,4.3-13.76,4.8-3.34.32-7.14.68-7.71,2-1.08,2.39.54,3.8,4.24,6.25,3.19,2.12,7.17,4.75,5.35,9.34a.89.89,0,0,1-.08.17C43.49,57.31,38.34,59.49,32.14,59.49Zm0-55.65a30.53,30.53,0,0,0-7.3.9C11.3,8.09,2.37,22.9,5.72,36.44A27,27,0,0,0,28.08,56.92c7,1.1,13.37-.73,15.8-4.54,1-2.64-1.06-4.24-4.54-6.54-3.13-2.08-7-4.66-5.05-9.06,1.12-2.47,5-2.84,9.56-3.28,4.73-.45,10.09-1,12.13-3.86,1-1.39,1.17-3.28.55-5.79C53,9.62,42.66,3.84,32.13,3.84Zm12.77,49h0Z" style="fill:#6f6f59"/><path d="M23.93,38.59c-.78-3.14-3-5.05-6.1-4.27a5.86,5.86,0,0,0,2.82,11.37C23.79,44.91,24.7,41.73,23.93,38.59Z" style="fill:#de4130"/><path d="M23.51,22.75c.46-3.2-.83-5.8-4-6.26A5.86,5.86,0,1,0,17.8,28.08C21,28.55,23,26,23.51,22.75Z" style="fill:#47b1d8"/><path d="M38.88,14A5.86,5.86,0,1,0,27.51,16.8c.78,3.14,3.95,4.05,7.09,3.27S39.66,17.12,38.88,14Z" style="fill:#719943"/><path d="M26.84,61.7c3.88-3.43,11.1-13.25,18.43-25.42,1.66-2.74,3.21-5.42,4.63-8L43,24.1c-1.61,2.46-3.26,5.09-4.92,7.83C30.72,44.1,25.39,55.06,24.18,60.09Z" style="fill:#a1884c"/><path d="M26.84,62.83a1.12,1.12,0,0,1-.58-.17l-2.66-1.6a1.14,1.14,0,0,1-.52-1.23c1.29-5.32,6.79-16.5,14-28.48C38.7,28.67,40.36,26,42,23.49a1.12,1.12,0,0,1,1.53-.35l6.94,4.18a1.13,1.13,0,0,1,.4,1.51c-1.47,2.65-3,5.35-4.65,8C39,48.84,31.69,58.92,27.58,62.54A1.1,1.1,0,0,1,26.84,62.83Zm-1.35-3.26,1.2.73c4-3.88,11-13.56,17.62-24.6,1.41-2.34,2.78-4.69,4.08-7l-5.07-3.06c-1.45,2.24-2.89,4.55-4.3,6.88C32.36,43.55,27,54.21,25.49,59.57Z" style="fill:#6f6f59"/><path d="M39.24,30A26,26,0,0,0,46.4,34.4c1.23-2.09,2.41-4.14,3.5-6.11L43,24.1C41.74,26,40.5,27.94,39.24,30Z" style="fill:#cdcece"/><path d="M46.4,35.52a1.09,1.09,0,0,1-.43-.08,27.83,27.83,0,0,1-3.7-1.86,27.55,27.55,0,0,1-3.77-2.75,1.13,1.13,0,0,1-.22-1.44c1.24-2,2.5-4,3.74-5.9a1.12,1.12,0,0,1,1.53-.35l6.94,4.18a1.13,1.13,0,0,1,.4,1.51c-1.12,2-2.3,4.08-3.52,6.14A1.13,1.13,0,0,1,46.4,35.52Zm-5.69-5.78a24.2,24.2,0,0,0,2.72,1.91A27.13,27.13,0,0,0,45.93,33q1.27-2.16,2.46-4.28l-5.07-3.06C42.45,27,41.58,28.35,40.71,29.74Z" style="fill:#6f6f59"/><path d="M60.85,11c2.72-2.62-11.69-.4-15.9,6.58h0a5.94,5.94,0,0,0-.4.59c-2.09,3.46-1.47,7.67,1.38,9.39s6.85.3,8.94-3.17C57.56,19.92,57,14.7,60.85,11Z" style="fill:#fff"/><path d="M48.59,29.4a6.26,6.26,0,0,1-3.25-.89,6.62,6.62,0,0,1-3.07-4.84,9.27,9.27,0,0,1,1.32-6.1,5.25,5.25,0,0,1,.43-.63c3.52-5.76,13.13-8.46,16.43-8.11A1.89,1.89,0,0,1,62.24,10a1.71,1.71,0,0,1-.61,1.84c-2,1.95-2.71,4.44-3.45,7.07A23.25,23.25,0,0,1,55.83,25,8.74,8.74,0,0,1,48.59,29.4ZM59.25,11.05c-3.11.26-10.63,2.62-13.34,7.1a.41.41,0,0,1-.07.11,4.43,4.43,0,0,0-.32.48,7,7,0,0,0-1,4.6,4.37,4.37,0,0,0,2,3.24c2.31,1.4,5.63.15,7.4-2.78A21.78,21.78,0,0,0,56,18.26C56.7,15.79,57.41,13.25,59.25,11.05Z" style="fill:#6f6f59"/><path d="M48.76,27.55c-2.85-1.72-3.46-5.93-1.37-9.39a6,6,0,0,1,.39-.59h0C50.4,13.23,57,10.73,60.9,10.09,59.06,9.24,48.46,11.75,45,17.57h0a5.94,5.94,0,0,0-.4.59c-2.09,3.46-1.47,7.67,1.38,9.39a5.37,5.37,0,0,0,4.14.54A4.83,4.83,0,0,1,48.76,27.55Z" style="fill:#d0e5f6"/><path d="M48.59,29.4a6.26,6.26,0,0,1-3.25-.89,6.62,6.62,0,0,1-3.07-4.84,9.27,9.27,0,0,1,1.32-6.1,5.25,5.25,0,0,1,.43-.63c3.52-5.76,13.13-8.46,16.43-8.11A1.89,1.89,0,0,1,62.24,10a1.71,1.71,0,0,1-.61,1.84c-2,1.95-2.71,4.44-3.45,7.07A23.25,23.25,0,0,1,55.83,25,8.74,8.74,0,0,1,48.59,29.4ZM59.25,11.05c-3.11.26-10.63,2.62-13.34,7.1a.41.41,0,0,1-.07.11,4.43,4.43,0,0,0-.32.48,7,7,0,0,0-1,4.6,4.37,4.37,0,0,0,2,3.24c2.31,1.4,5.63.15,7.4-2.78A21.78,21.78,0,0,0,56,18.26C56.7,15.79,57.41,13.25,59.25,11.05Z" style="fill:#6f6f59"/></svg>
