<?xml version="1.0" encoding="utf-8"?>
<!-- Generator: Adobe Illustrator 17.1.0, SVG Export Plug-In . SVG Version: 6.00 Build 0)  -->
<!DOCTYPE svg PUBLIC "-//W3C//DTD SVG 1.1//EN" "http://www.w3.org/Graphics/SVG/1.1/DTD/svg11.dtd">
<svg version="1.1"
	 id="svg3015" xmlns:dc="http://purl.org/dc/elements/1.1/" xmlns:svg="http://www.w3.org/2000/svg" xmlns:rdf="http://www.w3.org/1999/02/22-rdf-syntax-ns#" xmlns:cc="http://creativecommons.org/ns#"
	 xmlns="http://www.w3.org/2000/svg" xmlns:xlink="http://www.w3.org/1999/xlink" x="0px" y="0px" viewBox="0 0 64 64"
	 enable-background="new 0 0 64 64" xml:space="preserve">
<g id="layer1">
	<radialGradient id="path2384_1_" cx="23.4281" cy="43.7148" r="37.0719" gradientUnits="userSpaceOnUse">
		<stop  offset="0.3466" style="stop-color:#FFFFFF"/>
		<stop  offset="1" style="stop-color:#6F6F59"/>
	</radialGradient>
	<path id="path2384" fill="url(#path2384_1_)" stroke="#6F6F58" stroke-width="0.9103" d="M12.4,17.8c-4.6,6-9,12.9-4.1,30.4
		C9.8,51,13.6,58.6,19,52.6c8.5-14.5,13.2-6.9,20.3-1.1c4,1.8,9.5,0.4,12.1-3.9c5.1-10.2,1.3-22.9-5.1-30.8
		C34.6,6,20.3,8.1,12.4,17.8z M43.5,37.3c2.3,0,3.9,1.6,3.9,4.4s-1.8,5-4.1,5c-2.3,0-3.3-2.2-3.3-5S41.2,37.3,43.5,37.3z"/>
	<linearGradient id="path3158_1_" gradientUnits="userSpaceOnUse" x1="12.7209" y1="35.9832" x2="18.7555" y2="28.3027">
		<stop  offset="0" style="stop-color:#FFC2B2"/>
		<stop  offset="6.800000e-02" style="stop-color:#FFB8A6"/>
		<stop  offset="1" style="stop-color:#FF3300"/>
	</linearGradient>
	<path id="path3158" fill="url(#path3158_1_)" stroke="#6F6F58" stroke-width="1.0954" stroke-linecap="round" d="M17.7,34.8
		c-9.9,1-6.8-10.3,1.7-8.2C24.2,27.7,22.4,34.3,17.7,34.8z"/>
	<linearGradient id="path3160_1_" gradientUnits="userSpaceOnUse" x1="23.5408" y1="23.66" x2="31.8313" y2="17.7974">
		<stop  offset="0" style="stop-color:#99D6FF"/>
		<stop  offset="0.4713" style="stop-color:#4AB7FF"/>
		<stop  offset="0.8273" style="stop-color:#15A1FF"/>
		<stop  offset="1" style="stop-color:#0099FF"/>
	</linearGradient>
	<path id="path3160" fill="url(#path3160_1_)" stroke="#6F6F58" d="M23.6,21.6c-1.1-5,8.1-7.1,9.3-1.5
		C33.6,23.4,24.7,26.8,23.6,21.6z"/>
	<linearGradient id="path3162_1_" gradientUnits="userSpaceOnUse" x1="13.828" y1="45.8717" x2="19.5349" y2="38.1895">
		<stop  offset="0" style="stop-color:#D1F0C2"/>
		<stop  offset="1" style="stop-color:#66CC33"/>
	</linearGradient>
	<path id="path3162" fill="url(#path3162_1_)" stroke="#6F6F58" d="M15.2,38.4c7.9-3.2,5,11.9-1.2,9.8C9.8,46.8,11.4,40,15.2,38.4z"
		/>
	<g>
		<path fill="#008000" stroke="#6F6F58" stroke-width="0.9745" stroke-linejoin="round" d="M43.3,46.7c0.1,0,0.1,0,0.2,0
			c1.6-4.7,3.1-9.6,4.5-14.5l8.8-28.6l-1.2-0.9l-8.8,28.6c-1.6,5-3.1,10-4.6,15.1C42.5,46.6,42.9,46.7,43.3,46.7z"/>
		<path fill="#008000" stroke="#6F6F58" stroke-width="0.9745" stroke-linejoin="round" d="M40.7,52c-0.7,2.8-1.4,5.5-2.1,8.4
			c1-2.7,2-5.4,3-8.2C41.2,52.1,40.9,52,40.7,52z"/>
	</g>
</g>
</svg>
