<svg id="Layer_1" data-name="Layer 1" xmlns="http://www.w3.org/2000/svg" viewBox="0 0 64 64"><path d="M50.53,32a19.18,19.18,0,1,1-7.34-15l-4.87,3.25,16,6.71,0-17.36-4.7,3.13A26.49,26.49,0,1,0,57.93,32Z" style="fill:#a7d28c"/><path d="M31.43,59.67A27.63,27.63,0,1,1,49.7,11.33l4-2.64a1.15,1.15,0,0,1,1.16-.06,1.13,1.13,0,0,1,.6,1l0,17.37a1.13,1.13,0,0,1-1.57,1l-16-6.71a1.13,1.13,0,0,1-.68-.94,1.11,1.11,0,0,1,.5-1L41.21,17a17.67,17.67,0,0,0-9.78-2.92,18,18,0,1,0,18,18,1.13,1.13,0,0,1,1.13-1.13h7.4A1.13,1.13,0,0,1,59.05,32,27.66,27.66,0,0,1,31.43,59.67Zm0-53a25.37,25.37,0,1,0,25.35,26.5H51.62A20.23,20.23,0,1,1,31.43,11.81a20,20,0,0,1,12.46,4.33A1.13,1.13,0,0,1,43.81,18l-3.12,2.08L53.2,25.3l0-13.57-3,2a1.13,1.13,0,0,1-1.4-.12A25.26,25.26,0,0,0,31.43,6.67Z" style="fill:#6f6f59"/><polygon points="58.2 47.73 40.15 39.66 47.22 58.71 50.15 53.59 56.58 60.02 59.51 57.09 53.08 50.66 58.2 47.73" style="fill:#231f20"/></svg>
