<svg id="Layer_1" data-name="Layer 1" xmlns="http://www.w3.org/2000/svg" viewBox="0 0 64 64"><title>SVG_Artboards</title><polygon points="9.53 6.99 10.42 54.19 47.29 53.74 53.58 16.88 9.53 6.99" style="fill:#a7d28c"/><path d="M10.42,55.32A1.12,1.12,0,0,1,9.3,54.21L8.4,7A1.13,1.13,0,0,1,9.77,5.89l44.06,9.89a1.13,1.13,0,0,1,.86,1.29L48.4,53.93a1.13,1.13,0,0,1-1.1.94l-36.86.45ZM10.68,8.4l.85,44.65,34.8-.42,6-34.88Z" style="fill:#719943"/><path d="M13.19,43.69a1.13,1.13,0,0,1-.8-1.92l2.66-2.66a1.1,1.1,0,0,1,1.24-.23l.62.26L14,34.45a1.16,1.16,0,0,1,.13-1.37,1.14,1.14,0,0,1,1.35-.23l5.41,2.82-4.31-6.52a1.13,1.13,0,0,1,1.52-1.59l6.77,4.07L20.15,24a1.13,1.13,0,0,1,1.51-1.57l8.44,4.63-4-7.61a1.12,1.12,0,0,1,.2-1.33A1.14,1.14,0,0,1,27.61,18l7.68,4.24-3.28-6a1.13,1.13,0,0,1,1.51-1.54l5.58,2.91-.42-1.11a1.13,1.13,0,0,1,.25-1.2l3-3a1.12,1.12,0,1,1,1.59,1.59L41,16.3l1.23,3.21a1.12,1.12,0,0,1-1.57,1.4l-4.94-2.57,3.36,6.16A1.13,1.13,0,0,1,37.59,26l-7.76-4.28,4,7.6a1.13,1.13,0,0,1-1.54,1.51l-8-4.4,4.86,7.92a1.13,1.13,0,0,1-1.54,1.56l-6.45-3.88,4,6a1.13,1.13,0,0,1-.1,1.37,1.14,1.14,0,0,1-1.36.25l-5.61-2.92L20.75,41a1.13,1.13,0,0,1-.1,1.33,1.16,1.16,0,0,1-1.31.3L16.1,41.25,14,43.36A1.13,1.13,0,0,1,13.19,43.69Z" style="fill:#0c71b8"/><circle cx="17.07" cy="55.92" r="3.12" style="fill:#0c71b8"/><circle cx="55.68" cy="19.59" r="3.12" style="fill:#0c71b8"/><path d="M17.22,57.12a1.14,1.14,0,0,1-.82-.35,1.12,1.12,0,0,1,0-1.59L55.06,18.69a1.13,1.13,0,0,1,1.59,0,1.11,1.11,0,0,1,0,1.59L18,56.82A1.13,1.13,0,0,1,17.22,57.12Z" style="fill:#0c71b8"/><path d="M17.87,50.26a1.13,1.13,0,0,1-.8-.33L4.87,37.73a1.12,1.12,0,0,1,1.59-1.59l12.2,12.2a1.12,1.12,0,0,1,0,1.59A1.11,1.11,0,0,1,17.87,50.26Z" style="fill:#6f6f59"/><path d="M49.45,18.67a1.12,1.12,0,0,1-.79-.33L36.46,6.14a1.12,1.12,0,1,1,1.59-1.59l12.2,12.2a1.13,1.13,0,0,1-.8,1.92Z" style="fill:#6f6f59"/></svg>
