<svg id="Layer_1" data-name="Layer 1" xmlns="http://www.w3.org/2000/svg" viewBox="0 0 64 64"><title>SVG_Artboards</title><polygon points="45.28 11.97 52.02 23.65 38.54 23.65 45.28 11.97" style="fill:#a7d28c"/><path d="M52,24.21H38.54a.56.56,0,0,1-.48-.28.58.58,0,0,1,0-.57L44.8,11.69a.59.59,0,0,1,1,0l6.74,11.67a.57.57,0,0,1-.49.85Zm-12.5-1.13H51.05l-5.77-10Z" style="fill:#719943"/><path d="M55,29H51.41V27.67h2.93V24.74h1.35v3.6A.67.67,0,0,1,55,29Z" style="fill:#787878"/><path d="M55,29.3H51.13V27.38h2.93V24.45H56v3.89A1,1,0,0,1,55,29.3Zm-3.33-.56H55a.4.4,0,0,0,.39-.4V25h-.79V28H51.69Z" style="fill:#787878"/><rect x="43.08" y="27.67" width="4.17" height="1.35" style="fill:#787878"/><path d="M47.52,29.3H42.79V27.38h4.73Zm-4.16-.56H47V28h-3.6Z" style="fill:#787878"/><path d="M38.91,29H35.3a.67.67,0,0,1-.67-.68v-3.6H36v2.93h2.93Z" style="fill:#787878"/><path d="M39.19,29.3H35.3a1,1,0,0,1-1-1V24.45h1.92v2.93h2.93ZM34.91,25v3.32a.39.39,0,0,0,.39.4h3.33V28H35.7V25Z" style="fill:#787878"/><rect x="34.63" y="16.4" width="1.35" height="4.17" style="fill:#787878"/><path d="M36.26,20.85H34.34V16.12h1.92Zm-1.35-.56h.79v-3.6h-.79Z" style="fill:#787878"/><path d="M36,12.24H34.63V8.63A.68.68,0,0,1,35.3,8h3.61V9.31H36Z" style="fill:#787878"/><path d="M36.26,12.52H34.34V8.63a1,1,0,0,1,1-1h3.89V9.59H36.26ZM34.91,12h.79V9h2.93v-.8H35.3a.39.39,0,0,0-.39.4Z" style="fill:#787878"/><rect x="43.08" y="7.95" width="4.17" height="1.35" style="fill:#787878"/><path d="M47.52,9.59H42.79V7.67h4.73ZM43.36,9H47v-.8h-3.6Z" style="fill:#787878"/><path d="M55.69,12.24H54.34V9.31H51.41V8H55a.68.68,0,0,1,.67.68Z" style="fill:#787878"/><path d="M56,12.52H54.06V9.59H51.13V7.67H55a1,1,0,0,1,.95,1ZM54.62,12h.79V8.63a.4.4,0,0,0-.39-.4H51.69V9h2.93Z" style="fill:#787878"/><rect x="54.34" y="16.4" width="1.35" height="4.17" style="fill:#787878"/><path d="M56,20.85H54.06V16.12H56Zm-1.35-.56h.79v-3.6h-.79Z" style="fill:#787878"/><path d="M17.74,30.26A11.68,11.68,0,1,1,29.42,18.58,11.69,11.69,0,0,1,17.74,30.26Zm0-22.32A10.65,10.65,0,1,0,28.38,18.58,10.66,10.66,0,0,0,17.74,7.94Z" style="fill:#6f6f59"/><path d="M17.74,30.76A12.18,12.18,0,1,1,29.92,18.58,12.19,12.19,0,0,1,17.74,30.76Zm0-23.35A11.18,11.18,0,1,0,28.92,18.58,11.19,11.19,0,0,0,17.74,7.41Zm0,22.32A11.15,11.15,0,1,1,28.88,18.58,11.16,11.16,0,0,1,17.74,29.73Zm0-21.29A10.15,10.15,0,1,0,27.88,18.58,10.16,10.16,0,0,0,17.74,8.44Z" style="fill:#787878"/><polyline points="17.68 12.54 17.68 18.98 23.39 22.68" style="fill:none;stroke:#0c71b8;stroke-linecap:round;stroke-miterlimit:10;stroke-width:2.2536px"/><path d="M28.23,53.54a1.13,1.13,0,0,1-1.09-.85l-2.09-8.38-1.64,8.1a1.12,1.12,0,0,1-1.05.9,1.09,1.09,0,0,1-1.13-.78l-2.18-6.92-1.32,5.71a1.12,1.12,0,0,1-1,.87,1.13,1.13,0,0,1-1.13-.71l-1.44-3.65H10.83a1.13,1.13,0,0,1,0-2.26h4.09a1.14,1.14,0,0,1,1.05.72l.38,1,1.43-6.2a1.12,1.12,0,0,1,1-.87A1.06,1.06,0,0,1,20,41l2.12,6.7L23.83,39a1.14,1.14,0,0,1,1.09-.9,1.17,1.17,0,0,1,1.11.85l2.18,8.74,2.36-9.85A1.11,1.11,0,0,1,31.63,37a1.08,1.08,0,0,1,1.11.81l3,10.39,2.85-9.28a1.11,1.11,0,0,1,1.07-.8h0a1.1,1.1,0,0,1,1.07.81l2.75,9.51,2.21-7.5a1.14,1.14,0,0,1,1.07-.81h0a1.14,1.14,0,0,1,1.08.79L50,47.67l.64-1.43a1.13,1.13,0,0,1,1-.67h4.61a1.13,1.13,0,0,1,0,2.26H52.43L50.88,51.3a1.15,1.15,0,0,1-1.09.67,1.13,1.13,0,0,1-1-.79l-1.92-6.1-2.25,7.65a1.13,1.13,0,0,1-1.08.81h0a1.13,1.13,0,0,1-1.08-.81l-2.77-9.59-2.84,9.27a1.16,1.16,0,0,1-1.09.79,1.11,1.11,0,0,1-1.07-.81l-2.9-9.92-2.44,10.2a1.12,1.12,0,0,1-1.09.87Z" style="fill:#0c71b8"/><path d="M56.2,57.24H9.71a1.13,1.13,0,0,1-1.12-1.13V38a1.13,1.13,0,1,1,2.25,0V55H56.2a1.13,1.13,0,0,1,0,2.26Z" style="fill:#787878"/></svg>
