<svg id="Layer_1" data-name="Layer 1" xmlns="http://www.w3.org/2000/svg" viewBox="0 0 64 64"><title>SVG_Artboards</title><circle cx="44.94" cy="18.58" r="11.16" style="fill:#ffc418"/><path d="M44.94,30.25A11.67,11.67,0,1,1,56.61,18.58,11.68,11.68,0,0,1,44.94,30.25Zm0-22.33A10.67,10.67,0,1,0,55.61,18.58,10.68,10.68,0,0,0,44.94,7.92Z" style="fill:#787878"/><path d="M44.94,30.26A11.68,11.68,0,1,1,56.62,18.58,11.69,11.69,0,0,1,44.94,30.26Zm0-22.32A10.65,10.65,0,1,0,55.59,18.58,10.65,10.65,0,0,0,44.94,7.94Z" style="fill:#6f6f59"/><path d="M44.94,30.76A12.18,12.18,0,1,1,57.12,18.58,12.19,12.19,0,0,1,44.94,30.76Zm0-23.35A11.18,11.18,0,1,0,56.12,18.58,11.18,11.18,0,0,0,44.94,7.41Zm0,22.32A11.15,11.15,0,1,1,56.09,18.58,11.16,11.16,0,0,1,44.94,29.73Zm0-21.29A10.15,10.15,0,1,0,55.09,18.58,10.15,10.15,0,0,0,44.94,8.44Z" style="fill:#787878"/><path d="M17.74,30.26A11.68,11.68,0,1,1,29.42,18.58,11.69,11.69,0,0,1,17.74,30.26Zm0-22.32A10.65,10.65,0,1,0,28.38,18.58,10.66,10.66,0,0,0,17.74,7.94Z" style="fill:#6f6f59"/><path d="M17.74,30.76A12.18,12.18,0,1,1,29.92,18.58,12.19,12.19,0,0,1,17.74,30.76Zm0-23.35A11.18,11.18,0,1,0,28.92,18.58,11.19,11.19,0,0,0,17.74,7.41Zm0,22.32A11.15,11.15,0,1,1,28.88,18.58,11.16,11.16,0,0,1,17.74,29.73Zm0-21.29A10.15,10.15,0,1,0,27.88,18.58,10.16,10.16,0,0,0,17.74,8.44Z" style="fill:#787878"/><rect x="38.99" y="12.63" width="11.91" height="11.91" style="fill:#a69768"/><path d="M51.42,25.06h-13V12.11h13ZM39.5,24H50.39V13.14H39.5Z" style="fill:#6f6f59"/><rect x="38.47" y="11.06" width="1.03" height="1.05" style="fill:#6f6f59"/><rect x="37.45" y="12.11" width="1.03" height="1.05" style="fill:#6f6f59"/><rect x="51.43" y="12.1" width="1.03" height="1.05" transform="translate(64.57 -39.32) rotate(90)" style="fill:#6f6f59"/><rect x="50.38" y="11.07" width="1.03" height="1.05" transform="translate(62.49 -39.3) rotate(90)" style="fill:#6f6f59"/><rect x="50.39" y="25.05" width="1.03" height="1.05" transform="translate(101.8 51.15) rotate(180)" style="fill:#6f6f59"/><rect x="51.41" y="24" width="1.03" height="1.05" transform="translate(103.85 49.05) rotate(180)" style="fill:#6f6f59"/><rect x="37.43" y="24.01" width="1.03" height="1.05" transform="translate(13.41 62.48) rotate(-90)" style="fill:#6f6f59"/><rect x="38.48" y="25.04" width="1.03" height="1.05" transform="translate(13.43 64.55) rotate(-90)" style="fill:#6f6f59"/><path d="M23.39,23.81a1.17,1.17,0,0,1-.62-.18l-6.21-4v-7a1.13,1.13,0,1,1,2.25,0v5.82L24,21.73a1.13,1.13,0,0,1,.33,1.56A1.1,1.1,0,0,1,23.39,23.81Z" style="fill:#0c71b8"/><path d="M28.23,53.54a1.13,1.13,0,0,1-1.09-.85l-2.09-8.38-1.64,8.1a1.12,1.12,0,0,1-1.05.9,1.1,1.1,0,0,1-1.13-.78l-2.18-6.92-1.32,5.71a1.12,1.12,0,0,1-1,.87,1.13,1.13,0,0,1-1.13-.71l-1.44-3.65H10.83a1.13,1.13,0,0,1,0-2.26h4.09a1.14,1.14,0,0,1,1.05.72l.38,1,1.43-6.2a1.12,1.12,0,0,1,1-.87A1.06,1.06,0,0,1,20,41l2.12,6.7L23.83,39a1.14,1.14,0,0,1,1.09-.9,1.12,1.12,0,0,1,1.11.85l2.18,8.74,2.36-9.85A1.11,1.11,0,0,1,31.63,37h0a1.13,1.13,0,0,1,1.08.81l3,10.39,2.85-9.28a1.11,1.11,0,0,1,1.07-.8h0a1.1,1.1,0,0,1,1.07.81l2.75,9.51,2.21-7.5a1.14,1.14,0,0,1,1.07-.81h0a1.14,1.14,0,0,1,1.08.79L50,47.67l.64-1.43a1.13,1.13,0,0,1,1-.67h4.61a1.13,1.13,0,0,1,0,2.26H52.43L50.88,51.3a1.15,1.15,0,0,1-1.09.67,1.13,1.13,0,0,1-1-.79l-1.92-6.1-2.25,7.65a1.13,1.13,0,0,1-1.08.81h0a1.13,1.13,0,0,1-1.08-.81l-2.77-9.59-2.84,9.27a1.17,1.17,0,0,1-1.09.79,1.11,1.11,0,0,1-1.07-.81l-2.9-9.92-2.44,10.2a1.12,1.12,0,0,1-1.09.87Z" style="fill:#0c71b8"/><path d="M56.2,57.24H9.71a1.13,1.13,0,0,1-1.12-1.13V38a1.13,1.13,0,1,1,2.25,0V55H56.2a1.13,1.13,0,0,1,0,2.26Z" style="fill:#787878"/></svg>
