<svg id="Layer_1" data-name="Layer 1" xmlns="http://www.w3.org/2000/svg" viewBox="0 0 64 64"><title>SVG_Artboards</title><circle cx="12.07" cy="17.58" r="3.86" style="fill:#de4130"/><path d="M12.07,22.57a5,5,0,1,1,5-5A5,5,0,0,1,12.07,22.57Zm0-7.72a2.73,2.73,0,1,0,2.73,2.73A2.73,2.73,0,0,0,12.07,14.85Z" style="fill:#6f6f59"/><circle cx="12.07" cy="33.13" r="3.86" style="fill:#de4130"/><path d="M12.07,38.11a5,5,0,1,1,5-5A5,5,0,0,1,12.07,38.11Zm0-7.71a2.73,2.73,0,1,0,2.73,2.73A2.73,2.73,0,0,0,12.07,30.4Z" style="fill:#6f6f59"/><circle cx="25.42" cy="26.04" r="3.86" style="fill:#de4130"/><path d="M25.42,31a5,5,0,1,1,5-5A5,5,0,0,1,25.42,31Zm0-7.71A2.73,2.73,0,1,0,28.15,26,2.73,2.73,0,0,0,25.42,23.31Z" style="fill:#6f6f59"/><circle cx="37.1" cy="16.92" r="3.86" style="fill:#de4130"/><path d="M37.1,21.9a5,5,0,1,1,5-5A5,5,0,0,1,37.1,21.9Zm0-7.71a2.73,2.73,0,1,0,2.73,2.73A2.73,2.73,0,0,0,37.1,14.19Z" style="fill:#6f6f59"/><circle cx="25.89" cy="41.12" r="3.86" style="fill:#de4130"/><path d="M25.89,46.1a5,5,0,1,1,5-5A5,5,0,0,1,25.89,46.1Zm0-7.71a2.73,2.73,0,1,0,2.73,2.73A2.73,2.73,0,0,0,25.89,38.39Z" style="fill:#6f6f59"/><circle cx="40.4" cy="45.87" r="3.86" style="fill:#de4130"/><path d="M40.4,50.85a5,5,0,1,1,5-5A5,5,0,0,1,40.4,50.85Zm0-7.71a2.73,2.73,0,1,0,2.73,2.73A2.74,2.74,0,0,0,40.4,43.14Z" style="fill:#6f6f59"/><path d="M4.44,8.57H2.19V4.22a1.13,1.13,0,0,1,.48-.92,1.11,1.11,0,0,1,1-.13L7.79,4.66,7,6.78,4.44,5.84Z" style="fill:#787878"/><rect x="2.19" y="18.23" width="2.25" height="9.66" style="fill:#787878"/><path d="M6.73,44.82,2.82,42.91a1.14,1.14,0,0,1-.63-1V37.55H4.44V41.2l3.28,1.6Z" style="fill:#787878"/><rect x="20.84" y="45.56" width="2.25" height="10.94" transform="translate(-33.53 48.31) rotate(-63.9)" style="fill:#787878"/><path d="M40.62,61.3a1.11,1.11,0,0,1-.5-.12l-3.91-1.91,1-2,3.21,1.56L43,56.35,44.54,58l-3.15,3A1.12,1.12,0,0,1,40.62,61.3Z" style="fill:#787878"/><rect x="47.44" y="49.51" width="6.3" height="2.25" transform="translate(-20.97 48.98) rotate(-43.7)" style="fill:#787878"/><path d="M58.2,44.92l-1.55-1.63,1.76-1.69-2.33-.73.68-2.15L60.91,40a1.13,1.13,0,0,1,.44,1.89Z" style="fill:#787878"/><rect x="46.01" y="33.63" width="2.25" height="6.49" transform="translate(-2.19 70.75) rotate(-72.51)" style="fill:#787878"/><path d="M37.52,35l-4.14-1.31a1.13,1.13,0,0,1-.76-.82,1.14,1.14,0,0,1,.31-1.07l3.15-3,1.56,1.63-1.77,1.69,2.33.74Z" style="fill:#787878"/><rect x="39.71" y="23.43" width="4.89" height="2.25" transform="translate(-5.27 35.97) rotate(-43.75)" style="fill:#787878"/><path d="M48.24,20.29l-1.56-1.63L49.47,16V12.12h2.26v4.35a1.14,1.14,0,0,1-.35.81Z" style="fill:#787878"/><path d="M51.73,8.44H49.47V5.59l-2.75.78L46.11,4.2,50.29,3a1.13,1.13,0,0,1,1,.18,1.15,1.15,0,0,1,.45.9Z" style="fill:#787878"/><path d="M22.41,12.41l-7.7-2.82.78-2.11,7.69,2.81ZM31,10.86l-.62-2.17,7.89-2.24.61,2.16Z" style="fill:#787878"/></svg>
