<svg id="Layer_1" data-name="Layer 1" xmlns="http://www.w3.org/2000/svg" viewBox="0 0 64 64"><title>SVG_Artboards</title><polygon points="27.18 19.74 30.44 44.33 7.52 34.85 27.18 19.74" style="fill:#a7d28c"/><path d="M30.44,45.45a1.22,1.22,0,0,1-.43-.08L7.08,35.89A1.11,1.11,0,0,1,6.4,35a1.15,1.15,0,0,1,.43-1L26.5,18.84a1.11,1.11,0,0,1,1.11-.14,1.1,1.1,0,0,1,.69.89l3.25,24.59a1.11,1.11,0,0,1-.43,1A1.14,1.14,0,0,1,30.44,45.45ZM9.75,34.55l19.31,8L26.32,21.82Z" style="fill:#6f6f59"/><path d="M4.44,8.57H2.19V4.22a1.13,1.13,0,0,1,.48-.92,1.11,1.11,0,0,1,1-.13L7.79,4.66,7,6.78,4.44,5.84Z" style="fill:#787878"/><rect x="2.19" y="18.23" width="2.25" height="9.66" style="fill:#787878"/><path d="M6.73,44.82,2.82,42.91a1.14,1.14,0,0,1-.63-1V37.55H4.44V41.2l3.28,1.6Z" style="fill:#787878"/><rect x="20.84" y="45.56" width="2.25" height="10.94" transform="translate(-33.53 48.31) rotate(-63.9)" style="fill:#787878"/><path d="M40.62,61.3a1.11,1.11,0,0,1-.5-.12l-3.91-1.91,1-2,3.21,1.56L43,56.35,44.54,58l-3.15,3A1.12,1.12,0,0,1,40.62,61.3Z" style="fill:#787878"/><rect x="47.44" y="49.51" width="6.3" height="2.25" transform="translate(-20.97 48.98) rotate(-43.7)" style="fill:#787878"/><path d="M58.2,44.92l-1.55-1.63,1.76-1.69-2.33-.73.68-2.15L60.91,40a1.13,1.13,0,0,1,.44,1.89Z" style="fill:#787878"/><rect x="46.01" y="33.63" width="2.25" height="6.49" transform="translate(-2.19 70.75) rotate(-72.51)" style="fill:#787878"/><path d="M37.52,35l-4.14-1.31a1.13,1.13,0,0,1-.76-.82,1.14,1.14,0,0,1,.31-1.07l3.15-3,1.56,1.63-1.77,1.69,2.33.74Z" style="fill:#787878"/><rect x="39.71" y="23.43" width="4.89" height="2.25" transform="translate(-5.27 35.97) rotate(-43.75)" style="fill:#787878"/><path d="M48.24,20.29l-1.56-1.63L49.47,16V12.12h2.26v4.35a1.14,1.14,0,0,1-.35.81Z" style="fill:#787878"/><path d="M51.73,8.44H49.47V5.59l-2.75.78L46.11,4.2,50.29,3a1.13,1.13,0,0,1,1,.18,1.15,1.15,0,0,1,.45.9Z" style="fill:#787878"/><path d="M22.41,12.41l-7.7-2.82.78-2.11,7.69,2.81ZM31,10.86l-.62-2.17,7.89-2.24.61,2.16Z" style="fill:#787878"/></svg>
