<?xml version="1.0" encoding="utf-8"?>
<!-- Generator: Adobe Illustrator 27.0.0, SVG Export Plug-In . SVG Version: 6.00 Build 0)  -->
<svg version="1.1" id="Layer_1" xmlns="http://www.w3.org/2000/svg" xmlns:xlink="http://www.w3.org/1999/xlink" x="0px" y="0px"
	 viewBox="0 0 64 64" style="enable-background:new 0 0 64 64;" xml:space="preserve">
<style type="text/css">
	.st0{fill:#F3C017;}
	.st1{fill:#6F6F59;}
</style>
<g>
	<path class="st0" d="M12.2,12.2c-10.6,10.6-10.6,27.7,0,38.2l9.4,9.4l38.2-38.2l-9.4-9.4C39.8,1.6,22.7,1.6,12.2,12.2z M23,39.6
		c-4.6-4.6-4.6-12,0-16.6s12-4.6,16.6,0l-8.3,8.3L23,39.6z"/>
	<g>
		<path class="st1" d="M60.7,20.6l-9.4-9.4c-1.8-1.8-3.8-3.3-5.9-4.5c0,0,0,0,0,0c0,0,0,0,0,0c-2.1-1.2-4.4-2.2-6.7-2.8
			c0,0-0.1,0-0.1,0c0,0-0.1,0-0.1,0c-2.3-0.6-4.7-0.9-7.1-0.9c0,0,0,0-0.1,0s0,0-0.1,0c-2.4,0-4.8,0.3-7.1,0.9c0,0-0.1,0-0.1,0
			c0,0-0.1,0-0.1,0c-2.3,0.6-4.6,1.6-6.7,2.8c0,0,0,0,0,0c0,0,0,0,0,0C15,7.9,13,9.4,11.2,11.2C9.4,13,7.9,15,6.7,17.1c0,0,0,0,0,0
			c0,0,0,0,0,0c-1.2,2.1-2.1,4.4-2.8,6.7c0,0,0,0.1,0,0.1c0,0,0,0.1,0,0.1c-0.6,2.3-0.9,4.7-0.9,7.1c0,0,0,0,0,0.1s0,0,0,0.1
			c0,2.4,0.3,4.8,0.9,7.1c0,0,0,0.1,0,0.1c0,0,0,0,0,0.1c0.6,2.3,1.6,4.6,2.8,6.8c0,0,0,0,0,0c0,0,0,0,0,0c1.2,2.1,2.7,4.1,4.5,5.9
			c0,0,0,0,0,0c0,0,0,0,0,0l9.4,9.4c0.3,0.3,0.6,0.4,0.9,0.4s0.7-0.1,0.9-0.4l38.2-38.2C61.2,21.9,61.2,21.1,60.7,20.6z M54.1,25.3
			l-2.2-2.2c-0.5-0.5-1.4-0.5-1.9,0c-0.5,0.5-0.5,1.4,0,1.9l2.2,2.2l-2.6,2.6l-2.2-2.2c-0.5-0.5-1.4-0.5-1.9,0
			c-0.5,0.5-0.5,1.4,0,1.9l2.2,2.2l-2.6,2.6l-2.2-2.2c-0.5-0.5-1.4-0.5-1.9,0c-0.5,0.5-0.5,1.4,0,1.9l2.2,2.2l-2.6,2.6L37,35.2
			c-0.5-0.5-1.4-0.5-1.9,0c-0.5,0.5-0.5,1.4,0,1.9l3.6,3.6l-2.6,2.6L34,41.1c-0.5-0.5-1.4-0.5-1.9,0c-0.5,0.5-0.5,1.4,0,1.9l2.2,2.2
			l-2.6,2.6l-2.2-2.2c-0.5-0.5-1.4-0.5-1.9,0c-0.5,0.5-0.5,1.4,0,1.9l2.2,2.2l-2.6,2.6L25,50c-0.5-0.5-1.4-0.5-1.9,0
			c-0.5,0.5-0.5,1.4,0,1.9l2.2,2.2l-3.8,3.8l-3.1-3.1l2.1-2.1c0.5-0.5,0.5-1.4,0-1.9c-0.5-0.5-1.4-0.5-1.9,0l-2.1,2.1L14,50.4
			l2.1-2.1c0.5-0.5,0.5-1.4,0-1.9c-0.5-0.5-1.4-0.5-1.9,0l-2.1,2.1c-0.9-1-1.8-2.1-2.5-3.2l2.6-1.5c0.6-0.4,0.8-1.2,0.5-1.8
			c-0.4-0.6-1.2-0.8-1.8-0.5L8.4,43c-0.6-1.2-1.1-2.5-1.5-3.8l5.7-1.4c0.7-0.2,1.1-0.9,0.9-1.6s-0.9-1.1-1.6-0.9l-5.7,1.4
			c-0.3-1.3-0.5-2.7-0.5-4.1h3c0.7,0,1.3-0.6,1.3-1.3S9.3,30,8.6,30h-3c0.1-1.4,0.3-2.7,0.5-4L9,26.7c0.1,0,0.2,0,0.3,0
			c0.6,0,1.1-0.4,1.3-1c0.2-0.7-0.2-1.4-0.9-1.6l-2.9-0.8c0.4-1.3,0.9-2.6,1.6-3.8l2.6,1.5c0.2,0.1,0.4,0.2,0.7,0.2
			c0.5,0,0.9-0.2,1.1-0.7c0.4-0.6,0.1-1.4-0.5-1.8l-2.6-1.5c0.7-1.1,1.6-2.2,2.5-3.2l3.6,3.6c0.3,0.3,0.6,0.4,0.9,0.4
			s0.7-0.1,0.9-0.4c0.5-0.5,0.5-1.4,0-1.9l-3.6-3.6c1-0.9,2.1-1.8,3.2-2.5l1.5,2.6c0.2,0.4,0.7,0.7,1.1,0.7c0.2,0,0.5-0.1,0.7-0.2
			c0.6-0.4,0.8-1.2,0.5-1.8l-1.5-2.6c1.2-0.6,2.5-1.1,3.8-1.6l0.8,2.9c0.2,0.6,0.7,1,1.3,1c0.1,0,0.2,0,0.3,0
			c0.7-0.2,1.1-0.9,0.9-1.6l-0.8-2.9c1.3-0.3,2.7-0.5,4-0.5v3c0,0.7,0.6,1.3,1.3,1.3s1.3-0.6,1.3-1.3v-3c1.4,0.1,2.7,0.3,4.1,0.5
			l-1.4,5.6c-0.2,0.7,0.2,1.4,0.9,1.6c0.1,0,0.2,0,0.3,0c0.6,0,1.1-0.4,1.3-1l1.4-5.7c1.3,0.4,2.5,0.9,3.8,1.5L41.5,11
			c-0.4,0.6-0.1,1.4,0.5,1.8c0.2,0.1,0.4,0.2,0.7,0.2c0.5,0,0.9-0.2,1.1-0.7l1.5-2.6c1.1,0.7,2.2,1.6,3.2,2.5l-2.1,2.1
			c-0.5,0.5-0.5,1.4,0,1.9c0.3,0.3,0.6,0.4,0.9,0.4s0.7-0.1,0.9-0.4l2.1-2.1l2.5,2.5L51,18.4c-0.5,0.5-0.5,1.4,0,1.9
			c0.3,0.3,0.6,0.4,0.9,0.4s0.7-0.1,0.9-0.4l1.9-1.9l3.1,3.1L54.1,25.3z"/>
		<path class="st1" d="M31.3,18.2c-3.5,0-6.8,1.4-9.2,3.8c-2.5,2.5-3.8,5.7-3.8,9.2c0,3.5,1.4,6.8,3.8,9.2c0.3,0.3,0.6,0.4,0.9,0.4
			s0.7-0.1,0.9-0.4l16.6-16.6c0.5-0.5,0.5-1.4,0-1.9C38.1,19.6,34.8,18.2,31.3,18.2z M23,37.7c-1.4-1.8-2.2-4-2.2-6.4
			c0-2.8,1.1-5.4,3.1-7.4c2-2,4.6-3.1,7.4-3.1c2.3,0,4.6,0.8,6.4,2.2L23,37.7z"/>
	</g>
</g>
</svg>
