<svg id="Layer_1" data-name="Layer 1" xmlns="http://www.w3.org/2000/svg" viewBox="0 0 64 64"><title>SVG_Artboards</title><polygon points="58.76 11.56 33.72 3.3 5.25 9.96 5.25 43.41 26.65 60.78 58.76 45.02 58.76 11.56 58.76 11.56" style="fill:#d0e5f6"/><path d="M26.65,61.91a1.12,1.12,0,0,1-.71-.25L4.53,44.29a1.13,1.13,0,0,1-.41-.87V10A1.12,1.12,0,0,1,5,8.87L33.46,2.2a1.06,1.06,0,0,1,.61,0l25,8.27a1.12,1.12,0,0,1,.77,1.07V45a1.12,1.12,0,0,1-.63,1L27.15,61.8A1.25,1.25,0,0,1,26.65,61.91Zm-20.28-19L26.8,59.46,57.63,44.31V12.38l-24-7.91L6.37,10.86Z" style="fill:#cdcece"/><path d="M26.65,61.91a1.12,1.12,0,0,1-.71-.25L4.53,44.29a1.13,1.13,0,0,1-.41-.87V10a1.11,1.11,0,0,1,.54-1A1.13,1.13,0,0,1,5.77,9l21.4,11.22a1.12,1.12,0,0,1,.61,1v39.6a1.13,1.13,0,0,1-.64,1A1.06,1.06,0,0,1,26.65,61.91Zm-20.28-19L25.52,58.42V21.86l-19.15-10Z" style="fill:#cdcece"/><path d="M26.65,22.31a1.18,1.18,0,0,1-.52-.13L4.72,11A1.12,1.12,0,0,1,5,8.87L33.46,2.2a1.06,1.06,0,0,1,.61,0l25,8.27a1.12,1.12,0,0,1,0,2.14L27,22.26A1.26,1.26,0,0,1,26.65,22.31ZM8.45,10.37,26.77,20,55,11.51l-21.34-7Z" style="fill:#cdcece"/><path d="M30.81,50.61a1.13,1.13,0,0,1-1.13-1.13V11.69a1.13,1.13,0,0,1,2.25,0V49.48A1.13,1.13,0,0,1,30.81,50.61Z" style="fill:#787878"/><line x1="13.47" y1="22.09" x2="50.47" y2="41.09" style="fill:#d0e5f6"/><path d="M50.47,42.21a1.16,1.16,0,0,1-.51-.12l-37-19a1.13,1.13,0,0,1,1-2l37,19a1.13,1.13,0,0,1-.52,2.13Z" style="fill:#787878"/><line x1="17.76" y1="36.42" x2="47.14" y2="24.92" style="fill:#d0e5f6"/><path d="M17.76,37.55a1.13,1.13,0,0,1-.41-2.18l29.38-11.5a1.13,1.13,0,0,1,.82,2.1L18.17,37.47A1.15,1.15,0,0,1,17.76,37.55Z" style="fill:#787878"/></svg>
