<svg id="Layer_1" data-name="Layer 1" xmlns="http://www.w3.org/2000/svg" viewBox="0 0 64 64"><title>SVG_Artboards</title><rect x="3.59" y="3.83" width="36.86" height="36.86" style="fill:#a7d28c"/><path d="M40.45,41.82H3.59a1.14,1.14,0,0,1-1.13-1.13V3.83A1.13,1.13,0,0,1,3.59,2.7H40.45a1.13,1.13,0,0,1,1.13,1.13V40.69A1.14,1.14,0,0,1,40.45,41.82ZM4.71,39.56H39.32V5H4.71Z" style="fill:#6f6f59"/><rect x="3.59" y="3.83" width="36.86" height="36.86" style="fill:#a7d28c"/><path d="M40.45,41.82H3.59a1.14,1.14,0,0,1-1.13-1.13V3.83A1.13,1.13,0,0,1,3.59,2.7H40.45a1.13,1.13,0,0,1,1.13,1.13V40.69A1.14,1.14,0,0,1,40.45,41.82ZM4.71,39.56H39.32V5H4.71Z" style="fill:#6f6f59"/><rect x="46.02" y="36.29" width="6.69" height="26.61" rx="2.84" transform="translate(-20.61 49.43) rotate(-45)" style="fill:#cdcece"/><path d="M56.4,61.32a3.93,3.93,0,0,1-2.8-1.16L38.8,45.36a4,4,0,0,1,0-5.61l.71-.71a4,4,0,0,1,5.61,0l14.8,14.8a4,4,0,0,1,0,5.61h0l-.71.71A4,4,0,0,1,56.4,61.32ZM42.31,40.13a1.75,1.75,0,0,0-1.21.5l-.71.71a1.71,1.71,0,0,0,0,2.42l14.8,14.81a1.77,1.77,0,0,0,2.42,0l.72-.72a1.71,1.71,0,0,0,0-2.42l-14.8-14.8A1.75,1.75,0,0,0,42.31,40.13ZM59.13,58.65Z" style="fill:#787878"/><circle cx="36.64" cy="35.73" r="16.25" style="fill:#cdcece"/><path d="M36.64,53.11A17.38,17.38,0,1,1,54,35.73,17.4,17.4,0,0,1,36.64,53.11Zm0-32.5A15.13,15.13,0,1,0,51.76,35.73,15.14,15.14,0,0,0,36.64,20.61Z" style="fill:#787878"/><circle cx="36.64" cy="35.73" r="11.73" style="fill:#d0e5f6"/><path d="M36.64,48.59A12.86,12.86,0,1,1,49.49,35.73,12.88,12.88,0,0,1,36.64,48.59Zm0-23.46a10.61,10.61,0,1,0,10.6,10.6A10.61,10.61,0,0,0,36.64,25.13Z" style="fill:#787878"/><path d="M30.1,36.93a7.83,7.83,0,0,1,14.07-4.74A7.83,7.83,0,1,0,30.71,40,7.79,7.79,0,0,1,30.1,36.93Z" style="fill:#47b1d8"/></svg>
