<svg id="Layer_1" data-name="Layer 1" xmlns="http://www.w3.org/2000/svg" viewBox="0 0 64 64"><path d="M21.13,50.09a3.7,3.7,0,1,1,3.69-3.69A3.69,3.69,0,0,1,21.13,50.09Z" style="fill:#47b1d8"/><path d="M21.13,43.2a3.2,3.2,0,1,1-3.19,3.2,3.19,3.19,0,0,1,3.19-3.2m0-1a4.2,4.2,0,1,0,4.19,4.2,4.2,4.2,0,0,0-4.19-4.2Z" style="fill:#787878"/><path d="M33,50.09a3.7,3.7,0,1,1,3.69-3.69A3.69,3.69,0,0,1,33,50.09Z" style="fill:#47b1d8"/><path d="M33,43.2a3.2,3.2,0,1,1-3.19,3.2A3.19,3.19,0,0,1,33,43.2m0-1a4.2,4.2,0,1,0,4.19,4.2A4.2,4.2,0,0,0,33,42.2Z" style="fill:#787878"/><path d="M44.81,50.09A3.7,3.7,0,1,1,48.5,46.4,3.69,3.69,0,0,1,44.81,50.09Z" style="fill:#47b1d8"/><path d="M44.81,43.2a3.2,3.2,0,1,1-3.19,3.2,3.19,3.19,0,0,1,3.19-3.2m0-1A4.2,4.2,0,1,0,49,46.4a4.2,4.2,0,0,0-4.19-4.2Z" style="fill:#787878"/><path d="M2.46,30.94c4.33,0,4.94-2.38,4.94-4.52a35.62,35.62,0,0,0-.49-5.12,36,36,0,0,1-.49-5.06c0-5.6,3.66-8,8.84-8h1.29v3.35h-1.1c-3.6,0-4.82,2-4.82,5.25a25.91,25.91,0,0,0,.43,4.32,29,29,0,0,1,.42,4.64c.07,3.9-1.64,5.85-4.39,6.58v.12c2.75.67,4.46,2.74,4.39,6.65a28.35,28.35,0,0,1-.42,4.63,26.63,26.63,0,0,0-.43,4.39c0,3.41,1.4,5.3,4.82,5.3h1.1v3.35H15.26c-5,0-8.84-2.19-8.84-8.35a35.41,35.41,0,0,1,.49-5,32.94,32.94,0,0,0,.49-4.94c0-1.88-.61-4.5-4.94-4.5Z" style="fill:#787878"/><path d="M62.68,34.05c-4.32,0-4.94,2.62-4.94,4.5a34.3,34.3,0,0,0,.49,4.94,34,34,0,0,1,.49,5c0,6.16-3.84,8.35-8.84,8.35H48.6V53.49h1c3.41-.06,4.87-1.89,4.87-5.3a37.2,37.2,0,0,0-.42-4.39,27.15,27.15,0,0,1-.49-4.63c0-3.91,1.71-6,4.39-6.65V32.4c-2.68-.73-4.39-2.68-4.39-6.58a27.82,27.82,0,0,1,.49-4.64,36.25,36.25,0,0,0,.42-4.32c0-3.3-1.28-5.19-4.81-5.25H48.6V8.26h1.22c5.19,0,8.9,2.38,8.9,8a34.53,34.53,0,0,1-.49,5.06,37.1,37.1,0,0,0-.49,5.12c0,2.14.62,4.52,4.94,4.52Z" style="fill:#787878"/></svg>
