<svg id="Layer_1" data-name="Layer 1" xmlns="http://www.w3.org/2000/svg" viewBox="0 0 64 64"><title>SVG_Artboards</title><rect x="9.42" y="5.92" width="6.18" height="4.54" rx="2.03" style="fill:#787878"/><polygon points="42.06 4.26 26.07 4.26 22.96 9.42 45.17 9.42 42.06 4.26" style="fill:#cdcece"/><path d="M45.17,10.55H23a1.12,1.12,0,0,1-1-1.71l3.1-5.16a1.13,1.13,0,0,1,1-.54h16a1.11,1.11,0,0,1,1,.54l3.11,5.16a1.12,1.12,0,0,1-1,1.71ZM25,8.3H43.17L41.42,5.39H26.71Z" style="fill:#787878"/><rect x="6.33" y="8.86" width="51.31" height="36.74" rx="6.96" style="fill:#cdcece"/><path d="M50.68,46.72H13.3a8.1,8.1,0,0,1-8.09-8.09V15.82A8.1,8.1,0,0,1,13.3,7.73H50.68a8.1,8.1,0,0,1,8.09,8.09V38.63A8.1,8.1,0,0,1,50.68,46.72ZM13.3,10a5.85,5.85,0,0,0-5.84,5.84V38.63a5.85,5.85,0,0,0,5.84,5.84H50.68a5.85,5.85,0,0,0,5.84-5.84V15.82A5.85,5.85,0,0,0,50.68,10Z" style="fill:#787878"/><circle cx="12.52" cy="14.52" r="2.33" style="fill:#de4130"/><circle cx="34.64" cy="27.23" r="13.8" style="fill:#cdcece"/><path d="M34.64,42.15A14.93,14.93,0,1,1,49.56,27.23,14.95,14.95,0,0,1,34.64,42.15Zm0-27.59A12.67,12.67,0,1,0,47.31,27.23,12.68,12.68,0,0,0,34.64,14.56Z" style="fill:#787878"/><circle cx="34.64" cy="27.23" r="9.96" style="fill:#d0e5f6"/><path d="M34.64,38.31A11.09,11.09,0,1,1,45.72,27.23,11.1,11.1,0,0,1,34.64,38.31Zm0-19.91a8.83,8.83,0,1,0,8.83,8.83A8.84,8.84,0,0,0,34.64,18.4Z" style="fill:#787878"/><path d="M29.09,28.24a6.65,6.65,0,0,1,11.94-4A6.65,6.65,0,1,0,29.6,30.81,6.66,6.66,0,0,1,29.09,28.24Z" style="fill:#47b1d8"/><path d="M30,34a21.24,21.24,0,0,1,16.67,7.54l5.08-5.07L56,57.58,35,53.32l4.87-4.87c-2.57-2.58-9.5-8.6-14.63-4.07-6.36,5.62-.37,12.45,2.33,17.69C8.09,54.39,17.64,34,30,34Z" style="fill:#a7d28c"/><path d="M27.52,63.19a1,1,0,0,1-.41-.08c-8.65-3.41-13-9.91-11.55-17.38C16.93,38.54,23.28,32.91,30,32.91a22.58,22.58,0,0,1,16.72,7L51,35.71a1.13,1.13,0,0,1,1.12-.28,1.11,1.11,0,0,1,.78.85l4.27,21.07a1.12,1.12,0,0,1-1.33,1.33L34.73,54.42a1.13,1.13,0,0,1-.57-1.9l4.05-4.05c-2.84-2.66-8.32-6.74-12.27-3.24-4.27,3.76-2.28,8,1,13.51.58,1,1.12,1.9,1.59,2.81a1.12,1.12,0,0,1-.16,1.27A1.15,1.15,0,0,1,27.52,63.19Zm2.5-28c-5.69,0-11.07,4.82-12.24,11-.52,2.7-.7,9,7,13.36-2.73-4.63-6.16-10.83-.32-16s13.24,1.17,16.17,4.12a1.13,1.13,0,0,1,0,1.59l-3.37,3.38L54.6,56.14,51.08,38.79l-3.6,3.59a1.11,1.11,0,0,1-.85.33,1.16,1.16,0,0,1-.81-.41A20,20,0,0,0,30,35.17Z" style="fill:#6f6f59"/></svg>
