<svg id="Layer_1" data-name="Layer 1" xmlns="http://www.w3.org/2000/svg" viewBox="0 0 64 64"><path d="M5.28,23.64V50.13l20-13.23Z" style="fill:#a7d28c;stroke:#6f6f59;stroke-linecap:round;stroke-linejoin:round;stroke-width:2.2536px"/><path d="M57.51,50.13V23.64l-20,13.24Z" style="fill:#a7d28c;stroke:#6f6f59;stroke-linecap:round;stroke-linejoin:round;stroke-width:2.2536px"/><line x1="31.46" y1="60.3" x2="31.46" y2="55.9" style="fill:none;stroke:#6f6f59;stroke-linecap:round;stroke-linejoin:round;stroke-width:2.2536px"/><line x1="31.46" y1="49.68" x2="31.46" y2="45.28" style="fill:none;stroke:#6f6f59;stroke-linecap:round;stroke-linejoin:round;stroke-width:2.2536px"/><line x1="31.46" y1="28.44" x2="31.46" y2="24.04" style="fill:none;stroke:#6f6f59;stroke-linecap:round;stroke-linejoin:round;stroke-width:2.2536px"/><line x1="31.46" y1="17.82" x2="31.46" y2="13.42" style="fill:none;stroke:#6f6f59;stroke-linecap:round;stroke-linejoin:round;stroke-width:2.2536px"/><line x1="31.46" y1="39.06" x2="31.46" y2="34.66" style="fill:none;stroke:#6f6f59;stroke-linecap:round;stroke-linejoin:round;stroke-width:2.2536px"/><path d="M53.54,17.8l-.23,0-9.16-1.86a1.12,1.12,0,0,1-.85-.76,1.13,1.13,0,0,1,.25-1.11l1.94-1.94A25.63,25.63,0,0,0,13.3,15.45a2.16,2.16,0,0,1-1.52.63,2.16,2.16,0,0,1-1.53-3.68A30,30,0,0,1,48.59,9l2.3-2.29a1.09,1.09,0,0,1,.79-.33,1.24,1.24,0,0,1,.33,0,1.12,1.12,0,0,1,.78.86l1.85,9.17a1.11,1.11,0,0,1-.31,1A1.13,1.13,0,0,1,53.54,17.8Z" style="fill:#47b1d8"/><path d="M31.46,4.73a28.66,28.66,0,0,1,17.25,5.75l3-3,1.86,9.17-9.17-1.86L47.24,12a26.75,26.75,0,0,0-34.73,2.7,1,1,0,0,1-1.46,0,1,1,0,0,1,0-1.45A28.69,28.69,0,0,1,31.46,4.73m0-2.25a30.93,30.93,0,0,0-22,9.12,3.28,3.28,0,0,0,4.64,4.65,24.46,24.46,0,0,1,29.58-3.93l-.9.9a2.27,2.27,0,0,0-.57,2.24A2.24,2.24,0,0,0,43.92,17l9.17,1.86a2.2,2.2,0,0,0,2-.61,2.27,2.27,0,0,0,.61-2L53.89,7.06a2.23,2.23,0,0,0-1.56-1.71,2.05,2.05,0,0,0-.65-.1,2.24,2.24,0,0,0-1.59.66L48.45,7.55a30.77,30.77,0,0,0-17-5.07Z" style="fill:#6f6f59"/></svg>
