<svg id="Layer_1" data-name="Layer 1" xmlns="http://www.w3.org/2000/svg" viewBox="0 0 64 64"><path d="M59.42,32A27.64,27.64,0,1,0,31.78,59.62,27.64,27.64,0,0,0,59.42,32Z" style="fill:#2896d3"/><path d="M31.78,60.75A28.77,28.77,0,1,1,60.54,32,28.81,28.81,0,0,1,31.78,60.75Zm0-55.28A26.51,26.51,0,1,0,58.29,32,26.55,26.55,0,0,0,31.78,5.47Z" style="fill:#6f6f59"/><rect x="28.65" y="11.85" width="4.07" height="42.43" transform="translate(32.37 -12.01) rotate(45)" style="fill:#6f6f59"/><polygon points="34.77 16.92 46.37 28.53 50.93 12.43 34.77 16.92" style="fill:#a7d28c"/><path d="M46.37,29.66a1.17,1.17,0,0,1-.8-.33L34,17.72a1.13,1.13,0,0,1,.5-1.88l16.16-4.49A1.13,1.13,0,0,1,52,12.74l-4.56,16.1a1.14,1.14,0,0,1-.8.78A1.45,1.45,0,0,1,46.37,29.66ZM36.93,17.49l8.88,8.88L49.3,14.06Z" style="fill:#6f6f59"/><polygon points="28.69 46.4 17.09 34.8 12.53 50.89 28.69 46.4" style="fill:#a7d28c"/><path d="M12.53,52a1.14,1.14,0,0,1-.8-.33,1.12,1.12,0,0,1-.29-1.1L16,34.49a1.14,1.14,0,0,1,.8-.78,1.13,1.13,0,0,1,1.08.29L29.49,45.61a1.13,1.13,0,0,1-.5,1.88L12.83,52A1,1,0,0,1,12.53,52ZM17.65,37,14.16,49.27l12.37-3.44Z" style="fill:#6f6f59"/><rect x="29.06" y="10.67" width="4.07" height="41.27" transform="translate(75.22 31.44) rotate(135)" style="fill:#6f6f59"/><polygon points="46.13 34.73 34.53 46.33 50.62 50.89 46.13 34.73" style="fill:#a7d28c"/><path d="M50.62,52a1.15,1.15,0,0,1-.31,0L34.22,47.42a1.14,1.14,0,0,1-.78-.8,1.13,1.13,0,0,1,.29-1.08l11.6-11.61a1.15,1.15,0,0,1,1.09-.29,1.12,1.12,0,0,1,.8.79l4.49,16.16A1.13,1.13,0,0,1,50.62,52ZM36.68,45.77,49,49.26,45.56,36.89Z" style="fill:#6f6f59"/><polygon points="17.02 28.82 28.62 17.22 12.53 12.66 17.02 28.82" style="fill:#a7d28c"/><path d="M17,30a1,1,0,0,1-.29,0,1.12,1.12,0,0,1-.8-.79L11.44,13a1.13,1.13,0,0,1,1.39-1.39l16.1,4.56A1.14,1.14,0,0,1,29.42,18L17.81,29.62A1.13,1.13,0,0,1,17,30ZM14.15,14.29l3.43,12.37,8.89-8.88Z" style="fill:#6f6f59"/></svg>
