<svg id="Layer_1" data-name="Layer 1" xmlns="http://www.w3.org/2000/svg" viewBox="0 0 64 64"><title>SVG_Artboards</title><path d="M37.82,59.59H6.42a2,2,0,0,1-2-2V20.19a2,2,0,0,1,2-2H30l9.85,10.54V57.58A2,2,0,0,1,37.82,59.59Z" style="fill:#d9dddd"/><path d="M37.82,60.72H6.42a3.15,3.15,0,0,1-3.14-3.14V20.19a3.15,3.15,0,0,1,3.14-3.14H30a1.11,1.11,0,0,1,.82.36L40.65,28a1.08,1.08,0,0,1,.31.76V57.58A3.15,3.15,0,0,1,37.82,60.72ZM6.42,19.31a.87.87,0,0,0-.88.88V57.58a.88.88,0,0,0,.88.89h31.4a.88.88,0,0,0,.88-.89V29.17l-9.21-9.86Z" style="fill:#787878"/><rect x="10.19" y="51.47" width="23.87" height="2.22" style="fill:#787878"/><rect x="10.19" y="44.92" width="23.87" height="2.22" style="fill:#787878"/><rect x="10.19" y="38.38" width="23.87" height="2.22" style="fill:#787878"/><rect x="10.19" y="28.39" width="13.87" height="2.22" style="fill:#787878"/><path d="M26.08,23.84a14.4,14.4,0,1,0,5.51-11.28L35.25,15l-12,5.05,0-13,3.53,2.35a19.91,19.91,0,1,1-6.26,14.49Z" style="fill:#a7d28c"/><path d="M40.43,44.88a21.07,21.07,0,0,1-21-21,1.14,1.14,0,0,1,1.13-1.13h5.56a1.14,1.14,0,0,1,1.13,1.13A13.22,13.22,0,1,0,40.43,10.62a13,13,0,0,0-6.84,1.92l2.28,1.53a1.12,1.12,0,0,1-.19,2l-12,5.05A1.14,1.14,0,0,1,22.6,21a1.11,1.11,0,0,1-.51-.94l0-13a1.14,1.14,0,0,1,1.76-.94l2.8,1.87a21,21,0,1,1,13.75,37ZM21.68,25a18.78,18.78,0,1,0,5.87-14.8,1.12,1.12,0,0,1-1.4.12L24.37,9.1l0,9.25,8.53-3.57L31,13.5a1.12,1.12,0,0,1-.08-1.82,15.33,15.33,0,0,1,9.54-3.32A15.48,15.48,0,1,1,25,25Z" style="fill:#787878"/><rect x="42.57" y="19.9" width="2.18" height="8.79" rx="1.09" transform="translate(67.92 -19.39) rotate(89.95)" style="fill:#787878"/><rect x="39.27" y="16.6" width="2.18" height="8.79" rx="1.09" style="fill:#787878"/></svg>
