<svg id="Layer_1" data-name="Layer 1" xmlns="http://www.w3.org/2000/svg" viewBox="0 0 64 64"><title>SVG_Artboards</title><path d="M60.66,21.19,43.28,9.66v7.57H20.72V9.66L3.34,21.18,20.72,32.71V25.14H43.28v7.57Z" style="fill:#a7d28c"/><path d="M20.72,33.83a1.12,1.12,0,0,1-.62-.18L2.72,22.12a1.15,1.15,0,0,1-.5-.94,1.14,1.14,0,0,1,.5-.94L20.1,8.72a1.11,1.11,0,0,1,1.15-.05,1.12,1.12,0,0,1,.6,1V16.1h20.3V9.66a1.12,1.12,0,0,1,.6-1,1.11,1.11,0,0,1,1.15.05L61.28,20.25a1.13,1.13,0,0,1,0,1.88L43.9,33.65a1.11,1.11,0,0,1-1.15.05,1.13,1.13,0,0,1-.6-1V26.27H21.85v6.44a1.13,1.13,0,0,1-1.13,1.12Zm0-9.82H43.28a1.14,1.14,0,0,1,1.13,1.13v5.47l14.21-9.42L44.41,11.76v5.47a1.13,1.13,0,0,1-1.13,1.12H20.72a1.13,1.13,0,0,1-1.13-1.12V11.76L5.38,21.18l14.21,9.43V25.14A1.14,1.14,0,0,1,20.72,24Z" style="fill:#6f6f59"/><path d="M3.34,58.18a1.13,1.13,0,0,1-1.12-1.13V35.49a1.13,1.13,0,0,1,2.25,0V57.05A1.13,1.13,0,0,1,3.34,58.18Z" style="fill:#6f6f59"/><path d="M60.66,58.18a1.13,1.13,0,0,1-1.13-1.13V35.49a1.13,1.13,0,0,1,2.25,0V57.05A1.13,1.13,0,0,1,60.66,58.18Z" style="fill:#6f6f59"/><path d="M22,54.33a1.13,1.13,0,0,1-1.12-1.13V39.34a1.13,1.13,0,0,1,2.25,0V53.2A1.14,1.14,0,0,1,22,54.33Z" style="fill:#6f6f59"/><path d="M41.35,54.33a1.14,1.14,0,0,1-1.13-1.13V39.34a1.13,1.13,0,0,1,2.26,0V53.2A1.14,1.14,0,0,1,41.35,54.33Z" style="fill:#6f6f59"/><path d="M60.25,47.4H4a1.13,1.13,0,1,1,0-2.26H60.25a1.13,1.13,0,0,1,0,2.26Z" style="fill:#6f6f59"/></svg>
