<svg id="Layer_1" data-name="Layer 1" xmlns="http://www.w3.org/2000/svg" viewBox="0 0 64 64"><title>SVG_Artboards</title><path d="M38.31,59.17H6.92a2,2,0,0,1-2-2V19.76a2,2,0,0,1,2-2H30.48L40.33,28.3V57.15A2,2,0,0,1,38.31,59.17Z" style="fill:#d9dddd"/><path d="M38.31,60.29H6.92a3.15,3.15,0,0,1-3.14-3.14V19.76a3.15,3.15,0,0,1,3.14-3.14H30.48a1.11,1.11,0,0,1,.82.36l9.85,10.55a1.12,1.12,0,0,1,.3.76V57.15A3.15,3.15,0,0,1,38.31,60.29ZM6.92,18.88a.89.89,0,0,0-.89.88V57.15a.89.89,0,0,0,.89.89H38.31a.89.89,0,0,0,.89-.89V28.74L30,18.88Z" style="fill:#787878"/><rect x="10.68" y="51.04" width="23.87" height="2.22" style="fill:#787878"/><rect x="10.68" y="44.5" width="23.87" height="2.22" style="fill:#787878"/><rect x="10.68" y="37.96" width="23.87" height="2.22" style="fill:#787878"/><rect x="10.68" y="27.96" width="13.87" height="2.22" style="fill:#787878"/><path d="M28,21.73a13.81,13.81,0,0,1,22.33-9.89l-3.53,2.35,11.61,4.87,0-12.59L55,8.74a19.21,19.21,0,0,0-32.37,13Z" style="fill:#2896d3"/><path d="M28,22.86H22.62a1.14,1.14,0,0,1-1.13-1.19A20.34,20.34,0,0,1,55.09,7.31l2.68-1.78a1.12,1.12,0,0,1,1.75.93l0,12.6a1.14,1.14,0,0,1-.5.94,1.11,1.11,0,0,1-1.06.1L46.38,15.23a1.11,1.11,0,0,1-.66-.91,1.15,1.15,0,0,1,.45-1.05l2.17-1.45A12.47,12.47,0,0,0,41.81,10,12.76,12.76,0,0,0,29.13,21.81,1.13,1.13,0,0,1,28,22.86ZM23.84,20.6H27A15,15,0,0,1,41.81,7.74,14.8,14.8,0,0,1,51,11a1.15,1.15,0,0,1,.43.93,1.11,1.11,0,0,1-.5.89L49.18,14l8.11,3.41,0-8.8L55.61,9.68a1.13,1.13,0,0,1-1.4-.12,18.08,18.08,0,0,0-30.37,11Z" style="fill:#787878"/><path d="M55.26,24.46a13.81,13.81,0,0,1-22.34,9.89L36.46,32,24.84,27.13l0,12.59,3.41-2.27a19.21,19.21,0,0,0,32.37-13Z" style="fill:#2896d3"/><path d="M41.46,43.82a20.24,20.24,0,0,1-13.28-4.94L25.5,40.66a1.12,1.12,0,0,1-1.75-.93l0-12.6a1.12,1.12,0,0,1,1.56-1L36.89,31a1.13,1.13,0,0,1,.19,2l-2.15,1.43a12.47,12.47,0,0,0,6.53,1.83A12.76,12.76,0,0,0,54.14,24.38a1.13,1.13,0,0,1,1.12-1.05h5.39a1.11,1.11,0,0,1,.82.36,1.15,1.15,0,0,1,.31.83A20.33,20.33,0,0,1,41.46,43.82Zm-13.18-7.5a1.12,1.12,0,0,1,.77.31,18.09,18.09,0,0,0,30.38-11H56.27A15,15,0,0,1,41.46,38.45a14.8,14.8,0,0,1-9.23-3.21,1.12,1.12,0,0,1,.07-1.82l1.78-1.19L26,28.82l0,8.8,1.66-1.11A1.16,1.16,0,0,1,28.28,36.32Z" style="fill:#787878"/></svg>
