<svg id="Layer_1" data-name="Layer 1" xmlns="http://www.w3.org/2000/svg" viewBox="0 0 64 64"><title>SVG_Artboards</title><path d="M57.16,12.07a18.7,18.7,0,0,0-33.8,6.21h-5l7.8,10.22,7.76-10.23H28.8a13.49,13.49,0,1,1,8.68,17v5.41A18.71,18.71,0,0,0,57.16,12.07Z" style="fill:#a7d28c"/><path d="M41.68,42.31a19.85,19.85,0,0,1-4.45-.5,1.13,1.13,0,0,1-.88-1.1v-5.4a1.13,1.13,0,0,1,1.47-1.07,12.36,12.36,0,1,0-3.09-22.05,12,12,0,0,0-4.27,5h3.47a1.13,1.13,0,0,1,.9,1.81L27.06,29.18a1.11,1.11,0,0,1-.89.44h0a1.11,1.11,0,0,1-.9-.44L17.48,19a1.12,1.12,0,0,1-.12-1.18,1.14,1.14,0,0,1,1-.63h4.11A19.85,19.85,0,0,1,58.1,11.44h0A19.87,19.87,0,0,1,52.63,39,19.59,19.59,0,0,1,41.68,42.31Zm-3.07-2.52A17.43,17.43,0,0,0,51.38,37.1,17.6,17.6,0,1,0,24.46,18.53a1.12,1.12,0,0,1-1.1.87H20.65l5.51,7.24,5.5-7.24H28.8a1.11,1.11,0,0,1-.91-.47,1.07,1.07,0,0,1-.16-1,14.48,14.48,0,0,1,5.74-7.61A14.62,14.62,0,1,1,49.72,34.62a14.48,14.48,0,0,1-11.11,2.15Z" style="fill:#6f6f59"/><path d="M31.59,47.48l-2.84-2.16a10,10,0,0,0,.1-1.36,11.82,11.82,0,0,0-.11-1.47l2.81-2.19A1.05,1.05,0,0,0,31.81,39l-2.69-4.63a1,1,0,0,0-1.29-.44l-3.3,1.35A11.43,11.43,0,0,0,22,33.77l-.48-3.52a1,1,0,0,0-1-.9H15.14a1,1,0,0,0-1,.9l-.48,3.52A11.18,11.18,0,0,0,11,35.3L7.71,34a1,1,0,0,0-1.29.45L3.78,39.11a1.05,1.05,0,0,0,.28,1.34L6.9,42.6A10.24,10.24,0,0,0,6.8,44a11.84,11.84,0,0,0,.11,1.48L4.1,47.63A1,1,0,0,0,3.84,49l2.69,4.64a1,1,0,0,0,1.29.44l3.3-1.35a11.43,11.43,0,0,0,2.51,1.46l.48,3.52a1,1,0,0,0,1,.9h5.37a1,1,0,0,0,1-.9L22,54.16a10.87,10.87,0,0,0,2.61-1.54l3.31,1.32a1,1,0,0,0,1.29-.45l2.64-4.67A1,1,0,0,0,31.59,47.48ZM22.75,44A4.93,4.93,0,1,1,17.83,39,4.93,4.93,0,0,1,22.75,44Z" style="fill:#cdcece"/><path d="M20.51,59.7H15.14A2.16,2.16,0,0,1,13,57.83l-.4-2.9A12.14,12.14,0,0,1,11,54L8.25,55.09a2.18,2.18,0,0,1-2.7-.91L2.86,49.54a2.18,2.18,0,0,1,.55-2.8l2.31-1.8c0-.34,0-.66,0-1s0-.55,0-.84L3.38,41.35a2.17,2.17,0,0,1-.58-2.79l2.64-4.67a2.18,2.18,0,0,1,2.69-1L10.85,34a12.86,12.86,0,0,1,1.75-1l.4-2.9a2.16,2.16,0,0,1,2.14-1.87h5.37a2.16,2.16,0,0,1,2.14,1.87l.4,2.9a12.14,12.14,0,0,1,1.63,1l2.72-1.12a2.19,2.19,0,0,1,2.7.92l2.69,4.64a2.18,2.18,0,0,1-.55,2.8L29.93,43c0,.34,0,.66,0,1s0,.55,0,.85l2.33,1.77a2.17,2.17,0,0,1,.58,2.79L30.21,54a2.18,2.18,0,0,1-2.69,1L24.8,53.9a12,12,0,0,1-1.75,1l-.4,2.9A2.16,2.16,0,0,1,20.51,59.7Zm-5.29-2.25h5.21L20.9,54a1.13,1.13,0,0,1,.69-.89,9.69,9.69,0,0,0,2.34-1.37,1.13,1.13,0,0,1,1.12-.16l3.23,1.29,2.57-4.54-2.78-2.11a1.12,1.12,0,0,1-.43-1A11.63,11.63,0,0,0,27.72,44a9.83,9.83,0,0,0-.1-1.33,1.13,1.13,0,0,1,.42-1l2.76-2.15L28.18,35,25,36.27a1.11,1.11,0,0,1-1.12-.15,10.23,10.23,0,0,0-2.25-1.31,1.12,1.12,0,0,1-.69-.88l-.47-3.45H15.22l-.47,3.45a1.12,1.12,0,0,1-.69.88,10.07,10.07,0,0,0-2.34,1.38,1.13,1.13,0,0,1-1.12.16L7.37,35.06,4.8,39.6l2.78,2.11a1.11,1.11,0,0,1,.43,1A11.62,11.62,0,0,0,7.93,44,9.6,9.6,0,0,0,8,45.29a1.14,1.14,0,0,1-.42,1L4.85,48.47,7.47,53l3.22-1.32a1.13,1.13,0,0,1,1.12.14,9.3,9.3,0,0,0,2.25,1.31,1.15,1.15,0,0,1,.69.89Zm15.69-9.08h0ZM17.83,50A6.06,6.06,0,1,1,23.88,44,6.07,6.07,0,0,1,17.83,50Zm0-9.85A3.8,3.8,0,1,0,21.62,44,3.8,3.8,0,0,0,17.83,40.17Z" style="fill:#787878"/></svg>
