<svg id="Layer_1" data-name="Layer 1" xmlns="http://www.w3.org/2000/svg" viewBox="0 0 64 64"><title>SVG_Artboards</title><path d="M26.75,16.24H44.32c3.27,0,4.83,1.57,4.83,4.86V54.22c0,3.22-1.57,4.81-4.78,4.81H9.13c-3.2,0-4.77-1.58-4.77-4.81V21c0-3.16,1.59-4.76,4.72-4.76ZM45.07,31.73H24.44V54.94H45.07Zm-36.62,0V54.94H20.26V31.71Zm0-4.16H45.07V20.37H8.44Z" style="fill:#6f6f59"/><path d="M45.07,31.73V54.94H24.44V31.73Z" style="fill:#d0e5f6"/><path d="M8.45,31.71H20.26V54.94H8.45Z" style="fill:#d0e5f6"/><path d="M8.44,27.55V20.37H45.07v7.18Z" style="fill:#d0e5f6"/><polygon points="30.51 11.96 37.54 4.92 57.47 24.84 60.34 34.76 50.43 31.88 30.51 11.96" style="fill:#fff"/><path d="M60.34,35.88a1.1,1.1,0,0,1-.31,0L50.12,33a1.14,1.14,0,0,1-.49-.28L29.71,12.75a1.12,1.12,0,0,1,0-1.59l7-7a1.16,1.16,0,0,1,1.59,0L58.27,24.05a1.11,1.11,0,0,1,.28.48l2.88,9.91a1.14,1.14,0,0,1-.29,1.11A1.09,1.09,0,0,1,60.34,35.88Zm-9.32-5,7.67,2.22-2.22-7.67L37.54,6.51,32.1,12Z" style="fill:#6f6f59"/><rect x="38.47" y="4.53" width="9.95" height="26.65" transform="translate(0.1 35.95) rotate(-45)" style="fill:#f3c017"/><path d="M49.35,31.93a1.11,1.11,0,0,1-.79-.33L29.71,12.75a1.12,1.12,0,0,1,0-1.59l7-7a1.16,1.16,0,0,1,1.59,0L57.19,23a1.12,1.12,0,0,1,0,1.59l-7,7A1.13,1.13,0,0,1,49.35,31.93ZM32.1,12,49.35,29.21l5.45-5.45L37.54,6.51Z" style="fill:#6f6f59"/><path d="M59,34.55h-.07l-2.39-.14a1.13,1.13,0,0,1-1-.73,1.12,1.12,0,0,1,.25-1.19L58,30.23a1.12,1.12,0,0,1,1.2-.26,1.14,1.14,0,0,1,.73,1l.13,2.4A1.11,1.11,0,0,1,59,34.55Z" style="fill:#6f6f59"/><rect x="42" y="6.29" width="1.08" height="25.95" transform="translate(-1.17 35.72) rotate(-45)" style="fill:#6f6f59"/><rect x="44.26" y="4.03" width="1.08" height="25.95" transform="translate(1.09 36.66) rotate(-45)" style="fill:#6f6f59"/></svg>
