<svg id="Layer_1" data-name="Layer 1" xmlns="http://www.w3.org/2000/svg" viewBox="0 0 64 64"><path d="M32.07,46.44a1.13,1.13,0,0,1-1.13-1.12V19a1.13,1.13,0,0,1,2.26,0V45.32A1.13,1.13,0,0,1,32.07,46.44Z" style="fill:#6f6f59"/><path d="M45.24,33.28H18.9a1.13,1.13,0,0,1,0-2.26H45.24a1.13,1.13,0,0,1,0,2.26Z" style="fill:#6f6f59"/><circle cx="32.07" cy="32.15" r="6.92" style="fill:#ffc418"/><path d="M32.07,40.19a8,8,0,1,1,8-8A8,8,0,0,1,32.07,40.19Zm0-13.83a5.79,5.79,0,1,0,5.79,5.79A5.8,5.8,0,0,0,32.07,26.36Z" style="fill:#6f6f59"/><path d="M51.17,32a19.18,19.18,0,1,1-7.34-15L39,20.28,55,27l0-17.36-4.7,3.13A26.49,26.49,0,1,0,58.57,32Z" style="fill:#a7d28c"/><path d="M32.07,59.67A27.63,27.63,0,1,1,50.34,11.33l4-2.64a1.12,1.12,0,0,1,1.75.93L56.1,27a1.14,1.14,0,0,1-.5.94,1.12,1.12,0,0,1-1.06.1l-16-6.71a1.13,1.13,0,0,1-.19-2L41.85,17a17.67,17.67,0,0,0-9.78-2.92A18,18,0,1,0,50,32a1.14,1.14,0,0,1,1.13-1.13h7.4A1.14,1.14,0,0,1,59.7,32,27.67,27.67,0,0,1,32.07,59.67Zm0-53a25.37,25.37,0,1,0,25.35,26.5H52.27a20.23,20.23,0,1,1-20.2-21.36,20,20,0,0,1,12.46,4.33A1.13,1.13,0,0,1,44.46,18l-3.12,2.08,12.5,5.25,0-13.57-3,2a1.13,1.13,0,0,1-1.4-.12A25.24,25.24,0,0,0,32.07,6.67Z" style="fill:#6f6f59"/></svg>
