<svg id="Layer_1" data-name="Layer 1" xmlns="http://www.w3.org/2000/svg" viewBox="0 0 64 64"><title>SVG_Artboards</title><path d="M13.07,29.85A19,19,0,0,1,43.86,16.21C39,19.45,39,19.46,39,19.46l16,6.71L55,8.8l-4.69,3.14A26.49,26.49,0,0,0,5.64,29.85Z" style="fill:#2896d3"/><path d="M13.07,31H5.64a1.1,1.1,0,0,1-.82-.35,1.15,1.15,0,0,1-.31-.83A27.61,27.61,0,0,1,50.37,10.51l4-2.64a1.12,1.12,0,0,1,1.75.93l0,17.37a1.14,1.14,0,0,1-.5.94,1.11,1.11,0,0,1-1.06.1l-16-6.71a1.15,1.15,0,0,1-.69-.94,1.13,1.13,0,0,1,.5-1l3.52-2.35a17.73,17.73,0,0,0-9.79-2.93A18,18,0,0,0,14.19,29.93,1.12,1.12,0,0,1,13.07,31ZM6.85,28.72h5.2A20.28,20.28,0,0,1,32.1,11a20,20,0,0,1,12.46,4.33,1.16,1.16,0,0,1,.43.93,1.13,1.13,0,0,1-.5.9c-1.41.93-2.41,1.6-3.12,2.08l12.5,5.24,0-13.56-3,2a1.13,1.13,0,0,1-1.4-.12,25.35,25.35,0,0,0-42.64,16Z" style="fill:#6f6f59"/><path d="M50.64,34.84A19,19,0,0,1,19.85,48.48l4.87-3.25-16-6.71,0,17.36,4.7-3.13A26.49,26.49,0,0,0,58.08,34.84Z" style="fill:#2896d3"/><path d="M31.61,61.1a27.46,27.46,0,0,1-18.27-6.93l-4,2.65a1.15,1.15,0,0,1-1.16.06,1.13,1.13,0,0,1-.6-1l0-17.36a1.13,1.13,0,0,1,1.57-1l16,6.71a1.13,1.13,0,0,1,.69.9,1.12,1.12,0,0,1-.45,1l-3.56,2.38a17.67,17.67,0,0,0,9.78,2.93A18,18,0,0,0,49.52,34.76a1.13,1.13,0,0,1,1.12-1h7.44a1.12,1.12,0,0,1,.81.35,1.1,1.1,0,0,1,.31.84A27.6,27.6,0,0,1,31.61,61.1ZM13.45,51.62a1.14,1.14,0,0,1,.77.31A25.36,25.36,0,0,0,56.86,36h-5.2a20.28,20.28,0,0,1-20,17.73,20,20,0,0,1-12.46-4.34,1.12,1.12,0,0,1,.07-1.82l3.13-2.08L9.84,40.21l0,13.57,3-2A1.11,1.11,0,0,1,13.45,51.62Z" style="fill:#6f6f59"/></svg>
