<svg id="Layer_1" data-name="Layer 1" xmlns="http://www.w3.org/2000/svg" viewBox="0 0 64 64"><title>SVG_Artboards</title><path d="M23.83,13.56a27.89,27.89,0,0,1,21.92,9.93l6.68-6.68,5.62,27.72-27.74-5.6,6.4-6.4c-3.37-3.41-12.49-11.32-19.24-5.36C9.11,34.56,17,43.55,20.53,50.44-5,40.34,7.53,13.56,23.83,13.56Z" style="fill:#a7d28c"/><path d="M20.53,51.56a1,1,0,0,1-.41-.08C8.91,47.06,3.32,38.66,5.15,29c1.77-9.3,10-16.58,18.68-16.58a29.32,29.32,0,0,1,22,9.4L51.63,16a1.14,1.14,0,0,1,1.91.57l5.62,27.73a1.13,1.13,0,0,1-1.33,1.33L30.09,40a1.13,1.13,0,0,1-.57-1.9l5.59-5.59C31.38,29,23.77,23.12,18.22,28,12,33.55,15.76,40,19.45,46.24c.76,1.29,1.48,2.5,2.09,3.68a1.14,1.14,0,0,1-.17,1.27A1.13,1.13,0,0,1,20.53,51.56Zm3.3-36.87c-7.66,0-14.89,6.48-16.46,14.75C6.65,33.21,6.4,42.13,17.88,48l-.37-.62c-3.76-6.37-8.45-14.3-.79-21.06,7.43-6.56,17,1.59,20.79,5.4a1.12,1.12,0,0,1,0,1.59L32.6,38.24l24,4.85-4.87-24c-1,1.06-2.65,2.67-5.19,5.21a1.1,1.1,0,0,1-.85.33,1.14,1.14,0,0,1-.82-.4A26.56,26.56,0,0,0,23.83,14.69Z" style="fill:#6f6f59"/></svg>
