<svg id="Layer_1" data-name="Layer 1" xmlns="http://www.w3.org/2000/svg" viewBox="0 0 64 64"><title>SVG_Artboards</title><path d="M12.9,32a19.18,19.18,0,1,0,7.34-15l4.87,3.25L9.1,27l0-17.36,4.7,3.13A26.49,26.49,0,1,1,5.5,32Z" style="fill:#a7d28c"/><path d="M32,59.63A27.67,27.67,0,0,1,4.37,32,1.14,1.14,0,0,1,5.5,30.87h7.4A1.14,1.14,0,0,1,14,32,18,18,0,1,0,32,14h0A17.73,17.73,0,0,0,22.21,17l3.54,2.35a1.14,1.14,0,0,1,.47,1.05,1.11,1.11,0,0,1-.68.92L9.53,28a1.12,1.12,0,0,1-1.06-.1A1.14,1.14,0,0,1,8,27L8,9.59a1.12,1.12,0,0,1,1.75-.94l4,2.64A27.62,27.62,0,1,1,32,59.63ZM6.65,33.13a25.4,25.4,0,1,0,8-19.59,1.13,1.13,0,0,1-1.4.12l-3-2,0,13.57L22.74,20l-3.13-2.08a1.12,1.12,0,0,1-.07-1.82A20,20,0,0,1,32,11.77h0A20.23,20.23,0,1,1,11.8,33.13Z" style="fill:#6f6f59"/><path d="M34.43,29.17V19.64A2.43,2.43,0,0,0,32,17.2h0a2.44,2.44,0,0,0-2.43,2.44v9.55a3.55,3.55,0,0,0-1.15,2.62,3.59,3.59,0,1,0,6-2.64Z" style="fill:#ffc418"/><path d="M32,36.53a4.72,4.72,0,0,1-4.72-4.72,4.78,4.78,0,0,1,1.15-3.08V19.64a3.57,3.57,0,0,1,7.13,0v9.08A4.71,4.71,0,0,1,32,36.53Zm0-18.2a1.31,1.31,0,0,0-1.31,1.31v10l-.36.33a2.42,2.42,0,0,0-.79,1.8A2.46,2.46,0,1,0,33.67,30l-.37-.33v-10A1.31,1.31,0,0,0,32,18.33Z" style="fill:#6f6f59"/></svg>
