<?xml version="1.0" encoding="UTF-8"?>
<svg id="Layer_1" data-name="Layer 1" xmlns="http://www.w3.org/2000/svg" viewBox="0 0 64 64">
  <defs>
    <style>
      .cls-1 {
        fill: #d0e5f6;
      }

      .cls-2 {
        fill: #47b1d8;
      }

      .cls-3 {
        fill: #cdcece;
      }

      .cls-4 {
        fill: #a7d28c;
      }

      .cls-5 {
        fill: #de4130;
      }

      .cls-6 {
        fill: #787878;
      }

      .cls-7 {
        fill: #6f6f59;
      }
    </style>
  </defs>
  <rect class="cls-6" x="17.48" y="6.01" width="3.96" height="2.9" rx="1.45" ry="1.45"/>
  <g>
    <polygon class="cls-3" points="38.36 4.95 28.13 4.95 26.14 8.25 40.35 8.25 38.36 4.95"/>
    <path class="cls-6" d="M40.35,9.37h-14.21c-.41,0-.78-.22-.98-.57-.2-.35-.19-.79.02-1.14l1.99-3.3c.2-.34.57-.54.96-.54h10.23c.39,0,.76.21.96.54l1.99,3.3c.21.35.22.78.02,1.14-.2.35-.58.57-.98.57ZM28.13,7.12h10.22l-.63-1.05h-8.95l-.63,1.05Z"/>
  </g>
  <g>
    <rect class="cls-3" x="15.5" y="7.88" width="32.83" height="23.5" rx="3.57" ry="3.57"/>
    <path class="cls-6" d="M44.76,32.51h-25.68c-2.59,0-4.7-2.11-4.7-4.7V11.46c0-2.59,2.11-4.7,4.7-4.7h25.68c2.59,0,4.7,2.11,4.7,4.7v16.36c0,2.59-2.11,4.7-4.7,4.7ZM19.08,9.01c-1.35,0-2.45,1.1-2.45,2.45v16.36c0,1.35,1.1,2.45,2.45,2.45h25.68c1.35,0,2.45-1.1,2.45-2.45V11.46c0-1.35-1.1-2.45-2.45-2.45h-25.68Z"/>
  </g>
  <circle class="cls-5" cx="19.46" cy="11.51" r="1.49"/>
  <g>
    <circle class="cls-3" cx="33.61" cy="19.64" r="8.83"/>
    <path class="cls-6" d="M33.61,29.46c-5.42,0-9.83-4.41-9.83-9.83s4.41-9.83,9.83-9.83,9.83,4.41,9.83,9.83-4.41,9.83-9.83,9.83ZM33.61,11.81c-4.31,0-7.83,3.51-7.83,7.83s3.51,7.83,7.83,7.83,7.83-3.51,7.83-7.83-3.51-7.83-7.83-7.83Z"/>
  </g>
  <g>
    <circle class="cls-1" cx="33.61" cy="19.64" r="6.37"/>
    <path class="cls-6" d="M33.61,26.5c-3.79,0-6.87-3.08-6.87-6.87s3.08-6.87,6.87-6.87,6.87,3.08,6.87,6.87-3.08,6.87-6.87,6.87ZM33.61,13.77c-3.24,0-5.87,2.63-5.87,5.87s2.63,5.87,5.87,5.87,5.87-2.63,5.87-5.87-2.63-5.87-5.87-5.87Z"/>
  </g>
  <path class="cls-2" d="M30.06,20.28c0-2.35,1.91-4.26,4.26-4.26,1.38,0,2.61.66,3.38,1.68-.64-1.54-2.16-2.61-3.93-2.61-2.35,0-4.26,1.91-4.26,4.26,0,.97.33,1.86.87,2.57-.21-.51-.33-1.06-.33-1.64Z"/>
  <g>
    <path class="cls-7" d="M3.34,62.03c-.62,0-1.13-.5-1.13-1.13v-13.98c0-.62.5-1.13,1.13-1.13s1.13.5,1.13,1.13v13.98c0,.62-.5,1.13-1.13,1.13Z"/>
    <path class="cls-7" d="M60.66,62.03c-.62,0-1.13-.5-1.13-1.13v-13.98c0-.62.5-1.13,1.13-1.13s1.13.5,1.13,1.13v13.98c0,.62-.5,1.13-1.13,1.13Z"/>
    <path class="cls-7" d="M22.04,59.54c-.62,0-1.13-.5-1.13-1.13v-8.99c0-.62.5-1.13,1.13-1.13s1.13.5,1.13,1.13v8.99c0,.62-.5,1.13-1.13,1.13Z"/>
    <path class="cls-7" d="M41.35,59.54c-.62,0-1.13-.5-1.13-1.13v-8.99c0-.62.5-1.13,1.13-1.13s1.13.5,1.13,1.13v8.99c0,.62-.5,1.13-1.13,1.13Z"/>
    <path class="cls-7" d="M60.25,55.04H3.34c-.62,0-1.13-.5-1.13-1.13s.5-1.13,1.13-1.13h56.9c.62,0,1.13.5,1.13,1.13s-.5,1.13-1.13,1.13Z"/>
  </g>
  <g>
    <path class="cls-4" d="M59.72,41.99l-10.74-7.13v4.68H15.02v-4.68l-10.74,7.12,10.74,7.13v-4.68h33.95v4.68l10.74-7.12Z"/>
    <path class="cls-7" d="M48.98,50.24c-.18,0-.37-.04-.53-.13-.37-.2-.59-.58-.59-.99v-3.55h-31.7v3.55c0,.42-.23.8-.59.99-.37.19-.81.17-1.16-.05l-10.74-7.13c-.31-.21-.5-.56-.5-.94s.19-.73.5-.94l10.74-7.12c.34-.23.79-.25,1.16-.05.37.2.59.58.59.99v3.55h31.7v-3.55c0-.42.23-.8.59-.99.37-.2.81-.17,1.16.05l10.74,7.13c.31.21.5.56.5.94s-.19.73-.5.94l-10.74,7.12c-.19.12-.4.19-.62.19ZM15.02,43.31h33.95c.62,0,1.13.5,1.13,1.13v2.58l7.58-5.02-7.58-5.03v2.58c0,.62-.5,1.13-1.13,1.13H15.02c-.62,0-1.13-.5-1.13-1.13v-2.58l-7.58,5.02,7.58,5.03v-2.58c0-.62.5-1.13,1.13-1.13Z"/>
  </g>
</svg>
