<svg id="Layer_1" data-name="Layer 1" xmlns="http://www.w3.org/2000/svg" viewBox="0 0 64 64"><title>SVG_Artboards</title><path d="M60.66,21.19,43.28,9.66v7.57H20.72V9.66L3.34,21.18,20.72,32.71V25.14H43.28v7.57Z" style="fill:#a7d28c"/><path d="M43.28,33.83a1.11,1.11,0,0,1-1.12-1.12V26.27H21.84v6.44a1.13,1.13,0,0,1-1.75.94L2.72,22.12a1.15,1.15,0,0,1-.5-.94,1.14,1.14,0,0,1,.5-.94L20.1,8.72a1.12,1.12,0,0,1,1.74.94V16.1H42.16V9.66a1.11,1.11,0,0,1,.59-1,1.12,1.12,0,0,1,1.16.05L61.28,20.25a1.13,1.13,0,0,1,0,1.88L43.91,33.65A1.18,1.18,0,0,1,43.28,33.83ZM20.72,24H43.28a1.14,1.14,0,0,1,1.13,1.13v5.47l14.21-9.42L44.41,11.76v5.47a1.13,1.13,0,0,1-1.13,1.12H20.72a1.13,1.13,0,0,1-1.13-1.12V11.76L5.38,21.18l14.21,9.43V25.14A1.14,1.14,0,0,1,20.72,24Z" style="fill:#6f6f59"/><path d="M3.34,58.18a1.13,1.13,0,0,1-1.12-1.13V35.49a1.13,1.13,0,0,1,2.25,0V57.05A1.13,1.13,0,0,1,3.34,58.18Z" style="fill:#6f6f59"/><path d="M60.66,58.18a1.13,1.13,0,0,1-1.13-1.13V35.49a1.13,1.13,0,0,1,2.25,0V57.05A1.13,1.13,0,0,1,60.66,58.18Z" style="fill:#6f6f59"/><path d="M22,54.33a1.13,1.13,0,0,1-1.12-1.13V39.34a1.13,1.13,0,0,1,2.25,0V53.2A1.14,1.14,0,0,1,22,54.33Z" style="fill:#6f6f59"/><path d="M41.35,54.33a1.14,1.14,0,0,1-1.13-1.13V39.34a1.13,1.13,0,0,1,2.26,0V53.2A1.14,1.14,0,0,1,41.35,54.33Z" style="fill:#6f6f59"/><path d="M60.25,47.4H3c-.62,0,.87-.51.87-1.13S2.35,45.14,3,45.14H60.25a1.13,1.13,0,0,1,0,2.26Z" style="fill:#6f6f59"/><path d="M50.49,52.38a3.47,3.47,0,0,0,2.34-.84A3.65,3.65,0,0,0,54,49.29h4.9l0,.11a7.46,7.46,0,0,1-3,5.12,9.7,9.7,0,0,1-6.08,2q-4.34,0-6.41-2.86a9.56,9.56,0,0,1-1.41-7.24l.07-.55a12.51,12.51,0,0,1,3.47-7.31,9.86,9.86,0,0,1,7.26-2.81,7.23,7.23,0,0,1,5.56,2.12,6.23,6.23,0,0,1,1.4,5.56l0,.09H54.85a3.62,3.62,0,0,0-.45-2.59,2.39,2.39,0,0,0-2.14-1,3.67,3.67,0,0,0-3.19,1.69,10.05,10.05,0,0,0-1.53,4.27l-.07.55a8.66,8.66,0,0,0,.23,4.34A2.67,2.67,0,0,0,50.49,52.38Z" style="fill:#231f20"/></svg>
