<svg id="Layer_1" data-name="Layer 1" xmlns="http://www.w3.org/2000/svg" viewBox="0 0 64 64"><rect x="28.11" y="8.69" width="4.53" height="51.66" transform="translate(33.31 -11.37) rotate(45)" style="fill:#6f6f59"/><polygon points="42.09 9.88 55.02 22.81 60.1 4.87 42.09 9.88" style="fill:#a7d28c"/><path d="M55,23.94a1.17,1.17,0,0,1-.8-.33L41.29,10.67a1.13,1.13,0,0,1,.5-1.88l18-5a1.13,1.13,0,0,1,1.39,1.39L56.1,23.12a1.11,1.11,0,0,1-.8.78A.86.86,0,0,1,55,23.94ZM44.25,10.45,54.46,20.66l4-14.16Z" style="fill:#6f6f59"/><polygon points="24.18 53.65 11.25 40.72 6.17 58.65 24.18 53.65" style="fill:#a7d28c"/><path d="M6.17,59.78a1.15,1.15,0,0,1-.8-.33,1.11,1.11,0,0,1-.28-1.11l5.08-17.93a1.12,1.12,0,0,1,1.88-.49L25,52.85a1.15,1.15,0,0,1,.29,1.09,1.11,1.11,0,0,1-.79.79l-18,5A1,1,0,0,1,6.17,59.78Zm5.64-16.91L7.8,57l14.22-4Z" style="fill:#6f6f59"/><rect x="28.11" y="3.18" width="4.53" height="51.66" transform="translate(72.36 28.03) rotate(135)" style="fill:#6f6f59"/><polygon points="55.02 40.72 42.09 53.65 60.03 58.73 55.02 40.72" style="fill:#a7d28c"/><path d="M60,59.86a1.06,1.06,0,0,1-.31,0L41.78,54.73a1.13,1.13,0,0,1-.49-1.88L54.22,39.92a1.15,1.15,0,0,1,1.09-.29,1.13,1.13,0,0,1,.8.78l5,18A1.13,1.13,0,0,1,60,59.86ZM44.24,53.09l14.16,4L54.45,42.88Z" style="fill:#6f6f59"/><polygon points="11.25 22.81 24.18 9.88 6.25 4.8 11.25 22.81" style="fill:#a7d28c"/><path d="M11.25,23.94a1.35,1.35,0,0,1-.28,0,1.1,1.1,0,0,1-.8-.79l-5-18A1.13,1.13,0,0,1,6.55,3.71L24.49,8.79a1.12,1.12,0,0,1,.78.8A1.15,1.15,0,0,1,25,10.68L12.05,23.61A1.15,1.15,0,0,1,11.25,23.94ZM7.87,6.43l4,14.22L22,10.44Z" style="fill:#6f6f59"/></svg>
