<?xml version="1.0" encoding="UTF-8"?>
<svg id="Layer_1" data-name="Layer 1" xmlns="http://www.w3.org/2000/svg" viewBox="0 0 64 64">
  <defs>
    <style>
      .cls-1 {
        fill: #2d2d24;
      }

      .cls-2 {
        fill: #a7d28c;
      }

      .cls-3 {
        fill: #787878;
      }

      .cls-4 {
        fill: #6f6f59;
      }

      .cls-5 {
        fill: #d4ece6;
      }
    </style>
  </defs>
  <g>
    <circle class="cls-5" cx="35.4" cy="36.99" r="23.25"/>
    <path class="cls-3" d="M35.4,61.37c-13.44,0-24.38-10.94-24.38-24.38s10.94-24.38,24.38-24.38,24.38,10.94,24.38,24.38-10.94,24.38-24.38,24.38ZM35.4,14.87c-12.2,0-22.13,9.93-22.13,22.13s9.93,22.13,22.13,22.13,22.13-9.93,22.13-22.13-9.93-22.13-22.13-22.13Z"/>
  </g>
  <g>
    <g>
      <rect class="cls-2" x="5.92" y="6.36" width="20.15" height="19.93"/>
      <path class="cls-4" d="M26.08,27.42H5.92c-.62,0-1.13-.5-1.13-1.13V6.36c0-.62.5-1.13,1.13-1.13h20.15c.62,0,1.13.5,1.13,1.13v19.93c0,.62-.5,1.13-1.13,1.13ZM7.05,25.16h17.9V7.49H7.05v17.67Z"/>
    </g>
    <rect class="cls-2" x="6.7" y="7.14" width="18.04" height="18.38"/>
    <circle class="cls-4" cx="5.92" cy="6.36" r="3.09"/>
    <circle class="cls-4" cx="5.92" cy="26.29" r="3.09"/>
    <circle class="cls-4" cx="25.98" cy="26.29" r="3.09"/>
    <g>
      <rect class="cls-2" x="26.72" y="6.36" width="19.15" height="19.93"/>
      <path class="cls-4" d="M45.87,27.42h-19.15c-.62,0-1.13-.5-1.13-1.13V6.36c0-.62.5-1.13,1.13-1.13h19.15c.62,0,1.13.5,1.13,1.13v19.93c0,.62-.5,1.13-1.13,1.13ZM27.85,25.16h16.9V7.49h-16.9v17.67Z"/>
    </g>
    <rect class="cls-2" x="27.13" y="7.14" width="17.97" height="18.38"/>
    <circle class="cls-4" cx="25.94" cy="26.29" r="3.09"/>
    <circle class="cls-4" cx="46" cy="6.36" r="3.09"/>
    <circle class="cls-4" cx="46" cy="26.29" r="3.09"/>
    <g>
      <rect class="cls-2" x="26.08" y="26.29" width="19.93" height="19.93" transform="translate(72.08 72.51) rotate(180)"/>
      <path class="cls-4" d="M46,47.35h-19.93c-.62,0-1.13-.5-1.13-1.13v-19.93c0-.62.5-1.13,1.13-1.13h19.93c.62,0,1.13.5,1.13,1.13v19.93c0,.62-.5,1.13-1.13,1.13ZM27.2,45.09h17.67v-17.67h-17.67v17.67Z"/>
    </g>
    <rect class="cls-2" x="27.13" y="27.07" width="18.1" height="18.38" transform="translate(72.36 72.51) rotate(180)"/>
    <circle class="cls-1" cx="46" cy="46.22" r="3.09"/>
    <circle class="cls-1" cx="46" cy="26.29" r="3.09"/>
    <circle class="cls-4" cx="25.94" cy="46.22" r="3.09"/>
    <circle class="cls-4" cx="25.94" cy="26.29" r="3.09"/>
    <g>
      <rect class="cls-2" x="6.05" y="26.29" width="19.93" height="19.93" transform="translate(32.04 72.51) rotate(180)"/>
      <path class="cls-4" d="M25.98,47.35H6.05c-.62,0-1.13-.5-1.13-1.13v-19.93c0-.62.5-1.13,1.13-1.13h19.93c.62,0,1.13.5,1.13,1.13v19.93c0,.62-.5,1.13-1.13,1.13ZM7.18,45.09h17.67v-17.67H7.18v17.67Z"/>
    </g>
    <rect class="cls-2" x="6.83" y="27.07" width="17.91" height="18.38" transform="translate(31.57 72.51) rotate(180)"/>
    <circle class="cls-1" cx="25.98" cy="46.22" r="3.09"/>
    <circle class="cls-1" cx="25.98" cy="26.29" r="3.09"/>
    <circle class="cls-4" cx="5.92" cy="46.22" r="3.09"/>
    <circle class="cls-4" cx="5.92" cy="26.29" r="3.09"/>
    <circle class="cls-4" cx="25.96" cy="6.46" r="3.09"/>
  </g>
  <path class="cls-4" d="M35.4,61.37c-13.44,0-24.38-10.94-24.38-24.38s10.94-24.38,24.38-24.38,24.38,10.94,24.38,24.38-10.94,24.38-24.38,24.38ZM35.4,14.87c-12.2,0-22.13,9.93-22.13,22.13s9.93,22.13,22.13,22.13,22.13-9.93,22.13-22.13-9.93-22.13-22.13-22.13Z"/>
</svg>
