<svg id="Layer_1" data-name="Layer 1" xmlns="http://www.w3.org/2000/svg" viewBox="0 0 64 64"><title>SVG_Artboards</title><path d="M60.66,21.19,43.28,9.66v7.57H20.72V9.66L3.34,21.18,20.72,32.71V25.14H43.28v7.57Z" style="fill:#a7d28c"/><path d="M43.28,33.83a1.11,1.11,0,0,1-1.12-1.12V26.27H21.84v6.44a1.13,1.13,0,0,1-1.75.94L2.72,22.12a1.15,1.15,0,0,1-.5-.94,1.14,1.14,0,0,1,.5-.94L20.1,8.72a1.12,1.12,0,0,1,1.74.94V16.1H42.16V9.66a1.11,1.11,0,0,1,.59-1,1.12,1.12,0,0,1,1.16.05L61.28,20.25a1.13,1.13,0,0,1,0,1.88L43.91,33.65A1.18,1.18,0,0,1,43.28,33.83ZM20.72,24H43.28a1.14,1.14,0,0,1,1.13,1.13v5.47l14.21-9.42L44.41,11.76v5.47a1.13,1.13,0,0,1-1.13,1.12H20.72a1.13,1.13,0,0,1-1.13-1.12V11.76L5.38,21.18l14.21,9.43V25.14A1.14,1.14,0,0,1,20.72,24Z" style="fill:#6f6f59"/><path d="M3.34,58.18a1.13,1.13,0,0,1-1.12-1.13V35.49a1.13,1.13,0,0,1,2.25,0V57.05A1.13,1.13,0,0,1,3.34,58.18Z" style="fill:#6f6f59"/><path d="M60.66,58.18a1.13,1.13,0,0,1-1.13-1.13V35.49a1.13,1.13,0,0,1,2.25,0V57.05A1.13,1.13,0,0,1,60.66,58.18Z" style="fill:#6f6f59"/><path d="M22,54.33a1.13,1.13,0,0,1-1.12-1.13V39.34a1.13,1.13,0,0,1,2.25,0V53.2A1.14,1.14,0,0,1,22,54.33Z" style="fill:#6f6f59"/><path d="M41.35,54.33a1.14,1.14,0,0,1-1.13-1.13V39.34a1.13,1.13,0,0,1,2.26,0V53.2A1.14,1.14,0,0,1,41.35,54.33Z" style="fill:#6f6f59"/><path d="M60.25,47.4H4c-.62,0-.13-.51-.13-1.13s-.49-1.13.13-1.13H60.25a1.13,1.13,0,0,1,0,2.26Z" style="fill:#6f6f59"/><path d="M60.66,46.15s-5.75-8.07-13.21-8.07c-7.76,0-13,8.07-13,8.07s5.22,8.07,13,8.07C54.91,54.22,60.66,46.15,60.66,46.15Z" style="fill:#fff"/><path d="M47.45,55.35c-8.28,0-13.7-8.24-13.92-8.59a1.12,1.12,0,0,1,0-1.22c.22-.35,5.64-8.59,13.92-8.59,7.95,0,13.88,8.2,14.12,8.55a1.11,1.11,0,0,1,0,1.3C61.33,47.15,55.4,55.35,47.45,55.35Zm-11.59-9.2c1.36,1.8,5.75,6.94,11.59,6.94,5.58,0,10.27-5.1,11.78-6.94C57.72,44.31,53,39.2,47.45,39.2,41.61,39.2,37.22,44.35,35.86,46.15Z" style="fill:#231f20"/><circle cx="47.56" cy="46.15" r="7.47" style="fill:#231f20"/><circle cx="47.56" cy="46.15" r="4.39" style="fill:#231f20"/><g style="opacity:0.9"><circle cx="44.16" cy="42.6" r="3.07" style="fill:#fff"/></g></svg>
