<svg width="64" height="65" viewBox="0 0 64 65" fill="none" xmlns="http://www.w3.org/2000/svg">
<path d="M20.9785 37.1642L36.0096 48.0824V20.2802L20.9785 12.4027V37.1642Z" fill="#D1E9FC"/>
<path d="M36.0094 49.5193C35.7142 49.5193 35.4061 49.4295 35.1622 49.2499L20.1183 38.3446C19.746 38.0751 19.5278 37.6389 19.5278 37.1771V12.4027C19.5278 11.9023 19.7974 11.4276 20.221 11.171C20.6574 10.9144 21.1965 10.8888 21.6458 11.1325L36.6769 19.01C37.1518 19.2538 37.447 19.7542 37.447 20.293V48.0952C37.447 48.6341 37.139 49.1344 36.6512 49.3782C36.4458 49.4808 36.2148 49.5322 35.9965 49.5322L36.0094 49.5193ZM22.416 36.4329L34.5589 45.247V21.1526L22.416 14.8019V36.4329Z" fill="#787878"/>
<path d="M58.5497 39.5763L36.0095 48.0824V20.2802L58.5497 13.5317V39.5763Z" fill="#E7F4FF"/>
<path d="M36.0096 49.5195C35.7143 49.5195 35.4319 49.4297 35.1881 49.2629C34.803 48.9935 34.5591 48.5444 34.5591 48.0697V20.2803C34.5591 19.6388 34.9827 19.0743 35.586 18.8947L58.1262 12.1462C58.5626 12.0179 59.0375 12.0949 59.4098 12.3643C59.782 12.6338 59.9874 13.07 59.9874 13.519V39.5635C59.9874 40.1665 59.6152 40.7054 59.0504 40.9107L36.5102 49.404C36.3433 49.4682 36.1764 49.4938 35.9967 49.4938L36.0096 49.5195ZM37.46 21.358V45.9913L57.1121 38.5756V15.4692L37.46 21.3452V21.358Z" fill="#787878"/>
<path d="M40.9643 6.44971L58.5498 13.5318L36.0096 20.2802L20.9785 12.4027L40.9643 6.44971Z" fill="#B6D9F4"/>
<path d="M36.0093 21.7302C35.7783 21.7302 35.5472 21.6789 35.3419 21.5634L20.2979 13.6859C19.7845 13.4165 19.4764 12.8519 19.5278 12.2746C19.5791 11.6844 19.9899 11.1969 20.5547 11.0301L40.5533 5.06425C40.8614 4.97444 41.2079 4.98727 41.5032 5.11557L59.0886 12.1976C59.6534 12.4286 60.0257 12.9931 59.9872 13.6089C59.9615 14.2247 59.5507 14.7508 58.9603 14.9304L36.4201 21.6789C36.2789 21.7173 36.1505 21.743 36.0093 21.743V21.7302ZM24.7906 12.775L36.1505 18.728L54.1724 13.3267L40.887 7.97662L24.7906 12.775Z" fill="#787878"/>
<path d="M28.4502 38.434L26.3376 36.3214L6.83406 55.825L8.94665 57.9376L28.4502 38.434Z" fill="#787878"/>
<path d="M24.0591 33.9292C23.9853 33.9497 23.9611 34.0421 24.0152 34.0962L30.6771 40.7582C30.7311 40.8122 30.8232 40.7882 30.844 40.7147L33.4614 31.4715C33.4827 31.3964 33.4136 31.327 33.3384 31.3479L24.0591 33.9292Z" fill="#A7D28C"/>
<path fill-rule="evenodd" clip-rule="evenodd" d="M33.0705 30.3845C33.8975 30.1545 34.6576 30.9181 34.4237 31.744L31.8063 40.9872C31.5775 41.7953 30.564 42.0592 29.9701 41.4654L23.3082 34.8034C22.7127 34.2079 22.9799 33.1915 23.7912 32.9658L33.0705 30.3845ZM32.0628 32.7408L25.8126 34.4795L30.2998 38.9667L32.0628 32.7408Z" fill="#787878"/>
<path d="M14.1668 57.3904C14.2406 57.3699 14.265 57.2775 14.2108 57.2233L7.54892 50.5615C7.49494 50.5075 7.40281 50.5314 7.382 50.6049L4.76465 59.8429C4.74338 59.918 4.81244 59.9874 4.88761 59.9665L14.1668 57.3904Z" fill="#A7D28C"/>
<path fill-rule="evenodd" clip-rule="evenodd" d="M6.41984 50.3323C6.64877 49.5243 7.66217 49.2605 8.256 49.8543L14.9179 56.5162C15.5135 57.1118 15.246 58.1286 14.4343 58.3539L5.15509 60.93C4.32817 61.1596 3.56854 60.396 3.80249 59.5703L6.41984 50.3323ZM7.92609 52.3528L6.16334 58.5745L12.4128 56.8395L7.92609 52.3528Z" fill="#787878"/>
<path d="M26.2778 55.0433L28.4985 52.8225L8.99495 33.3189L6.7742 35.5397L26.2778 55.0433Z" fill="#787878"/>
<path d="M30.8437 50.6061C30.8232 50.5323 30.7308 50.5081 30.6766 50.5622L24.0147 57.2241C23.9607 57.2781 23.9847 57.3702 24.0582 57.391L33.3014 60.0084C33.3765 60.0297 33.4459 59.9606 33.425 59.8854L30.8437 50.6061Z" fill="#A7D28C"/>
<path fill-rule="evenodd" clip-rule="evenodd" d="M30.2933 52.3595L25.8061 56.8467L32.032 58.6097L30.2933 52.3595ZM29.9694 49.8551C30.5648 49.2596 31.5812 49.5268 31.8069 50.3381L34.3882 59.6174C34.6183 60.4444 33.8547 61.2044 33.0288 60.9706L23.7855 58.3532C22.9774 58.1244 22.7135 57.1109 23.3074 56.517L29.9694 49.8551Z" fill="#787878"/>
<path d="M7.38263 40.7135C7.40311 40.7873 7.49554 40.8116 7.54969 40.7574L14.2116 34.0956C14.2656 34.0416 14.2416 33.9494 14.1681 33.9286L4.93011 31.3113C4.85505 31.29 4.78562 31.3591 4.8065 31.4342L7.38263 40.7135Z" fill="#A7D28C"/>
<path fill-rule="evenodd" clip-rule="evenodd" d="M3.84288 31.7017C3.61331 30.8748 4.37693 30.1152 5.20265 30.3491L14.4407 32.9665C15.2487 33.1954 15.5125 34.2088 14.9186 34.8026L8.25674 41.4645C7.66109 42.0602 6.64436 41.7926 6.41901 40.9809L3.84288 31.7017ZM6.19844 32.71L7.93343 38.9594L12.4201 34.4727L6.19844 32.71Z" fill="#787878"/>
</svg>
