<svg id="Layer_1" data-name="Layer 1" xmlns="http://www.w3.org/2000/svg" viewBox="0 0 64 64"><path d="M10.84,54.67H4.09V52.09h6.75Z" style="fill:#787878"/><path d="M18.74,58.18a2.56,2.56,0,0,0,2-.93,4,4,0,0,0,.79-2.61V53.57a3.72,3.72,0,0,1-3,1.45,4.59,4.59,0,0,1-3.65-1.51,6.05,6.05,0,0,1-1.33-4.12,5.8,5.8,0,0,1,1.57-4.15,5.31,5.31,0,0,1,4-1.65,5.38,5.38,0,0,1,4.12,1.69A6.61,6.61,0,0,1,24.89,50v4.49a5.89,5.89,0,0,1-6.15,6.28A8.59,8.59,0,0,1,17,60.56,9.29,9.29,0,0,1,15.21,60l.56-2.42a8.14,8.14,0,0,0,1.41.44A8.19,8.19,0,0,0,18.74,58.18Zm.4-5.61a3,3,0,0,0,1.43-.33,2.77,2.77,0,0,0,1-.9v-2a3.94,3.94,0,0,0-.64-2.4,2.09,2.09,0,0,0-1.72-.83,1.86,1.86,0,0,0-1.63.94A4.08,4.08,0,0,0,17,49.39a4.25,4.25,0,0,0,.56,2.31A1.83,1.83,0,0,0,19.14,52.57Z" style="fill:#787878"/><path d="M38.51,54.47A6.54,6.54,0,0,1,37,59.08a5.29,5.29,0,0,1-4.08,1.67,5.34,5.34,0,0,1-4.11-1.67,6.5,6.5,0,0,1-1.55-4.61V49.88a6.55,6.55,0,0,1,1.54-4.61,5.29,5.29,0,0,1,4.1-1.68A5.3,5.3,0,0,1,37,45.27a6.51,6.51,0,0,1,1.55,4.61Zm-3.33-4.94a4.27,4.27,0,0,0-.61-2.48,2.08,2.08,0,0,0-3.41,0,4.35,4.35,0,0,0-.6,2.48v5.26a4.47,4.47,0,0,0,.61,2.52,2,2,0,0,0,1.72.87,1.93,1.93,0,0,0,1.69-.87,4.47,4.47,0,0,0,.6-2.52Z" style="fill:#787878"/><path d="M57.16,12.07a18.7,18.7,0,0,0-33.8,6.21h-5l7.8,10.22,7.76-10.23H28.8a13.49,13.49,0,1,1,8.68,17v5.41A18.71,18.71,0,0,0,57.16,12.07Z" style="fill:#a7d28c"/><path d="M41.68,42.31a19.85,19.85,0,0,1-4.45-.5,1.12,1.12,0,0,1-.88-1.09V35.31a1.13,1.13,0,0,1,1.47-1.07,12.36,12.36,0,1,0-3.09-22.05,12,12,0,0,0-4.27,5h3.47a1.13,1.13,0,0,1,.9,1.81L27.06,29.18a1.11,1.11,0,0,1-.89.44h0a1.11,1.11,0,0,1-.9-.44L17.48,19a1.12,1.12,0,0,1-.12-1.18,1.14,1.14,0,0,1,1-.63h4.11A19.84,19.84,0,0,1,58.1,11.44h0A19.84,19.84,0,0,1,52.63,39,19.59,19.59,0,0,1,41.68,42.31Zm-3.07-2.52a17.58,17.58,0,0,0,17.62-27.1h0a17.59,17.59,0,0,0-31.77,5.84,1.12,1.12,0,0,1-1.1.87H20.65l5.51,7.24,5.5-7.24H28.8a1.13,1.13,0,0,1-1.07-1.48,14.48,14.48,0,0,1,5.74-7.61A14.62,14.62,0,1,1,49.72,34.62a14.48,14.48,0,0,1-11.11,2.15Z" style="fill:#6f6f59"/></svg>
