<svg id="Layer_1" data-name="Layer 1" xmlns="http://www.w3.org/2000/svg" viewBox="0 0 64 64"><path d="M7.12,12.07a18.71,18.71,0,0,1,33.81,6.21h5L38.12,28.5,30.35,18.27h5.14a13.49,13.49,0,1,0-8.68,17v5.41A18.71,18.71,0,0,1,7.12,12.07Z" style="fill:#a7d28c"/><path d="M22.61,42.31a19.84,19.84,0,0,1-19.39-16A19.84,19.84,0,0,1,41.8,17.15h4.12a1.15,1.15,0,0,1,1,.63A1.12,1.12,0,0,1,46.81,19L39,29.18a1.14,1.14,0,0,1-.9.44h0a1.14,1.14,0,0,1-.9-.44L29.46,19a1.1,1.1,0,0,1-.11-1.18,1.11,1.11,0,0,1,1-.63h3.48a12.16,12.16,0,0,0-4.27-5,12.36,12.36,0,1,0-3.1,22.05,1.12,1.12,0,0,1,1.47,1.07v5.41a1.11,1.11,0,0,1-.87,1.09A20,20,0,0,1,22.61,42.31Zm.11-37.44A17.62,17.62,0,0,0,8.06,12.69h0A17.6,17.6,0,0,0,12.91,37.1a17.38,17.38,0,0,0,12.77,2.69v-3A14.63,14.63,0,1,1,36.56,17.92a1.13,1.13,0,0,1-.16,1,1.11,1.11,0,0,1-.91.47H32.63l5.49,7.24,5.52-7.24H40.92a1.12,1.12,0,0,1-1.09-.87A17.58,17.58,0,0,0,22.72,4.87Zm-15.6,7.2h0Z" style="fill:#6f6f59"/><path d="M29.64,51.16h4.1V54h-4.1v4.71H26.49V54H22.37V51.16h4.12V46.67h3.15Z" style="fill:#787878"/><path d="M40.52,58.1a2.53,2.53,0,0,0,2-.92,3.94,3.94,0,0,0,.78-2.6V53.51A3.58,3.58,0,0,1,42,54.59a3.65,3.65,0,0,1-1.64.37,4.56,4.56,0,0,1-3.63-1.51,6,6,0,0,1-1.32-4.09A5.71,5.71,0,0,1,37,45.23a5.25,5.25,0,0,1,4-1.65,5.38,5.38,0,0,1,4.09,1.69,6.59,6.59,0,0,1,1.58,4.67v4.47A6.07,6.07,0,0,1,44.91,59a6,6,0,0,1-4.39,1.69,8.49,8.49,0,0,1-1.78-.19A9.42,9.42,0,0,1,37,59.94l.56-2.41A7.27,7.27,0,0,0,39,58,8.08,8.08,0,0,0,40.52,58.1Zm.4-5.58a3,3,0,0,0,1.42-.33,2.63,2.63,0,0,0,1-.89V49.36A3.86,3.86,0,0,0,42.69,47,2,2,0,0,0,41,46.15a1.87,1.87,0,0,0-1.62.93,4,4,0,0,0-.62,2.28,4.17,4.17,0,0,0,.56,2.29A1.8,1.8,0,0,0,40.92,52.52Z" style="fill:#787878"/><path d="M60.19,54.41A6.5,6.5,0,0,1,58.66,59a5.26,5.26,0,0,1-4.06,1.67A5.32,5.32,0,0,1,50.5,59,6.5,6.5,0,0,1,49,54.41V49.84a6.53,6.53,0,0,1,1.53-4.58,5.78,5.78,0,0,1,8.15,0,6.49,6.49,0,0,1,1.54,4.58ZM56.88,49.5A4.33,4.33,0,0,0,56.27,47a2,2,0,0,0-1.7-.88,1.92,1.92,0,0,0-1.69.88,4.33,4.33,0,0,0-.6,2.47v5.23a4.29,4.29,0,0,0,.61,2.5,2,2,0,0,0,1.71.87,1.93,1.93,0,0,0,1.68-.87,4.38,4.38,0,0,0,.6-2.5Z" style="fill:#787878"/></svg>
