<svg id="Layer_1" data-name="Layer 1" xmlns="http://www.w3.org/2000/svg" viewBox="0 0 64 64"><rect x="22.11" y="1.32" width="19.34" height="61.44" transform="translate(31.6 77.18) rotate(-135)" style="fill:#f3c017"/><path d="M16.9,61.73a1.14,1.14,0,0,1-.8-.33L2.43,47.73a1.13,1.13,0,0,1,0-1.6L45.87,2.69a1.16,1.16,0,0,1,1.59,0L61.14,16.36a1.13,1.13,0,0,1,0,1.6L17.69,61.4A1.11,1.11,0,0,1,16.9,61.73ZM4.82,46.93,16.9,59,58.75,17.16,46.67,5.08Z" style="fill:#6f6f59"/><line x1="48.23" y1="12.95" x2="42.71" y2="7.44" style="fill:#f3c017"/><path d="M48.23,14.08a1.13,1.13,0,0,1-.8-.33L41.92,8.24a1.13,1.13,0,0,1,0-1.6,1.12,1.12,0,0,1,1.59,0L49,12.16a1.12,1.12,0,0,1,0,1.59A1.11,1.11,0,0,1,48.23,14.08Z" style="fill:#6f6f59"/><line x1="12.88" y1="48.3" x2="7.37" y2="42.79" style="fill:#f3c017"/><path d="M12.88,49.43a1.13,1.13,0,0,1-.8-.33L6.57,43.59a1.13,1.13,0,0,1,0-1.6,1.12,1.12,0,0,1,1.59,0l5.52,5.52a1.13,1.13,0,0,1-.8,1.92Z" style="fill:#6f6f59"/><line x1="43.18" y1="18" x2="37.66" y2="12.49" style="fill:#f3c017"/><path d="M43.18,19.13a1.13,1.13,0,0,1-.8-.33l-5.51-5.51a1.13,1.13,0,0,1,0-1.6,1.12,1.12,0,0,1,1.59,0L44,17.21a1.12,1.12,0,0,1,0,1.59A1.11,1.11,0,0,1,43.18,19.13Z" style="fill:#6f6f59"/><line x1="41.22" y1="26.15" x2="32.61" y2="17.54" style="fill:#f3c017"/><path d="M41.22,27.27a1.13,1.13,0,0,1-.8-.33l-8.6-8.6a1.13,1.13,0,0,1,0-1.6,1.12,1.12,0,0,1,1.59,0L42,25.35a1.13,1.13,0,0,1-.8,1.92Z" style="fill:#6f6f59"/><line x1="33.08" y1="28.1" x2="27.56" y2="22.59" style="fill:#f3c017"/><path d="M33.08,29.23a1.13,1.13,0,0,1-.8-.33l-5.51-5.51a1.13,1.13,0,0,1,0-1.6,1.12,1.12,0,0,1,1.59,0l5.52,5.52a1.13,1.13,0,0,1-.8,1.92Z" style="fill:#6f6f59"/><line x1="26.07" y1="41.3" x2="17.46" y2="32.69" style="fill:#f3c017"/><path d="M26.07,42.42a1.13,1.13,0,0,1-.8-.33l-8.6-8.6a1.13,1.13,0,0,1,0-1.6,1.12,1.12,0,0,1,1.59,0l8.61,8.61a1.13,1.13,0,0,1-.8,1.92Z" style="fill:#6f6f59"/><line x1="17.93" y1="43.25" x2="12.41" y2="37.74" style="fill:#f3c017"/><path d="M17.93,44.38a1.13,1.13,0,0,1-.8-.33l-5.51-5.51a1.13,1.13,0,0,1,0-1.6,1.12,1.12,0,0,1,1.59,0l5.52,5.52a1.13,1.13,0,0,1-.8,1.92Z" style="fill:#6f6f59"/><line x1="28.03" y1="33.15" x2="22.51" y2="27.64" style="fill:#f3c017"/><path d="M28,34.28a1.13,1.13,0,0,1-.8-.33l-5.51-5.51a1.13,1.13,0,0,1,0-1.6,1.12,1.12,0,0,1,1.59,0l5.52,5.52a1.14,1.14,0,0,1,0,1.59A1.13,1.13,0,0,1,28,34.28Z" style="fill:#6f6f59"/></svg>
