<svg id="Layer_1" data-name="Layer 1" xmlns="http://www.w3.org/2000/svg" viewBox="0 0 64 64"><title>SVG_Artboards</title><polygon points="59.19 57.04 48.58 51.52 48.58 35.73 59.19 30.21 59.19 57.04" style="fill:#cdcece"/><path d="M59.19,58.17a1.06,1.06,0,0,1-.52-.13L48.06,52.52a1.12,1.12,0,0,1-.6-1V35.72a1.11,1.11,0,0,1,.6-1l10.61-5.52a1.11,1.11,0,0,1,1.1,0,1.14,1.14,0,0,1,.55,1V57a1.14,1.14,0,0,1-.55,1A1.18,1.18,0,0,1,59.19,58.17Zm-9.48-7.33,8.35,4.35V32.06l-8.35,4.35Z" style="fill:#787878"/><path d="M42.31,27.56h-35a2.72,2.72,0,0,0-2.72,2.72V56.86a2.72,2.72,0,0,0,2.72,2.72h35A2.72,2.72,0,0,0,45,56.86V30.28A2.72,2.72,0,0,0,42.31,27.56ZM37.8,49.71a3.75,3.75,0,0,1-3.75,3.75H18.27a3.75,3.75,0,0,1-3.75-3.75v-11A3.74,3.74,0,0,1,18.27,35H34.05a3.74,3.74,0,0,1,3.75,3.74Z" style="fill:#cdcece"/><path d="M42.31,60.71h-35a3.86,3.86,0,0,1-3.85-3.85V30.28a3.85,3.85,0,0,1,3.85-3.84h35a3.84,3.84,0,0,1,3.85,3.84V56.86A3.85,3.85,0,0,1,42.31,60.71Zm-35-32a1.59,1.59,0,0,0-1.59,1.59V56.86a1.59,1.59,0,0,0,1.59,1.59h35a1.6,1.6,0,0,0,1.6-1.59V30.28a1.6,1.6,0,0,0-1.6-1.59ZM34.05,54.58H18.27a4.88,4.88,0,0,1-4.88-4.87v-11a4.88,4.88,0,0,1,4.88-4.87H34.05a4.88,4.88,0,0,1,4.87,4.87v11A4.87,4.87,0,0,1,34.05,54.58ZM18.27,36.14a2.62,2.62,0,0,0-2.62,2.62v11a2.62,2.62,0,0,0,2.62,2.62H34.05a2.62,2.62,0,0,0,2.62-2.62v-11a2.62,2.62,0,0,0-2.62-2.62Z" style="fill:#787878"/><path d="M9.2,23.85h5.6l1.1-1.5a2.21,2.21,0,0,1,1.78-.87h7.05v2.37h4.76V21.48s.23-4.35-4.9-4.35H17.85A8.18,8.18,0,0,0,11.58,20l-.07.08C9.2,22.8,9.2,23.85,9.2,23.85Z" style="fill:#cdcece"/><path d="M29.49,25H24.73a1.14,1.14,0,0,1-1.13-1.13V22.6H17.68a1.08,1.08,0,0,0-.87.42l-1.1,1.5a1.14,1.14,0,0,1-.91.46H9.2a1.14,1.14,0,0,1-1.13-1.13c0-.44.25-1.76,2.57-4.54l.08-.1A9.28,9.28,0,0,1,17.85,16h6.74a6,6,0,0,1,4.59,1.7,5.56,5.56,0,0,1,1.43,3.84v2.31A1.14,1.14,0,0,1,29.49,25Zm-3.63-2.26h2.5V21.48a3.32,3.32,0,0,0-.83-2.24,3.88,3.88,0,0,0-2.94-1H17.85a7.05,7.05,0,0,0-5.41,2.42,19.44,19.44,0,0,0-1.52,2h3.31l.77-1a3.32,3.32,0,0,1,2.68-1.33h7.05a1.14,1.14,0,0,1,1.13,1.13Z" style="fill:#787878"/><polygon points="56.86 16.08 44.95 34.06 33.01 16.08 39.35 16.08 39.35 3.42 50.53 3.42 50.53 16.08 56.86 16.08" style="fill:#a7d28c"/><path d="M45,35.19a1.14,1.14,0,0,1-.94-.5l-11.94-18a1.12,1.12,0,0,1,0-1.16A1.14,1.14,0,0,1,33,15h5.21V3.42A1.12,1.12,0,0,1,39.35,2.3H50.53a1.13,1.13,0,0,1,1.13,1.12V15h5.2a1.12,1.12,0,0,1,.94,1.75l-11.92,18a1.12,1.12,0,0,1-.93.5Zm-9.84-18L44.94,32l9.82-14.81H50.53a1.13,1.13,0,0,1-1.13-1.13V4.55H40.47V16.08a1.12,1.12,0,0,1-1.12,1.13Z" style="fill:#6f6f59"/><circle cx="10" cy="33.23" r="2.33" style="fill:#de4130"/></svg>
