<svg id="Layer_1" data-name="Layer 1" xmlns="http://www.w3.org/2000/svg" viewBox="0 0 64 64"><title>SVG_Artboards</title><path d="M26.75,16.24H44.32c3.27,0,4.83,1.57,4.83,4.86V54.22c0,3.22-1.57,4.81-4.78,4.81H9.13c-3.2,0-4.77-1.58-4.77-4.81V21c0-3.16,1.59-4.76,4.72-4.76ZM45.07,31.73H24.44V54.94H45.07Zm-36.62,0V54.94H20.26V31.71Zm0-4.16H45.07V20.37H8.44Z" style="fill:#6f6f59"/><path d="M45.07,31.73V54.94H24.44V31.73Z" style="fill:#d0e5f6"/><path d="M8.45,31.71H20.26V54.94H8.45Z" style="fill:#d0e5f6"/><path d="M8.44,27.55V20.37H45.07v7.18Z" style="fill:#d0e5f6"/><polygon points="59.85 17.44 47.93 35.42 36 17.44 42.33 17.44 42.33 4.78 53.52 4.78 53.52 17.44 59.85 17.44" style="fill:#a7d28c"/><path d="M47.93,36.54A1.12,1.12,0,0,1,47,36l-11.94-18A1.13,1.13,0,0,1,36,16.31h5.21V4.77a1.12,1.12,0,0,1,1.12-1.12H53.52a1.12,1.12,0,0,1,1.12,1.12V16.31h5.21a1.13,1.13,0,0,1,.94,1.75L48.87,36a1.14,1.14,0,0,1-.94.5Zm-9.83-18,9.83,14.82,9.82-14.82H53.52a1.13,1.13,0,0,1-1.13-1.12V5.9H43.46V17.44a1.12,1.12,0,0,1-1.13,1.12Z" style="fill:#6f6f59"/></svg>
