<svg id="Layer_1" data-name="Layer 1" xmlns="http://www.w3.org/2000/svg" viewBox="0 0 64 64"><title>SVG_Artboards</title><path d="M56.4,37.88H7.94a3.3,3.3,0,0,0-3.3,3.3V55.73A3.31,3.31,0,0,0,7.94,59H56.4a3.31,3.31,0,0,0,3.31-3.31V41.18A3.31,3.31,0,0,0,56.4,37.88Zm-43,13.2A2.62,2.62,0,1,1,16,48.46,2.62,2.62,0,0,1,13.4,51.08Z" style="fill:#cdcece"/><path d="M56.4,60.16H7.94a4.43,4.43,0,0,1-4.43-4.43V41.18a4.44,4.44,0,0,1,4.43-4.43H56.4a4.43,4.43,0,0,1,4.43,4.43V55.73A4.43,4.43,0,0,1,56.4,60.16ZM7.94,39a2.18,2.18,0,0,0-2.17,2.18V55.73a2.18,2.18,0,0,0,2.17,2.18H56.4a2.19,2.19,0,0,0,2.18-2.18V41.18A2.19,2.19,0,0,0,56.4,39ZM13.4,52.2a3.75,3.75,0,1,1,3.75-3.74A3.76,3.76,0,0,1,13.4,52.2Zm0-5.24a1.5,1.5,0,1,0,1.49,1.5A1.5,1.5,0,0,0,13.4,47Z" style="fill:#787878"/><polygon points="49.27 21.57 32.18 47.35 15.08 21.57 24.16 21.57 24.16 3.42 40.19 3.42 40.19 21.57 49.27 21.57" style="fill:#a7d28c"/><path d="M32.18,48.48a1.1,1.1,0,0,1-.93-.51L14.14,22.2a1.12,1.12,0,0,1,.94-1.75h8v-17A1.12,1.12,0,0,1,24.16,2.3h16a1.13,1.13,0,0,1,1.13,1.12v17h8a1.13,1.13,0,0,1,.94,1.75L33.12,48a1.12,1.12,0,0,1-.94.51Zm-15-25.78,15,22.61,15-22.61h-7a1.13,1.13,0,0,1-1.13-1.13v-17H25.28v17a1.12,1.12,0,0,1-1.12,1.13Z" style="fill:#6f6f59"/></svg>
