<svg id="Layer_1" data-name="Layer 1" xmlns="http://www.w3.org/2000/svg" viewBox="0 0 64 64"><title>SVG_Artboards</title><path d="M27.62,15.09l-2-5.4H11.4l-2,5.4H5.47a1.4,1.4,0,0,0-1.4,1.39V53.67H51.16V15.09Z" style="fill:#f0bc5e"/><path d="M52.29,54.8H3V16.48A2.52,2.52,0,0,1,5.47,14H8.62l2-5.4H26.4l2,5.4H52.29ZM5.2,52.54H50V16.21H26.83l-2-5.4H12.19l-2,5.4H5.47a.27.27,0,0,0-.27.27Z" style="fill:#6f6f59"/><path d="M14.35,22.92H58.61a.82.82,0,0,1,.82.82V53.67a0,0,0,0,1,0,0H13.54a0,0,0,0,1,0,0V23.73A.82.82,0,0,1,14.35,22.92Z" style="fill:#f3d86a"/><path d="M60.55,54.8H12.41V23.73a1.94,1.94,0,0,1,1.94-1.94H58.61a1.94,1.94,0,0,1,1.94,1.94ZM14.66,52.54H58.3V24H14.66Z" style="fill:#6f6f59"/><polygon points="59.47 18.45 46.31 38.29 33.15 18.45 40.14 18.45 40.14 4.48 52.48 4.48 52.48 18.45 59.47 18.45" style="fill:#a7d28c"/><path d="M46.31,39.42a1.12,1.12,0,0,1-.93-.5L32.21,19.08a1.15,1.15,0,0,1-.06-1.16,1.12,1.12,0,0,1,1-.59H39V4.48a1.13,1.13,0,0,1,1.13-1.13H52.48A1.13,1.13,0,0,1,53.6,4.48V17.33h5.87a1.13,1.13,0,0,1,.94,1.75L47.25,38.92a1.12,1.12,0,0,1-.93.5ZM35.25,19.58,46.31,36.25,57.37,19.58H52.48a1.13,1.13,0,0,1-1.13-1.13V5.61H41.26V18.45a1.13,1.13,0,0,1-1.12,1.13Z" style="fill:#6f6f59"/><polygon points="30.06 44.71 21.49 44.71 21.49 36.14 12.64 36.14 12.64 44.71 4.07 44.71 4.07 53.55 12.64 53.55 12.64 62.12 21.49 62.12 21.49 53.55 30.06 53.55 30.06 44.71" style="fill:#2896d3"/><path d="M21.49,63.25H12.64a1.12,1.12,0,0,1-1.12-1.13V54.68H4.07A1.12,1.12,0,0,1,3,53.55V44.71a1.13,1.13,0,0,1,1.12-1.13h7.45V36.14A1.13,1.13,0,0,1,12.64,35h8.85a1.14,1.14,0,0,1,1.13,1.13v7.44h7.44a1.14,1.14,0,0,1,1.13,1.13v8.84a1.13,1.13,0,0,1-1.13,1.13H22.62v7.44A1.13,1.13,0,0,1,21.49,63.25ZM13.77,61h6.59V53.55a1.13,1.13,0,0,1,1.13-1.12h7.44V45.84H21.49a1.14,1.14,0,0,1-1.13-1.13V37.27H13.77v7.44a1.13,1.13,0,0,1-1.13,1.13H5.2v6.59h7.44a1.12,1.12,0,0,1,1.13,1.12Z" style="fill:#6f6f59"/></svg>
