<svg id="Layer_1" data-name="Layer 1" xmlns="http://www.w3.org/2000/svg" viewBox="0 0 64 64"><title>SVG_Artboards</title><rect x="17.52" y="7.45" width="28.97" height="49.1" style="fill:#a7d28c;stroke:#6f6f59;stroke-linecap:round;stroke-linejoin:round;stroke-width:2.2536px"/><rect x="18.62" y="52.47" width="26.71" height="2.96" style="fill:#603c89"/><rect x="18.62" y="49.51" width="26.71" height="2.96" style="fill:#46449b"/><rect x="18.62" y="46.62" width="26.71" height="2.96" style="fill:#2a5aa8"/><rect x="18.62" y="43.66" width="26.71" height="2.96" style="fill:#0c71b8"/><rect x="18.62" y="40.68" width="26.71" height="2.96" style="fill:#0d7fc2"/><rect x="18.62" y="37.72" width="26.71" height="2.96" style="fill:#198ece"/><rect x="18.62" y="34.82" width="26.71" height="2.96" style="fill:#25a1db"/><rect x="18.62" y="31.86" width="26.71" height="2.96" style="fill:#12b2d2"/><rect x="18.62" y="28.85" width="26.71" height="2.96" style="fill:#4bb88e"/><rect x="18.62" y="25.95" width="26.71" height="2.96" style="fill:#98c37e"/><rect x="18.62" y="22.99" width="26.71" height="2.96" style="fill:#a4c661"/><rect x="18.62" y="20.09" width="26.71" height="2.96" style="fill:#c6c835"/><rect x="18.62" y="17.13" width="26.71" height="2.96" style="fill:#e8c61d"/><rect x="18.62" y="14.15" width="26.71" height="2.96" style="fill:#e2ae27"/><rect x="18.62" y="11.19" width="26.71" height="2.96" style="fill:#dc9a2a"/><rect x="18.62" y="8.3" width="26.71" height="2.96" style="fill:#c58338"/></svg>
