<svg id="Layer_1" data-name="Layer 1" xmlns="http://www.w3.org/2000/svg" viewBox="0 0 64 64"><title>SVG_Artboards</title><path d="M38.23,46.79l-3.51-2.66a13.58,13.58,0,0,0,.12-1.69,13.83,13.83,0,0,0-.14-1.83l3.48-2.71a1.29,1.29,0,0,0,.33-1.66L35.18,30.5a1.27,1.27,0,0,0-1.6-.54L29.5,31.63a13.42,13.42,0,0,0-3.12-1.8l-.59-4.36a1.28,1.28,0,0,0-1.28-1.11H17.88a1.28,1.28,0,0,0-1.28,1.11L16,29.83a13.61,13.61,0,0,0-3.24,1.89L8.68,30.09a1.3,1.3,0,0,0-1.6.57L3.82,36.44a1.28,1.28,0,0,0,.34,1.65l3.51,2.67a13.28,13.28,0,0,0-.12,1.68,13.7,13.7,0,0,0,.14,1.83L4.21,47a1.29,1.29,0,0,0-.33,1.66l3.33,5.75a1.3,1.3,0,0,0,1.61.54l4.08-1.68A13.6,13.6,0,0,0,16,55.06l.59,4.36a1.29,1.29,0,0,0,1.28,1.11h6.63a1.29,1.29,0,0,0,1.28-1.11l.59-4.36a13.65,13.65,0,0,0,3.24-1.9l4.09,1.63a1.29,1.29,0,0,0,1.6-.56l3.27-5.78A1.29,1.29,0,0,0,38.23,46.79ZM27.29,42.44a6.1,6.1,0,1,1-6.09-6.09A6.1,6.1,0,0,1,27.29,42.44Z" style="fill:#cdcece"/><path d="M24.51,61.66H17.88a2.42,2.42,0,0,1-2.39-2.09L15,55.84a15.71,15.71,0,0,1-2.24-1.3L9.25,56a2.42,2.42,0,0,1-3-1L2.91,49.21a2.43,2.43,0,0,1,.61-3.12l3-2.31a12.68,12.68,0,0,1-.07-1.34c0-.37,0-.75.05-1.17L3.48,39a2.41,2.41,0,0,1-.64-3.11L6.1,30.1a2.43,2.43,0,0,1,3-1.05l3.5,1.39A15.39,15.39,0,0,1,15,29.05l.51-3.73a2.42,2.42,0,0,1,2.39-2.09h6.63a2.43,2.43,0,0,1,2.4,2.09l.51,3.73a14.72,14.72,0,0,1,2.23,1.3l3.5-1.44a2.42,2.42,0,0,1,3,1l3.33,5.74a2.4,2.4,0,0,1-.6,3.11l-3,2.32c0,.48.07.91.07,1.33s0,.76-.06,1.17l3,2.29h0A2.43,2.43,0,0,1,39.56,49l-3.27,5.77a2.42,2.42,0,0,1-3,1.06l-3.51-1.4a15.36,15.36,0,0,1-2.37,1.4l-.51,3.73A2.43,2.43,0,0,1,24.51,61.66ZM12.9,52.13a1.14,1.14,0,0,1,.68.23A12.52,12.52,0,0,0,16.44,54a1.14,1.14,0,0,1,.69.89l.59,4.35a.16.16,0,0,0,.16.14h6.63a.16.16,0,0,0,.16-.14l.6-4.35A1.1,1.1,0,0,1,26,54a12.85,12.85,0,0,0,3-1.74A1.13,1.13,0,0,1,30,52.12l4.09,1.63a.16.16,0,0,0,.2-.08L37.6,47.9a.17.17,0,0,0-.05-.21L34,45a1.11,1.11,0,0,1-.43-1,12.91,12.91,0,0,0,.1-1.55,13.63,13.63,0,0,0-.12-1.68,1.11,1.11,0,0,1,.42-1L37.49,37a.16.16,0,0,0,0-.21l-3.32-5.74A.16.16,0,0,0,34,31l-4.09,1.67a1.11,1.11,0,0,1-1.11-.14A12.25,12.25,0,0,0,26,30.87a1.1,1.1,0,0,1-.69-.89l-.6-4.36a.16.16,0,0,0-.16-.14H17.88a.16.16,0,0,0-.16.14L17.13,30a1.14,1.14,0,0,1-.69.89,12.56,12.56,0,0,0-3,1.74,1.11,1.11,0,0,1-1.11.16l-4.1-1.63a.16.16,0,0,0-.2.07L4.8,37a.17.17,0,0,0,0,.21l3.51,2.66a1.14,1.14,0,0,1,.44,1,11,11,0,0,0-.11,1.54,12.09,12.09,0,0,0,.13,1.69,1.12,1.12,0,0,1-.43,1L4.9,47.87a.17.17,0,0,0,0,.21l3.33,5.74a.16.16,0,0,0,.2.07l4.08-1.68A1.26,1.26,0,0,1,12.9,52.13Zm8.3-2.46a7.23,7.23,0,1,1,7.22-7.23A7.23,7.23,0,0,1,21.2,49.67Zm0-12.2a5,5,0,1,0,5,5A5,5,0,0,0,21.2,37.47Z" style="fill:#787878"/><path d="M59.64,19.32l-2.35-1.79a10.36,10.36,0,0,0,.07-1.12,8.28,8.28,0,0,0-.09-1.23l2.34-1.82a.85.85,0,0,0,.21-1.11L57.59,8.4A.85.85,0,0,0,56.52,8L53.78,9.16A9,9,0,0,0,51.69,8L51.3,5a.87.87,0,0,0-.86-.74H46a.87.87,0,0,0-.86.74L44.73,8a8.83,8.83,0,0,0-2.16,1.27l-2.75-1.1a.88.88,0,0,0-1.07.38l-2.19,3.88a.86.86,0,0,0,.23,1.11l2.35,1.79a10.39,10.39,0,0,0-.07,1.13,8.25,8.25,0,0,0,.09,1.22l-2.34,1.82a.88.88,0,0,0-.22,1.12l2.24,3.85a.85.85,0,0,0,1.07.36l2.74-1.12a9,9,0,0,0,2.08,1.21l.4,2.92a.87.87,0,0,0,.86.75h4.45a.87.87,0,0,0,.86-.75l.39-2.92a9.25,9.25,0,0,0,2.17-1.28l2.75,1.1a.86.86,0,0,0,1.07-.38l2.19-3.87A.88.88,0,0,0,59.64,19.32ZM52.3,16.41a4.09,4.09,0,1,1-4.09-4.09A4.09,4.09,0,0,1,52.3,16.41Z" style="fill:#cdcece"/><path d="M50.44,29.66H46a2,2,0,0,1-2-1.72l-.32-2.3a12.09,12.09,0,0,1-1.2-.7l-2.16.88A2,2,0,0,1,37.86,25l-2.23-3.85a2,2,0,0,1,.5-2.57L38,17.13q0-.37,0-.72c0-.2,0-.4,0-.62l-1.85-1.4a2,2,0,0,1-.53-2.57L37.77,8a2,2,0,0,1,2.47-.87l2.16.86a10,10,0,0,1,1.3-.76L44,4.87a2,2,0,0,1,2-1.72h4.45a2,2,0,0,1,2,1.72l.32,2.31a9.13,9.13,0,0,1,1.2.7L56.09,7a2,2,0,0,1,2.48.84l2.23,3.85a2,2,0,0,1-.5,2.57l-1.84,1.43c0,.25,0,.49,0,.73s0,.4,0,.61l1.85,1.41h0A2,2,0,0,1,60.85,21l-2.19,3.88a2,2,0,0,1-2.47.87L54,24.87a10.09,10.09,0,0,1-1.3.77l-.32,2.3A2,2,0,0,1,50.44,29.66Zm-4.22-2.25h4l.37-2.7a1.14,1.14,0,0,1,.68-.89,7.8,7.8,0,0,0,1.91-1.11,1.11,1.11,0,0,1,1.11-.16l2.53,1,2-3.48L56.6,18.43a1.14,1.14,0,0,1-.43-1,9.55,9.55,0,0,0,.07-1,7.35,7.35,0,0,0-.09-1.08,1.13,1.13,0,0,1,.43-1l2.15-1.68-2-3.45-2.52,1a1.16,1.16,0,0,1-1.12-.15A8,8,0,0,0,51.27,9a1.1,1.1,0,0,1-.69-.89l-.37-2.7h-4l-.37,2.7a1.11,1.11,0,0,1-.69.89,7.93,7.93,0,0,0-1.9,1.11,1.11,1.11,0,0,1-1.11.16l-2.53-1-2,3.47,2.17,1.65a1.13,1.13,0,0,1,.44,1,7.29,7.29,0,0,0-.07,1,8.86,8.86,0,0,0,.08,1.07,1.09,1.09,0,0,1-.42,1L37.69,20.2l2,3.45,2.52-1a1.16,1.16,0,0,1,1.12.15,7.79,7.79,0,0,0,1.82,1.06,1.13,1.13,0,0,1,.69.89Zm2-5.79a5.22,5.22,0,1,1,5.22-5.21A5.22,5.22,0,0,1,48.21,21.62Zm0-8.18a3,3,0,1,0,3,3A3,3,0,0,0,48.21,13.44Z" style="fill:#787878"/></svg>
