<svg id="Layer_1" data-name="Layer 1" xmlns="http://www.w3.org/2000/svg" viewBox="0 0 64 64"><title>SVG_Artboards</title><path d="M45.05,60.15h-8.7V57.89h8.7Zm-17.4,0H19V57.89h8.7Z" style="fill:#787878"/><path d="M10.25,60.15H4.85A1.14,1.14,0,0,1,3.72,59v-5.4H6v4.27h4.27Z" style="fill:#787878"/><path d="M6,44.92H3.72v-8.7H6Zm0-17.4H3.72v-8.7H6Z" style="fill:#787878"/><path d="M6,10.12H3.72V4.72A1.14,1.14,0,0,1,4.85,3.59h5.4V5.85H6Z" style="fill:#787878"/><path d="M45.05,5.85h-8.7V3.59h8.7Zm-17.4,0H19V3.59h8.7Z" style="fill:#787878"/><path d="M60.28,10.12H58V5.85H53.75V3.59h5.4a1.14,1.14,0,0,1,1.13,1.13Z" style="fill:#787878"/><path d="M60.28,44.92H58v-8.7h2.26Zm0-17.4H58v-8.7h2.26Z" style="fill:#787878"/><polygon points="42.23 52.61 39.49 39.09 53.02 41.82 50.16 44.69 59.41 53.94 54.34 59 45.09 49.75 42.23 52.61" style="fill:#a7d28c"/><path d="M54.34,60.12a1.09,1.09,0,0,1-.79-.33L45.1,51.34,43,53.41a1.15,1.15,0,0,1-1.13.28,1.11,1.11,0,0,1-.77-.85L38.38,39.31A1.13,1.13,0,0,1,39.71,38l13.54,2.74a1.12,1.12,0,0,1,.85.78,1.14,1.14,0,0,1-.28,1.12l-2.07,2.07,8.45,8.45a1.12,1.12,0,0,1,0,1.59l-5.06,5.06A1.09,1.09,0,0,1,54.34,60.12ZM45.1,48.62a1.13,1.13,0,0,1,.79.33l8.45,8.45,3.47-3.46-8.45-8.46a1.12,1.12,0,0,1,0-1.59l1.38-1.38-9.81-2,2,9.8L44.3,49A1.14,1.14,0,0,1,45.1,48.62Z" style="fill:#6f6f59"/></svg>
