<svg id="Layer_1" data-name="Layer 1" xmlns="http://www.w3.org/2000/svg" viewBox="0 0 64 64"><title>SVG_Artboards</title><rect x="17.52" y="15.45" width="28.97" height="49.1" transform="translate(72 8) rotate(90)" style="fill:#a7d28c"/><path d="M56.55,55.61H7.45a1.14,1.14,0,0,1-1.13-1.13v-29a1.14,1.14,0,0,1,1.13-1.13h49.1a1.14,1.14,0,0,1,1.13,1.13v29A1.14,1.14,0,0,1,56.55,55.61Zm-48-2.25H55.42V26.64H8.58Z" style="fill:#6f6f59"/><rect x="8.56" y="26.62" width="2.96" height="26.71" style="fill:#603c89"/><rect x="11.52" y="26.62" width="2.96" height="26.71" style="fill:#46449b"/><rect x="14.42" y="26.62" width="2.96" height="26.71" style="fill:#2a5aa8"/><rect x="17.38" y="26.62" width="2.96" height="26.71" style="fill:#0c71b8"/><rect x="20.36" y="26.62" width="2.96" height="26.71" style="fill:#0d7fc2"/><rect x="23.32" y="26.62" width="2.96" height="26.71" style="fill:#198ece"/><rect x="26.22" y="26.62" width="2.96" height="26.71" style="fill:#25a1db"/><rect x="29.18" y="26.62" width="2.96" height="26.71" style="fill:#12b2d2"/><rect x="32.19" y="26.62" width="2.96" height="26.71" style="fill:#4bb88e"/><rect x="23.21" y="38.49" width="26.71" height="2.96" transform="translate(76.54 3.41) rotate(90)" style="fill:#98c37e"/><rect x="26.17" y="38.49" width="26.71" height="2.96" transform="translate(79.5 0.45) rotate(90)" style="fill:#a4c661"/><rect x="29.07" y="38.49" width="26.71" height="2.96" transform="translate(82.4 -2.45) rotate(90)" style="fill:#c6c835"/><rect x="32.03" y="38.49" width="26.71" height="2.96" transform="translate(85.36 -5.41) rotate(90)" style="fill:#e8c61d"/><rect x="35.01" y="38.49" width="26.71" height="2.96" transform="translate(88.34 -8.39) rotate(90)" style="fill:#e2ae27"/><rect x="37.97" y="38.49" width="26.71" height="2.96" transform="translate(91.3 -11.35) rotate(90)" style="fill:#dc9a2a"/><rect x="40.87" y="38.49" width="26.71" height="2.96" transform="translate(94.2 -14.25) rotate(90)" style="fill:#c58338"/><line x1="23.49" y1="34.89" x2="23.49" y2="46.71" style="fill:none;stroke:#6f6f59;stroke-linecap:round;stroke-linejoin:round;stroke-width:2.2536px"/><line x1="39.95" y1="34.89" x2="39.95" y2="46.71" style="fill:none;stroke:#6f6f59;stroke-linecap:round;stroke-linejoin:round;stroke-width:2.2536px"/><line x1="56.07" y1="40.8" x2="8.94" y2="40.8" style="fill:none;stroke:#6f6f59;stroke-linecap:round;stroke-linejoin:round;stroke-width:2.2536px"/><path d="M26.58,31.85l-7.09,7.09a6.2,6.2,0,0,1-8.76-8.77l7.08-7.08H12.39L8,27.46A10,10,0,0,0,22.21,41.65l4.37-4.37Z" style="fill:#231f20"/><path d="M15.11,45.14A10.59,10.59,0,0,1,7.62,27.06L12,22.69a.56.56,0,0,1,.4-.17h5.42a.57.57,0,0,1,.52.35.55.55,0,0,1-.12.61l-7.08,7.09a5.64,5.64,0,0,0,4,9.62,5.63,5.63,0,0,0,4-1.65l7.08-7.08a.54.54,0,0,1,.61-.13.58.58,0,0,1,.35.52v5.43a.57.57,0,0,1-.16.39L22.6,42A10.5,10.5,0,0,1,15.11,45.14ZM12.62,23.65,8.41,27.86a9.47,9.47,0,0,0,13.4,13.39L26,37V33.21l-6.13,6.12A6.76,6.76,0,0,1,8.35,34.55a6.76,6.76,0,0,1,2-4.78l6.13-6.12Z" style="fill:#231f20"/><path d="M27.64,7.84l-4.37,4.37v5.42l7.08-7.08a6.2,6.2,0,0,1,8.77,8.76L32,26.4h5.43L41.83,22A10,10,0,1,0,27.64,7.84Z" style="fill:#231f20"/><path d="M37.46,27H32a.56.56,0,0,1-.39-1l7.08-7.08a5.64,5.64,0,0,0-8-8L23.67,18a.57.57,0,0,1-.62.12.56.56,0,0,1-.34-.52V12.21a.59.59,0,0,1,.16-.4l4.37-4.37a10.6,10.6,0,1,1,15,15l-4.38,4.37A.52.52,0,0,1,37.46,27Zm-4.07-1.13h3.83l4.21-4.2A9.47,9.47,0,0,0,28,8.23h0l-4.21,4.21v3.84L30,10.15a6.76,6.76,0,0,1,9.56,9.56Zm-5.75-18h0Z" style="fill:#231f20"/><path d="M12.92,20.27l-7.48,1V18.41l7.48,1Z" style="fill:#231f20"/><path d="M15.58,16.24l-6-4.59,2-2,4.58,6Z" style="fill:#231f20"/><path d="M19.37,13l-1-7.48h2.86l-1,7.48Z" style="fill:#231f20"/><path d="M36.86,29.6l7.48-1v2.86l-7.48-1Z" style="fill:#231f20"/><path d="M34.2,33.64l6,4.58-2,2-4.58-6Z" style="fill:#231f20"/><path d="M30.42,36.91l1,7.48H28.56l1-7.48Z" style="fill:#231f20"/></svg>
