<svg id="Layer_1" data-name="Layer 1" xmlns="http://www.w3.org/2000/svg" viewBox="0 0 64 64"><title>SVG_Artboards</title><rect x="27.53" y="17.14" width="9.34" height="29.69" transform="translate(64.19 -0.22) rotate(90)" style="fill:#ec1c24"/><path d="M47.05,37.79H17.36a1.14,1.14,0,0,1-1.13-1.13V27.31a1.13,1.13,0,0,1,1.13-1.12H47.05a1.12,1.12,0,0,1,1.12,1.12v9.35A1.13,1.13,0,0,1,47.05,37.79ZM18.48,35.53H45.92V28.44H18.48Z" style="fill:#6f6f59"/><path d="M59.15,59.94h-5.4V57.68H58V53.41h2.26v5.4A1.14,1.14,0,0,1,59.15,59.94Z" style="fill:#787878"/><path d="M45.05,59.94h-8.7V57.68h8.7Zm-17.4,0H19V57.68h8.7Z" style="fill:#787878"/><path d="M10.25,59.94H4.85a1.14,1.14,0,0,1-1.13-1.13v-5.4H6v4.27h4.27Z" style="fill:#787878"/><path d="M6,44.71H3.72V36H6Zm0-17.4H3.72v-8.7H6Z" style="fill:#787878"/><path d="M6,9.91H3.72V4.51A1.14,1.14,0,0,1,4.85,3.38h5.4V5.64H6Z" style="fill:#787878"/><path d="M45.05,5.64h-8.7V3.38h8.7Zm-17.4,0H19V3.38h8.7Z" style="fill:#787878"/><path d="M60.28,9.91H58V5.64H53.75V3.38h5.4a1.14,1.14,0,0,1,1.13,1.13Z" style="fill:#787878"/><path d="M60.28,44.71H58V36h2.26Zm0-17.4H58v-8.7h2.26Z" style="fill:#787878"/></svg>
