<svg id="Layer_1" data-name="Layer 1" xmlns="http://www.w3.org/2000/svg" viewBox="0 0 64 64"><title>SVG_Artboards</title><circle cx="19.56" cy="19.34" r="6.77" style="fill:#2896d3"/><path d="M19.56,27.23a7.9,7.9,0,1,1,7.9-7.89A7.9,7.9,0,0,1,19.56,27.23Zm0-13.54a5.65,5.65,0,1,0,5.64,5.65A5.65,5.65,0,0,0,19.56,13.69Z" style="fill:#6f6f59"/><circle cx="19.56" cy="44.5" r="6.77" style="fill:#2896d3"/><path d="M19.56,52.4a7.9,7.9,0,1,1,7.9-7.9A7.91,7.91,0,0,1,19.56,52.4Zm0-13.55A5.65,5.65,0,1,0,25.2,44.5,5.65,5.65,0,0,0,19.56,38.85Z" style="fill:#6f6f59"/><circle cx="41.93" cy="35.1" r="10.07" style="fill:#a7d28c"/><path d="M41.93,46.31A11.21,11.21,0,1,1,53.13,35.1,11.22,11.22,0,0,1,41.93,46.31Zm0-20.15a8.95,8.95,0,1,0,9,8.94A9,9,0,0,0,41.93,26.16Z" style="fill:#6f6f59"/><polygon points="43.83 53.86 41.17 40.74 54.29 43.39 51.51 46.17 60.48 55.14 55.57 60.05 46.6 51.08 43.83 53.86" style="fill:#787878"/><path d="M45.05,59.94h-8.7V57.68h8.7Zm-17.4,0H19V57.68h8.7Z" style="fill:#787878"/><path d="M10.25,59.94H4.85a1.14,1.14,0,0,1-1.13-1.13v-5.4H6v4.27h4.27Z" style="fill:#787878"/><path d="M6,44.71H3.72V36H6Zm0-17.4H3.72v-8.7H6Z" style="fill:#787878"/><path d="M6,9.91H3.72V4.51A1.14,1.14,0,0,1,4.85,3.38h5.4V5.64H6Z" style="fill:#787878"/><path d="M45.05,5.64h-8.7V3.38h8.7Zm-17.4,0H19V3.38h8.7Z" style="fill:#787878"/><path d="M60.28,9.91H58V5.64H53.75V3.38h5.4a1.14,1.14,0,0,1,1.13,1.13Z" style="fill:#787878"/><path d="M60.28,44.71H58V36h2.26Zm0-17.4H58v-8.7h2.26Z" style="fill:#787878"/></svg>
