<svg id="Layer_1" data-name="Layer 1" xmlns="http://www.w3.org/2000/svg" viewBox="0 0 64 64"><title>SVG_Artboards</title><polygon points="45.54 27.39 36.61 27.39 36.61 18.46 27.39 18.46 27.39 27.39 18.46 27.39 18.46 36.61 27.39 36.61 27.39 45.54 36.61 45.54 36.61 36.61 45.54 36.61 45.54 27.39" style="fill:#a7d28c"/><path d="M36.61,46.67H27.39a1.13,1.13,0,0,1-1.13-1.13v-7.8h-7.8a1.13,1.13,0,0,1-1.13-1.13V27.39a1.13,1.13,0,0,1,1.13-1.13h7.8v-7.8a1.13,1.13,0,0,1,1.13-1.13h9.22a1.13,1.13,0,0,1,1.13,1.13v7.8h7.8a1.13,1.13,0,0,1,1.13,1.13v9.22a1.13,1.13,0,0,1-1.13,1.13h-7.8v7.8A1.13,1.13,0,0,1,36.61,46.67Zm-8.09-2.25h7V36.61a1.14,1.14,0,0,1,1.13-1.13h7.81v-7H36.61a1.14,1.14,0,0,1-1.13-1.13V19.58h-7v7.81a1.14,1.14,0,0,1-1.13,1.13H19.58v7h7.81a1.14,1.14,0,0,1,1.13,1.13Z" style="fill:#6f6f59"/><path d="M59.15,59.94h-5.4V57.68H58V53.41h2.26v5.4A1.14,1.14,0,0,1,59.15,59.94Z" style="fill:#787878"/><path d="M45.05,59.94h-8.7V57.68h8.7Zm-17.4,0H19V57.68h8.7Z" style="fill:#787878"/><path d="M10.25,59.94H4.85a1.14,1.14,0,0,1-1.13-1.13v-5.4H6v4.27h4.27Z" style="fill:#787878"/><path d="M6,44.71H3.72V36H6Zm0-17.4H3.72v-8.7H6Z" style="fill:#787878"/><path d="M6,9.91H3.72V4.51A1.14,1.14,0,0,1,4.85,3.38h5.4V5.64H6Z" style="fill:#787878"/><path d="M45.05,5.64h-8.7V3.38h8.7Zm-17.4,0H19V3.38h8.7Z" style="fill:#787878"/><path d="M60.28,9.91H58V5.64H53.75V3.38h5.4a1.14,1.14,0,0,1,1.13,1.13Z" style="fill:#787878"/><path d="M60.28,44.71H58V36h2.26Zm0-17.4H58v-8.7h2.26Z" style="fill:#787878"/></svg>
