<svg id="Layer_1" data-name="Layer 1" xmlns="http://www.w3.org/2000/svg" viewBox="0 0 64 64"><title>SVG_Artboards</title><rect x="20.45" y="31.31" width="7.33" height="23.3" transform="translate(67.08 18.84) rotate(90)" style="fill:#ec1c24"/><path d="M35.77,47.51H12.47a.88.88,0,0,1-.88-.89V39.29a.87.87,0,0,1,.88-.88h23.3a.87.87,0,0,1,.88.88v7.33A.88.88,0,0,1,35.77,47.51ZM13.36,45.74H34.88V40.18H13.36Z" style="fill:#6f6f59"/><polygon points="34.88 20.43 27.87 20.43 27.87 13.42 20.64 13.42 20.64 20.43 13.63 20.43 13.63 27.66 20.64 27.66 20.64 34.67 27.87 34.67 27.87 27.66 34.88 27.66 34.88 20.43" style="fill:#a7d28c"/><path d="M27.87,35.8H20.63a1.13,1.13,0,0,1-1.12-1.13V28.79H13.63a1.13,1.13,0,0,1-1.13-1.13V20.43a1.12,1.12,0,0,1,1.13-1.13h5.88V13.42a1.12,1.12,0,0,1,1.12-1.13h7.24A1.13,1.13,0,0,1,29,13.42V19.3h5.88A1.13,1.13,0,0,1,36,20.43v7.23a1.14,1.14,0,0,1-1.13,1.13H29v5.88A1.14,1.14,0,0,1,27.87,35.8Zm-6.11-2.26h5V27.66a1.14,1.14,0,0,1,1.13-1.13h5.88v-5H27.87a1.13,1.13,0,0,1-1.13-1.12V14.54h-5v5.89a1.12,1.12,0,0,1-1.13,1.12H14.75v5h5.88a1.13,1.13,0,0,1,1.13,1.13Z" style="fill:#6f6f59"/><polygon points="43.83 53.86 41.17 40.74 54.29 43.39 51.51 46.17 60.48 55.14 55.57 60.05 46.6 51.08 43.83 53.86" style="fill:#787878"/><path d="M45.05,59.94h-8.7V57.68h8.7Zm-17.4,0H19V57.68h8.7Z" style="fill:#787878"/><path d="M10.25,59.94H4.85a1.14,1.14,0,0,1-1.13-1.13v-5.4H6v4.27h4.27Z" style="fill:#787878"/><path d="M6,44.71H3.72V36H6Zm0-17.4H3.72v-8.7H6Z" style="fill:#787878"/><path d="M6,9.91H3.72V4.51A1.14,1.14,0,0,1,4.85,3.38h5.4V5.64H6Z" style="fill:#787878"/><path d="M45.05,5.64h-8.7V3.38h8.7Zm-17.4,0H19V3.38h8.7Z" style="fill:#787878"/><path d="M60.28,9.91H58V5.64H53.75V3.38h5.4a1.14,1.14,0,0,1,1.13,1.13Z" style="fill:#787878"/><path d="M60.28,44.71H58V36h2.26Zm0-17.4H58v-8.7h2.26Z" style="fill:#787878"/></svg>
