<svg width="64" height="65" viewBox="0 0 64 65" fill="none" xmlns="http://www.w3.org/2000/svg">
<path d="M26.1005 33.4408L38.9228 41.9041L33.901 45.2181L21.0786 36.7548L26.1005 33.4408Z" fill="#A69768"/>
<path fill-rule="evenodd" clip-rule="evenodd" d="M26.1004 35.8371L24.7095 36.7549L33.9011 42.8218L35.2919 41.9039L26.1004 35.8371ZM26.1005 33.4408L21.0786 36.7548L33.901 45.2181L38.9228 41.9041L26.1005 33.4408Z" fill="#6F6F59"/>
<path d="M12.7382 32.2972L25.5605 40.7606L20.5386 44.0745L7.71631 35.6112L12.7382 32.2972Z" fill="#A69768"/>
<path fill-rule="evenodd" clip-rule="evenodd" d="M12.7381 34.6935L11.3472 35.6114L20.5388 41.6782L21.9296 40.7604L12.7381 34.6935ZM12.7382 32.2972L7.71631 35.6112L20.5386 44.0745L25.5605 40.7606L12.7382 32.2972Z" fill="#6F6F59"/>
<path d="M14.5136 25.7666L25.2349 32.8394L20.213 36.1534L9.4917 29.0806L14.5136 25.7666Z" fill="#FFC418"/>
<path fill-rule="evenodd" clip-rule="evenodd" d="M14.5137 28.1627L13.1232 29.0803L20.2128 33.7573L21.6033 32.8397L14.5137 28.1627ZM14.5136 25.7666L9.4917 29.0806L20.213 36.1534L25.2349 32.8394L14.5136 25.7666Z" fill="#6F6F59"/>
<path d="M24.4118 24.473L37.2341 32.9363L32.2122 36.2503L19.3899 27.787L24.4118 24.473Z" fill="#FFC418"/>
<path fill-rule="evenodd" clip-rule="evenodd" d="M24.4116 26.8693L23.0208 27.7872L32.2123 33.854L33.6032 32.9362L24.4116 26.8693ZM24.4118 24.473L19.3899 27.787L32.2122 36.2503L37.2341 32.9363L24.4118 24.473Z" fill="#6F6F59"/>
<path d="M8.69498 29.6155L12.1053 31.85L7.08347 35.164L3.69458 32.9437L8.69498 29.6155Z" fill="#FFC418"/>
<path d="M8.45746 31.853L7.07615 32.7645L5.50463 31.7355L3.68433 32.9368L7.08336 35.156L12.1052 31.842L8.70708 29.607L6.88597 30.824L8.45746 31.853Z" fill="#6F6F59"/>
<path d="M37.6312 25.6714L50.4536 34.1347L45.4317 37.4487L32.6094 28.9854L37.6312 25.6714Z" fill="#FFC418"/>
<path fill-rule="evenodd" clip-rule="evenodd" d="M37.6311 28.0677L36.2403 28.9855L45.4318 35.0524L46.8227 34.1345L37.6311 28.0677ZM37.6312 25.6714L32.6094 28.9854L45.4317 37.4487L50.4536 34.1347L37.6312 25.6714Z" fill="#6F6F59"/>
<path d="M26.1027 18.0358L36.8868 25.1502L31.8649 28.4642L21.1003 21.3627L26.1027 18.0358Z" fill="#A69768"/>
<path fill-rule="evenodd" clip-rule="evenodd" d="M26.1071 20.4347L24.722 21.3559L31.8648 26.068L33.2553 25.1504L26.1071 20.4347ZM26.1027 18.0358L21.1003 21.3627L31.8649 28.4642L36.8868 25.1502L26.1027 18.0358Z" fill="#6F6F59"/>
<path d="M20.4123 21.8203L23.6608 23.9477L18.639 27.2617L15.4114 25.1482L20.4123 21.8203Z" fill="#A69768"/>
<path d="M20.0131 23.9445L18.6318 24.8561L17.2215 23.9336L15.4012 25.1348L18.639 27.2476L23.6609 23.9336L20.424 21.805L18.6029 23.022L20.0131 23.9445Z" fill="#6F6F59"/>
<path d="M36.0751 16.7496L48.8974 25.2129L43.8756 28.5269L31.0532 20.0636L36.0751 16.7496Z" fill="#A69768"/>
<path fill-rule="evenodd" clip-rule="evenodd" d="M36.075 19.1459L34.6841 20.0638L43.8757 26.1306L45.2665 25.2128L36.075 19.1459ZM36.0751 16.7496L31.0532 20.0636L43.8756 28.5269L48.8974 25.2129L36.0751 16.7496Z" fill="#6F6F59"/>
<path d="M31.9738 14.1289L35.1912 16.2357L30.1694 19.5497L26.9717 17.4559L31.9738 14.1289Z" fill="#FFC418"/>
<path d="M31.5353 16.2465L30.154 17.1581L28.7727 16.2546L26.9524 17.4558L30.1612 19.5496L35.1831 16.2356L31.9751 14.126L30.154 15.343L31.5353 16.2465Z" fill="#6F6F59"/>
<path d="M26.2975 41.2771L37.0403 48.3642L32.0324 51.6874L21.2756 44.5911L26.2975 41.2771Z" fill="#FFC418"/>
<path fill-rule="evenodd" clip-rule="evenodd" d="M26.2977 43.6732L24.9072 44.5908L32.0292 49.2893L33.4158 48.3691L26.2977 43.6732ZM26.2975 41.2771L21.2756 44.5911L32.0324 51.6874L37.0403 48.3642L26.2975 41.2771Z" fill="#6F6F59"/>
<path d="M39.6122 42.389L42.8369 44.5007L40.3355 46.164L37.8342 47.8274L34.5903 45.703L39.6122 42.389Z" fill="#FFC418"/>
<path d="M38.2379 45.6921L39.6192 44.7805L41.0352 45.7028L42.8555 44.5015L39.612 42.389L34.5901 45.703L37.8328 47.8313L39.6539 46.6143L38.2379 45.6921Z" fill="#6F6F59"/>
<path d="M51.2587 34.696L54.4445 36.782L49.4392 40.1069L46.2368 38.01L51.2587 34.696Z" fill="#A69768"/>
<path d="M49.8846 37.9991L51.2659 37.0875L52.6531 37.9719L54.4734 36.7707L51.2587 34.696L46.2368 38.01L49.4343 40.1086L51.2546 38.9055L49.8846 37.9991Z" fill="#6F6F59"/>
<path d="M49.6293 25.8253L60.3146 32.8743L55.3119 36.201L44.6074 29.1393L49.6293 25.8253Z" fill="#FFC418"/>
<path fill-rule="evenodd" clip-rule="evenodd" d="M49.6295 28.2214L48.239 29.139L55.3075 33.8021L56.6927 32.881L49.6295 28.2214ZM49.6293 25.8253L44.6074 29.1393L55.3119 36.201L60.3146 32.8743L49.6293 25.8253Z" fill="#6F6F59"/>
<path d="M38.0209 33.4856L48.7513 40.5645L43.7513 43.8929L32.999 36.7996L38.0209 33.4856Z" fill="#A69768"/>
<path fill-rule="evenodd" clip-rule="evenodd" d="M38.0211 35.8817L36.6306 36.7993L43.7463 41.4936L45.1307 40.572L38.0211 35.8817ZM38.0209 33.4856L32.999 36.7996L43.7513 43.8929L48.7513 40.5645L38.0209 33.4856Z" fill="#6F6F59"/>
</svg>
