<svg id="Layer_1" data-name="Layer 1" xmlns="http://www.w3.org/2000/svg" viewBox="0 0 64 64"><title>SVG_Artboards</title><path d="M34,33.65a1.13,1.13,0,0,1-1.13-1.13V4.64a1.13,1.13,0,0,1,2.25,0V32.52A1.13,1.13,0,0,1,34,33.65Z" style="fill:#6f6f59"/><path d="M59.52,46.24a1.07,1.07,0,0,1-.51-.13L34.88,33.75,6.41,44.56a1.12,1.12,0,1,1-.8-2.1l28.94-11a1.11,1.11,0,0,1,.91.05L60,44.11a1.13,1.13,0,0,1,.49,1.51A1.14,1.14,0,0,1,59.52,46.24Z" style="fill:#6f6f59"/><path d="M27.42,62a1.12,1.12,0,0,1-.71-.25L5.3,44.38a1.12,1.12,0,0,1-.41-.87V10.06a1.13,1.13,0,0,1,.54-1,1.15,1.15,0,0,1,1.11,0l21.4,11.21a1.12,1.12,0,0,1,.61,1V60.88a1.14,1.14,0,0,1-.64,1A1.19,1.19,0,0,1,27.42,62ZM7.14,43,26.29,58.51V22l-19.15-10Z" style="fill:#6f6f59"/><polygon points="12.09 13.51 42.96 7.22 46.95 38.67 18.06 52.07 12.09 13.51" style="fill:#a7d28c"/><path d="M18.06,53.2a1.25,1.25,0,0,1-.53-.13,1.14,1.14,0,0,1-.58-.82L11,13.68a1.14,1.14,0,0,1,.89-1.28L42.73,6.11a1.17,1.17,0,0,1,.89.19,1.13,1.13,0,0,1,.46.77l4,31.46a1.14,1.14,0,0,1-.64,1.16L18.54,53.09A1.13,1.13,0,0,1,18.06,53.2ZM13.37,14.4l5.58,36L45.73,38,42,8.56Z" style="fill:#6f6f59"/><path d="M27.42,62a1,1,0,0,1-.59-.17,1.12,1.12,0,0,1-.54-.95V21.27a1.13,1.13,0,0,1,.81-1.08l32.1-9.61a1.12,1.12,0,0,1,1.45,1.08V45.11a1.12,1.12,0,0,1-.63,1L27.92,61.89A1.1,1.1,0,0,1,27.42,62Zm1.13-39.89v37L58.4,44.41V13.17Zm31,23h0Z" style="fill:#6f6f59"/><path d="M27.42,22.4a1.06,1.06,0,0,1-.52-.13L5.49,11.05A1.1,1.1,0,0,1,4.9,9.92a1.13,1.13,0,0,1,.86-1L34.23,2.29a1.06,1.06,0,0,1,.61,0l25,8.27a1.13,1.13,0,0,1,0,2.15l-32.1,9.61A1.26,1.26,0,0,1,27.42,22.4ZM9.22,10.46l18.32,9.6,28.23-8.45-21.34-7Z" style="fill:#6f6f59"/></svg>
