<svg id="Layer_1" data-name="Layer 1" xmlns="http://www.w3.org/2000/svg" viewBox="0 0 64 64"><title>SVG_Artboards</title><rect x="14.72" y="3.91" width="5.94" height="24.54" transform="translate(33.88 -1.51) rotate(90)" style="fill:#cdcece"/><path d="M30,20.28H5.42a1.14,1.14,0,0,1-1.13-1.13V13.21a1.13,1.13,0,0,1,1.13-1.12H30a1.13,1.13,0,0,1,1.13,1.12v5.94A1.14,1.14,0,0,1,30,20.28ZM6.55,18H28.84V14.34H6.55Z" style="fill:#787878"/><rect x="14.72" y="19.73" width="5.94" height="24.54" transform="translate(49.69 14.31) rotate(90)" style="fill:#cdcece"/><path d="M30,36.1H5.42A1.14,1.14,0,0,1,4.29,35V29A1.14,1.14,0,0,1,5.42,27.9H30A1.14,1.14,0,0,1,31.09,29V35A1.14,1.14,0,0,1,30,36.1ZM6.55,33.84H28.84V30.16H6.55Z" style="fill:#787878"/><rect x="14.72" y="35.55" width="5.94" height="24.54" transform="translate(65.51 30.12) rotate(90)" style="fill:#cdcece"/><path d="M30,51.91H5.42a1.13,1.13,0,0,1-1.13-1.12V44.85a1.14,1.14,0,0,1,1.13-1.13H30a1.14,1.14,0,0,1,1.13,1.13v5.94A1.13,1.13,0,0,1,30,51.91ZM6.55,49.66H28.84V46H6.55Z" style="fill:#787878"/><polygon points="60.05 35.71 48.13 17.73 36.2 35.71 42.53 35.71 42.53 48.37 53.71 48.37 53.71 35.71 60.05 35.71" style="fill:#cdcece"/><path d="M53.71,49.5H42.53a1.14,1.14,0,0,1-1.13-1.13V36.84H36.2a1.12,1.12,0,0,1-.94-1.75l11.93-18a1.12,1.12,0,0,1,.94-.51h0a1.12,1.12,0,0,1,.94.51L61,35.09a1.13,1.13,0,0,1-.94,1.75H54.84V48.37A1.14,1.14,0,0,1,53.71,49.5ZM43.66,47.24h8.93V35.71a1.13,1.13,0,0,1,1.12-1.13H58L48.13,19.77,38.3,34.58h4.23a1.14,1.14,0,0,1,1.13,1.13Z" style="fill:#787878"/></svg>
