<svg id="Layer_1" data-name="Layer 1" xmlns="http://www.w3.org/2000/svg" viewBox="0 0 64 64"><title>SVG_Artboards</title><rect x="19.69" y="9.42" width="35.2" height="45.15" style="fill:#d1d8ed"/><path d="M54.9,55.7H19.69a1.13,1.13,0,0,1-1.13-1.12V9.42A1.13,1.13,0,0,1,19.69,8.3H54.9A1.12,1.12,0,0,1,56,9.42V54.58A1.12,1.12,0,0,1,54.9,55.7ZM20.82,53.45h33V10.55H20.82Z" style="fill:#787878"/><rect x="9.1" y="9.42" width="13.37" height="45.15" style="fill:#d1d8ed"/><path d="M22.48,55.7H9.1A1.12,1.12,0,0,1,8,54.58V9.42A1.12,1.12,0,0,1,9.1,8.3H22.48A1.12,1.12,0,0,1,23.6,9.42V54.58A1.12,1.12,0,0,1,22.48,55.7ZM10.23,53.45H21.35V10.55H10.23Z" style="fill:#787878"/><rect x="9.1" y="9.42" width="45.77" height="9.05" style="fill:#cdcece"/><path d="M54.88,19.6H9.1A1.13,1.13,0,0,1,8,18.47v-9A1.12,1.12,0,0,1,9.1,8.3H54.88A1.12,1.12,0,0,1,56,9.42v9A1.13,1.13,0,0,1,54.88,19.6ZM10.23,17.34H53.75V10.55H10.23Z" style="fill:#787878"/><rect x="9.1" y="18.48" width="45.77" height="9.05" style="fill:#fff"/><path d="M54.88,28.65H9.1A1.12,1.12,0,0,1,8,27.53v-9A1.13,1.13,0,0,1,9.1,17.35H54.88A1.13,1.13,0,0,1,56,18.48v9.05A1.12,1.12,0,0,1,54.88,28.65ZM10.23,26.4H53.75V19.61H10.23Z" style="fill:#787878"/><rect x="9.1" y="27.48" width="45.77" height="9.05" style="fill:#fff"/><path d="M54.88,37.66H9.1A1.13,1.13,0,0,1,8,36.53v-9A1.12,1.12,0,0,1,9.1,26.36H54.88A1.12,1.12,0,0,1,56,27.48v9.05A1.13,1.13,0,0,1,54.88,37.66ZM10.23,35.4H53.75V28.61H10.23Z" style="fill:#787878"/><rect x="9.1" y="36.49" width="45.77" height="9.05" style="fill:#fff"/><path d="M54.88,46.66H9.1A1.13,1.13,0,0,1,8,45.53v-9A1.12,1.12,0,0,1,9.1,35.36H54.88A1.12,1.12,0,0,1,56,36.49v9A1.13,1.13,0,0,1,54.88,46.66ZM10.23,44.4H53.75V37.61H10.23Z" style="fill:#787878"/><rect x="9.1" y="45.54" width="45.77" height="9.05" style="fill:#fff"/><path d="M54.88,55.71H9.1A1.12,1.12,0,0,1,8,54.59V45.54A1.13,1.13,0,0,1,9.1,44.41H54.88A1.13,1.13,0,0,1,56,45.54v9.05A1.12,1.12,0,0,1,54.88,55.71ZM10.23,53.46H53.75V46.67H10.23Z" style="fill:#787878"/><rect x="9.1" y="9.42" width="13.28" height="9.05" style="fill:#cdcece"/><path d="M22.38,19.6H9.1A1.13,1.13,0,0,1,8,18.47v-9A1.12,1.12,0,0,1,9.1,8.3H22.38a1.13,1.13,0,0,1,1.13,1.12v9A1.14,1.14,0,0,1,22.38,19.6ZM10.23,17.34h11V10.55h-11Z" style="fill:#787878"/><rect x="9.1" y="18.48" width="13.28" height="9.05" style="fill:#cdcece"/><path d="M22.38,28.65H9.1A1.12,1.12,0,0,1,8,27.53v-9A1.13,1.13,0,0,1,9.1,17.35H22.38a1.14,1.14,0,0,1,1.13,1.13v9.05A1.13,1.13,0,0,1,22.38,28.65ZM10.23,26.4h11V19.61h-11Z" style="fill:#787878"/><rect x="9.1" y="27.48" width="13.28" height="9.05" style="fill:#cdcece"/><path d="M22.38,37.66H9.1A1.13,1.13,0,0,1,8,36.53v-9A1.12,1.12,0,0,1,9.1,26.36H22.38a1.13,1.13,0,0,1,1.13,1.12v9.05A1.14,1.14,0,0,1,22.38,37.66ZM10.23,35.4h11V28.61h-11Z" style="fill:#787878"/><rect x="9.1" y="36.49" width="13.28" height="9.05" style="fill:#cdcece"/><path d="M22.38,46.66H9.1A1.13,1.13,0,0,1,8,45.53v-9A1.12,1.12,0,0,1,9.1,35.36H22.38a1.13,1.13,0,0,1,1.13,1.13v9A1.14,1.14,0,0,1,22.38,46.66ZM10.23,44.4h11V37.61h-11Z" style="fill:#787878"/><rect x="9.1" y="45.54" width="13.28" height="9.05" style="fill:#cdcece"/><path d="M22.38,55.71H9.1A1.12,1.12,0,0,1,8,54.59V45.54A1.13,1.13,0,0,1,9.1,44.41H22.38a1.14,1.14,0,0,1,1.13,1.13v9.05A1.13,1.13,0,0,1,22.38,55.71ZM10.23,53.46h11V46.67h-11Z" style="fill:#787878"/></svg>
