<svg id="Layer_1" data-name="Layer 1" xmlns="http://www.w3.org/2000/svg" viewBox="0 0 64 64"><title>SVG_Artboards</title><rect x="20.65" y="-2.13" width="22.69" height="45.15" transform="translate(52.45 -11.55) rotate(90)" style="fill:#d1d8ed"/><path d="M54.58,32.92H9.42A1.12,1.12,0,0,1,8.3,31.79V9.1A1.12,1.12,0,0,1,9.42,8H54.58A1.12,1.12,0,0,1,55.7,9.1V31.79A1.12,1.12,0,0,1,54.58,32.92Zm-44-2.25h42.9V10.23H10.55Z" style="fill:#787878"/><rect x="20.65" y="20.98" width="22.69" height="45.15" transform="translate(75.55 11.55) rotate(90)" style="fill:#d1d8ed"/><path d="M54.58,56H9.42A1.12,1.12,0,0,1,8.3,54.9V32.21a1.12,1.12,0,0,1,1.12-1.13H54.58a1.12,1.12,0,0,1,1.12,1.13V54.9A1.12,1.12,0,0,1,54.58,56Zm-44-2.25h42.9V33.33H10.55Z" style="fill:#787878"/></svg>
