<svg id="Layer_1" data-name="Layer 1" xmlns="http://www.w3.org/2000/svg" viewBox="0 0 64 64"><title>SVG_Artboards</title><rect x="9.1" y="9.42" width="22.69" height="45.15" style="fill:#d1d8ed"/><path d="M31.79,55.7H9.1A1.12,1.12,0,0,1,8,54.58V9.42A1.12,1.12,0,0,1,9.1,8.3H31.79a1.12,1.12,0,0,1,1.13,1.12V54.58A1.12,1.12,0,0,1,31.79,55.7ZM10.23,53.45H30.67V10.55H10.23Z" style="fill:#787878"/><rect x="32.21" y="9.42" width="22.69" height="45.15" style="fill:#d1d8ed"/><path d="M54.9,55.7H32.21a1.12,1.12,0,0,1-1.13-1.12V9.42A1.12,1.12,0,0,1,32.21,8.3H54.9A1.12,1.12,0,0,1,56,9.42V54.58A1.12,1.12,0,0,1,54.9,55.7ZM33.33,53.45H53.77V10.55H33.33Z" style="fill:#787878"/></svg>
