<svg id="Layer_1" data-name="Layer 1" xmlns="http://www.w3.org/2000/svg" viewBox="0 0 64 64"><title>SVG_Artboards</title><path d="M49.89,45.87H15a1.13,1.13,0,0,1-1-1.69L31.45,13.92a1.17,1.17,0,0,1,1.95,0L50.87,44.18a1.13,1.13,0,0,1-1,1.69Zm-33-2.26h31L32.42,16.74Z" style="fill:#cdcece"/><polygon points="43.83 53.86 41.17 40.74 54.29 43.39 51.51 46.17 60.48 55.14 55.57 60.05 46.6 51.08 43.83 53.86" style="fill:#787878"/><circle cx="15.07" cy="44.7" r="3.86" style="fill:#de4130"/><path d="M15.07,49.69a5,5,0,1,1,5-5A5,5,0,0,1,15.07,49.69Zm0-7.72A2.73,2.73,0,1,0,17.8,44.7,2.73,2.73,0,0,0,15.07,42Z" style="fill:#6f6f59"/><circle cx="32.43" cy="13.65" r="3.86" style="fill:#de4130"/><path d="M32.43,18.63a5,5,0,1,1,5-5A5,5,0,0,1,32.43,18.63Zm0-7.71a2.73,2.73,0,1,0,2.73,2.73A2.73,2.73,0,0,0,32.43,10.92Z" style="fill:#6f6f59"/></svg>
