<svg id="Layer_1" data-name="Layer 1" xmlns="http://www.w3.org/2000/svg" viewBox="0 0 64 64"><title>SVG_Artboards</title><rect x="9.96" y="27.33" width="28.2" height="28.2" style="fill:#a7d28c"/><path d="M38.16,56.66H10a1.12,1.12,0,0,1-1.13-1.12V27.33A1.12,1.12,0,0,1,10,26.21h28.2a1.13,1.13,0,0,1,1.13,1.12V55.54A1.13,1.13,0,0,1,38.16,56.66ZM11.08,54.41H37V28.46H11.08Z" style="fill:#6f6f59"/><polygon points="52.83 7.77 29.51 7.77 9.96 27.33 38.16 27.33 52.83 7.77" style="fill:#ffc418"/><path d="M38.72,28.46H7.24L29.05,6.64h26Zm-26-2.25H37.6l13-17.32H30Z" style="fill:#6f6f59"/><polygon points="38.16 55.54 52.83 31.09 52.83 7.78 38.16 27.33 38.16 55.54" style="fill:#ffc418"/><path d="M37,59.6V27L54,4.39v27Zm2.26-31.89V51.47L51.7,30.78V11.16Z" style="fill:#6f6f59"/><circle cx="52.83" cy="7.77" r="4.38" style="fill:#6f6f59"/><circle cx="52.83" cy="32.62" r="4.38" style="fill:#6f6f59"/><rect x="11.05" y="28.43" width="26.01" height="26.01" style="fill:#ffc418"/><circle cx="29.79" cy="7.77" r="4.38" style="fill:#6f6f59"/><circle cx="9.96" cy="27.33" r="4.38" style="fill:#6f6f59"/><circle cx="9.96" cy="55.54" r="4.38" style="fill:#6f6f59"/><circle cx="38.35" cy="27.33" r="4.38" style="fill:#6f6f59"/><circle cx="38.35" cy="55.54" r="4.38" style="fill:#6f6f59"/><polygon points="42.89 40.57 41.83 42.36 43.37 49.05 47.94 41.44 42.89 40.57" style="fill:#ffc418"/><polygon points="45.49 54.67 42.84 41.55 55.96 44.2 53.18 46.98 62.15 55.95 57.24 60.86 48.27 51.89 45.49 54.67" style="fill:#6f6f59"/></svg>
