<svg id="Layer_1" data-name="Layer 1" xmlns="http://www.w3.org/2000/svg" viewBox="0 0 64 64"><title>SVG_Artboards</title><path d="M41.07,37.3c0-.67,0-1.16,0-1.49a14,14,0,0,1,.83-5.06,11.41,11.41,0,0,1,2-3.22,35.83,35.83,0,0,1,3.57-3.47,16.79,16.79,0,0,0,3.35-3.63,5.78,5.78,0,0,0,.78-2.95,6.88,6.88,0,0,0-2.27-5.09,7.61,7.61,0,0,0-5.54-2.2,7.42,7.42,0,0,0-5.3,2q-2.13,2-2.79,6.21l-5.11-.61q.69-5.66,4.1-8.66a13.1,13.1,0,0,1,9-3q5.94,0,9.47,3.23a10.17,10.17,0,0,1,3.53,7.81A9.87,9.87,0,0,1,55.39,22a23.16,23.16,0,0,1-4.86,5.44,25.07,25.07,0,0,0-3.17,3.17A7.16,7.16,0,0,0,46.26,33a19.72,19.72,0,0,0-.42,4.31Zm5.19,9.22h-5.6v-5.6h5.6Z" style="fill:#6f6f59"/><circle cx="19.59" cy="47.35" r="8.49" style="fill:#de4130"/><path d="M19.59,57a9.61,9.61,0,1,1,9.61-9.61A9.62,9.62,0,0,1,19.59,57Zm0-17A7.36,7.36,0,1,0,27,47.35,7.37,7.37,0,0,0,19.59,40Z" style="fill:#6f6f59"/></svg>
