<svg id="Layer_1" data-name="Layer 1" xmlns="http://www.w3.org/2000/svg" viewBox="0 0 64 64"><title>SVG_Artboards</title><path d="M41.54,37.3c0-.67,0-1.16,0-1.49a14,14,0,0,1,.83-5.06,11.65,11.65,0,0,1,2-3.22,36.23,36.23,0,0,1,3.58-3.47,17.07,17.07,0,0,0,3.35-3.63A5.78,5.78,0,0,0,52,17.48a6.87,6.87,0,0,0-2.26-5.09,7.65,7.65,0,0,0-5.55-2.2,7.46,7.46,0,0,0-5.3,2q-2.12,2-2.78,6.21L31,17.78q.69-5.66,4.1-8.66a13.08,13.08,0,0,1,9-3q5.94,0,9.47,3.23a10.2,10.2,0,0,1,3.53,7.81A10,10,0,0,1,55.87,22,23.16,23.16,0,0,1,51,27.47a24.38,24.38,0,0,0-3.17,3.17A7.18,7.18,0,0,0,46.73,33a19.25,19.25,0,0,0-.41,4.31Zm5.19,9.22H41.14v-5.6h5.59Z" style="fill:#6f6f59"/><polygon points="21.22 28.38 37.07 55.84 5.37 55.84 21.22 28.38" style="fill:#a7d28c"/><path d="M37.07,57H5.37a1.12,1.12,0,0,1-1-.56,1.14,1.14,0,0,1,0-1.13L20.24,27.82a1.17,1.17,0,0,1,2,0L38,55.27a1.14,1.14,0,0,1,0,1.13A1.11,1.11,0,0,1,37.07,57ZM7.32,54.71H35.11L21.22,30.64Z" style="fill:#5b8036"/></svg>
