<svg id="Layer_1" data-name="Layer 1" xmlns="http://www.w3.org/2000/svg" viewBox="0 0 64 64"><defs><style>.cls-1{fill:#6f6f59;}.cls-2{fill:#de4130;}</style></defs><title>SVG_Artboards</title><path class="cls-1" d="M40.79,45.35c0-.83,0-1.45,0-1.87a17.41,17.41,0,0,1,1-6.36,14.65,14.65,0,0,1,2.46-4.06,47.67,47.67,0,0,1,4.5-4.36A21,21,0,0,0,53,24.13a7.31,7.31,0,0,0,1-3.71A8.66,8.66,0,0,0,51.11,14a9.66,9.66,0,0,0-7-2.76,9.36,9.36,0,0,0-6.67,2.5q-2.68,2.5-3.51,7.81l-6.43-.76q.87-7.12,5.16-10.91T44,6.11q7.47,0,11.91,4.06A12.83,12.83,0,0,1,60.38,20a12.5,12.5,0,0,1-1.56,6.15A29.42,29.42,0,0,1,52.7,33a32.5,32.5,0,0,0-4,4,8.78,8.78,0,0,0-1.39,3,25,25,0,0,0-.52,5.41ZM47.32,57h-7V49.91h7Z"/><circle class="cls-2" cx="16.56" cy="41.18" r="8.49"/><path class="cls-1" d="M16.56,50.79a9.61,9.61,0,1,1,9.61-9.61A9.62,9.62,0,0,1,16.56,50.79Zm0-17a7.36,7.36,0,1,0,7.36,7.36A7.37,7.37,0,0,0,16.56,33.82Z"/></svg>
