<svg id="Layer_1" data-name="Layer 1" xmlns="http://www.w3.org/2000/svg" viewBox="0 0 64 64"><defs><style>.cls-1{fill:#a7d28c;}.cls-2{fill:#5b8036;}.cls-3{fill:#6f6f59;}</style></defs><title>SVG_Artboards</title><polygon class="cls-1" points="19.43 28.38 35.28 55.84 3.58 55.84 19.43 28.38"/><path class="cls-2" d="M35.28,57H3.58a1.11,1.11,0,0,1-1-.56,1.14,1.14,0,0,1,0-1.13L18.46,27.82a1.17,1.17,0,0,1,1.95,0L36.26,55.27a1.14,1.14,0,0,1,0,1.13A1.12,1.12,0,0,1,35.28,57ZM5.54,54.71H33.33L19.43,30.64Z"/><path class="cls-3" d="M40.79,45.35c0-.83,0-1.45,0-1.87a17.41,17.41,0,0,1,1-6.36,14.65,14.65,0,0,1,2.46-4.06,47.67,47.67,0,0,1,4.5-4.36A21,21,0,0,0,53,24.13a7.31,7.31,0,0,0,1-3.71A8.66,8.66,0,0,0,51.11,14a9.66,9.66,0,0,0-7-2.76,9.36,9.36,0,0,0-6.67,2.5q-2.68,2.5-3.51,7.81l-6.43-.76q.87-7.12,5.16-10.91T44,6.11q7.47,0,11.91,4.06A12.83,12.83,0,0,1,60.38,20a12.5,12.5,0,0,1-1.56,6.15A29.42,29.42,0,0,1,52.7,33a32.5,32.5,0,0,0-4,4,8.78,8.78,0,0,0-1.39,3,25,25,0,0,0-.52,5.41ZM47.32,57h-7V49.91h7Z"/></svg>
