<svg id="Layer_1" data-name="Layer 1" xmlns="http://www.w3.org/2000/svg" viewBox="0 0 64 64"><defs><style>.cls-1{fill:#a7d28c;}.cls-2{fill:#6f6f59;}.cls-3{fill:#787878;}</style></defs><title>SVG_Artboards</title><polygon class="cls-1" points="32.42 14.48 49.89 44.74 14.96 44.74 32.42 14.48"/><path class="cls-2" d="M49.89,45.87H15a1.13,1.13,0,0,1-1-1.69L31.45,13.92a1.17,1.17,0,0,1,1.95,0L50.87,44.18a1.13,1.13,0,0,1-1,1.69Zm-33-2.26h31L32.42,16.74Z"/><polygon class="cls-3" points="43.83 53.86 41.17 40.74 54.29 43.39 51.51 46.17 60.48 55.14 55.57 60.05 46.6 51.08 43.83 53.86"/><path class="cls-3" d="M45.05,59.94h-8.7V57.68h8.7Zm-17.4,0H19V57.68h8.7Z"/><path class="cls-3" d="M10.25,59.94H4.85a1.14,1.14,0,0,1-1.13-1.13v-5.4H6v4.27h4.27Z"/><path class="cls-3" d="M6,44.71H3.72V36H6Zm0-17.4H3.72v-8.7H6Z"/><path class="cls-3" d="M6,9.91H3.72V4.51A1.14,1.14,0,0,1,4.85,3.38h5.4V5.64H6Z"/><path class="cls-3" d="M45.05,5.64h-8.7V3.38h8.7Zm-17.4,0H19V3.38h8.7Z"/><path class="cls-3" d="M60.28,9.91H58V5.64H53.75V3.38h5.4a1.14,1.14,0,0,1,1.13,1.13Z"/><path class="cls-3" d="M60.28,44.71H58V36h2.26Zm0-17.4H58v-8.7h2.26Z"/></svg>
