<?xml version="1.0" encoding="UTF-8" standalone="no"?>
<svg
   id="Layer_1"
   data-name="Layer 1"
   viewBox="0 0 64 64"
   version="1.1"
   sodipodi:docname="pqSubElement.svg"
   inkscape:export-filename="pqSubElement"
   inkscape:export-xdpi="28.44"
   inkscape:export-ydpi="28.44"
   inkscape:version="1.3 (0e150ed6c4, 2023-07-21)"
   xmlns:inkscape="http://www.inkscape.org/namespaces/inkscape"
   xmlns:sodipodi="http://sodipodi.sourceforge.net/DTD/sodipodi-0.dtd"
   xmlns="http://www.w3.org/2000/svg"
   xmlns:svg="http://www.w3.org/2000/svg"
   xmlns:rdf="http://www.w3.org/1999/02/22-rdf-syntax-ns#"
   xmlns:cc="http://creativecommons.org/ns#"
   xmlns:dc="http://purl.org/dc/elements/1.1/">
  <defs
     id="defs4" />
  <sodipodi:namedview
     id="namedview4"
     pagecolor="#ffffff"
     bordercolor="#666666"
     borderopacity="1.0"
     inkscape:showpageshadow="2"
     inkscape:pageopacity="0.0"
     inkscape:pagecheckerboard="0"
     inkscape:deskcolor="#d1d1d1"
     showgrid="true"
     inkscape:zoom="13.302446"
     inkscape:cx="29.355503"
     inkscape:cy="38.188465"
     inkscape:window-width="2556"
     inkscape:window-height="1410"
     inkscape:window-x="1920"
     inkscape:window-y="26"
     inkscape:window-maximized="1"
     inkscape:current-layer="Layer_1">
    <inkscape:grid
       id="grid4"
       units="px"
       originx="0"
       originy="0"
       spacingx="1"
       spacingy="1"
       empcolor="#0099e5"
       empopacity="0.30196078"
       color="#0099e5"
       opacity="0.14901961"
       empspacing="5"
       dotted="false"
       gridanglex="30"
       gridanglez="30"
       visible="true" />
  </sodipodi:namedview>
  <title
     id="title1">SVG_Artboards</title>
  <path
     d="m 60.983915,38.700043 -19.36,14.826 v -7.5262 H 5.7439152 V 9.2365433 H 18.343515 V 33.436543 h 23.2804 v -7.5141 z"
     style="fill:#2896d3;stroke-width:1.21"
     id="path1"
     sodipodi:nodetypes="cccccccccc" />
  <path
     d="m 62.314915,38.700043 c -0.0034,0.455279 -0.229401,0.880075 -0.605,1.1374 l -19.36,14.826 c -0.906083,0.616568 -2.131245,-0.04151 -2.1175,-1.1374 v -6.1589 H 5.7439152 c -0.7551392,0 -1.3673,-0.61216 -1.3673,-1.3673 V 9.2365433 C 4.3698392,8.478607 4.9859785,7.8624459 5.7439152,7.8692437 H 18.343515 c 0.755139,0 1.3673,0.6121606 1.3673,1.3672996 V 32.032943 h 20.5337 v -6.1589 c -0.01375,-1.095879 1.211417,-1.753967 2.1175,-1.1374 l 19.36,12.826 c 0.372607,0.258603 0.594277,0.683849 0.5929,1.1374 z m -19.36,12.285 15.5243,-12.285 -15.5243,-10.2971 v 4.9852 c 0.0068,0.74381 -0.587277,1.354049 -1.331,1.3673 h -23.2441 c -0.753206,3.1e-5 -1.361925,-0.614123 -1.3552,-1.3673 v -22.7964 H 7.1354152 v 34.0408 H 41.623915 c 0.755139,0 1.3673,0.612161 1.3673,1.3673 z"
     style="fill:#6f6f59;stroke-width:1.21"
     id="path2"
     sodipodi:nodetypes="cccccssccssccccccccccccccccscc" />
  <metadata
     id="metadata4">
    <rdf:RDF>
      <cc:Work
         rdf:about="">
        <dc:title>SVG_Artboards</dc:title>
      </cc:Work>
    </rdf:RDF>
  </metadata>
</svg>
