<?xml version="1.0" encoding="UTF-8"?>
<svg id="Layer_1" data-name="Layer 1" xmlns="http://www.w3.org/2000/svg" viewBox="0 0 64 64">
  <defs>
    <style>
      .cls-1 {
        fill: #a7d28c;
      }

      .cls-2 {
        fill: #6f6f59;
      }
    </style>
  </defs>
  <g>
    <path class="cls-1" d="M54.06,15.06H21.5v-7.57L4.12,19.02l17.37,11.53v-7.57h32.56v-7.92Z"/>
    <path class="cls-2" d="M21.5,31.67c-.22,0-.43-.06-.62-.19L3.5,19.95c-.31-.21-.5-.56-.5-.94s.19-.73.5-.94L20.88,6.56c.35-.23.79-.25,1.16-.05.37.2.59.58.59.99v6.44h31.44c.62,0,1.13.5,1.13,1.13v7.92c0,.62-.5,1.13-1.13,1.13h-31.44v6.44c0,.42-.23.8-.59.99-.17.09-.35.13-.53.13ZM6.16,19.02l14.21,9.43v-5.46c0-.62.5-1.13,1.13-1.13h31.44v-5.66h-31.44c-.62,0-1.13-.5-1.13-1.13v-5.47l-14.21,9.42Z"/>
  </g>
  <g>
    <path class="cls-1" d="M9.94,48.94h32.56v7.57l17.37-11.52-17.37-11.53v7.57H9.94v7.92Z"/>
    <path class="cls-2" d="M42.5,57.63c-.18,0-.37-.04-.53-.13-.37-.2-.59-.58-.59-.99v-6.44H9.94c-.62,0-1.13-.5-1.13-1.13v-7.92c0-.62.5-1.13,1.13-1.13h31.44v-6.44c0-.42.23-.8.59-.99.36-.19.81-.17,1.16.05l17.37,11.53c.31.21.5.56.5.94s-.19.73-.5.94l-17.37,11.52c-.19.12-.41.19-.62.19ZM11.07,47.81h31.44c.62,0,1.13.5,1.13,1.13v5.47l14.21-9.42-14.21-9.43v5.46c0,.62-.5,1.13-1.13,1.13H11.07v5.66Z"/>
  </g>
</svg>
