<svg id="Layer_1" data-name="Layer 1" xmlns="http://www.w3.org/2000/svg" viewBox="0 0 64 64"><title>SVG_Artboards</title><path d="M33.23,33.65a1.13,1.13,0,0,1-1.13-1.13V4.64a1.13,1.13,0,0,1,2.25,0V32.52A1.13,1.13,0,0,1,33.23,33.65Z" style="fill:#6f6f59"/><path d="M58.75,46.24a1.07,1.07,0,0,1-.51-.13L34.11,33.75,5.64,44.56a1.12,1.12,0,1,1-.8-2.1l28.94-11a1.11,1.11,0,0,1,.91.05L59.27,44.11a1.13,1.13,0,0,1,.49,1.51A1.14,1.14,0,0,1,58.75,46.24Z" style="fill:#6f6f59"/><polygon points="37.68 29.53 30.72 24.71 30.72 12.81 37.68 16.39 37.68 29.53" style="fill:#719943"/><polygon points="23.46 11.81 13.08 14.31 13.38 32.6 23.44 29.19 23.46 11.81" style="fill:#a7d28c"/><polygon points="6.62 28.21 13.38 32.45 13.38 15.45 6.62 11.66 6.62 28.21" style="fill:#719943"/><polygon points="17.66 8.59 23.46 11.81 13.54 14.42 6.43 11.26 17.66 8.59" style="fill:#5b8036"/><path d="M26.65,62a1.12,1.12,0,0,1-.71-.25L4.53,44.38a1.12,1.12,0,0,1-.41-.87V10.06a1.13,1.13,0,0,1,.54-1,1.15,1.15,0,0,1,1.11,0l21.4,11.21a1.12,1.12,0,0,1,.61,1V60.88a1.14,1.14,0,0,1-.64,1A1.19,1.19,0,0,1,26.65,62ZM6.37,43,25.53,58.51V22l-19.16-10Z" style="fill:#6f6f59"/><path d="M13.26,33.68,5.49,29.13V9.86L17.36,7.41,24.59,11l0,18.89ZM7.74,27.84l5.77,3.37,8.8-3,0-15.87L17.06,9.77,7.74,11.69Z" style="fill:#6f6f59"/><polygon points="44.42 46.43 44.42 25.58 38.58 26.98 38.58 42.54 44.42 46.43" style="fill:#719943"/><polygon points="44.43 46.43 58.76 39.66 58.76 11.66 37.68 17.03 37.68 29.16 44.43 26.56 44.43 46.43" style="fill:#a7d28c"/><polygon points="48.15 8.16 30.48 12.81 37.49 17.14 58.76 11.66 48.15 8.16" style="fill:#5b8036"/><path d="M26.65,62a1.06,1.06,0,0,1-.59-.17,1.11,1.11,0,0,1-.53-.95V21.27a1.13,1.13,0,0,1,.8-1.08l32.1-9.61a1.12,1.12,0,0,1,1.45,1.08V45.11a1.12,1.12,0,0,1-.63,1L27.15,61.89A1.1,1.1,0,0,1,26.65,62Zm1.13-39.89v37L57.63,44.41V13.17Zm31,23h0Z" style="fill:#6f6f59"/><path d="M44.16,47.73l-6.7-4.91V31.42l-.13,0L29.6,26.11V11.94L48.18,7l11.7,3.86V40.37Zm-4.45-6,4.7,3.44,13.22-6.18V12.47L48.11,9.33,31.85,13.67V24.93l5.85,4,2-.66Z" style="fill:#6f6f59"/><path d="M26.65,22.4a1.06,1.06,0,0,1-.52-.13L4.72,11.05a1.1,1.1,0,0,1-.59-1.13A1.13,1.13,0,0,1,5,9L33.46,2.29a1.06,1.06,0,0,1,.61,0l25,8.27a1.13,1.13,0,0,1,0,2.15L27,22.35A1.26,1.26,0,0,1,26.65,22.4ZM8.45,10.46l18.32,9.6L55,11.61l-21.34-7Z" style="fill:#6f6f59"/></svg>
