<svg id="Layer_1" data-name="Layer 1" xmlns="http://www.w3.org/2000/svg" viewBox="0 0 64 64"><title>SVG_Artboards</title><polygon points="21.57 4.96 16.06 10.47 10.55 4.96 4.87 10.65 10.38 16.16 4.87 21.67 10.55 27.35 16.06 21.84 21.57 27.35 27.26 21.67 21.75 16.16 27.26 10.65 21.57 4.96" style="fill:#cdcece"/><path d="M21.57,28.48h0a1.11,1.11,0,0,1-.79-.33l-4.72-4.71-4.71,4.71a1.12,1.12,0,0,1-1.59,0L4.07,22.46a1.11,1.11,0,0,1-.33-.79,1.14,1.14,0,0,1,.33-.8l4.71-4.71L4.07,11.45a1.15,1.15,0,0,1-.33-.8,1.14,1.14,0,0,1,.33-.8L9.76,4.17a1.12,1.12,0,0,1,1.59,0l4.71,4.71,4.72-4.71a1.14,1.14,0,0,1,1.59,0l5.69,5.68a1.14,1.14,0,0,1,.33.8,1.15,1.15,0,0,1-.33.8l-4.72,4.71,4.72,4.71a1.14,1.14,0,0,1,.33.8,1.11,1.11,0,0,1-.33.79l-5.69,5.69A1.14,1.14,0,0,1,21.57,28.48Zm-5.51-7.76h0a1.14,1.14,0,0,1,.8.33l4.71,4.71,4.1-4.09L21,17a1.15,1.15,0,0,1-.33-.8,1.14,1.14,0,0,1,.33-.8l4.72-4.71-4.1-4.09-4.71,4.71a1.16,1.16,0,0,1-1.59,0L10.55,6.56,6.46,10.65l4.71,4.71a1.09,1.09,0,0,1,.33.8,1.11,1.11,0,0,1-.33.8L6.46,21.67l4.09,4.09,4.72-4.71A1.13,1.13,0,0,1,16.06,20.72Z" style="fill:#787878"/><path d="M7.32,36.57V59.74L27.5,48.17Z" style="fill:#cdcece"/><path d="M7.32,60.87a1.16,1.16,0,0,1-.57-.15,1.12,1.12,0,0,1-.56-1V36.57a1.13,1.13,0,0,1,1.69-1L28.06,47.19a1.12,1.12,0,0,1,0,2L7.88,60.72A1.15,1.15,0,0,1,7.32,60.87ZM8.44,38.52V57.8l16.8-9.63Z" style="fill:#787878"/><path d="M58.31,51,56,49.17A8.62,8.62,0,0,0,56,48a10.18,10.18,0,0,0-.09-1.23L58.28,45a.87.87,0,0,0,.22-1.12L56.26,40a.87.87,0,0,0-1.08-.37l-2.75,1.13a8.84,8.84,0,0,0-2.09-1.21l-.4-2.94a.86.86,0,0,0-.86-.74H44.62a.86.86,0,0,0-.86.74l-.4,2.94a9,9,0,0,0-2.18,1.27l-2.75-1.09a.88.88,0,0,0-1.08.37L35.16,44a.86.86,0,0,0,.23,1.12l2.36,1.79A8.47,8.47,0,0,0,37.67,48a10.19,10.19,0,0,0,.09,1.24l-2.34,1.82a.88.88,0,0,0-.22,1.12l2.24,3.86a.88.88,0,0,0,1.08.37l2.75-1.13a9.26,9.26,0,0,0,2.09,1.21l.4,2.93a.86.86,0,0,0,.86.75h4.46a.86.86,0,0,0,.86-.75l.4-2.93a9,9,0,0,0,2.18-1.27l2.75,1.09A.87.87,0,0,0,56.35,56l2.19-3.88A.86.86,0,0,0,58.31,51ZM51,48a4.1,4.1,0,1,1-4.1-4.1A4.1,4.1,0,0,1,51,48Z" style="fill:#cdcece"/><path d="M49.08,61.33H44.62a2,2,0,0,1-2-1.72l-.31-2.32a9.74,9.74,0,0,1-1.21-.7L39,57.48a2,2,0,0,1-2.48-.84l-2.24-3.87a2,2,0,0,1,.5-2.57l1.85-1.44a6.06,6.06,0,0,1,0-.73c0-.19,0-.4,0-.61L34.71,46a2,2,0,0,1-.53-2.56l2.19-3.89a2,2,0,0,1,2.47-.87l2.18.86a11.43,11.43,0,0,1,1.31-.76l.31-2.32a2,2,0,0,1,2-1.72h4.46a2,2,0,0,1,2,1.72l.31,2.32a9.74,9.74,0,0,1,1.21.7l2.17-.89a2,2,0,0,1,2.48.85l2.24,3.86a2,2,0,0,1-.5,2.57l-1.84,1.44q0,.38,0,.72c0,.2,0,.41,0,.62L59,50.06a2,2,0,0,1,.52,2.57l-2.19,3.89a2,2,0,0,1-2.47.87l-2.18-.87a9.56,9.56,0,0,1-1.31.77l-.31,2.32A2,2,0,0,1,49.08,61.33Zm-4.23-2.25h4l.37-2.71a1.11,1.11,0,0,1,.68-.89,7.84,7.84,0,0,0,1.91-1.12,1.12,1.12,0,0,1,1.11-.16l2.55,1,2-3.49-2.18-1.66a1.14,1.14,0,0,1-.44-1,7.26,7.26,0,0,0,0-2.08,1.14,1.14,0,0,1,.43-1l2.16-1.68-2-3.47-2.54,1a1.09,1.09,0,0,1-1.11-.15,7.91,7.91,0,0,0-1.84-1.06,1.11,1.11,0,0,1-.68-.89L48.86,37h-4l-.37,2.71a1.14,1.14,0,0,1-.69.89,7.84,7.84,0,0,0-1.91,1.12,1.11,1.11,0,0,1-1.11.16l-2.55-1-2,3.49L38.43,46a1.11,1.11,0,0,1,.44,1,7.51,7.51,0,0,0-.07,1,9.32,9.32,0,0,0,.08,1.09,1.16,1.16,0,0,1-.42,1l-2.17,1.68,2,3.47,2.54-1a1.11,1.11,0,0,1,1.11.14,7.8,7.8,0,0,0,1.84,1.07,1.14,1.14,0,0,1,.69.89Zm12.78-7.22Zm-10.78,1.4A5.23,5.23,0,1,1,52.08,48,5.23,5.23,0,0,1,46.85,53.26Zm0-8.2a3,3,0,1,0,3,3A3,3,0,0,0,46.85,45.06Z" style="fill:#787878"/><path d="M59.69,25.91l-5.83-5.83a9.92,9.92,0,1,0-3,2.74l6,6a1.57,1.57,0,0,0,2.2,0l.68-.69A1.55,1.55,0,0,0,59.69,25.91ZM45.85,20.2a5.94,5.94,0,1,1,5.94-5.94,5.89,5.89,0,0,1-2,4.48h0a6,6,0,0,1-1.45.93h0A6,6,0,0,1,45.85,20.2Z" style="fill:#cdcece"/><path d="M57.91,30.38A2.69,2.69,0,0,1,56,29.6l-5.39-5.39a11,11,0,1,1,6.27-10,10.93,10.93,0,0,1-1.58,5.68l5.18,5.18A2.61,2.61,0,0,1,61.27,27a2.65,2.65,0,0,1-.78,1.9l-.69.69A2.65,2.65,0,0,1,57.91,30.38Zm-7.08-8.69a1.17,1.17,0,0,1,.8.33l6,6a.36.36,0,0,0,.6,0l.69-.69A.43.43,0,0,0,59,27a.47.47,0,0,0-.12-.3h0l-5.84-5.83A1.12,1.12,0,0,1,53,19.42a8.78,8.78,0,1,0-2.69,2.43A1.1,1.1,0,0,1,50.83,21.69Zm-5-.37a7.1,7.1,0,1,1,5.95-3.27,6.73,6.73,0,0,1-1.32,1.54,7.29,7.29,0,0,1-1.73,1.11A7.1,7.1,0,0,1,45.85,21.32Zm0-11.87a4.81,4.81,0,0,0,0,9.62,4.71,4.71,0,0,0,2-.43,4.81,4.81,0,0,0-2-9.19Z" style="fill:#787878"/></svg>
