<svg id="Layer_1" data-name="Layer 1" xmlns="http://www.w3.org/2000/svg" viewBox="0 0 64 64"><title>SVG_Artboards</title><polygon points="38.69 37.05 38.69 48.53 25.13 48.53 25.13 37.05 4.45 37.05 4.45 60.01 60.13 60.01 60.13 37.05 38.69 37.05" style="fill:#a7d28c"/><path d="M60.13,61.14H4.45A1.14,1.14,0,0,1,3.32,60v-23a1.14,1.14,0,0,1,1.13-1.13H25.13a1.14,1.14,0,0,1,1.13,1.13V47.4h11.3V37.05a1.14,1.14,0,0,1,1.13-1.13H60.13a1.14,1.14,0,0,1,1.13,1.13V60A1.14,1.14,0,0,1,60.13,61.14ZM5.58,58.88H59V38.18H39.82V48.53a1.14,1.14,0,0,1-1.13,1.13H25.13A1.14,1.14,0,0,1,24,48.53V38.18H5.58Z" style="fill:#6f6f59"/><rect x="4.45" y="4.16" width="25.52" height="28.1" style="fill:#a7d28c"/><path d="M30,33.38H4.45a1.13,1.13,0,0,1-1.13-1.13V4.16A1.13,1.13,0,0,1,4.45,3H30A1.13,1.13,0,0,1,31.1,4.16V32.25A1.13,1.13,0,0,1,30,33.38ZM5.58,31.13H28.84V5.28H5.58Z" style="fill:#6f6f59"/><rect x="34.61" y="4.16" width="25.52" height="28.1" style="fill:#a7d28c"/><path d="M60.13,33.38H34.61a1.13,1.13,0,0,1-1.13-1.13V4.16A1.13,1.13,0,0,1,34.61,3H60.13a1.13,1.13,0,0,1,1.13,1.13V32.25A1.13,1.13,0,0,1,60.13,33.38ZM35.74,31.13H59V5.28H35.74Z" style="fill:#6f6f59"/><path d="M26.79,29.06v-6.3c0-3.66,2.51-6.63,5.61-6.63S38,19.1,38,22.76v6.3h3.7V21.81a9.32,9.32,0,1,0-18.63,0v7.25Z" style="fill:#787878"/><path d="M41,26H23.81A4.84,4.84,0,0,0,19,30.83V46.66a4.84,4.84,0,0,0,4.83,4.83H41a4.85,4.85,0,0,0,4.84-4.83V30.83A4.85,4.85,0,0,0,41,26ZM34.21,39.18l.58,5.71H30l.57-5.7a3.43,3.43,0,0,1,1.79-6.35,3.45,3.45,0,0,1,3.44,3.44A3.41,3.41,0,0,1,34.21,39.18Z" style="fill:#cdcece"/><path d="M41,52.62H23.81a6,6,0,0,1-6-6V30.83a6,6,0,0,1,6-6H41a6,6,0,0,1,6,6V46.66A6,6,0,0,1,41,52.62ZM23.81,27.13a3.7,3.7,0,0,0-3.7,3.7V46.66a3.71,3.71,0,0,0,3.7,3.71H41a3.71,3.71,0,0,0,3.71-3.71V30.83A3.71,3.71,0,0,0,41,27.13ZM34.79,46H30a1.13,1.13,0,0,1-1.12-1.24l.51-5.06a4.49,4.49,0,0,1-1.59-3.44A4.57,4.57,0,1,1,35.4,39.7l.51,5.08A1.13,1.13,0,0,1,34.79,46Zm-3.5-2.25h2.25l-.45-4.48a1.11,1.11,0,0,1,.53-1.06,2.32,2.32,0,1,0-2.41,0,1.14,1.14,0,0,1,.53,1.07Z" style="fill:#787878"/></svg>
