<svg id="Layer_1" data-name="Layer 1" xmlns="http://www.w3.org/2000/svg" viewBox="0 0 64 64"><title>SVG_Artboards</title><rect x="9.43" y="5.92" width="6.18" height="4.54" rx="2.03" style="fill:#787878"/><polygon points="42.06 4.26 26.08 4.26 22.97 9.42 45.17 9.42 42.06 4.26" style="fill:#cdcece"/><path d="M45.17,10.55H23a1.12,1.12,0,0,1-1-1.71l3.11-5.16a1.12,1.12,0,0,1,1-.54h16a1.13,1.13,0,0,1,1,.54l3.11,5.16a1.13,1.13,0,0,1-1,1.71ZM25,8.3H43.18L41.43,5.39H26.71Z" style="fill:#787878"/><rect x="6.34" y="8.86" width="51.31" height="36.74" rx="6.96" style="fill:#cdcece"/><path d="M50.69,46.72H13.3a8.1,8.1,0,0,1-8.09-8.09V15.82A8.1,8.1,0,0,1,13.3,7.73H50.69a8.1,8.1,0,0,1,8.09,8.09V38.63A8.1,8.1,0,0,1,50.69,46.72ZM13.3,10a5.84,5.84,0,0,0-5.83,5.84V38.63a5.84,5.84,0,0,0,5.83,5.84H50.69a5.85,5.85,0,0,0,5.84-5.84V15.82A5.85,5.85,0,0,0,50.69,10Z" style="fill:#787878"/><circle cx="12.52" cy="14.52" r="2.33" style="fill:#de4130"/><circle cx="34.64" cy="27.23" r="13.8" style="fill:#cdcece"/><path d="M34.64,42.15A14.93,14.93,0,1,1,49.57,27.23,14.94,14.94,0,0,1,34.64,42.15Zm0-27.59A12.67,12.67,0,1,0,47.31,27.23,12.69,12.69,0,0,0,34.64,14.56Z" style="fill:#787878"/><circle cx="34.64" cy="27.23" r="9.96" style="fill:#d0e5f6"/><path d="M34.64,38.31A11.09,11.09,0,1,1,45.73,27.23,11.09,11.09,0,0,1,34.64,38.31Zm0-19.91a8.83,8.83,0,1,0,8.83,8.83A8.84,8.84,0,0,0,34.64,18.4Z" style="fill:#787878"/><path d="M29.1,28.24a6.65,6.65,0,0,1,11.94-4,6.65,6.65,0,1,0-11.43,6.59A6.66,6.66,0,0,1,29.1,28.24Z" style="fill:#47b1d8"/><path d="M31,34a21.19,21.19,0,0,0-16.66,7.54L9.27,36.51,5,57.58l21.08-4.26-4.86-4.87c2.56-2.58,9.49-8.6,14.62-4.07,6.36,5.62.37,12.45-2.33,17.69C52.94,54.39,43.39,34,31,34Z" style="fill:#ec1c24"/><path d="M33.51,63.19a1.13,1.13,0,0,1-1-1.64c.47-.91,1-1.83,1.59-2.81,3.27-5.54,5.26-9.75,1-13.51-4-3.5-9.44.58-12.28,3.24l4.06,4.05a1.13,1.13,0,0,1-.58,1.9L5.22,58.68a1.13,1.13,0,0,1-1-.3,1.15,1.15,0,0,1-.31-1L8.16,36.28a1.14,1.14,0,0,1,.78-.85,1.13,1.13,0,0,1,1.12.28l4.23,4.23a22.58,22.58,0,0,1,16.72-7c6.74,0,13.09,5.63,14.46,12.82,1.42,7.47-2.89,14-11.54,17.38A1,1,0,0,1,33.51,63.19ZM31.6,41.59a7.35,7.35,0,0,1,5,1.95c5.83,5.15,2.4,11.35-.33,16,7.7-4.38,7.51-10.66,7-13.36-1.17-6.17-6.55-11-12.24-11a20,20,0,0,0-15.8,7.13,1.14,1.14,0,0,1-.81.41,1.1,1.1,0,0,1-.85-.33L10,38.79,6.44,56.14,23.8,52.63l-3.38-3.38a1.12,1.12,0,0,1,0-1.59C22.54,45.51,27.06,41.59,31.6,41.59Z" style="fill:#6f6f59"/></svg>
