<svg id="Layer_1" data-name="Layer 1" xmlns="http://www.w3.org/2000/svg" viewBox="0 0 64 64"><title>SVG_Artboards</title><path d="M40.17,13.56a27.89,27.89,0,0,0-21.92,9.93l-6.68-6.68L6,44.53l27.74-5.6-6.4-6.4c3.37-3.41,12.49-11.32,19.24-5.36,8.36,7.39.49,16.38-3.06,23.27C69,40.34,56.47,13.56,40.17,13.56Z" style="fill:#ec1c24"/><path d="M43.47,51.56a1.13,1.13,0,0,1-.84-.37,1.14,1.14,0,0,1-.17-1.27c.61-1.18,1.33-2.39,2.09-3.68C48.24,40,52.05,33.55,45.78,28c-5.54-4.9-13.16,1-16.89,4.53l5.59,5.59a1.13,1.13,0,0,1-.57,1.9L6.17,45.64a1.13,1.13,0,0,1-1.33-1.33l5.62-27.73A1.14,1.14,0,0,1,12.37,16l5.82,5.83a29.32,29.32,0,0,1,22-9.4c8.7,0,16.91,7.28,18.68,16.58,1.83,9.64-3.76,18-15,22.46A1,1,0,0,1,43.47,51.56ZM41,23.86a9.28,9.28,0,0,1,6.33,2.47c7.66,6.76,3,14.69-.79,21.06l-.36.62c11.47-5.88,11.22-14.8,10.5-18.57-1.57-8.27-8.8-14.75-16.46-14.75a26.56,26.56,0,0,0-21,9.52,1.14,1.14,0,0,1-.82.4,1.08,1.08,0,0,1-.85-.33c-2.54-2.54-4.16-4.15-5.19-5.21l-4.87,24,24-4.85-4.91-4.92a1.12,1.12,0,0,1,0-1.59C29.25,29,35.1,23.86,41,23.86Z" style="fill:#6f6f59"/></svg>
