<?xml version="1.0" encoding="UTF-8"?><svg id="Layer_1" xmlns="http://www.w3.org/2000/svg" viewBox="0 0 64 64"><path d="m39.31,16.82v-1.2c0-4.77-3.27-8.64-7.31-8.64s-7.31,3.87-7.31,8.64v18.2h-4.82V14.37c0-6.7,5.43-12.13,12.13-12.13s12.13,5.43,12.13,12.13v2.44h-4.82Z" style="fill:#787878;"/><path d="m43.18,25.46h-22.37c-3.46,0-6.29,2.83-6.29,6.29v20.61c0,3.46,2.83,6.29,6.29,6.29h22.37c3.46,0,6.29-2.83,6.29-6.29v-20.61c0-3.46-2.83-6.29-6.29-6.29Zm-8.83,17.16l.75,7.43h-6.18l.74-7.42c-1.28-.79-2.15-2.19-2.15-3.8,0-2.46,2.01-4.47,4.47-4.47s4.47,2.01,4.47,4.47c0,1.59-.85,2.99-2.12,3.78Z" style="fill:#cdcece; stroke:#787878; stroke-linecap:round; stroke-linejoin:round; stroke-width:2.25px;"/><path d="m43.18,60.12h-22.37c-4.28,0-7.76-3.48-7.76-7.76v-20.61c0-4.28,3.48-7.76,7.76-7.76h22.37c4.28,0,7.76,3.48,7.76,7.76v20.61c0,4.28-3.48,7.76-7.76,7.76ZM20.82,26.93c-2.66,0-4.82,2.16-4.82,4.82v20.61c0,2.66,2.16,4.82,4.82,4.82h22.37c2.66,0,4.82-2.16,4.82-4.82v-20.61c0-2.66-2.16-4.82-4.82-4.82h-22.37Zm14.29,24.6h-6.18c-.41,0-.81-.18-1.09-.48-.28-.31-.41-.72-.37-1.13l.66-6.59c-1.31-1.12-2.07-2.74-2.07-4.48,0-3.28,2.67-5.94,5.94-5.94s5.94,2.67,5.94,5.94c0,1.73-.75,3.34-2.04,4.46l.66,6.61c.04.41-.09.82-.37,1.13-.28.31-.67.48-1.09.48Zm-4.56-2.93h2.93l-.58-5.82c-.06-.55.21-1.09.68-1.39.9-.56,1.43-1.51,1.43-2.54,0-1.66-1.35-3.01-3.01-3.01s-3.01,1.35-3.01,3.01c0,1.04.54,1.99,1.45,2.55.48.29.75.84.69,1.39l-.58,5.81Z" style="fill:#787878;"/><line x1="46.83" y1="19.83" x2="50.6" y2="19.83" style="fill:none; stroke:#787878; stroke-linecap:round; stroke-linejoin:round; stroke-width:1.12px;"/><line x1="46.83" y1="17.49" x2="49.55" y2="15.98" style="fill:none; stroke:#787878; stroke-linecap:round; stroke-linejoin:round; stroke-width:1.12px;"/><line x1="46.83" y1="22.16" x2="49.55" y2="23.68" style="fill:none; stroke:#787878; stroke-linecap:round; stroke-linejoin:round; stroke-width:1.12px;"/></svg>
