<svg id="Layer_1" data-name="Layer 1" xmlns="http://www.w3.org/2000/svg" viewBox="0 0 64 64"><rect x="7.61" y="10.75" width="14.66" height="43.05" transform="translate(29.87 64.55) rotate(180)" style="fill:#a7d28c"/><path d="M22.26,54.93H7.61A1.13,1.13,0,0,1,6.48,53.8v-43A1.14,1.14,0,0,1,7.61,9.62H22.26a1.13,1.13,0,0,1,1.13,1.13V53.8A1.12,1.12,0,0,1,22.26,54.93ZM8.73,52.68H21.14V11.88H8.73Z" style="fill:#6f6f59"/><path d="M58.17,53.34V10.66L26,32Z" style="fill:#a7d28c"/><path d="M58.17,54.46a1.17,1.17,0,0,1-.62-.18L25.38,32.93a1.15,1.15,0,0,1-.5-.94,1.14,1.14,0,0,1,.5-.94L57.55,9.72a1.12,1.12,0,0,1,1.16-.05,1.14,1.14,0,0,1,.59,1V53.34a1.11,1.11,0,0,1-1.13,1.12ZM28,32l29,19.25V12.76Z" style="fill:#6f6f59"/></svg>
