<svg id="Layer_1" data-name="Layer 1" xmlns="http://www.w3.org/2000/svg" viewBox="0 0 64 64"><path d="M53.39,16.4,37.4,5.79V12h-28V32.75h8.77v-12H37.4V27Z" style="fill:#a7d28c"/><path d="M18.21,33.88H9.44a1.14,1.14,0,0,1-1.13-1.13V12a1.14,1.14,0,0,1,1.13-1.13H36.27V5.79A1.13,1.13,0,0,1,38,4.85L54,15.46a1.12,1.12,0,0,1,0,1.88L38,28A1.13,1.13,0,0,1,36.27,27v-5.1H19.33V32.75A1.13,1.13,0,0,1,18.21,33.88Zm-7.64-2.26h6.51V20.78a1.12,1.12,0,0,1,1.13-1.12H37.4a1.12,1.12,0,0,1,1.12,1.12v4.13L51.35,16.4,38.52,7.89V12a1.13,1.13,0,0,1-1.12,1.13H10.57Z" style="fill:#6f6f59"/><path d="M9.44,45.19l16,10.61V49.58h28V28.85H44.63v12H25.43V34.59Z" style="fill:#a7d28c"/><path d="M25.43,56.93a1.1,1.1,0,0,1-.62-.19l-16-10.61a1.11,1.11,0,0,1,0-1.87l16-10.61a1.12,1.12,0,0,1,1.75.94v5.1H43.5V28.85a1.12,1.12,0,0,1,1.13-1.13h8.76a1.13,1.13,0,0,1,1.13,1.13V49.58a1.13,1.13,0,0,1-1.13,1.12H26.56v5.1a1.14,1.14,0,0,1-.59,1A1.13,1.13,0,0,1,25.43,56.93ZM11.48,45.19,24.31,53.7V49.58a1.13,1.13,0,0,1,1.12-1.13H52.26V30H45.75V40.81a1.13,1.13,0,0,1-1.12,1.13H25.43a1.13,1.13,0,0,1-1.12-1.13V36.69Z" style="fill:#6f6f59"/></svg>
