<svg id="Layer_1" data-name="Layer 1" xmlns="http://www.w3.org/2000/svg" viewBox="0 0 64 64"><rect x="12.4" y="9.42" width="15.45" height="45.38" style="fill:#a7d28c"/><path d="M27.85,55.93H12.4a1.13,1.13,0,0,1-1.13-1.13V9.42A1.13,1.13,0,0,1,12.4,8.3H27.85A1.13,1.13,0,0,1,29,9.42V54.8A1.13,1.13,0,0,1,27.85,55.93ZM13.53,53.68H26.72V10.55H13.53Z" style="fill:#6f6f59"/><rect x="36.42" y="9.42" width="15.45" height="45.38" style="fill:#a7d28c"/><path d="M51.87,55.93H36.42a1.13,1.13,0,0,1-1.13-1.13V9.42A1.13,1.13,0,0,1,36.42,8.3H51.87A1.12,1.12,0,0,1,53,9.42V54.8A1.12,1.12,0,0,1,51.87,55.93ZM37.54,53.68h13.2V10.55H37.54Z" style="fill:#6f6f59"/></svg>
