<svg id="Layer_1" data-name="Layer 1" xmlns="http://www.w3.org/2000/svg" viewBox="0 0 64 64"><rect x="44.37" y="10.75" width="14.66" height="43.05" transform="translate(103.39 64.55) rotate(180)" style="fill:#a7d28c"/><path d="M59,54.93H44.37a1.13,1.13,0,0,1-1.13-1.13v-43a1.14,1.14,0,0,1,1.13-1.13H59a1.13,1.13,0,0,1,1.12,1.13V53.8A1.12,1.12,0,0,1,59,54.93ZM45.5,52.68H57.9V11.88H45.5Z" style="fill:#6f6f59"/><path d="M37.08,53.34V10.66L4.91,32Z" style="fill:#a7d28c"/><path d="M37.08,54.46a1.17,1.17,0,0,1-.62-.18L4.29,32.93a1.15,1.15,0,0,1-.5-.94,1.14,1.14,0,0,1,.5-.94L36.46,9.72a1.12,1.12,0,0,1,1.16-.05,1.14,1.14,0,0,1,.59,1V53.34a1.11,1.11,0,0,1-1.13,1.12ZM7,32,36,51.24V12.76Z" style="fill:#6f6f59"/></svg>
