<svg id="Layer_1" data-name="Layer 1" xmlns="http://www.w3.org/2000/svg" viewBox="0 0 64 64"><rect x="5.81" y="10.75" width="14.66" height="43.05" style="fill:#a7d28c"/><path d="M20.47,54.93H5.81A1.13,1.13,0,0,1,4.68,53.8v-43A1.14,1.14,0,0,1,5.81,9.62H20.47a1.13,1.13,0,0,1,1.12,1.13V53.8A1.12,1.12,0,0,1,20.47,54.93ZM6.94,52.68h12.4V11.88H6.94Z" style="fill:#6f6f59"/><path d="M27.69,10.66V53.34L59.86,32Z" style="fill:#a7d28c"/><path d="M27.69,54.46a1.09,1.09,0,0,1-.53-.13,1.13,1.13,0,0,1-.6-1V10.66a1.13,1.13,0,0,1,.6-1,1.11,1.11,0,0,1,1.15.05L60.48,31.07A1.13,1.13,0,0,1,61,32a1.12,1.12,0,0,1-.51.94L28.31,54.28A1.12,1.12,0,0,1,27.69,54.46Zm1.13-41.7V51.24L57.82,32Z" style="fill:#6f6f59"/></svg>
