<svg id="Layer_1" data-name="Layer 1" xmlns="http://www.w3.org/2000/svg" viewBox="0 0 64 64"><rect x="41.87" y="10.75" width="14.66" height="43.05" style="fill:#a7d28c"/><path d="M56.53,54.93H41.87a1.12,1.12,0,0,1-1.12-1.13v-43a1.13,1.13,0,0,1,1.12-1.13H56.53a1.14,1.14,0,0,1,1.13,1.13V53.8A1.13,1.13,0,0,1,56.53,54.93ZM43,52.68H55.4V11.88H43Z" style="fill:#6f6f59"/><path d="M6.79,10.66V53.34L39,32Z" style="fill:#a7d28c"/><path d="M6.79,54.46a1.11,1.11,0,0,1-1.13-1.12V10.66a1.14,1.14,0,0,1,.59-1,1.12,1.12,0,0,1,1.16.05L39.58,31.07a1.15,1.15,0,0,1,.5.94,1.14,1.14,0,0,1-.5.94L7.41,54.28A1.17,1.17,0,0,1,6.79,54.46Zm1.12-41.7V51.24L36.92,32Z" style="fill:#6f6f59"/></svg>
