<svg id="Layer_1" data-name="Layer 1" xmlns="http://www.w3.org/2000/svg" viewBox="0 0 64 64"><title>SVG_Artboards</title><rect x="5.57" y="32.13" width="52.28" height="19.82" style="fill:#d4ece6"/><path d="M57.85,53.08H5.57A1.13,1.13,0,0,1,4.45,52V32.13A1.13,1.13,0,0,1,5.57,31H57.85A1.14,1.14,0,0,1,59,32.13V52A1.14,1.14,0,0,1,57.85,53.08ZM6.7,50.82h50V33.25H6.7Z" style="fill:#787878"/><path d="M37.64,13C31.51,29,20.71,31.9,7.06,31.9c-.5,0-1,0-1.49,0V51.93l1.12,0c27.12,0,45.61-14.2,49.65-31.12Z" style="fill:#a7d28c"/><path d="M6.69,53.08l-.75,0H5.56a1.13,1.13,0,0,1-1.11-1.13V31.87a1.15,1.15,0,0,1,.34-.82,1.14,1.14,0,0,1,.83-.31c.48,0,1,0,1.44,0,13.92,0,23.71-3,29.53-18.16A1.14,1.14,0,0,1,37.2,12a1.12,1.12,0,0,1,.88,0l18.7,7.8a1.14,1.14,0,0,1,.66,1.31C53.64,37,36.47,53.08,6.69,53.08Zm0-20V50.82C34.66,50.82,51,36.24,55,21.5l-16.74-7C31.94,29.84,21.2,33,7.06,33Z" style="fill:#6f6f59"/><path d="M51.18,32.13H5.57v19.8l1.12,0C27.45,52,43.15,43.62,51.18,32.13Z" style="fill:#b4cda3"/><path d="M6.69,53.08l-.75,0H5.56a1.13,1.13,0,0,1-1.11-1.13V32.13A1.13,1.13,0,0,1,5.57,31H51.18a1.13,1.13,0,0,1,.93,1.77C43.22,45.49,26.24,53.08,6.69,53.08Zm0-19.83V50.82c17.88,0,33.47-6.53,42.24-17.57Z" style="fill:#a8c396"/><path d="M6.69,53.08l-.75,0H5.56a1.13,1.13,0,0,1-1.11-1.13V31.87a1.15,1.15,0,0,1,.34-.82,1.14,1.14,0,0,1,.83-.31c.48,0,1,0,1.44,0,13.92,0,23.71-3,29.53-18.16A1.14,1.14,0,0,1,37.2,12a1.12,1.12,0,0,1,.88,0l18.7,7.8a1.14,1.14,0,0,1,.66,1.31C53.64,37,36.47,53.08,6.69,53.08Zm0-20V50.82C34.66,50.82,51,36.24,55,21.5l-16.74-7C31.94,29.84,21.2,33,7.06,33Z" style="fill:#6f6f59"/></svg>
