<svg id="Layer_1" data-name="Layer 1" xmlns="http://www.w3.org/2000/svg" viewBox="0 0 64 64"><title>SVG_Artboards</title><path d="M58.4,47.8,36.08,25.48A16.82,16.82,0,0,0,14.74,4.16L28.81,18.23,18.24,28.8,4.17,14.73A16.82,16.82,0,0,0,25.49,36.07L47.81,58.39A7.49,7.49,0,1,0,58.4,47.8Z" style="fill:#2896d3"/><path d="M53.1,61.71A8.56,8.56,0,0,1,47,59.18L25.18,37.35a18,18,0,0,1-22.08-23,1.14,1.14,0,0,1,.81-.74,1.13,1.13,0,0,1,1.06.3L18.24,27.21l9-9L14,5a1.13,1.13,0,0,1,.43-1.87,18,18,0,0,1,23,22.08L59.19,47A8.62,8.62,0,0,1,53.1,61.71ZM25.49,34.94a1.17,1.17,0,0,1,.8.33L48.6,57.59a6.36,6.36,0,0,0,9-9L35.28,26.28A1.13,1.13,0,0,1,35,25.12,15.69,15.69,0,0,0,16.91,4.74l12.7,12.69a1.14,1.14,0,0,1,.33.8,1.15,1.15,0,0,1-.33.8L19,29.6a1.12,1.12,0,0,1-1.59,0L4.74,16.9A15.7,15.7,0,0,0,25.13,35,1.13,1.13,0,0,1,25.49,34.94Z" style="fill:#6f6f59"/></svg>
