<svg id="Layer_1" data-name="Layer 1" xmlns="http://www.w3.org/2000/svg" viewBox="0 0 64 64"><path d="M24.44,18.2l-9.31-14L5.81,18.2h5V39.46h8.73V18.2Z" style="fill:#a7d28c"/><path d="M19.49,40.58H10.76a1.13,1.13,0,0,1-1.13-1.12V19.33H5.81a1.13,1.13,0,0,1-.94-1.75l9.32-14a1.14,1.14,0,0,1,.94-.5h0a1.14,1.14,0,0,1,.94.5l9.31,14.05a1.13,1.13,0,0,1-.94,1.75H20.62V39.46A1.12,1.12,0,0,1,19.49,40.58Zm-7.61-2.25h6.49V18.2a1.13,1.13,0,0,1,1.12-1.13h2.85L15.13,6.19,7.91,17.07h2.85a1.13,1.13,0,0,1,1.12,1.13Z" style="fill:#6f6f59"/><path d="M45.7,58.79l14-9.31-14-9.32V45.1H24.44v8.74H45.7Z" style="fill:#f3c017"/><path d="M45.7,59.91a1.11,1.11,0,0,1-1.13-1.12V55H24.44a1.14,1.14,0,0,1-1.13-1.13V45.1A1.13,1.13,0,0,1,24.44,44H44.57V40.16a1.12,1.12,0,0,1,1.75-.94l14,9.32a1.14,1.14,0,0,1,.5.94,1.15,1.15,0,0,1-.5.94l-14,9.31A1.17,1.17,0,0,1,45.7,59.91Zm-20.13-7.2H45.7a1.13,1.13,0,0,1,1.12,1.13v2.85L57.7,49.48,46.82,42.26V45.1a1.12,1.12,0,0,1-1.12,1.13H25.57Z" style="fill:#6f6f59"/><rect x="5.81" y="39.46" width="18.46" height="18.46" style="fill:#de4130"/><path d="M24.27,59.05H5.81a1.13,1.13,0,0,1-1.13-1.13V39.46a1.12,1.12,0,0,1,1.13-1.13H24.27a1.12,1.12,0,0,1,1.12,1.13V57.92A1.13,1.13,0,0,1,24.27,59.05ZM6.93,56.79H23.14V40.58H6.93Z" style="fill:#6f6f59"/><path d="M36,24.45H28.48V21.59H36Z" style="fill:#787878"/><path d="M46.19,19l3.47-6.55H54L48.49,21.6l5.8,9.32H49.81l-3.57-6.66-3.56,6.66H38.35L44,21.6l-5.48-9.16h4.29Z" style="fill:#787878"/></svg>
