<svg id="Layer_1" data-name="Layer 1" xmlns="http://www.w3.org/2000/svg" viewBox="0 0 64 64"><polygon points="37.32 4.17 21.21 5.87 5.64 44.89 22.55 45.82 37.32 4.17" style="fill:#1272b9;stroke:#6f6f59;stroke-linecap:round;stroke-linejoin:round;stroke-width:2.2536px"/><polygon points="37.32 4.17 58 25.12 48.58 60.07 22.56 45.85 37.32 4.17" style="fill:#1e8fce;stroke:#6f6f59;stroke-linecap:round;stroke-linejoin:round;stroke-width:2.2536px"/><polygon points="48.58 60.1 31.57 57.74 5.64 44.89 22.51 45.8 48.58 60.1" style="fill:#2e5ba8;stroke:#6f6f59;stroke-linecap:round;stroke-linejoin:round;stroke-width:2.2536px"/><ellipse cx="43.12" cy="35.04" rx="16.75" ry="11.61" transform="translate(-0.02 70.05) rotate(-78.16)" style="fill:#97509e"/><path d="M45.55,22.3h0a7.49,7.49,0,0,0-6.74,3.05A18.85,18.85,0,0,0,36.26,44a7.91,7.91,0,0,0,6.29,4.7h.05c7,.78,13.29-4.51,14.11-11.8S52.52,23.08,45.55,22.3Z" style="fill:#5c9a42"/><path d="M44,43.48a15.44,15.44,0,0,1-9-4.31A17.51,17.51,0,0,0,36.26,44a7.91,7.91,0,0,0,6.29,4.7h.05a12.87,12.87,0,0,0,13.56-9.19A15.71,15.71,0,0,1,44,43.48Z" style="fill:#427035"/><path d="M45.55,22.3h0a7.49,7.49,0,0,0-6.74,3.05A18.85,18.85,0,0,0,36.26,44a7.91,7.91,0,0,0,6.29,4.7h.05c7,.78,13.29-4.51,14.11-11.8S52.52,23.08,45.55,22.3Z" style="fill:none;stroke:#6f6f59;stroke-linecap:round;stroke-linejoin:round;stroke-width:2.2536px"/></svg>
