<svg id="Layer_1" data-name="Layer 1" xmlns="http://www.w3.org/2000/svg" viewBox="0 0 64 64"><path d="M25.43,18.2l-9.31-14L6.8,18.2h5V39.46h8.73V18.2Z" style="fill:#a7d28c"/><path d="M20.48,40.58H11.75a1.12,1.12,0,0,1-1.13-1.12V19.33H6.8a1.12,1.12,0,0,1-.94-1.75l9.32-14a1.14,1.14,0,0,1,.94-.5h0a1.14,1.14,0,0,1,.94.5l9.31,14.05a1.13,1.13,0,0,1-.94,1.75H21.61V39.46A1.13,1.13,0,0,1,20.48,40.58Zm-7.61-2.25h6.48V18.2a1.14,1.14,0,0,1,1.13-1.13h2.85L16.12,6.19,8.9,17.07h2.85a1.13,1.13,0,0,1,1.12,1.13Z" style="fill:#6f6f59"/><path d="M46.69,58.79l14-9.31-14-9.32V45.1H25.43v8.74H46.69Z" style="fill:#de4130"/><path d="M46.69,59.91a1.11,1.11,0,0,1-1.13-1.12V55H25.43a1.14,1.14,0,0,1-1.13-1.13V45.1A1.13,1.13,0,0,1,25.43,44H45.56V40.16a1.12,1.12,0,0,1,1.75-.94l14,9.32a1.12,1.12,0,0,1,.51.94,1.13,1.13,0,0,1-.51.94l-14,9.31A1.17,1.17,0,0,1,46.69,59.91Zm-20.13-7.2H46.69a1.13,1.13,0,0,1,1.12,1.13v2.85l10.88-7.21L47.81,42.26V45.1a1.12,1.12,0,0,1-1.12,1.13H26.56Z" style="fill:#6f6f59"/><rect x="6.79" y="39.46" width="18.46" height="18.46" style="fill:#f3c017"/><path d="M25.26,59.05H6.79a1.13,1.13,0,0,1-1.12-1.13V39.46a1.12,1.12,0,0,1,1.12-1.13H25.26a1.12,1.12,0,0,1,1.12,1.13V57.92A1.13,1.13,0,0,1,25.26,59.05ZM7.92,56.79H24.13V40.58H7.92Z" style="fill:#6f6f59"/><path d="M36.43,20.61H41v3.2H36.43v5.26h-3.5V23.81h-4.6v-3.2h4.6v-5h3.5Z" style="fill:#787878"/><path d="M50,21h.07l4-8.52H58.2l-6.33,12v6.5H48.16V24.23L41.93,12.44H46Z" style="fill:#787878"/></svg>
