<svg id="Layer_1" data-name="Layer 1" xmlns="http://www.w3.org/2000/svg" viewBox="0 0 64 64"><path d="M24.57,18.2l-9.31-14L5.93,18.2h5V39.46h8.74V18.2Z" style="fill:#f3c017"/><path d="M19.62,40.58H10.88a1.12,1.12,0,0,1-1.12-1.12V19.33H5.93a1.13,1.13,0,0,1-1-.6A1.11,1.11,0,0,1,5,17.58l9.32-14a1.14,1.14,0,0,1,.94-.5h0a1.15,1.15,0,0,1,.94.5l9.31,14.05a1.13,1.13,0,0,1-.94,1.75H20.75V39.46A1.13,1.13,0,0,1,19.62,40.58ZM12,38.33h6.48V18.2a1.14,1.14,0,0,1,1.13-1.13h2.85L15.26,6.19,8,17.07h2.85A1.14,1.14,0,0,1,12,18.2Z" style="fill:#6f6f59"/><path d="M45.82,58.79l14-9.31-14-9.32V45.1H24.57v8.74H45.82Z" style="fill:#de4130"/><path d="M45.82,59.91a1.13,1.13,0,0,1-1.13-1.12V55H24.57a1.13,1.13,0,0,1-1.13-1.13V45.1A1.12,1.12,0,0,1,24.57,44H44.69V40.16a1.12,1.12,0,0,1,1.75-.94l14.05,9.32a1.11,1.11,0,0,1,.5.94,1.12,1.12,0,0,1-.5.94L46.44,59.73A1.12,1.12,0,0,1,45.82,59.91Zm-20.13-7.2H45.82A1.14,1.14,0,0,1,47,53.84v2.85l10.88-7.21L47,42.26V45.1a1.13,1.13,0,0,1-1.13,1.13H25.69Z" style="fill:#6f6f59"/><rect x="5.93" y="39.46" width="18.46" height="18.46" style="fill:#a7d28c"/><path d="M24.39,59.05H5.93A1.14,1.14,0,0,1,4.8,57.92V39.46a1.13,1.13,0,0,1,1.13-1.13H24.39a1.13,1.13,0,0,1,1.13,1.13V57.92A1.14,1.14,0,0,1,24.39,59.05ZM7.06,56.79H23.27V40.58H7.06Z" style="fill:#6f6f59"/><path d="M36.09,24.45H28.61V21.59h7.48Z" style="fill:#787878"/><path d="M43.42,28.08H51.9v2.84H39.06V29L47.28,15.3H39.07V12.44H51.69v1.85Z" style="fill:#787878"/></svg>
