<svg id="Layer_1" data-name="Layer 1" xmlns="http://www.w3.org/2000/svg" viewBox="0 0 64 64"><path d="M58.16,32A26.16,26.16,0,1,0,32,58.16,26.16,26.16,0,0,0,58.16,32Z" style="fill:#2896d3"/><path d="M32,59.29A27.29,27.29,0,1,1,59.29,32,27.32,27.32,0,0,1,32,59.29ZM32,7A25,25,0,1,0,57,32,25.07,25.07,0,0,0,32,7Z" style="fill:#6f6f59"/><rect x="51.77" y="4.47" width="4.53" height="11.05" transform="translate(85.18 55.28) rotate(-135)" style="fill:#6f6f59"/><rect x="7.69" y="48.48" width="4.53" height="11.05" transform="translate(41.1 8.77) rotate(45)" style="fill:#6f6f59"/><polygon points="4.32 46.71 17.25 59.64 22.33 41.71 4.32 46.71" style="fill:#a7d28c"/><path d="M17.25,60.77a1.14,1.14,0,0,1-.8-.33L3.52,47.51a1.13,1.13,0,0,1-.29-1.08,1.1,1.1,0,0,1,.79-.8l18-5A1.12,1.12,0,0,1,23.41,42L18.33,60a1.11,1.11,0,0,1-.8.78A.9.9,0,0,1,17.25,60.77ZM6.48,47.28,16.69,57.49l4-14.16Z" style="fill:#6f6f59"/><polygon points="59.68 17.29 46.75 4.35 41.67 22.29 59.68 17.29" style="fill:#a7d28c"/><path d="M41.67,23.42a1.15,1.15,0,0,1-.8-.33A1.13,1.13,0,0,1,40.59,22L45.67,4.05a1.12,1.12,0,0,1,.8-.79,1.11,1.11,0,0,1,1.08.3L60.48,16.49a1.13,1.13,0,0,1-.5,1.88l-18,5A1.54,1.54,0,0,1,41.67,23.42ZM47.31,6.51l-4,14.16,14.22-4Z" style="fill:#6f6f59"/><rect x="7.73" y="4.43" width="4.53" height="11.05" transform="translate(24.11 9.93) rotate(135)" style="fill:#6f6f59"/><polygon points="17.29 4.32 4.36 17.25 22.29 22.33 17.29 4.32" style="fill:#a7d28c"/><path d="M22.29,23.46a1.18,1.18,0,0,1-.31-.05L4.05,18.33a1.12,1.12,0,0,1-.49-1.88L16.49,3.52a1.13,1.13,0,0,1,1.08-.29,1.11,1.11,0,0,1,.8.78l5,18a1.12,1.12,0,0,1-.29,1.1A1.15,1.15,0,0,1,22.29,23.46ZM6.51,16.69l14.16,4-4-14.22Z" style="fill:#6f6f59"/><rect x="51.73" y="48.51" width="4.53" height="11.05" transform="translate(-22.4 54.01) rotate(-45)" style="fill:#6f6f59"/><polygon points="46.71 59.68 59.65 46.75 41.71 41.67 46.71 59.68" style="fill:#a7d28c"/><path d="M46.71,60.81a.9.9,0,0,1-.28,0,1.1,1.1,0,0,1-.8-.79l-5-18a1.15,1.15,0,0,1,.29-1.1A1.11,1.11,0,0,1,42,40.59L60,45.67a1.12,1.12,0,0,1,.49,1.88L47.51,60.48A1.14,1.14,0,0,1,46.71,60.81ZM43.33,43.3l4,14.22L57.49,47.31Z" style="fill:#6f6f59"/></svg>
