<svg id="Layer_1" data-name="Layer 1" xmlns="http://www.w3.org/2000/svg" viewBox="0 0 64 64"><title>SVG_Artboards</title><path d="M40.58,32A8.61,8.61,0,1,0,32,40.61,8.6,8.6,0,0,0,40.58,32Z" style="fill:#2896d3"/><path d="M32,41.74A9.74,9.74,0,1,1,41.71,32,9.75,9.75,0,0,1,32,41.74Zm0-17.23A7.49,7.49,0,1,0,39.46,32,7.5,7.5,0,0,0,32,24.51Z" style="fill:#6f6f59"/><rect x="51.74" y="4.47" width="4.53" height="11.05" transform="translate(85.13 55.26) rotate(-135)" style="fill:#6f6f59"/><rect x="7.66" y="48.48" width="4.53" height="11.05" transform="translate(41.09 8.8) rotate(45)" style="fill:#6f6f59"/><polygon points="4.29 46.71 17.22 59.65 22.3 41.71 4.29 46.71" style="fill:#a7d28c"/><path d="M17.22,60.77a1.09,1.09,0,0,1-.8-.33L3.49,47.51a1.13,1.13,0,0,1-.29-1.08,1.1,1.1,0,0,1,.79-.8l18-5a1.15,1.15,0,0,1,1.1.29A1.11,1.11,0,0,1,23.38,42L18.3,60a1.14,1.14,0,0,1-.8.79A1.33,1.33,0,0,1,17.22,60.77ZM6.45,47.28,16.66,57.49l4-14.16Z" style="fill:#6f6f59"/><polygon points="59.65 17.29 46.72 4.36 41.64 22.29 59.65 17.29" style="fill:#a7d28c"/><path d="M41.64,23.42a1.15,1.15,0,0,1-.8-.33A1.13,1.13,0,0,1,40.56,22L45.64,4.05a1.14,1.14,0,0,1,.8-.79,1.16,1.16,0,0,1,1.08.3L60.45,16.49A1.13,1.13,0,0,1,60,18.37l-18,5A1.54,1.54,0,0,1,41.64,23.42ZM47.28,6.51l-4,14.16,14.22-4Z" style="fill:#6f6f59"/><rect x="7.7" y="4.43" width="4.53" height="11.05" transform="translate(24.06 9.95) rotate(135)" style="fill:#6f6f59"/><polygon points="17.26 4.32 4.33 17.25 22.26 22.33 17.26 4.32" style="fill:#a7d28c"/><path d="M22.26,23.46a1.18,1.18,0,0,1-.31-.05L4,18.33a1.12,1.12,0,0,1-.49-1.88L16.46,3.52a1.13,1.13,0,0,1,1.08-.29,1.1,1.1,0,0,1,.8.79l5,18a1.12,1.12,0,0,1-.29,1.1A1.15,1.15,0,0,1,22.26,23.46ZM6.48,16.69l14.16,4L16.69,6.48Z" style="fill:#6f6f59"/><rect x="51.7" y="48.52" width="4.53" height="11.05" transform="translate(-22.4 53.99) rotate(-45)" style="fill:#6f6f59"/><polygon points="46.68 59.68 59.62 46.75 41.68 41.67 46.68 59.68" style="fill:#a7d28c"/><path d="M46.68,60.81a.9.9,0,0,1-.28,0,1.1,1.1,0,0,1-.8-.79l-5-18a1.15,1.15,0,0,1,.29-1.1A1.16,1.16,0,0,1,42,40.59l17.93,5.08a1.12,1.12,0,0,1,.49,1.88L47.48,60.48A1.14,1.14,0,0,1,46.68,60.81ZM43.3,43.3l4,14.22L57.46,47.31Z" style="fill:#6f6f59"/></svg>
