<svg id="Layer_1" data-name="Layer 1" xmlns="http://www.w3.org/2000/svg" viewBox="0 0 64 64"><polyline points="49.36 42.42 49.36 48.42 43.36 48.42" style="fill:none;stroke:#787878;stroke-linejoin:round;stroke-width:2.2536px"/><line x1="32.54" y1="48.42" x2="16.31" y2="48.42" style="fill:none;stroke:#787878;stroke-linejoin:round;stroke-width:2.2536px;stroke-dasharray:10.819355964660645,10.819355964660645"/><polyline points="10.9 48.42 4.9 48.42 4.9 42.42" style="fill:none;stroke:#787878;stroke-linejoin:round;stroke-width:2.2536px"/><line x1="4.9" y1="31.6" x2="4.9" y2="15.37" style="fill:none;stroke:#787878;stroke-linejoin:round;stroke-width:2.2536px;stroke-dasharray:10.819355964660645,10.819355964660645"/><polyline points="4.9 9.96 4.9 3.96 10.9 3.96" style="fill:none;stroke:#787878;stroke-linejoin:round;stroke-width:2.2536px"/><line x1="21.72" y1="3.96" x2="37.95" y2="3.96" style="fill:none;stroke:#787878;stroke-linejoin:round;stroke-width:2.2536px;stroke-dasharray:10.819355964660645,10.819355964660645"/><polyline points="43.36 3.96 49.36 3.96 49.36 9.96" style="fill:none;stroke:#787878;stroke-linejoin:round;stroke-width:2.2536px"/><line x1="49.36" y1="20.78" x2="49.36" y2="37.01" style="fill:none;stroke:#787878;stroke-linejoin:round;stroke-width:2.2536px;stroke-dasharray:10.819355964660645,10.819355964660645"/><rect x="46.02" y="36.29" width="6.69" height="26.61" rx="2.84" transform="translate(-20.61 49.43) rotate(-45)" style="fill:#cdcece;stroke:#787878;stroke-linecap:round;stroke-linejoin:round;stroke-width:2.2536px"/><circle cx="36.64" cy="35.73" r="16.25" style="fill:#cdcece;stroke:#787878;stroke-linecap:round;stroke-linejoin:round;stroke-width:2.2536px"/><circle cx="36.64" cy="35.73" r="11.73" style="fill:#d0e5f6;stroke:#787878;stroke-linecap:round;stroke-linejoin:round;stroke-width:2.2536px"/><path d="M30.1,36.93a7.83,7.83,0,0,1,14.07-4.74A7.83,7.83,0,1,0,30.71,40,7.79,7.79,0,0,1,30.1,36.93Z" style="fill:#47b1d8"/></svg>
