<svg id="Layer_1" data-name="Layer 1" xmlns="http://www.w3.org/2000/svg" viewBox="0 0 64 64"><path d="M38.85,18.2l9.31-14L57.49,18.2h-5V39.46H43.8V18.2Z" style="fill:#f3c017"/><path d="M52.54,40.58H43.8a1.12,1.12,0,0,1-1.12-1.12V19.33H38.85a1.12,1.12,0,0,1-.93-1.75l9.31-14a1.12,1.12,0,0,1,.93-.5h0a1.14,1.14,0,0,1,.94.5l9.33,14.05a1.13,1.13,0,0,1-.94,1.75H53.67V39.46A1.13,1.13,0,0,1,52.54,40.58Zm-7.61-2.25h6.48V18.2a1.14,1.14,0,0,1,1.13-1.13h2.85L48.17,6.19,41,17.07H43.8a1.14,1.14,0,0,1,1.13,1.13Z" style="fill:#6f6f59"/><path d="M17.6,58.79l-14-9.31L17.6,40.16V45.1H38.85v8.74H17.6Z" style="fill:#de4130"/><path d="M17.6,59.91a1.12,1.12,0,0,1-.62-.18l-14-9.31a1.15,1.15,0,0,1-.5-.94,1.14,1.14,0,0,1,.5-.94L17,39.22a1.12,1.12,0,0,1,1.75.94V44H38.85A1.12,1.12,0,0,1,40,45.1v8.74A1.13,1.13,0,0,1,38.85,55H18.73v3.82a1.13,1.13,0,0,1-1.13,1.12Zm-12-10.43,10.88,7.21V53.84a1.14,1.14,0,0,1,1.13-1.13H37.73V46.23H17.6a1.13,1.13,0,0,1-1.13-1.13V42.26Z" style="fill:#6f6f59"/><rect x="39.03" y="39.46" width="18.46" height="18.46" transform="translate(96.52 97.37) rotate(-180)" style="fill:#a7d28c"/><path d="M57.49,59H39a1.12,1.12,0,0,1-1.13-1.12V39.46A1.12,1.12,0,0,1,39,38.33H57.49a1.13,1.13,0,0,1,1.13,1.13V57.92A1.13,1.13,0,0,1,57.49,59ZM40.15,56.79H56.36V40.58H40.15Z" style="fill:#6f6f59"/><path d="M14,20.61h4.57v3.2H14v5.26H10.47V23.81H5.88v-3.2h4.59v-5H14Z" style="fill:#787878"/><path d="M24.69,28.08h8.48v2.84H20.32V29L28.55,15.3H20.34V12.44H33v1.85Z" style="fill:#787878"/></svg>
