#define checked_win32_width 9
#define checked_win32_height 9
static unsigned char checked_win32_bits[] = {
   0x40, 0x00, 0x60, 0x00, 0x71, 0x00, 0x3b, 0x00, 0x1f, 0x00, 0x0e, 0x00,
   0x04, 0x00, 0x00, 0x00, 0x00, 0x00};
