<?xml version="1.0" encoding="UTF-8" standalone="no"?>
<!-- Created with Inkscape (http://www.inkscape.org/) -->
<svg
   xmlns:dc="http://purl.org/dc/elements/1.1/"
   xmlns:cc="http://creativecommons.org/ns#"
   xmlns:rdf="http://www.w3.org/1999/02/22-rdf-syntax-ns#"
   xmlns:svg="http://www.w3.org/2000/svg"
   xmlns="http://www.w3.org/2000/svg"
   xmlns:xlink="http://www.w3.org/1999/xlink"
   xmlns:sodipodi="http://sodipodi.sourceforge.net/DTD/sodipodi-0.dtd"
   xmlns:inkscape="http://www.inkscape.org/namespaces/inkscape"
   width="450"
   height="342"
   id="svg2"
   sodipodi:version="0.32"
   inkscape:version="0.46"
   sodipodi:docname="SplashScreen.svg"
   inkscape:output_extension="org.inkscape.output.svg.inkscape"
   version="1.0">
  <defs
     id="defs4">
    <inkscape:perspective
       sodipodi:type="inkscape:persp3d"
       inkscape:vp_x="0 : 526.18109 : 1"
       inkscape:vp_y="0 : 1000 : 0"
       inkscape:vp_z="744.09448 : 526.18109 : 1"
       inkscape:persp3d-origin="372.04724 : 350.78739 : 1"
       id="perspective10" />
    <inkscape:perspective
       id="perspective2447"
       inkscape:persp3d-origin="372.04724 : 350.78739 : 1"
       inkscape:vp_z="744.09448 : 526.18109 : 1"
       inkscape:vp_y="0 : 1000 : 0"
       inkscape:vp_x="0 : 526.18109 : 1"
       sodipodi:type="inkscape:persp3d" />
    <inkscape:perspective
       id="perspective2487"
       inkscape:persp3d-origin="372.04724 : 350.78739 : 1"
       inkscape:vp_z="744.09448 : 526.18109 : 1"
       inkscape:vp_y="0 : 1000 : 0"
       inkscape:vp_x="0 : 526.18109 : 1"
       sodipodi:type="inkscape:persp3d" />
    <inkscape:perspective
       id="perspective3315"
       inkscape:persp3d-origin="372.04724 : 350.78739 : 1"
       inkscape:vp_z="744.09448 : 526.18109 : 1"
       inkscape:vp_y="0 : 1000 : 0"
       inkscape:vp_x="0 : 526.18109 : 1"
       sodipodi:type="inkscape:persp3d" />
  </defs>
  <sodipodi:namedview
     id="base"
     pagecolor="#ffffff"
     bordercolor="#666666"
     borderopacity="1.0"
     gridtolerance="10000"
     guidetolerance="10"
     objecttolerance="10"
     inkscape:pageopacity="0.0"
     inkscape:pageshadow="2"
     inkscape:zoom="1.6521739"
     inkscape:cx="210.52271"
     inkscape:cy="171.0151"
     inkscape:document-units="px"
     inkscape:current-layer="layer7"
     showgrid="false"
     inkscape:window-width="1531"
     inkscape:window-height="1158"
     inkscape:window-x="974"
     inkscape:window-y="125"
     units="in" />
  <metadata
     id="metadata7">
    <rdf:RDF>
      <cc:Work
         rdf:about="">
        <dc:format>image/svg+xml</dc:format>
        <dc:type
           rdf:resource="http://purl.org/dc/dcmitype/StillImage" />
      </cc:Work>
    </rdf:RDF>
  </metadata>
  <g
     inkscape:groupmode="layer"
     id="layer1"
     inkscape:label="Background"
     style="display:inline">
    <rect
       style="opacity:1;fill:#ffffff;fill-opacity:1;stroke:none;stroke-width:5;stroke-linecap:butt;stroke-linejoin:miter;stroke-miterlimit:4;stroke-dasharray:none;stroke-opacity:1"
       id="rect3232"
       width="446.22482"
       height="339.01007"
       x="1.5100671"
       y="1.4798658" />
  </g>
  <g
     inkscape:groupmode="layer"
     id="layer7"
     inkscape:label="SNL Logo"
     style="display:inline">
    <image
       style="display:inline"
       y="26.184212"
       x="21.590689"
       id="image3317"
       height="39.066242"
       width="255.46259"
       sodipodi:absref="/Users/tshead/src/vtksnl/vtkSNL/Applications/OverView/Branding/OverView/snllineblk.tif.tiff"
       xlink:href="snllineblk.tif.tiff" />
  </g>
  <g
     inkscape:groupmode="layer"
     id="layer6"
     inkscape:label="Blue"
     style="display:inline">
    <path
       sodipodi:type="arc"
       style="fill:#0c07ff;fill-opacity:1;stroke:none;stroke-width:6.5999999;stroke-miterlimit:4;stroke-dasharray:none;stroke-opacity:1;display:inline"
       id="path3239"
       sodipodi:cx="290.31207"
       sodipodi:cy="400.32104"
       sodipodi:rx="45.925659"
       sodipodi:ry="47.267307"
       d="M 336.23773,400.32104 A 45.925659,47.267307 0 1 1 244.38641,400.32104 A 45.925659,47.267307 0 1 1 336.23773,400.32104 z"
       transform="matrix(0.6244521,0,0,0.6244521,-103.50083,-84.973559)" />
  </g>
  <g
     inkscape:groupmode="layer"
     id="layer5"
     inkscape:label="Green"
     style="display:inline">
    <path
       style="fill:#18b500;fill-opacity:1;fill-rule:evenodd;stroke:#ffffff;stroke-width:2.61223936;stroke-linecap:butt;stroke-linejoin:miter;stroke-miterlimit:4;stroke-dasharray:none;stroke-opacity:1;display:inline"
       d="M 54.808621,178.821 C 66.415401,185.64568 67.506121,160.5739 73.163641,171.69923 C 87.890039,200.65823 80.123789,165.68933 88.322589,163.5397 C 92.826539,162.35882 94.539999,172.69755 105.55039,173.74616 L 95.765549,140.51836 L 77.462941,132.91376 L 60.320361,140.90504 L 53.746889,160.23878 L 54.808621,178.821 z"
       id="path3241"
       sodipodi:nodetypes="csscccccc" />
    <path
       style="font-size:12px;font-style:normal;font-weight:bold;line-height:125%;fill:#000000;fill-opacity:1;stroke:none;stroke-width:1px;stroke-linecap:butt;stroke-linejoin:miter;stroke-opacity:1;font-family:Bitstream Vera Sans;-inkscape-font-specification:Sans Bold"
       d="M 118.71081,162.11879 L 138.36315,162.11879 L 138.36315,165.24769 L 136.74597,165.24769 C 135.45689,165.24772 134.57798,165.41178 134.10925,165.73988 C 133.64048,166.06803 133.40611,166.53678 133.40612,167.14613 C 133.40611,167.80241 133.66392,168.59928 134.17956,169.53675 L 142.61706,185.18129 L 149.96472,170.55629 C 150.33968,169.82975 150.52718,169.10319 150.52722,168.3766 C 150.52718,166.38444 148.86312,165.34147 145.53503,165.24769 L 145.53503,162.11879 L 159.91394,162.11879 L 159.91394,165.24769 C 158.60139,165.38835 157.59358,165.70475 156.8905,166.19691 C 156.18733,166.66569 155.55452,167.45085 154.99206,168.55238 L 141.21081,196.18519 L 138.67956,196.18519 L 123.49206,168.23597 C 122.81237,166.99381 122.20299,166.18522 121.66394,165.81019 C 121.14831,165.43522 120.4569,165.24772 119.58972,165.24769 L 118.71081,165.24769 L 118.71081,162.11879 M 194.82282,178.78285 L 171.72517,178.78285 C 171.79546,183.40005 172.72124,186.8102 174.50251,189.01332 C 176.30718,191.19301 178.61577,192.28285 181.42829,192.28285 C 183.44389,192.28285 185.35404,191.72035 187.15876,190.59535 C 188.96342,189.47035 190.81498,187.43129 192.71345,184.47816 L 195.27985,186.06019 C 193.28763,189.57582 191.00248,192.09535 188.42438,193.61879 C 185.86967,195.11879 182.74077,195.86879 179.03767,195.86879 C 173.64702,195.86879 169.28765,194.22816 165.95954,190.94691 C 162.63141,187.66567 160.96735,183.45864 160.96735,178.32582 C 160.96735,173.19303 162.64313,168.90397 165.9947,165.45863 C 169.34625,162.01335 173.45952,160.2907 178.33454,160.29066 C 181.70952,160.2907 184.60404,160.9821 187.01813,162.36488 C 189.4556,163.74772 191.34232,165.77507 192.67829,168.44691 C 194.03763,171.09537 194.75247,174.54068 194.82282,178.78285 M 171.72517,175.61879 L 182.72907,175.61879 C 183.7603,175.61881 184.49858,175.36099 184.94392,174.84535 C 185.3892,174.32974 185.61186,173.39225 185.61188,172.03285 C 185.61186,169.31412 184.99076,167.21647 183.7486,165.73988 C 182.50639,164.23991 180.92436,163.48991 179.00251,163.48988 C 176.72905,163.48991 174.98296,164.49772 173.76423,166.51332 C 172.5689,168.52897 171.88921,171.56412 171.72517,175.61879 M 221.23575,191.7555 L 221.23575,195.02504 L 198.24356,195.02504 L 198.24356,191.7555 L 201.09122,191.7555 C 202.26309,191.75551 203.11856,191.53285 203.65763,191.08754 C 204.19668,190.61879 204.46621,189.9977 204.46622,189.22425 L 204.46622,169.74769 C 204.46621,168.17741 204.10293,167.02897 203.37638,166.30238 C 202.67324,165.57585 201.67715,165.21257 200.3881,165.21254 L 198.52481,165.21254 L 198.52481,162.11879 L 212.58731,161.3805 L 212.58731,172.10316 C 213.40761,168.51725 214.83729,165.76335 216.87638,163.84144 C 218.91542,161.9196 221.21229,160.95866 223.767,160.95863 C 225.94666,160.95866 227.66931,161.5446 228.93497,162.71644 C 230.20056,163.86491 230.83337,165.35319 230.83341,167.18129 C 230.83337,168.75162 230.38806,170.02897 229.49747,171.01332 C 228.63025,171.97428 227.56384,172.45475 226.29825,172.45472 C 225.17322,172.45475 224.20057,172.03287 223.38028,171.1891 C 222.58338,170.34537 222.18494,169.26725 222.18497,167.95472 C 222.18494,167.22819 222.38416,166.46647 222.78263,165.66957 C 222.99354,165.22428 223.099,164.90788 223.09903,164.72035 C 223.099,164.39225 223.01697,164.15788 222.85294,164.01722 C 222.71229,163.85319 222.47791,163.77116 222.14981,163.77113 C 221.30604,163.77116 220.38026,164.26335 219.37247,165.24769 C 217.82557,166.77116 216.52479,169.15006 215.47013,172.38441 C 214.41542,175.59537 213.88808,178.84146 213.8881,182.12269 L 213.8881,189.22425 C 213.88808,190.04457 214.11073,190.67738 214.55606,191.12269 C 215.00136,191.54457 215.62245,191.75551 216.41935,191.7555 L 221.23575,191.7555 M 231.74747,143.02894 L 257.2006,143.02894 L 257.2006,146.29847 L 254.42325,146.29847 C 252.52479,146.29852 251.25917,146.48602 250.62638,146.86097 C 250.01698,147.23602 249.7123,147.72821 249.71231,148.33754 C 249.7123,148.90008 249.98183,149.83758 250.52091,151.15004 L 263.52872,182.65004 L 274.21622,155.7555 C 274.94274,153.95086 275.30602,152.27508 275.30606,150.72816 C 275.30602,149.27508 274.87243,148.17352 274.00528,147.42347 C 273.13805,146.67352 271.82556,146.29852 270.06778,146.29847 L 267.71231,146.29847 L 267.71231,143.02894 L 287.82169,143.02894 L 287.82169,146.29847 L 286.30997,146.29847 C 285.02086,146.29852 283.8607,146.74383 282.8295,147.63441 C 281.82164,148.52508 280.84898,150.11883 279.91153,152.41566 L 262.19278,196.15004 L 257.97403,196.15004 L 238.98966,150.20082 C 238.35684,148.63055 237.63028,147.58758 236.80997,147.07191 C 235.98965,146.55633 234.66544,146.29852 232.83731,146.29847 L 231.74747,146.29847 L 231.74747,143.02894 M 296.86744,143.13441 C 298.43774,143.13446 299.7854,143.69696 300.91041,144.82191 C 302.03539,145.92352 302.59789,147.27118 302.59791,148.86488 C 302.59789,150.45867 302.03539,151.81805 300.91041,152.943 C 299.7854,154.04461 298.43774,154.59539 296.86744,154.59535 C 295.27368,154.59539 293.91431,154.03289 292.78932,152.90785 C 291.66431,151.78289 291.10181,150.43524 291.10182,148.86488 C 291.10181,147.27118 291.66431,145.92352 292.78932,144.82191 C 293.91431,143.69696 295.27368,143.13446 296.86744,143.13441 M 287.83229,162.11879 L 302.45729,161.45082 L 302.45729,189.40004 C 302.45727,190.15004 302.69164,190.73598 303.16041,191.15785 C 303.65258,191.55629 304.39086,191.75551 305.37525,191.7555 L 307.5901,191.7555 L 307.5901,195.02504 L 287.83229,195.02504 L 287.83229,191.7555 L 290.01197,191.7555 C 291.18384,191.75551 292.00415,191.48598 292.47291,190.94691 C 292.96509,190.40785 293.21118,189.47035 293.21119,188.13441 L 293.21119,169.07972 C 293.21118,167.88444 292.85962,166.95866 292.1565,166.30238 C 291.47681,165.64616 290.52759,165.31803 289.30885,165.318 L 287.83229,165.318 L 287.83229,162.11879 M 345.01879,178.78285 L 321.92114,178.78285 C 321.99144,183.40005 322.91722,186.8102 324.69848,189.01332 C 326.50315,191.19301 328.81174,192.28285 331.62426,192.28285 C 333.63986,192.28285 335.55002,191.72035 337.35473,190.59535 C 339.15939,189.47035 341.01095,187.43129 342.90942,184.47816 L 345.47583,186.06019 C 343.4836,189.57582 341.19845,192.09535 338.62036,193.61879 C 336.06564,195.11879 332.93674,195.86879 329.23364,195.86879 C 323.843,195.86879 319.48363,194.22816 316.15551,190.94691 C 312.82738,187.66567 311.16332,183.45864 311.16333,178.32582 C 311.16332,173.19303 312.8391,168.90397 316.19067,165.45863 C 319.54222,162.01335 323.6555,160.2907 328.53051,160.29066 C 331.90549,160.2907 334.80002,160.9821 337.21411,162.36488 C 339.65157,163.74772 341.53829,165.77507 342.87426,168.44691 C 344.2336,171.09537 344.94844,174.54068 345.01879,178.78285 M 321.92114,175.61879 L 332.92504,175.61879 C 333.95627,175.61881 334.69455,175.36099 335.13989,174.84535 C 335.58517,174.32974 335.80783,173.39225 335.80786,172.03285 C 335.80783,169.31412 335.18674,167.21647 333.94458,165.73988 C 332.70236,164.23991 331.12033,163.48991 329.19848,163.48988 C 326.92502,163.48991 325.17893,164.49772 323.9602,166.51332 C 322.76487,168.52897 322.08519,171.56412 321.92114,175.61879 M 347.70083,162.11879 L 364.6813,162.11879 L 364.6813,165.21254 L 363.69693,165.21254 C 362.61878,165.21257 361.86878,165.36491 361.44693,165.66957 C 361.04847,165.95085 360.84925,166.32585 360.84927,166.79457 C 360.84925,167.12272 360.93128,167.46256 361.09536,167.8141 L 367.98599,183.03675 L 373.92739,168.86879 C 372.96643,167.06413 372.22815,166.02116 371.71255,165.73988 C 371.12659,165.38835 370.14221,165.21257 368.75943,165.21254 L 368.75943,162.11879 L 387.1813,162.11879 L 387.1813,165.21254 L 386.09146,165.21254 C 384.96642,165.21257 384.19298,165.37663 383.77114,165.70472 C 383.34923,166.00944 383.13829,166.4196 383.13833,166.93519 C 383.13829,167.54459 383.30235,168.18913 383.63052,168.86879 L 390.13443,183.03675 L 395.75943,169.29066 C 395.9,168.89225 395.97031,168.47038 395.97036,168.02504 C 395.97031,167.15788 395.72422,166.47819 395.23208,165.98597 C 394.76328,165.47038 394.14219,165.21257 393.3688,165.21254 L 392.03286,165.21254 L 392.03286,162.11879 L 405.14614,162.11879 L 405.14614,165.21254 C 402.42734,165.40007 400.49374,166.90006 399.34536,169.71254 L 388.72818,196.15004 L 386.09146,196.15004 L 375.9313,173.4391 L 366.68521,196.15004 L 364.01333,196.15004 L 351.46255,167.8141 C 350.99379,166.80631 350.51333,166.13835 350.02114,165.81019 C 349.55239,165.45866 348.77895,165.25944 347.70083,165.21254 L 347.70083,162.11879"
       id="text2419" />
  </g>
  <g
     inkscape:groupmode="layer"
     id="layer4"
     inkscape:label="Red"
     style="display:inline">
    <path
       style="fill:#ff0707;fill-opacity:1;fill-rule:evenodd;stroke:#ffffff;stroke-width:2.61223936;stroke-linecap:butt;stroke-linejoin:miter;stroke-miterlimit:4;stroke-dasharray:none;stroke-opacity:1;display:inline"
       d="M 50.306146,161.11919 C 62.111751,165.82258 69.585141,150.22237 72.514831,156.92257 C 81.953619,178.50912 76.294411,154.68552 83.450949,151.50036 C 89.371519,148.8653 93.515429,156.05089 101.37998,156.22566 L 99.761199,143.35399 L 82.231929,133.42933 L 66.120481,134.84714 L 52.071303,158.17651 L 50.306146,161.11919 z"
       id="path3237"
       sodipodi:nodetypes="csscccccc" />
  </g>
  <g
     inkscape:groupmode="layer"
     id="layer3"
     inkscape:label="Outline">
    <path
       style="font-size:14.34291458px;font-style:normal;font-weight:bold;line-height:125%;fill:none;fill-opacity:1;stroke:#ffffff;stroke-width:6.26937485;stroke-linecap:butt;stroke-linejoin:miter;stroke-miterlimit:4;stroke-dasharray:none;stroke-opacity:1;display:inline;font-family:Bitstream Vera Sans;-inkscape-font-specification:Sans Bold"
       d="M 77.804811,131.05801 C 83.922449,131.05808 89.557149,132.53628 94.708919,135.4926 C 99.889879,138.44904 103.91466,142.48847 106.7833,147.61088 C 109.68108,152.70411 111.13001,158.4559 111.13008,164.86624 C 111.13001,174.61357 107.93945,182.73632 101.55839,189.23451 C 95.206479,195.73272 87.317899,198.98182 77.892621,198.98182 C 71.628561,198.98182 66.008491,197.50363 61.032421,194.54723 C 56.08557,191.59086 52.177869,187.60997 49.309303,182.60459 C 46.440721,177.56996 45.006434,171.73036 45.006439,165.08578 C 45.006434,155.22143 48.153083,147.08404 54.446398,140.6736 C 60.739681,134.26328 68.525811,131.05808 77.804811,131.05801 M 78.068251,135.27307 C 74.584951,135.27313 71.555381,136.23908 68.979551,138.17091 C 66.432931,140.0736 64.398581,143.16171 62.876501,147.43524 C 61.383651,151.70888 60.637241,157.56312 60.637251,164.99796 C 60.637241,172.8134 61.325111,178.74081 62.700871,182.78022 C 64.105871,186.79038 66.140211,189.7614 68.803921,191.69329 C 71.467571,193.6252 74.570311,194.59114 78.112161,194.59113 C 83.351659,194.59114 87.537439,192.3519 90.669499,187.87341 C 93.801469,183.36565 95.367479,175.55025 95.367529,164.42718 C 95.367479,156.64108 94.694239,150.80148 93.347819,146.90837 C 92.001289,142.98608 89.996209,140.0736 87.332589,138.17091 C 84.668859,136.23908 81.580749,135.27313 78.068251,135.27307"
       id="text3231" />
  </g>
  <g
     inkscape:groupmode="layer"
     id="layer2"
     inkscape:label="Foreground"
     style="display:inline">
    <path
       style="font-size:14.34291458px;font-style:normal;font-weight:bold;line-height:125%;fill:#000000;fill-opacity:1;stroke:none;stroke-width:1px;stroke-linecap:butt;stroke-linejoin:miter;stroke-opacity:1;font-family:Bitstream Vera Sans;-inkscape-font-specification:Sans Bold"
       d="M 77.804811,131.05801 C 83.922449,131.05808 89.557149,132.53628 94.708919,135.4926 C 99.889879,138.44904 103.91466,142.48847 106.7833,147.61088 C 109.68108,152.70411 111.13001,158.4559 111.13008,164.86624 C 111.13001,174.61357 107.93945,182.73632 101.55839,189.23451 C 95.206479,195.73272 87.317899,198.98182 77.892621,198.98182 C 71.628561,198.98182 66.008491,197.50363 61.032421,194.54723 C 56.08557,191.59086 52.177869,187.60997 49.309303,182.60459 C 46.440721,177.56996 45.006434,171.73036 45.006439,165.08578 C 45.006434,155.22143 48.153083,147.08404 54.446398,140.6736 C 60.739681,134.26328 68.525811,131.05808 77.804811,131.05801 M 78.068251,135.27307 C 74.584951,135.27313 71.555381,136.23908 68.979551,138.17091 C 66.432931,140.0736 64.398581,143.16171 62.876501,147.43524 C 61.383651,151.70888 60.637241,157.56312 60.637251,164.99796 C 60.637241,172.8134 61.325111,178.74081 62.700871,182.78022 C 64.105871,186.79038 66.140211,189.7614 68.803921,191.69329 C 71.467571,193.6252 74.570311,194.59114 78.112161,194.59113 C 83.351659,194.59114 87.537439,192.3519 90.669499,187.87341 C 93.801469,183.36565 95.367479,175.55025 95.367529,164.42718 C 95.367479,156.64108 94.694239,150.80148 93.347819,146.90837 C 92.001289,142.98608 89.996209,140.0736 87.332589,138.17091 C 84.668859,136.23908 81.580749,135.27313 78.068251,135.27307"
       id="text2453" />
  </g>
</svg>
