<?xml version="1.0" encoding="utf-8"?>
<!-- Generator: Adobe Illustrator 13.0.2, SVG Export Plug-In . SVG Version: 6.00 Build 14948)  -->
<!DOCTYPE svg PUBLIC "-//W3C//DTD SVG 1.1//EN" "http://www.w3.org/Graphics/SVG/1.1/DTD/svg11.dtd">
<svg version="1.1" id="Layer_1" xmlns="http://www.w3.org/2000/svg" xmlns:xlink="http://www.w3.org/1999/xlink" x="0px" y="0px"
	 width="19.318px" height="26.952px" viewBox="0 0 19.318 26.952" enable-background="new 0 0 19.318 26.952" xml:space="preserve">
<g>
	<linearGradient id="SVGID_1_" gradientUnits="userSpaceOnUse" x1="13.2935" y1="5.5039" x2="-0.5617" y2="25.2911">
		<stop  offset="0" style="stop-color:#FF0000"/>
		<stop  offset="0.0044" style="stop-color:#FF0500"/>
		<stop  offset="0.0489" style="stop-color:#FF3000"/>
		<stop  offset="0.092" style="stop-color:#FF5200"/>
		<stop  offset="0.1326" style="stop-color:#FF6B00"/>
		<stop  offset="0.1699" style="stop-color:#FF7A00"/>
		<stop  offset="0.2006" style="stop-color:#FF7F00"/>
		<stop  offset="0.2506" style="stop-color:#FF9200"/>
		<stop  offset="0.3497" style="stop-color:#FFB300"/>
		<stop  offset="0.4042" style="stop-color:#FFBF00"/>
		<stop  offset="0.4385" style="stop-color:#E3CA03"/>
		<stop  offset="0.5423" style="stop-color:#93EB0C"/>
		<stop  offset="0.5898" style="stop-color:#73F80F"/>
		<stop  offset="0.6159" style="stop-color:#6AF11D"/>
		<stop  offset="0.6649" style="stop-color:#54E041"/>
		<stop  offset="0.7315" style="stop-color:#2FC47B"/>
		<stop  offset="0.8084" style="stop-color:#00A0C6"/>
		<stop  offset="0.8916" style="stop-color:#1C64CB"/>
		<stop  offset="1" style="stop-color:#4210D2"/>
	</linearGradient>
	<path fill="url(#SVGID_1_)" stroke="#000000" d="M0.676,0.5h5.471v10.042H6.22c1.043-1.512,2.879-2.483,5.327-2.483
		c4.212,0,7.308,3.491,7.271,8.891c0,6.336-4.031,9.502-8.062,9.502c-2.052,0-4.032-0.756-5.292-2.842H5.392l-0.216,2.447H0.532
		c0.072-1.152,0.144-3.275,0.144-5.256V0.5z M6.147,18.569c0,0.361,0.036,0.685,0.108,0.973c0.36,1.476,1.62,2.592,3.204,2.592
		c2.339,0,3.779-1.8,3.779-4.968c0-2.735-1.224-4.895-3.779-4.895c-1.477,0-2.844,1.116-3.204,2.7
		c-0.072,0.323-0.108,0.647-0.108,1.008V18.569z"/>
</g>
</svg>
