<?xml version="1.0" encoding="utf-8"?>
<!-- Generator: Adobe Illustrator 13.0.2, SVG Export Plug-In . SVG Version: 6.00 Build 14948)  -->
<!DOCTYPE svg PUBLIC "-//W3C//DTD SVG 1.1//EN" "http://www.w3.org/Graphics/SVG/1.1/DTD/svg11.dtd">
<svg version="1.1" id="Layer_1" xmlns="http://www.w3.org/2000/svg" xmlns:xlink="http://www.w3.org/1999/xlink" x="0px" y="0px"
	 width="17.738px" height="19.393px" viewBox="0 0 17.738 19.393" enable-background="new 0 0 17.738 19.393" xml:space="preserve">
<g>
	<linearGradient id="SVGID_1_" gradientUnits="userSpaceOnUse" x1="15.0815" y1="2.6001" x2="4.525" y2="17.6764">
		<stop  offset="0" style="stop-color:#FF0000"/>
		<stop  offset="0.0044" style="stop-color:#FF0500"/>
		<stop  offset="0.0489" style="stop-color:#FF3000"/>
		<stop  offset="0.092" style="stop-color:#FF5200"/>
		<stop  offset="0.1326" style="stop-color:#FF6B00"/>
		<stop  offset="0.1699" style="stop-color:#FF7A00"/>
		<stop  offset="0.2006" style="stop-color:#FF7F00"/>
		<stop  offset="0.2506" style="stop-color:#FF9200"/>
		<stop  offset="0.3497" style="stop-color:#FFB300"/>
		<stop  offset="0.4042" style="stop-color:#FFBF00"/>
		<stop  offset="0.4385" style="stop-color:#E3CA03"/>
		<stop  offset="0.5423" style="stop-color:#93EB0C"/>
		<stop  offset="0.5898" style="stop-color:#73F80F"/>
		<stop  offset="0.6159" style="stop-color:#6AF11D"/>
		<stop  offset="0.6649" style="stop-color:#54E041"/>
		<stop  offset="0.7315" style="stop-color:#2FC47B"/>
		<stop  offset="0.8084" style="stop-color:#00A0C6"/>
		<stop  offset="0.8916" style="stop-color:#1C64CB"/>
		<stop  offset="1" style="stop-color:#4210D2"/>
	</linearGradient>
	<path fill="url(#SVGID_1_)" stroke="#000000" d="M5.719,11.443c0.18,2.268,2.412,3.347,4.968,3.347c1.871,0,3.383-0.252,4.859-0.72
		l0.72,3.708c-1.8,0.72-3.995,1.115-6.372,1.115c-5.975,0-9.394-3.491-9.394-8.999C0.5,5.431,3.271,0.5,9.391,0.5
		c5.687,0,7.847,4.427,7.847,8.783c0,0.936-0.108,1.764-0.18,2.16H5.719z M12.163,7.699c0-1.332-0.576-3.563-3.096-3.563
		c-2.304,0-3.24,2.088-3.384,3.563H12.163z"/>
</g>
</svg>
